<svg version="1.2" xmlns="http://www.w3.org/2000/svg" viewBox="0 0 1080 1080" width="1080" height="1080">
	<title>2_small</title>
	<style>
		.s0 { fill: #ffcb66 } 
		.s1 { fill: #1a1a1a } 
	</style>
	<g id="Layer 1">
		<g id="&lt;Group&gt;">
			<g id="&lt;Group&gt;">
				<path id="&lt;Path&gt;" class="s0" d="m304.8 92.7c-2.7 0-4.1-1.3-5.4-2.7-2-1.3-2.7-3.4-2.7-5.4 0-2 0.7-4 2.7-5.4 1.3-1.3 2.7-2 5.4-2 2 0 4 0.7 5.4 2 1.3 1.4 2 3.4 2 5.4q0 3.4-2 5.4c-1.4 1.4-3.4 2.7-5.4 2.7z"/>
				<path id="&lt;Path&gt;" class="s0" d="m369.9 68.4c-2.1 0-4.1-0.7-5.5-2-1.3-1.7-2-3.4-2-5.8 0-2.1 0.7-3.8 2-5.5 1.4-1.3 3.4-2 5.5-2 2.4 0 4.1 0.7 5.8 2 1.3 1.7 2 3.4 2 5.5 0 2.4-0.7 4.1-2 5.8-1.7 1.3-3.4 2-5.8 2z"/>
				<path id="&lt;Path&gt;" class="s0" d="m439.2 52.5c-2.3 0-4.1-1-5.5-2.3-1.6-1.4-2.3-3.2-2.3-5.5 0-2.1 0.7-4.1 2.3-5.5 1.4-1.4 3.2-2.3 5.5-2.3 2.1 0 4.1 0.9 5.5 2.3 1.4 1.4 2.3 3.4 2.3 5.5 0 2.3-0.9 4.1-2.3 5.5-1.4 1.3-3.4 2.3-5.5 2.3z"/>
				<path id="&lt;Path&gt;" class="s0" d="m516.2 45.2c-2.2 0-4-0.8-5.4-2.1-1.5-1.5-2.3-3.4-2.3-5.4 0-2.2 0.8-4 2.3-5.5 1.4-1.4 3.2-2.2 5.4-2.2 2 0 4 0.8 5.4 2.2 1.3 1.5 2.1 3.3 2.1 5.5 0 2-0.8 3.9-2.1 5.4-1.4 1.3-3.4 2.1-5.4 2.1z"/>
				<path id="&lt;Path&gt;" class="s0" d="m584.7 47.6c-2.1 0-4-0.8-5.5-2.2-1.3-1.4-2.1-3.2-2.1-5.4 0-2 0.8-4 2.1-5.3 1.5-1.4 3.4-2.3 5.5-2.3 2 0 4 0.9 5.4 2.3 1.3 1.3 2.3 3.3 2.3 5.3 0 2.2-1 4-2.3 5.4-1.4 1.4-3.4 2.2-5.4 2.2z"/>
				<path id="&lt;Path&gt;" class="s0" d="m650.4 59.7c-2.1 0-4-1-5.5-2.4-1.3-1.4-2.3-3.3-2.3-5.5 0-2.1 1-4.1 2.3-5.4 1.5-1.4 3.4-2.3 5.5-2.3 2.1 0 4.1 0.9 5.5 2.3 1.4 1.3 2.3 3.3 2.3 5.4 0 2.2-0.9 4.1-2.3 5.5-1.4 1.4-3.4 2.4-5.5 2.4z"/>
				<path id="&lt;Path&gt;" class="s0" d="m717.6 80.7c-2.2 0-4.2-0.9-5.6-2.3-1.5-1.5-2.4-3.5-2.4-5.7 0-2.2 0.9-4.2 2.4-5.6 1.4-1.5 3.4-2.3 5.6-2.3 2.2 0 4.2 0.8 5.6 2.3 1.5 1.4 2.4 3.4 2.4 5.6 0 2.2-0.9 4.2-2.4 5.7-1.4 1.4-3.4 2.3-5.6 2.3z"/>
				<path id="&lt;Path&gt;" class="s0" d="m780.4 112.3c-2.5 0-4.8-1-6.5-2.7-1.6-1.6-2.6-3.9-2.6-6.4 0-2.5 1-4.8 2.6-6.4 1.7-1.7 4-2.7 6.5-2.7 2.5 0 4.8 1 6.4 2.7 1.7 1.6 2.7 3.9 2.7 6.4 0 2.5-1 4.8-2.7 6.4-1.6 1.7-3.9 2.7-6.4 2.7z"/>
				<path id="&lt;Path&gt;" class="s0" d="m838.5 152c-2.8 0-5.4-1.1-7.3-3-1.8-1.8-3-4.4-3-7.2 0-2.8 1.2-5.4 3-7.2 1.9-1.9 4.5-3 7.3-3 2.8 0 5.4 1.1 7.2 3 1.9 1.8 3 4.4 3 7.2 0 2.8-1.1 5.4-3 7.2-1.8 1.9-4.4 3-7.2 3z"/>
				<path id="&lt;Path&gt;" class="s0" d="m890.9 199.3c-3.2 0-6-1.3-8.1-3.4-2-2-3.3-4.9-3.3-8 0-3.2 1.3-6 3.3-8.1 2.1-2 4.9-3.3 8.1-3.3 3.1 0 5.9 1.3 8 3.3 2.1 2.1 3.3 4.9 3.3 8.1 0 3.1-1.2 6-3.3 8-2.1 2.1-4.9 3.4-8 3.4z"/>
				<path id="&lt;Path&gt;" class="s0" d="m936.6 253.1c-3.5 0-6.6-1.4-8.9-3.7-2.2-2.2-3.6-5.4-3.6-8.8 0-3.5 1.4-6.6 3.6-8.9 2.3-2.2 5.4-3.6 8.9-3.6 3.4 0 6.6 1.4 8.8 3.6 2.3 2.3 3.7 5.4 3.7 8.9 0 3.4-1.4 6.6-3.7 8.8-2.2 2.3-5.4 3.7-8.8 3.7z"/>
				<path id="&lt;Path&gt;" class="s0" d="m974.9 312.5c-3.7 0-7.1-1.5-9.6-4-2.5-2.5-4-5.9-4-9.7 0-3.7 1.5-7.1 4-9.6 2.5-2.5 5.9-4 9.6-4 3.8 0 7.2 1.5 9.7 4 2.5 2.5 4 5.9 4 9.6 0 3.8-1.5 7.2-4 9.7-2.5 2.5-5.9 4-9.7 4z"/>
				<path id="&lt;Path&gt;" class="s0" d="m1005.2 376.5c-4.1 0-7.8-1.7-10.4-4.3-2.7-2.7-4.4-6.4-4.4-10.5 0-4.1 1.7-7.8 4.4-10.5 2.6-2.6 6.3-4.3 10.4-4.3 4.1 0 7.8 1.7 10.5 4.3 2.7 2.7 4.3 6.4 4.3 10.5 0 4.1-1.6 7.8-4.3 10.5-2.7 2.6-6.4 4.3-10.5 4.3z"/>
				<path id="&lt;Path&gt;" class="s0" d="m1026.8 444c-4.4 0-8.4-1.8-11.3-4.7-2.9-2.9-4.7-6.8-4.7-11.2 0-4.4 1.8-8.4 4.7-11.3 2.9-2.9 6.9-4.7 11.3-4.7 4.4 0 8.3 1.8 11.2 4.7 2.9 2.9 4.7 6.9 4.7 11.3 0 4.4-1.8 8.3-4.7 11.2-2.9 2.9-6.8 4.7-11.2 4.7z"/>
				<path id="&lt;Path&gt;" class="s0" d="m1039.2 513.8c-4.7 0-9-1.9-12.1-5-3.1-3.1-5-7.4-5-12.1 0-4.7 1.9-9 5-12.1 3.1-3.1 7.4-5 12.1-5 4.7 0 9 1.9 12.1 5 3.1 3.1 5 7.4 5 12.1 0 4.7-1.9 9-5 12.1-3.1 3.1-7.4 5-12.1 5z"/>
				<path id="&lt;Path&gt;" class="s0" d="m1042.3 584.6c-5 0-9.6-2-12.9-5.3-3.3-3.3-5.3-7.9-5.3-12.9 0-5 2-9.6 5.3-12.9 3.3-3.3 7.9-5.3 12.9-5.3 5 0 9.6 2 12.9 5.3 3.3 3.3 5.3 7.9 5.3 12.9 0 5-2 9.6-5.3 12.9-3.3 3.3-7.9 5.3-12.9 5.3z"/>
				<path id="&lt;Path&gt;" class="s0" d="m1036.1 655.2c-5.3 0-10.2-2.1-13.7-5.6-3.5-3.5-5.7-8.4-5.7-13.7 0-5.4 2.2-10.2 5.7-13.7 3.5-3.5 8.4-5.7 13.7-5.7 5.3 0 10.2 2.2 13.7 5.7 3.5 3.5 5.6 8.3 5.6 13.7 0 5.3-2.1 10.2-5.6 13.7-3.5 3.5-8.4 5.6-13.7 5.6z"/>
				<path id="&lt;Path&gt;" class="s0" d="m1020.7 724.4c-5.6 0-10.8-2.3-14.5-6-3.7-3.7-6-8.8-6-14.5 0-5.6 2.3-10.7 6-14.5 3.7-3.7 8.9-6 14.5-6 5.7 0 10.8 2.3 14.5 6 3.7 3.8 6 8.9 6 14.5 0 5.7-2.3 10.8-6 14.5-3.7 3.7-8.8 6-14.5 6z"/>
				<path id="&lt;Path&gt;" class="s0" d="m996.4 791c-6 0-11.4-2.5-15.3-6.4-3.9-3.9-6.3-9.3-6.3-15.3 0-5.9 2.4-11.3 6.3-15.3 3.9-3.9 9.3-6.3 15.3-6.3 6 0 11.4 2.4 15.3 6.3 3.9 4 6.3 9.4 6.3 15.3 0 6-2.4 11.4-6.3 15.3-3.9 3.9-9.3 6.4-15.3 6.4z"/>
				<path id="&lt;Path&gt;" class="s0" d="m963.6 853.6c-6.3 0-12-2.5-16.1-6.6-4.1-4.1-6.7-9.8-6.7-16.1 0-6.3 2.6-12 6.7-16.1 4.1-4.1 9.8-6.7 16.1-6.7 6.3 0 12 2.6 16.1 6.7 4.1 4.1 6.6 9.8 6.6 16.1 0 6.3-2.5 12-6.6 16.1-4.1 4.1-9.8 6.6-16.1 6.6z"/>
				<path id="&lt;Path&gt;" class="s0" d="m922.8 911.4c-6.6 0-12.6-2.7-16.9-7-4.4-4.4-7-10.3-7-16.9 0-6.6 2.6-12.6 7-16.9 4.3-4.4 10.3-7 16.9-7 6.6 0 12.5 2.6 16.9 7 4.3 4.3 7 10.3 7 16.9 0 6.6-2.7 12.5-7 16.9-4.4 4.3-10.3 7-16.9 7z"/>
				<path id="&lt;Path&gt;" class="s0" d="m874.7 963.1c-6.9 0-13.2-2.8-17.7-7.4-4.5-4.5-7.3-10.7-7.3-17.7 0-6.9 2.8-13.1 7.3-17.7 4.5-4.5 10.8-7.3 17.7-7.3 6.9 0 13.2 2.8 17.7 7.3 4.5 4.6 7.3 10.8 7.3 17.7 0 7-2.8 13.2-7.3 17.7-4.5 4.6-10.8 7.4-17.7 7.4z"/>
				<path id="&lt;Path&gt;" class="s0" d="m820.4 1007.9c-7.2 0-13.8-3-18.5-7.7-4.7-4.8-7.7-11.3-7.7-18.5 0-7.3 3-13.8 7.7-18.5 4.7-4.8 11.3-7.7 18.5-7.7 7.2 0 13.8 2.9 18.5 7.7 4.8 4.7 7.7 11.2 7.7 18.5 0 7.2-2.9 13.7-7.7 18.5-4.7 4.7-11.3 7.7-18.5 7.7z"/>
			</g>
			<g id="&lt;Group&gt;">
				<path id="&lt;Path&gt;" class="s0" d="m243 182.5c-7.2 0-13.7-2.9-18.5-7.7-4.7-4.7-7.7-11.3-7.7-18.5 0-7.2 3-13.8 7.7-18.5 4.8-4.7 11.3-7.7 18.5-7.7 7.3 0 13.8 3 18.5 7.7 4.8 4.7 7.7 11.3 7.7 18.5 0 7.2-2.9 13.8-7.7 18.5-4.7 4.8-11.2 7.7-18.5 7.7z"/>
				<path id="&lt;Path&gt;" class="s0" d="m187.9 227.2c-6.9 0-13.2-2.8-17.7-7.3-4.5-4.5-7.3-10.8-7.3-17.6 0-6.9 2.8-13.1 7.3-17.7 4.5-4.5 10.8-7.3 17.7-7.3 6.8 0 13.1 2.8 17.6 7.3 4.5 4.6 7.3 10.8 7.3 17.7 0 6.8-2.8 13.1-7.3 17.6-4.5 4.5-10.8 7.3-17.6 7.3z"/>
				<path id="&lt;Path&gt;" class="s0" d="m139.9 278.5c-6.6 0-12.5-2.6-16.8-6.9-4.3-4.3-6.9-10.2-6.9-16.8 0-6.5 2.6-12.4 6.9-16.7 4.3-4.3 10.2-7 16.8-7 6.5 0 12.4 2.7 16.7 7 4.3 4.3 7 10.2 7 16.7 0 6.6-2.7 12.5-7 16.8-4.3 4.3-10.2 6.9-16.7 6.9z"/>
				<path id="&lt;Path&gt;" class="s0" d="m100.2 336.3c-6.2 0-11.8-2.5-15.9-6.6-4.1-4-6.6-9.6-6.6-15.8 0-6.2 2.5-11.8 6.6-15.9 4.1-4.1 9.7-6.6 15.9-6.6 6.2 0 11.8 2.5 15.8 6.6 4.1 4.1 6.6 9.7 6.6 15.9 0 6.2-2.5 11.8-6.6 15.8-4 4.1-9.6 6.6-15.8 6.6z"/>
				<path id="&lt;Path&gt;" class="s0" d="m69.5 399.3c-5.8 0-11.1-2.4-15-6.2-3.8-3.9-6.2-9.2-6.2-15 0-5.9 2.4-11.2 6.2-15 3.9-3.8 9.2-6.2 15-6.2 5.9 0 11.2 2.4 15 6.2 3.9 3.8 6.2 9.1 6.2 15 0 5.8-2.3 11.1-6.2 15-3.8 3.8-9.1 6.2-15 6.2z"/>
				<path id="&lt;Path&gt;" class="s0" d="m48.6 466c-5.5 0-10.5-2.2-14.1-5.8-3.6-3.6-5.9-8.6-5.9-14.1 0-5.5 2.3-10.5 5.9-14.1 3.6-3.6 8.6-5.9 14.1-5.9 5.5 0 10.5 2.3 14.1 5.9 3.6 3.6 5.8 8.6 5.8 14.1 0 5.5-2.2 10.5-5.8 14.1-3.6 3.6-8.6 5.8-14.1 5.8z"/>
				<path id="&lt;Path&gt;" class="s0" d="m37.7 535.1c-5.2 0-9.8-2.1-13.2-5.5-3.4-3.4-5.5-8-5.5-13.2 0-5.2 2.1-9.9 5.5-13.2 3.4-3.4 8-5.5 13.2-5.5 5.2 0 9.8 2.1 13.2 5.5 3.4 3.3 5.5 8 5.5 13.2 0 5.2-2.1 9.8-5.5 13.2-3.4 3.4-8 5.5-13.2 5.5z"/>
				<path id="&lt;Path&gt;" class="s0" d="m37.1 605c-4.8 0-9.2-2-12.3-5.1-3.2-3.2-5.1-7.5-5.1-12.4 0-4.8 1.9-9.1 5.1-12.3 3.1-3.2 7.5-5.1 12.3-5.1 4.8 0 9.2 1.9 12.4 5.1 3.1 3.2 5.1 7.5 5.1 12.3 0 4.9-2 9.2-5.1 12.4-3.2 3.1-7.6 5.1-12.4 5.1z"/>
				<path id="&lt;Path&gt;" class="s0" d="m46.9 674.2c-4.4 0-8.5-1.8-11.4-4.7-3-3-4.8-7-4.8-11.5 0-4.5 1.8-8.5 4.8-11.4 2.9-3 7-4.8 11.4-4.8 4.5 0 8.6 1.8 11.5 4.8 2.9 2.9 4.7 6.9 4.7 11.4 0 4.5-1.8 8.5-4.7 11.5-2.9 2.9-7 4.7-11.5 4.7z"/>
				<path id="&lt;Path&gt;" class="s0" d="m67 741.2c-4.1 0-7.9-1.6-10.6-4.3-2.7-2.7-4.4-6.5-4.4-10.6 0-4.2 1.7-7.9 4.4-10.6 2.7-2.7 6.5-4.4 10.6-4.4 4.1 0 7.9 1.7 10.6 4.4 2.7 2.7 4.4 6.4 4.4 10.6 0 4.1-1.7 7.9-4.4 10.6-2.7 2.7-6.5 4.3-10.6 4.3z"/>
				<path id="&lt;Path&gt;" class="s0" d="m96.9 804.6c-3.8 0-7.2-1.6-9.7-4.1-2.5-2.4-4-5.9-4-9.6 0-3.8 1.5-7.3 4-9.7 2.5-2.5 5.9-4.1 9.7-4.1 3.8 0 7.2 1.6 9.7 4.1 2.5 2.4 4 5.9 4 9.7 0 3.7-1.5 7.2-4 9.6-2.5 2.5-5.9 4.1-9.7 4.1z"/>
				<path id="&lt;Path&gt;" class="s0" d="m135.9 862.8c-3.5 0-6.6-1.3-8.8-3.6-2.3-2.3-3.7-5.4-3.7-8.8 0-3.5 1.4-6.6 3.7-8.8 2.2-2.3 5.3-3.7 8.8-3.7 3.4 0 6.6 1.4 8.8 3.7 2.3 2.2 3.7 5.3 3.7 8.8 0 3.4-1.4 6.5-3.7 8.8-2.2 2.3-5.4 3.6-8.8 3.6z"/>
				<path id="&lt;Path&gt;" class="s0" d="m183.1 914.8c-3.1 0-5.9-1.2-7.9-3.3-2-2-3.3-4.8-3.3-7.9 0-3.1 1.3-5.9 3.3-7.9 2-2.1 4.8-3.3 7.9-3.3 3.1 0 5.9 1.2 7.9 3.3 2.1 2 3.3 4.8 3.3 7.9 0 3.1-1.2 5.9-3.3 7.9-2 2.1-4.8 3.3-7.9 3.3z"/>
				<path id="&lt;Path&gt;" class="s0" d="m237.7 959.3c-2.8 0-5.3-1.1-7.1-2.9-1.8-1.8-2.9-4.3-2.9-7.1 0-2.7 1.1-5.2 2.9-7 1.8-1.8 4.3-3 7.1-3 2.7 0 5.2 1.2 7 3 1.8 1.8 2.9 4.3 2.9 7 0 2.8-1.1 5.3-2.9 7.1-1.8 1.8-4.3 2.9-7 2.9z"/>
				<path id="&lt;Path&gt;" class="s0" d="m298.3 995.2c-2.4 0-4.6-1-6.1-2.5-1.6-1.6-2.6-3.8-2.6-6.2 0-2.4 1-4.6 2.6-6.2 1.5-1.6 3.7-2.5 6.1-2.5 2.4 0 4.6 0.9 6.2 2.5 1.6 1.6 2.5 3.8 2.5 6.2 0 2.4-0.9 4.6-2.5 6.2-1.6 1.5-3.8 2.5-6.2 2.5z"/>
				<path id="&lt;Path&gt;" class="s0" d="m363.8 1021.9c-2.1 0-4-0.9-5.3-2.2-1.4-1.4-2.2-3.2-2.2-5.3 0-2.1 0.8-3.9 2.2-5.3 1.3-1.3 3.2-2.2 5.3-2.2 2 0 3.9 0.9 5.3 2.2 1.3 1.4 2.1 3.2 2.1 5.3 0 2.1-0.8 3.9-2.1 5.3-1.4 1.3-3.3 2.2-5.3 2.2z"/>
				<path id="&lt;Path&gt;" class="s0" d="m434 1041.4c-2.1 0-4-0.8-5.4-2.2-1.4-1.3-2.3-3.3-2.3-5.3 0-2.1 0.9-4.1 2.3-5.4 1.4-1.3 3.3-2.2 5.4-2.2 2.1 0 4 0.9 5.4 2.2 1.3 1.3 2.2 3.3 2.2 5.4 0 2-0.9 4-2.2 5.3-1.4 1.4-3.3 2.2-5.4 2.2z"/>
				<path id="&lt;Path&gt;" class="s0" d="m505.1 1054.3c-2.2 0-4-0.7-5.4-2.1-1.4-1.4-2.4-3.5-2.4-5.7 0-2 1-4 2.4-5.4 1.4-1.4 3.2-2.2 5.4-2.2 2.2 0 4.1 0.8 5.5 2.2 1.4 1.4 2.3 3.4 2.3 5.4 0 2.2-0.9 4.3-2.3 5.7-1.4 1.4-3.3 2.1-5.5 2.1z"/>
				<path id="&lt;Path&gt;" class="s0" d="m579.7 1055.6c-2.1 0-4.2-0.8-5.4-2.3-1.5-1.4-2.3-3.3-2.3-5.6 0-2.1 0.8-4 2.3-5.4 1.2-1.5 3.3-2.3 5.4-2.3 2.1 0 4.2 0.8 5.6 2.3 1.3 1.4 2.1 3.3 2.1 5.4 0 2.3-0.8 4.2-2.1 5.6-1.4 1.5-3.5 2.3-5.6 2.3z"/>
				<path id="&lt;Path&gt;" class="s0" d="m644.6 1045c-2.1 0-3.9-0.6-5.5-2.2-1.2-1.2-2.1-3.3-2.1-5.5 0-1.8 0.9-3.9 2.1-5.2 1.6-1.5 3.4-2.1 5.5-2.1 2.2 0 4 0.6 5.5 2.1 1.3 1.3 2.2 3.4 2.2 5.2 0 2.2-0.9 4.3-2.2 5.5-1.5 1.6-3.3 2.2-5.5 2.2z"/>
				<path id="&lt;Path&gt;" class="s0" d="m704.4 1028.3c-2.4 0-4.3-1.2-5.5-2.4-1.8-1.2-2.4-3.1-2.4-5.5 0-1.8 0.6-3.7 2.4-5.5q1.9-1.8 5.5-1.8c1.8 0 3.7 0.6 4.9 1.8 1.8 1.8 2.4 3.7 2.4 5.5 0 2.4-0.6 4.3-2.4 5.5-1.2 1.2-3.1 2.4-4.9 2.4z"/>
			</g>
			<g id="&lt;Group&gt;">
				<path id="&lt;Path&gt;" class="s1" d="m425.2 116c-0.3 0-0.7-0.1-0.9-0.3q-0.4-0.4-0.4-1c0-0.3 0.2-0.6 0.4-0.9 0.2-0.2 0.6-0.4 0.9-0.4 0.4 0 0.7 0.2 0.9 0.4 0.3 0.3 0.4 0.6 0.4 0.9 0 0.4-0.1 0.7-0.4 1q-0.3 0.3-0.9 0.3z"/>
				<path id="&lt;Path&gt;" class="s1" d="m493.8 107.8c-0.7 0-1.4-0.3-1.9-0.8-0.4-0.4-0.7-1.1-0.7-1.8 0-0.7 0.3-1.4 0.7-1.9 0.5-0.4 1.2-0.7 1.9-0.7 0.7 0 1.4 0.3 1.8 0.7 0.5 0.5 0.8 1.2 0.8 1.9 0 0.7-0.3 1.4-0.8 1.8-0.4 0.5-1.1 0.8-1.8 0.8z"/>
				<path id="&lt;Path&gt;" class="s1" d="m563 110.3c-1.1 0-2.1-0.5-2.8-1.2-0.7-0.7-1.1-1.7-1.1-2.8 0-1 0.4-2 1.1-2.7 0.7-0.8 1.7-1.2 2.8-1.2 1.1 0 2.1 0.4 2.8 1.2 0.7 0.7 1.1 1.7 1.1 2.7 0 1.1-0.4 2.1-1.1 2.8-0.7 0.7-1.7 1.2-2.8 1.2z"/>
				<path id="&lt;Path&gt;" class="s1" d="m631.2 123.3c-1.4 0-2.7-0.6-3.7-1.6-0.9-0.9-1.5-2.2-1.5-3.7 0-1.4 0.6-2.7 1.5-3.7 1-0.9 2.3-1.5 3.7-1.5 1.5 0 2.8 0.6 3.7 1.5 1 1 1.6 2.3 1.6 3.7 0 1.5-0.6 2.8-1.6 3.7-0.9 1-2.2 1.6-3.7 1.6z"/>
				<path id="&lt;Path&gt;" class="s1" d="m696.9 146.5c-1.8 0-3.5-0.7-4.6-1.9-1.2-1.2-2-2.8-2-4.6 0-1.8 0.8-3.4 2-4.6 1.1-1.2 2.8-1.9 4.6-1.9 1.8 0 3.4 0.7 4.6 1.9 1.2 1.2 1.9 2.8 1.9 4.6 0 1.8-0.7 3.4-1.9 4.6-1.2 1.2-2.8 1.9-4.6 1.9z"/>
				<path id="&lt;Path&gt;" class="s1" d="m758.5 179.5c-2.2 0-4.2-0.9-5.6-2.3-1.4-1.4-2.3-3.4-2.3-5.5 0-2.2 0.9-4.2 2.3-5.6 1.4-1.4 3.4-2.3 5.6-2.3 2.1 0 4.1 0.9 5.5 2.3 1.4 1.4 2.3 3.4 2.3 5.6 0 2.1-0.9 4.1-2.3 5.5-1.4 1.4-3.4 2.3-5.5 2.3z"/>
				<path id="&lt;Path&gt;" class="s1" d="m814.5 221.5c-2.6 0-4.9-1-6.5-2.7-1.7-1.6-2.7-3.9-2.7-6.5 0-2.5 1-4.8 2.7-6.4 1.6-1.7 3.9-2.7 6.5-2.7 2.5 0 4.8 1 6.4 2.7 1.7 1.6 2.7 3.9 2.7 6.4 0 2.6-1 4.9-2.7 6.5-1.6 1.7-3.9 2.7-6.4 2.7z"/>
				<path id="&lt;Path&gt;" class="s1" d="m863.6 271.6c-2.9 0-5.6-1.1-7.5-3-1.8-1.9-3-4.5-3-7.4 0-2.9 1.2-5.6 3-7.4 1.9-1.9 4.6-3.1 7.5-3.1 2.8 0 5.5 1.2 7.4 3.1 1.8 1.8 3 4.5 3 7.4 0 2.9-1.2 5.5-3 7.4-1.9 1.9-4.6 3-7.4 3z"/>
				<path id="&lt;Path&gt;" class="s1" d="m904.5 328.7c-3.2 0-6.2-1.3-8.3-3.4-2.1-2.1-3.5-5.1-3.5-8.3 0-3.3 1.4-6.2 3.5-8.4 2.1-2.1 5.1-3.4 8.3-3.4 3.3 0 6.2 1.3 8.4 3.4 2.1 2.2 3.4 5.1 3.4 8.4 0 3.2-1.3 6.2-3.4 8.3-2.2 2.1-5.1 3.4-8.4 3.4z"/>
				<path id="&lt;Path&gt;" class="s1" d="m936.5 391.5c-3.7 0-6.9-1.5-9.3-3.9-2.4-2.3-3.8-5.6-3.8-9.2 0-3.6 1.4-6.9 3.8-9.3 2.4-2.3 5.6-3.8 9.3-3.8 3.6 0 6.8 1.5 9.2 3.8 2.4 2.4 3.9 5.7 3.9 9.3 0 3.6-1.5 6.9-3.9 9.2-2.4 2.4-5.6 3.9-9.2 3.9z"/>
				<path id="&lt;Path&gt;" class="s1" d="m958.7 458.4c-4 0-7.6-1.7-10.2-4.3-2.6-2.6-4.2-6.2-4.2-10.1 0-4 1.6-7.6 4.2-10.2 2.6-2.6 6.2-4.2 10.2-4.2 4 0 7.6 1.6 10.2 4.2 2.6 2.6 4.2 6.2 4.2 10.2 0 3.9-1.6 7.5-4.2 10.1-2.6 2.6-6.2 4.3-10.2 4.3z"/>
				<path id="&lt;Path&gt;" class="s1" d="m970.5 527.9c-4.3 0-8.2-1.8-11.1-4.6-2.8-2.9-4.6-6.8-4.6-11.1 0-4.4 1.8-8.3 4.6-11.1 2.9-2.9 6.8-4.6 11.1-4.6 4.4 0 8.3 1.7 11.2 4.6 2.8 2.8 4.6 6.7 4.6 11.1 0 4.3-1.8 8.2-4.6 11.1-2.9 2.8-6.8 4.6-11.2 4.6z"/>
				<path id="&lt;Path&gt;" class="s1" d="m971.7 598.4c-4.7 0-8.9-1.9-12-5-3.1-3.1-5-7.3-5-12 0-4.7 1.9-9 5-12.1 3.1-3 7.3-4.9 12-4.9 4.7 0 9 1.9 12.1 4.9 3.1 3.1 5 7.4 5 12.1 0 4.7-1.9 8.9-5 12-3.1 3.1-7.4 5-12.1 5z"/>
				<path id="&lt;Path&gt;" class="s1" d="m962.3 668.3c-5 0-9.6-2.1-12.9-5.4-3.3-3.3-5.4-7.9-5.4-12.9 0-5.1 2.1-9.7 5.4-13 3.3-3.3 7.9-5.4 12.9-5.4 5.1 0 9.7 2.1 13 5.4 3.3 3.3 5.4 7.9 5.4 13 0 5-2.1 9.6-5.4 12.9-3.3 3.3-7.9 5.4-13 5.4z"/>
				<path id="&lt;Path&gt;" class="s1" d="m942.6 735.9c-5.4 0-10.3-2.2-13.9-5.7-3.6-3.6-5.7-8.5-5.7-13.9 0-5.4 2.1-10.3 5.7-13.9 3.6-3.5 8.5-5.7 13.9-5.7 5.4 0 10.3 2.2 13.9 5.7 3.5 3.6 5.7 8.5 5.7 13.9 0 5.4-2.2 10.3-5.7 13.9-3.6 3.5-8.5 5.7-13.9 5.7z"/>
				<path id="&lt;Path&gt;" class="s1" d="m913 799.8c-5.8 0-11-2.3-14.8-6.1-3.8-3.8-6.1-9-6.1-14.8 0-5.8 2.3-11 6.1-14.8 3.8-3.8 9-6.2 14.8-6.2 5.8 0 11 2.4 14.8 6.2 3.8 3.8 6.1 9 6.1 14.8 0 5.8-2.3 11-6.1 14.8-3.8 3.8-9 6.1-14.8 6.1z"/>
				<path id="&lt;Path&gt;" class="s1" d="m874.2 858.5c-6.1 0-11.7-2.5-15.7-6.5-4-4.1-6.5-9.6-6.5-15.8 0-6.1 2.5-11.7 6.5-15.7 4-4 9.6-6.5 15.7-6.5 6.2 0 11.7 2.5 15.7 6.5 4.1 4 6.6 9.6 6.6 15.7 0 6.2-2.5 11.7-6.6 15.8-4 4-9.5 6.5-15.7 6.5z"/>
				<path id="&lt;Path&gt;" class="s1" d="m827.1 910.5c-6.5 0-12.4-2.6-16.7-6.9-4.2-4.3-6.9-10.1-6.9-16.6 0-6.6 2.7-12.4 6.9-16.7 4.3-4.3 10.2-6.9 16.7-6.9 6.5 0 12.4 2.6 16.7 6.9 4.2 4.3 6.9 10.1 6.9 16.7 0 6.5-2.7 12.3-6.9 16.6-4.3 4.3-10.2 6.9-16.7 6.9z"/>
				<path id="&lt;Path&gt;" class="s1" d="m772.7 954.7c-6.8 0-13.1-2.8-17.6-7.3-4.5-4.5-7.2-10.8-7.2-17.6 0-6.9 2.7-13.1 7.2-17.6 4.5-4.5 10.8-7.3 17.6-7.3 6.9 0 13.1 2.8 17.6 7.3 4.5 4.5 7.3 10.7 7.3 17.6 0 6.8-2.8 13.1-7.3 17.6-4.5 4.5-10.7 7.3-17.6 7.3z"/>
				<path id="&lt;Path&gt;" class="s1" d="m712.3 990c-7.2 0-13.7-3-18.5-7.7-4.7-4.7-7.6-11.3-7.6-18.5 0-7.3 2.9-13.8 7.6-18.5 4.8-4.8 11.3-7.7 18.5-7.7 7.3 0 13.8 2.9 18.6 7.7 4.7 4.7 7.6 11.2 7.6 18.5 0 7.2-2.9 13.8-7.6 18.5-4.8 4.7-11.3 7.7-18.6 7.7z"/>
			</g>
			<g id="&lt;Group&gt;">
				<path id="&lt;Path&gt;" class="s1" d="m345.8 204.4c-7.2 0-13.7-2.9-18.5-7.6-4.7-4.8-7.6-11.3-7.6-18.5 0-7.3 2.9-13.8 7.6-18.6 4.8-4.7 11.3-7.6 18.5-7.6 7.3 0 13.8 2.9 18.5 7.6 4.8 4.8 7.7 11.3 7.7 18.6 0 7.2-2.9 13.7-7.7 18.5-4.7 4.7-11.2 7.6-18.5 7.6z"/>
				<path id="&lt;Path&gt;" class="s1" d="m284.4 238.2c-6.8 0-13-2.7-17.5-7.2-4.4-4.5-7.2-10.7-7.2-17.5 0-6.8 2.8-13 7.2-17.5 4.5-4.4 10.7-7.2 17.5-7.2 6.8 0 13 2.8 17.5 7.2 4.5 4.5 7.2 10.7 7.2 17.5 0 6.8-2.7 13-7.2 17.5-4.5 4.5-10.7 7.2-17.5 7.2z"/>
				<path id="&lt;Path&gt;" class="s1" d="m229.9 282c-6.4 0-12.2-2.6-16.5-6.8-4.2-4.2-6.8-10-6.8-16.5 0-6.4 2.6-12.2 6.8-16.4 4.3-4.2 10.1-6.8 16.5-6.8 6.4 0 12.2 2.6 16.4 6.8 4.3 4.2 6.9 10 6.9 16.4 0 6.5-2.6 12.3-6.9 16.5-4.2 4.2-10 6.8-16.4 6.8z"/>
				<path id="&lt;Path&gt;" class="s1" d="m183.9 334.4c-6 0-11.5-2.4-15.4-6.4-4-3.9-6.4-9.4-6.4-15.4 0-6 2.4-11.5 6.4-15.4 3.9-4 9.4-6.4 15.4-6.4 6 0 11.5 2.4 15.4 6.4 4 3.9 6.4 9.4 6.4 15.4 0 6-2.4 11.5-6.4 15.4-3.9 4-9.4 6.4-15.4 6.4z"/>
				<path id="&lt;Path&gt;" class="s1" d="m147.7 393.8c-5.6 0-10.7-2.2-14.4-5.9-3.6-3.7-5.9-8.8-5.9-14.4 0-5.6 2.3-10.7 5.9-14.4 3.7-3.7 8.8-6 14.4-6 5.7 0 10.7 2.3 14.4 6 3.7 3.7 6 8.8 6 14.4 0 5.6-2.3 10.7-6 14.4-3.7 3.7-8.7 5.9-14.4 5.9z"/>
				<path id="&lt;Path&gt;" class="s1" d="m122.3 458.5c-5.2 0-9.9-2.1-13.3-5.5-3.5-3.5-5.6-8.2-5.6-13.4 0-5.2 2.1-10 5.6-13.4 3.4-3.4 8.1-5.5 13.3-5.5 5.3 0 10 2.1 13.4 5.5 3.4 3.4 5.5 8.2 5.5 13.4 0 5.2-2.1 9.9-5.5 13.4-3.4 3.4-8.1 5.5-13.4 5.5z"/>
				<path id="&lt;Path&gt;" class="s1" d="m108.4 526.5c-4.8 0-9.2-2-12.3-5.1-3.2-3.2-5.1-7.6-5.1-12.4 0-4.8 1.9-9.2 5.1-12.3 3.1-3.2 7.5-5.1 12.3-5.1 4.8 0 9.2 1.9 12.4 5.1 3.1 3.1 5.1 7.5 5.1 12.3 0 4.8-2 9.2-5.1 12.4-3.2 3.1-7.6 5.1-12.4 5.1z"/>
				<path id="&lt;Path&gt;" class="s1" d="m106.5 595.8c-4.5 0-8.5-1.8-11.3-4.7-2.9-2.9-4.7-6.9-4.7-11.3 0-4.4 1.8-8.4 4.7-11.3 2.8-2.9 6.8-4.7 11.3-4.7 4.4 0 8.4 1.8 11.3 4.7 2.9 2.9 4.7 6.9 4.7 11.3 0 4.4-1.8 8.4-4.7 11.3-2.9 2.9-6.9 4.7-11.3 4.7z"/>
				<path id="&lt;Path&gt;" class="s1" d="m116.6 664.4c-4 0-7.6-1.6-10.3-4.2-2.6-2.6-4.2-6.3-4.2-10.3 0-4 1.6-7.7 4.2-10.3 2.7-2.6 6.3-4.2 10.3-4.2 4 0 7.7 1.6 10.3 4.2 2.6 2.6 4.3 6.3 4.3 10.3 0 4-1.7 7.7-4.3 10.3-2.6 2.6-6.3 4.2-10.3 4.2z"/>
				<path id="&lt;Path&gt;" class="s1" d="m138.6 730.3c-3.6 0-6.9-1.4-9.3-3.8-2.3-2.4-3.8-5.7-3.8-9.3 0-3.6 1.5-6.9 3.8-9.2 2.4-2.4 5.7-3.9 9.3-3.9 3.6 0 6.9 1.5 9.2 3.9 2.4 2.3 3.9 5.6 3.9 9.2 0 3.6-1.5 6.9-3.9 9.3-2.3 2.4-5.6 3.8-9.2 3.8z"/>
				<path id="&lt;Path&gt;" class="s1" d="m171.6 791.5c-3.2 0-6.1-1.3-8.2-3.4-2.1-2.1-3.4-5-3.4-8.2 0-3.2 1.3-6.1 3.4-8.2 2.1-2.1 5-3.4 8.2-3.4 3.2 0 6.1 1.3 8.2 3.4 2.1 2.1 3.4 5 3.4 8.2 0 3.2-1.3 6.1-3.4 8.2-2.1 2.1-5 3.4-8.2 3.4z"/>
				<path id="&lt;Path&gt;" class="s1" d="m214.8 846.2c-2.8 0-5.4-1.1-7.2-3-1.8-1.8-3-4.4-3-7.2 0-2.8 1.2-5.3 3-7.2 1.8-1.8 4.4-2.9 7.2-2.9 2.8 0 5.4 1.1 7.2 2.9 1.8 1.9 3 4.4 3 7.2 0 2.8-1.2 5.4-3 7.2-1.8 1.9-4.4 3-7.2 3z"/>
				<path id="&lt;Path&gt;" class="s1" d="m266.9 892.7c-2.4 0-4.5-1-6.1-2.6-1.6-1.6-2.6-3.7-2.6-6.1 0-2.5 1-4.6 2.6-6.2 1.6-1.6 3.7-2.6 6.1-2.6 2.5 0 4.6 1 6.2 2.6 1.6 1.6 2.6 3.7 2.6 6.2 0 2.4-1 4.5-2.6 6.1-1.6 1.6-3.7 2.6-6.2 2.6z"/>
				<path id="&lt;Path&gt;" class="s1" d="m326.5 929.6c-2 0-3.9-0.8-5.2-2.1-1.3-1.4-2.1-3.2-2.1-5.2 0-2 0.8-3.8 2.1-5.1 1.3-1.3 3.2-2.2 5.2-2.2 2 0 3.8 0.9 5.1 2.2 1.3 1.3 2.1 3.1 2.1 5.1 0 2-0.8 3.8-2.1 5.2-1.3 1.3-3.1 2.1-5.1 2.1z"/>
				<path id="&lt;Path&gt;" class="s1" d="m391.6 955.9c-1.6 0-3-0.6-4.1-1.7-1.1-1-1.7-2.5-1.7-4.1 0-1.6 0.6-3.1 1.7-4.1 1.1-1.1 2.5-1.7 4.1-1.7 1.6 0 3.1 0.6 4.1 1.7 1.1 1 1.7 2.5 1.7 4.1 0 1.6-0.6 3.1-1.7 4.1-1 1.1-2.5 1.7-4.1 1.7z"/>
				<path id="&lt;Path&gt;" class="s1" d="m460.5 970.9c-1.2 0-2.3-0.5-3.1-1.3-0.8-0.8-1.3-1.9-1.3-3.1 0-1.2 0.5-2.3 1.3-3.1 0.8-0.8 1.9-1.3 3.1-1.3 1.2 0 2.3 0.5 3.1 1.3 0.8 0.8 1.3 1.9 1.3 3.1 0 1.2-0.5 2.3-1.3 3.1-0.8 0.8-1.9 1.3-3.1 1.3z"/>
				<path id="&lt;Path&gt;" class="s1" d="m531.2 974c-0.8 0-1.6-0.4-2.1-0.9-0.5-0.5-0.8-1.2-0.8-2.1 0-0.8 0.3-1.5 0.8-2 0.5-0.5 1.3-0.9 2.1-0.9 0.8 0 1.5 0.4 2 0.9 0.6 0.5 0.9 1.2 0.9 2q0 1.4-0.9 2.1c-0.5 0.5-1.2 0.9-2 0.9z"/>
				<path id="&lt;Path&gt;" class="s1" d="m601.6 964.9c-0.4 0-0.8-0.1-1.1-0.4-0.2-0.3-0.4-0.6-0.4-1 0-0.4 0.2-0.8 0.4-1.1 0.3-0.2 0.7-0.4 1.1-0.4 0.4 0 0.7 0.2 1 0.4 0.3 0.3 0.4 0.7 0.4 1.1 0 0.4-0.1 0.7-0.4 1-0.3 0.3-0.6 0.4-1 0.4z"/>
			</g>
			<g id="&lt;Group&gt;">
				<path id="&lt;Path&gt;" class="s1" d="m521.1 175.6c-0.4 0-0.8-0.1-1.1-0.4-0.3-0.3-0.5-0.7-0.5-1.1 0-0.4 0.2-0.8 0.5-1.1 0.3-0.3 0.7-0.4 1.1-0.4 0.4 0 0.8 0.1 1.1 0.4 0.2 0.3 0.4 0.7 0.4 1.1 0 0.4-0.2 0.8-0.4 1.1-0.3 0.3-0.7 0.4-1.1 0.4z"/>
				<path id="&lt;Path&gt;" class="s1" d="m589.3 183.3c-0.8 0-1.6-0.3-2.1-0.9-0.6-0.6-0.9-1.3-0.9-2.2 0-0.8 0.3-1.6 0.9-2.2 0.5-0.5 1.3-0.9 2.1-0.9 0.9 0 1.7 0.4 2.2 0.9 0.6 0.6 0.9 1.4 0.9 2.2 0 0.9-0.3 1.6-0.9 2.2-0.5 0.6-1.3 0.9-2.2 0.9z"/>
				<path id="&lt;Path&gt;" class="s1" d="m655.4 203.1c-1.3 0-2.5-0.5-3.3-1.3-0.8-0.9-1.3-2-1.3-3.3 0-1.3 0.5-2.4 1.3-3.3 0.8-0.8 2-1.3 3.3-1.3 1.3 0 2.4 0.5 3.2 1.3 0.9 0.9 1.4 2 1.4 3.3 0 1.3-0.5 2.4-1.4 3.3-0.8 0.8-1.9 1.3-3.2 1.3z"/>
				<path id="&lt;Path&gt;" class="s1" d="m717.1 234.4c-1.7 0-3.2-0.7-4.3-1.8-1.2-1.1-1.8-2.6-1.8-4.3 0-1.7 0.6-3.3 1.8-4.4 1.1-1.1 2.6-1.8 4.3-1.8 1.7 0 3.3 0.7 4.4 1.8 1.1 1.1 1.8 2.7 1.8 4.4 0 1.7-0.7 3.2-1.8 4.3-1.1 1.1-2.7 1.8-4.4 1.8z"/>
				<path id="&lt;Path&gt;" class="s1" d="m772.6 276.2c-2.2 0-4.1-0.8-5.5-2.2-1.4-1.4-2.2-3.3-2.2-5.5 0-2.1 0.8-4 2.2-5.4 1.4-1.4 3.3-2.3 5.5-2.3 2.1 0 4 0.9 5.4 2.3 1.4 1.4 2.3 3.3 2.3 5.4 0 2.2-0.9 4.1-2.3 5.5-1.4 1.4-3.3 2.2-5.4 2.2z"/>
				<path id="&lt;Path&gt;" class="s1" d="m820 327.3c-2.6 0-4.9-1-6.6-2.7-1.6-1.7-2.7-4-2.7-6.5 0-2.6 1.1-4.9 2.7-6.6 1.7-1.7 4-2.7 6.6-2.7 2.5 0 4.8 1 6.5 2.7 1.7 1.7 2.7 4 2.7 6.6 0 2.5-1 4.8-2.7 6.5-1.7 1.7-4 2.7-6.5 2.7z"/>
				<path id="&lt;Path&gt;" class="s1" d="m857.7 386.1c-3 0-5.7-1.2-7.7-3.2-1.9-1.9-3.1-4.6-3.1-7.6 0-3 1.2-5.7 3.1-7.6 2-2 4.7-3.2 7.7-3.2 2.9 0 5.6 1.2 7.6 3.2 1.9 1.9 3.1 4.6 3.1 7.6 0 3-1.2 5.7-3.1 7.6-2 2-4.7 3.2-7.6 3.2z"/>
				<path id="&lt;Path&gt;" class="s1" d="m884.4 450.7c-3.4 0-6.5-1.4-8.7-3.6-2.2-2.2-3.6-5.3-3.6-8.7 0-3.4 1.4-6.5 3.6-8.7 2.2-2.3 5.3-3.6 8.7-3.6 3.4 0 6.5 1.3 8.7 3.6 2.3 2.2 3.6 5.3 3.6 8.7 0 3.4-1.3 6.5-3.6 8.7-2.2 2.2-5.3 3.6-8.7 3.6z"/>
				<path id="&lt;Path&gt;" class="s1" d="m899.5 519.1c-3.8 0-7.3-1.6-9.8-4.1-2.5-2.5-4.1-5.9-4.1-9.8 0-3.8 1.6-7.2 4.1-9.8 2.5-2.5 6-4 9.8-4 3.8 0 7.3 1.5 9.8 4 2.5 2.6 4.1 6 4.1 9.8 0 3.9-1.6 7.3-4.1 9.8-2.5 2.5-6 4.1-9.8 4.1z"/>
				<path id="&lt;Path&gt;" class="s1" d="m902.3 589.1c-4.2 0-8.1-1.7-10.8-4.5-2.8-2.8-4.6-6.6-4.6-10.9 0-4.2 1.8-8.1 4.6-10.9 2.7-2.8 6.6-4.5 10.8-4.5 4.3 0 8.2 1.7 10.9 4.5 2.8 2.8 4.5 6.7 4.5 10.9 0 4.3-1.7 8.1-4.5 10.9-2.7 2.8-6.6 4.5-10.9 4.5z"/>
				<path id="&lt;Path&gt;" class="s1" d="m892.8 658.5c-4.7 0-8.9-1.9-12-4.9-3.1-3.1-5-7.3-5-12 0-4.7 1.9-8.9 5-12 3.1-3.1 7.3-4.9 12-4.9 4.7 0 8.9 1.8 12 4.9 3 3.1 4.9 7.3 4.9 12 0 4.7-1.9 8.9-4.9 12-3.1 3-7.3 4.9-12 4.9z"/>
				<path id="&lt;Path&gt;" class="s1" d="m871.2 725.1c-5.1 0-9.7-2-13.1-5.4-3.3-3.3-5.4-8-5.4-13.1 0-5.1 2.1-9.7 5.4-13 3.4-3.4 8-5.4 13.1-5.4 5.1 0 9.7 2 13.1 5.4 3.3 3.3 5.4 7.9 5.4 13 0 5.1-2.1 9.8-5.4 13.1-3.4 3.4-8 5.4-13.1 5.4z"/>
				<path id="&lt;Path&gt;" class="s1" d="m838.4 786.8c-5.5 0-10.5-2.2-14.2-5.8-3.6-3.7-5.8-8.7-5.8-14.2 0-5.5 2.2-10.5 5.8-14.1 3.7-3.7 8.7-5.9 14.2-5.9 5.5 0 10.5 2.2 14.2 5.9 3.6 3.6 5.8 8.6 5.8 14.1 0 5.5-2.2 10.5-5.8 14.2-3.7 3.6-8.7 5.8-14.2 5.8z"/>
				<path id="&lt;Path&gt;" class="s1" d="m795.4 841.8c-5.9 0-11.3-2.5-15.2-6.4-3.9-3.9-6.3-9.3-6.3-15.2 0-6 2.4-11.4 6.3-15.3 3.9-3.9 9.3-6.3 15.2-6.3 6 0 11.4 2.4 15.3 6.3 3.9 3.9 6.3 9.3 6.3 15.3 0 5.9-2.4 11.3-6.3 15.2-3.9 3.9-9.3 6.4-15.3 6.4z"/>
				<path id="&lt;Path&gt;" class="s1" d="m743.6 888.1c-6.4 0-12.2-2.6-16.4-6.7-4.1-4.2-6.7-10-6.7-16.4 0-6.4 2.6-12.1 6.7-16.3 4.2-4.2 10-6.8 16.4-6.8 6.4 0 12.1 2.6 16.3 6.8 4.2 4.2 6.8 9.9 6.8 16.3 0 6.4-2.6 12.2-6.8 16.4-4.2 4.1-9.9 6.7-16.3 6.7z"/>
				<path id="&lt;Path&gt;" class="s1" d="m684.5 924.4c-6.8 0-13-2.7-17.4-7.2-4.5-4.5-7.2-10.6-7.2-17.4 0-6.8 2.7-13 7.2-17.5 4.4-4.4 10.6-7.2 17.4-7.2 6.8 0 13 2.8 17.4 7.2 4.5 4.5 7.3 10.7 7.3 17.5 0 6.8-2.8 12.9-7.3 17.4-4.4 4.5-10.6 7.2-17.4 7.2z"/>
				<path id="&lt;Path&gt;" class="s1" d="m620.1 949.5c-7.2 0-13.7-2.9-18.5-7.7-4.7-4.7-7.6-11.2-7.6-18.5 0-7.2 2.9-13.7 7.6-18.5 4.8-4.7 11.3-7.7 18.5-7.7 7.3 0 13.8 3 18.6 7.7 4.7 4.8 7.6 11.3 7.6 18.5 0 7.3-2.9 13.8-7.6 18.5-4.8 4.8-11.3 7.7-18.6 7.7z"/>
			</g>
			<g id="&lt;Group&gt;">
				<path id="&lt;Path&gt;" class="s1" d="m432.3 247c-7.2 0-13.8-2.9-18.5-7.7-4.8-4.7-7.7-11.3-7.7-18.5 0-7.2 2.9-13.8 7.7-18.5 4.7-4.8 11.3-7.7 18.5-7.7 7.2 0 13.8 2.9 18.5 7.7 4.7 4.7 7.7 11.3 7.7 18.5 0 7.2-3 13.8-7.7 18.5-4.7 4.8-11.3 7.7-18.5 7.7z"/>
				<path id="&lt;Path&gt;" class="s1" d="m366.5 270.2c-6.7 0-12.8-2.7-17.3-7.2-4.4-4.4-7.1-10.5-7.1-17.3 0-6.7 2.7-12.8 7.1-17.2 4.5-4.5 10.6-7.2 17.3-7.2 6.8 0 12.9 2.7 17.3 7.2 4.4 4.4 7.2 10.5 7.2 17.2 0 6.8-2.8 12.9-7.2 17.3-4.4 4.5-10.5 7.2-17.3 7.2z"/>
				<path id="&lt;Path&gt;" class="s1" d="m307.2 306.2c-6.3 0-12-2.5-16.1-6.6-4.1-4.1-6.6-9.8-6.6-16.1 0-6.2 2.5-11.9 6.6-16 4.1-4.1 9.8-6.6 16.1-6.6 6.3 0 11.9 2.5 16 6.6 4.1 4.1 6.7 9.8 6.7 16 0 6.3-2.6 12-6.7 16.1-4.1 4.1-9.7 6.6-16 6.6z"/>
				<path id="&lt;Path&gt;" class="s1" d="m256.8 353.5c-5.8 0-11-2.3-14.8-6.1-3.8-3.8-6.2-9-6.2-14.8 0-5.8 2.4-11 6.2-14.8 3.8-3.8 9-6.1 14.8-6.1 5.8 0 11 2.3 14.8 6.1 3.8 3.8 6.1 9 6.1 14.8 0 5.8-2.3 11-6.1 14.8-3.8 3.8-9 6.1-14.8 6.1z"/>
				<path id="&lt;Path&gt;" class="s1" d="m217.3 410c-5.3 0-10.1-2.1-13.6-5.6-3.5-3.5-5.6-8.3-5.6-13.6 0-5.3 2.1-10.1 5.6-13.6 3.5-3.4 8.3-5.6 13.6-5.6 5.3 0 10.1 2.2 13.5 5.6 3.5 3.5 5.7 8.3 5.7 13.6 0 5.3-2.2 10.1-5.7 13.6-3.4 3.5-8.2 5.6-13.5 5.6z"/>
				<path id="&lt;Path&gt;" class="s1" d="m190.2 473.2c-4.8 0-9.1-1.9-12.3-5.1-3.2-3.2-5.1-7.5-5.1-12.3 0-4.9 1.9-9.2 5.1-12.4 3.2-3.1 7.5-5.1 12.3-5.1 4.9 0 9.2 2 12.4 5.1 3.1 3.2 5.1 7.5 5.1 12.4 0 4.8-2 9.1-5.1 12.3-3.2 3.2-7.5 5.1-12.4 5.1z"/>
				<path id="&lt;Path&gt;" class="s1" d="m176.9 540.5c-4.4 0-8.3-1.7-11.1-4.6-2.9-2.8-4.6-6.7-4.6-11.1 0-4.3 1.7-8.2 4.6-11.1 2.8-2.8 6.7-4.6 11.1-4.6 4.3 0 8.2 1.8 11.1 4.6 2.8 2.9 4.6 6.8 4.6 11.1 0 4.4-1.8 8.3-4.6 11.1-2.9 2.9-6.8 4.6-11.1 4.6z"/>
				<path id="&lt;Path&gt;" class="s1" d="m177.8 609.1c-3.8 0-7.3-1.6-9.8-4.1-2.6-2.5-4.1-6-4.1-9.9 0-3.8 1.5-7.3 4.1-9.8 2.5-2.6 6-4.1 9.8-4.1 3.9 0 7.4 1.5 9.9 4.1 2.5 2.5 4.1 6 4.1 9.8 0 3.9-1.6 7.4-4.1 9.9-2.5 2.5-6 4.1-9.9 4.1z"/>
				<path id="&lt;Path&gt;" class="s1" d="m193 676.1c-3.3 0-6.4-1.4-8.6-3.6-2.2-2.2-3.6-5.3-3.6-8.7 0-3.3 1.4-6.4 3.6-8.6 2.2-2.2 5.3-3.6 8.6-3.6 3.4 0 6.5 1.4 8.7 3.6 2.2 2.2 3.6 5.3 3.6 8.6 0 3.4-1.4 6.5-3.6 8.7-2.2 2.2-5.3 3.6-8.7 3.6z"/>
				<path id="&lt;Path&gt;" class="s1" d="m221.8 738.5c-2.9 0-5.5-1.1-7.4-3-1.9-1.9-3.1-4.5-3.1-7.4 0-2.9 1.2-5.6 3.1-7.4 1.9-1.9 4.5-3.1 7.4-3.1 2.9 0 5.5 1.2 7.4 3.1 1.9 1.8 3 4.5 3 7.4 0 2.9-1.1 5.5-3 7.4-1.9 1.9-4.5 3-7.4 3z"/>
				<path id="&lt;Path&gt;" class="s1" d="m263 793.8c-2.5 0-4.6-1-6.2-2.5-1.6-1.6-2.6-3.8-2.6-6.2 0-2.4 1-4.6 2.6-6.2 1.6-1.6 3.7-2.5 6.2-2.5 2.4 0 4.5 0.9 6.1 2.5 1.6 1.6 2.6 3.8 2.6 6.2 0 2.4-1 4.6-2.6 6.2-1.6 1.5-3.7 2.5-6.1 2.5z"/>
				<path id="&lt;Path&gt;" class="s1" d="m314.8 839.6c-1.9 0-3.6-0.8-4.9-2.1-1.3-1.3-2-3-2-4.9 0-1.9 0.7-3.7 2-5 1.3-1.2 3-2 4.9-2 2 0 3.7 0.8 5 2 1.2 1.3 2 3.1 2 5 0 1.9-0.8 3.6-2 4.9-1.3 1.3-3 2.1-5 2.1z"/>
				<path id="&lt;Path&gt;" class="s1" d="m375.2 873.9c-1.4 0-2.7-0.6-3.7-1.5-0.9-1-1.5-2.3-1.5-3.7 0-1.5 0.6-2.8 1.5-3.7 1-1 2.3-1.6 3.7-1.6 1.5 0 2.8 0.6 3.7 1.6 1 0.9 1.6 2.2 1.6 3.7 0 1.4-0.6 2.7-1.6 3.7-0.9 0.9-2.2 1.5-3.7 1.5z"/>
				<path id="&lt;Path&gt;" class="s1" d="m441.6 895.4c-0.9 0-1.8-0.4-2.4-1-0.7-0.7-1.1-1.5-1.1-2.5 0-1 0.4-1.8 1.1-2.5 0.6-0.6 1.5-1 2.4-1 1 0 1.9 0.4 2.5 1 0.6 0.7 1 1.5 1 2.5 0 1-0.4 1.8-1 2.5-0.6 0.6-1.5 1-2.5 1z"/>
				<path id="&lt;Path&gt;" class="s1" d="m511.3 903c-0.4 0-0.9-0.2-1.2-0.6-0.3-0.3-0.5-0.7-0.5-1.2 0-0.5 0.2-0.9 0.5-1.2 0.3-0.3 0.8-0.5 1.2-0.5 0.5 0 1 0.2 1.3 0.5 0.3 0.3 0.5 0.7 0.5 1.2 0 0.5-0.2 0.9-0.5 1.2-0.3 0.4-0.8 0.6-1.3 0.6z"/>
			</g>
			<g id="&lt;Group&gt;">
				<path id="&lt;Path&gt;" class="s1" d="m593 254.1c-0.5 0-1-0.2-1.3-0.6-0.4-0.3-0.6-0.8-0.6-1.3 0-0.5 0.2-1 0.6-1.3 0.3-0.4 0.8-0.6 1.3-0.6 0.5 0 1 0.2 1.3 0.6 0.4 0.3 0.6 0.8 0.6 1.3 0 0.5-0.2 1-0.6 1.3-0.3 0.4-0.8 0.6-1.3 0.6z"/>
				<path id="&lt;Path&gt;" class="s1" d="m656.6 278.5c-1 0-1.9-0.4-2.6-1.1-0.7-0.6-1.1-1.6-1.1-2.6 0-1 0.4-2 1.1-2.6 0.7-0.7 1.6-1.1 2.6-1.1 1.1 0 2 0.4 2.7 1.1 0.7 0.6 1.1 1.6 1.1 2.6 0 1-0.4 2-1.1 2.6-0.7 0.7-1.6 1.1-2.7 1.1z"/>
				<path id="&lt;Path&gt;" class="s1" d="m713.9 316.2c-1.5 0-2.9-0.6-3.9-1.6-1.1-1.1-1.7-2.5-1.7-4 0-1.6 0.6-3 1.7-4 1-1 2.4-1.6 3.9-1.6 1.6 0 3 0.6 4 1.6 1 1 1.6 2.4 1.6 4 0 1.5-0.6 2.9-1.6 4-1 1-2.4 1.6-4 1.6z"/>
				<path id="&lt;Path&gt;" class="s1" d="m762.2 365.3c-2 0-3.9-0.9-5.3-2.2-1.3-1.4-2.2-3.2-2.2-5.3 0-2.1 0.9-3.9 2.2-5.3 1.4-1.3 3.3-2.2 5.3-2.2 2.1 0 4 0.9 5.3 2.2 1.4 1.4 2.2 3.2 2.2 5.3 0 2.1-0.8 3.9-2.2 5.3-1.3 1.3-3.2 2.2-5.3 2.2z"/>
				<path id="&lt;Path&gt;" class="s1" d="m799.2 423.6c-2.5 0-4.9-1-6.6-2.7-1.7-1.7-2.7-4-2.7-6.6 0-2.6 1-4.9 2.7-6.6 1.7-1.7 4.1-2.8 6.6-2.8 2.6 0 5 1.1 6.6 2.8 1.7 1.7 2.8 4 2.8 6.6 0 2.6-1.1 4.9-2.8 6.6-1.6 1.7-4 2.7-6.6 2.7z"/>
				<path id="&lt;Path&gt;" class="s1" d="m823.1 488.7c-3.1 0-5.9-1.3-7.9-3.3-2.1-2-3.3-4.8-3.3-7.9 0-3.1 1.2-5.9 3.3-8 2-2 4.8-3.3 7.9-3.3 3.1 0 5.9 1.3 7.9 3.3 2.1 2.1 3.3 4.9 3.3 8 0 3.1-1.2 5.9-3.3 7.9-2 2-4.8 3.3-7.9 3.3z"/>
				<path id="&lt;Path&gt;" class="s1" d="m832.8 557.4c-3.6 0-6.9-1.5-9.3-3.8-2.4-2.4-3.8-5.7-3.8-9.3 0-3.6 1.4-6.9 3.8-9.3 2.4-2.3 5.7-3.8 9.3-3.8 3.6 0 6.9 1.5 9.2 3.8 2.4 2.4 3.9 5.7 3.9 9.3 0 3.6-1.5 6.9-3.9 9.3-2.3 2.3-5.6 3.8-9.2 3.8z"/>
				<path id="&lt;Path&gt;" class="s1" d="m827.8 626.6c-4.1 0-7.8-1.7-10.6-4.4-2.7-2.7-4.3-6.4-4.3-10.5 0-4.2 1.6-7.9 4.3-10.6 2.8-2.7 6.5-4.4 10.6-4.4 4.2 0 7.9 1.7 10.6 4.4 2.7 2.7 4.4 6.4 4.4 10.6 0 4.1-1.7 7.8-4.4 10.5-2.7 2.7-6.4 4.4-10.6 4.4z"/>
				<path id="&lt;Path&gt;" class="s1" d="m808.4 693.2c-4.7 0-8.9-1.9-11.9-5-3.1-3-5-7.2-5-11.9 0-4.6 1.9-8.8 5-11.9 3-3 7.2-4.9 11.9-4.9 4.6 0 8.8 1.9 11.9 4.9 3 3.1 4.9 7.3 4.9 11.9 0 4.7-1.9 8.9-4.9 11.9-3.1 3.1-7.3 5-11.9 5z"/>
				<path id="&lt;Path&gt;" class="s1" d="m775.4 754c-5.2 0-9.8-2.1-13.2-5.5-3.4-3.4-5.5-8.1-5.5-13.2 0-5.2 2.1-9.9 5.5-13.2 3.4-3.4 8-5.5 13.2-5.5 5.2 0 9.8 2.1 13.2 5.5 3.4 3.3 5.5 8 5.5 13.2 0 5.1-2.1 9.8-5.5 13.2-3.4 3.4-8 5.5-13.2 5.5z"/>
				<path id="&lt;Path&gt;" class="s1" d="m730.6 806.4c-5.7 0-10.9-2.3-14.6-6.1-3.7-3.7-6-8.8-6-14.5 0-5.7 2.3-10.8 6-14.5 3.7-3.8 8.9-6.1 14.6-6.1 5.7 0 10.8 2.3 14.5 6.1 3.7 3.7 6 8.8 6 14.5 0 5.7-2.3 10.8-6 14.5-3.7 3.8-8.8 6.1-14.5 6.1z"/>
				<path id="&lt;Path&gt;" class="s1" d="m676 848c-6.2 0-11.9-2.6-15.9-6.6-4.1-4.1-6.6-9.7-6.6-15.9 0-6.2 2.5-11.8 6.6-15.8 4-4.1 9.7-6.6 15.9-6.6 6.2 0 11.8 2.5 15.8 6.6 4.1 4 6.6 9.6 6.6 15.8 0 6.2-2.5 11.8-6.6 15.9-4 4-9.6 6.6-15.8 6.6z"/>
				<path id="&lt;Path&gt;" class="s1" d="m614 876.8c-6.7 0-12.8-2.7-17.2-7.1-4.4-4.4-7.1-10.5-7.1-17.2 0-6.7 2.7-12.8 7.1-17.2 4.4-4.4 10.5-7.1 17.2-7.1 6.7 0 12.8 2.7 17.2 7.1 4.4 4.4 7.1 10.5 7.1 17.2 0 6.7-2.7 12.8-7.1 17.2-4.4 4.4-10.5 7.1-17.2 7.1z"/>
				<path id="&lt;Path&gt;" class="s1" d="m547.7 891.5c-7.2 0-13.7-2.9-18.5-7.6-4.7-4.8-7.6-11.3-7.6-18.5 0-7.3 2.9-13.8 7.6-18.6 4.8-4.7 11.3-7.6 18.5-7.6 7.3 0 13.8 2.9 18.6 7.6 4.7 4.8 7.6 11.3 7.6 18.6 0 7.2-2.9 13.7-7.6 18.5-4.8 4.7-11.3 7.6-18.6 7.6z"/>
			</g>
			<g id="&lt;Group&gt;">
				<path id="&lt;Path&gt;" class="s1" d="m498.6 306c-7.2 0-13.8-2.9-18.5-7.7-4.7-4.7-7.7-11.2-7.7-18.5 0-7.2 3-13.7 7.7-18.5 4.7-4.7 11.3-7.6 18.5-7.6 7.2 0 13.8 2.9 18.5 7.6 4.7 4.8 7.7 11.3 7.7 18.5 0 7.3-3 13.8-7.7 18.5-4.7 4.8-11.3 7.7-18.5 7.7z"/>
				<path id="&lt;Path&gt;" class="s1" d="m430.5 318.3c-6.6 0-12.6-2.7-17-7-4.3-4.4-7-10.4-7-17 0-6.6 2.7-12.6 7-16.9 4.4-4.4 10.4-7.1 17-7.1 6.6 0 12.6 2.7 17 7.1 4.3 4.3 7 10.3 7 16.9 0 6.6-2.7 12.6-7 17-4.4 4.3-10.4 7-17 7z"/>
				<path id="&lt;Path&gt;" class="s1" d="m368.2 347.3c-6 0-11.5-2.4-15.4-6.4-4-3.9-6.4-9.4-6.4-15.4 0-6.1 2.4-11.5 6.4-15.5 3.9-3.9 9.4-6.3 15.4-6.3 6 0 11.5 2.4 15.4 6.3 4 4 6.4 9.4 6.4 15.5 0 6-2.4 11.5-6.4 15.4-3.9 4-9.4 6.4-15.4 6.4z"/>
				<path id="&lt;Path&gt;" class="s1" d="m315.7 390.8c-5.4 0-10.3-2.2-13.9-5.7-3.5-3.6-5.7-8.5-5.7-13.9 0-5.4 2.2-10.3 5.7-13.9 3.6-3.5 8.5-5.7 13.9-5.7 5.4 0 10.3 2.2 13.9 5.7 3.5 3.6 5.7 8.5 5.7 13.9 0 5.4-2.2 10.3-5.7 13.9-3.6 3.5-8.5 5.7-13.9 5.7z"/>
				<path id="&lt;Path&gt;" class="s1" d="m276.2 446c-4.8 0-9.2-2-12.3-5.1-3.2-3.2-5.2-7.5-5.2-12.4 0-4.8 2-9.1 5.2-12.3 3.1-3.2 7.5-5.1 12.3-5.1 4.8 0 9.2 1.9 12.3 5.1 3.2 3.2 5.1 7.5 5.1 12.3 0 4.9-1.9 9.2-5.1 12.4-3.1 3.1-7.5 5.1-12.3 5.1z"/>
				<path id="&lt;Path&gt;" class="s1" d="m252.2 509.2c-4.2 0-8-1.7-10.8-4.5-2.7-2.8-4.4-6.6-4.4-10.8 0-4.2 1.7-8 4.4-10.8 2.8-2.8 6.6-4.5 10.8-4.5 4.2 0 8.1 1.7 10.8 4.5 2.8 2.8 4.5 6.6 4.5 10.8 0 4.2-1.7 8-4.5 10.8-2.7 2.8-6.6 4.5-10.8 4.5z"/>
				<path id="&lt;Path&gt;" class="s1" d="m245.5 576.3c-3.6 0-6.9-1.5-9.3-3.8-2.3-2.4-3.8-5.7-3.8-9.3 0-3.6 1.5-6.9 3.8-9.2 2.4-2.4 5.7-3.9 9.3-3.9 3.6 0 6.9 1.5 9.2 3.9 2.4 2.3 3.9 5.6 3.9 9.2 0 3.6-1.5 6.9-3.9 9.3-2.3 2.3-5.6 3.8-9.2 3.8z"/>
				<path id="&lt;Path&gt;" class="s1" d="m256.2 642.9c-3 0-5.7-1.2-7.7-3.2-2-2-3.2-4.7-3.2-7.7 0-3 1.2-5.7 3.2-7.7 2-2 4.7-3.2 7.7-3.2 3 0 5.8 1.2 7.7 3.2 2 2 3.2 4.7 3.2 7.7 0 3-1.2 5.7-3.2 7.7-1.9 2-4.7 3.2-7.7 3.2z"/>
				<path id="&lt;Path&gt;" class="s1" d="m283.9 704.6c-2.4 0-4.6-1-6.2-2.5-1.6-1.6-2.5-3.8-2.5-6.2 0-2.4 0.9-4.6 2.5-6.2 1.6-1.5 3.8-2.5 6.2-2.5 2.4 0 4.6 1 6.2 2.5 1.5 1.6 2.5 3.8 2.5 6.2 0 2.4-1 4.6-2.5 6.2-1.6 1.5-3.8 2.5-6.2 2.5z"/>
				<path id="&lt;Path&gt;" class="s1" d="m326.7 757.4c-1.8 0-3.4-0.8-4.6-2-1.2-1.1-1.9-2.8-1.9-4.6 0-1.8 0.7-3.4 1.9-4.6 1.2-1.2 2.8-1.9 4.6-1.9 1.8 0 3.4 0.7 4.6 1.9 1.2 1.2 1.9 2.8 1.9 4.6 0 1.8-0.7 3.5-1.9 4.6-1.2 1.2-2.8 2-4.6 2z"/>
				<path id="&lt;Path&gt;" class="s1" d="m381.8 797.8c-1.2 0-2.3-0.5-3.1-1.3-0.8-0.8-1.3-1.9-1.3-3.1 0-1.2 0.5-2.3 1.3-3.1 0.8-0.8 1.9-1.3 3.1-1.3 1.2 0 2.3 0.5 3.1 1.3 0.8 0.8 1.3 1.9 1.3 3.1 0 1.2-0.5 2.3-1.3 3.1-0.8 0.8-1.9 1.3-3.1 1.3z"/>
				<path id="&lt;Path&gt;" class="s1" d="m445.7 823.1c-0.6 0-1.1-0.3-1.5-0.7q-0.6-0.6-0.6-1.5c0-0.6 0.2-1.2 0.6-1.5 0.4-0.4 0.9-0.7 1.5-0.7 0.6 0 1.2 0.3 1.6 0.7 0.4 0.3 0.6 0.9 0.6 1.5q0 0.9-0.6 1.5c-0.4 0.4-1 0.7-1.6 0.7z"/>
			</g>
			<g id="&lt;Group&gt;">
				<path id="&lt;Path&gt;" class="s1" d="m640.6 347.7c-0.7 0-1.4-0.3-1.8-0.7-0.5-0.5-0.8-1.2-0.8-1.9 0-0.7 0.3-1.4 0.8-1.8 0.4-0.5 1.1-0.8 1.8-0.8 0.7 0 1.4 0.3 1.9 0.8 0.4 0.4 0.7 1.1 0.7 1.8 0 0.7-0.3 1.4-0.7 1.9-0.5 0.4-1.2 0.7-1.9 0.7z"/>
				<path id="&lt;Path&gt;" class="s1" d="m697.6 395.2c-1.4 0-2.8-0.6-3.7-1.5-0.9-1-1.5-2.3-1.5-3.7 0-1.5 0.6-2.8 1.5-3.7 0.9-1 2.3-1.5 3.7-1.5 1.4 0 2.8 0.5 3.7 1.5 0.9 0.9 1.5 2.2 1.5 3.7 0 1.4-0.6 2.7-1.5 3.7-0.9 0.9-2.3 1.5-3.7 1.5z"/>
				<path id="&lt;Path&gt;" class="s1" d="m738.8 457.5c-2.2 0-4.1-0.8-5.5-2.3-1.5-1.4-2.4-3.3-2.4-5.5 0-2.2 0.9-4.1 2.4-5.6 1.4-1.4 3.3-2.3 5.5-2.3 2.2 0 4.1 0.9 5.6 2.3 1.4 1.5 2.3 3.4 2.3 5.6 0 2.2-0.9 4.1-2.3 5.5-1.5 1.5-3.4 2.3-5.6 2.3z"/>
				<path id="&lt;Path&gt;" class="s1" d="m760.4 529.4c-2.9 0-5.5-1.2-7.4-3.1-1.9-1.9-3-4.5-3-7.4 0-2.9 1.1-5.5 3-7.4 1.9-1.9 4.5-3 7.4-3 2.9 0 5.5 1.1 7.4 3 1.9 1.9 3.1 4.5 3.1 7.4 0 2.9-1.2 5.5-3.1 7.4-1.9 1.9-4.5 3.1-7.4 3.1z"/>
				<path id="&lt;Path&gt;" class="s1" d="m760.4 604.5c-3.6 0-6.9-1.4-9.2-3.8-2.4-2.4-3.9-5.6-3.9-9.2 0-3.7 1.5-6.9 3.9-9.3 2.3-2.4 5.6-3.8 9.2-3.8 3.6 0 6.9 1.4 9.3 3.8 2.3 2.4 3.8 5.6 3.8 9.3 0 3.6-1.5 6.8-3.8 9.2-2.4 2.4-5.7 3.8-9.3 3.8z"/>
				<path id="&lt;Path&gt;" class="s1" d="m738.9 676.4c-4.4 0-8.3-1.7-11.1-4.6-2.9-2.8-4.6-6.7-4.6-11.1 0-4.3 1.7-8.2 4.6-11.1 2.8-2.8 6.7-4.6 11.1-4.6 4.3 0 8.2 1.8 11.1 4.6 2.8 2.9 4.6 6.8 4.6 11.1 0 4.4-1.8 8.3-4.6 11.1-2.9 2.9-6.8 4.6-11.1 4.6z"/>
				<path id="&lt;Path&gt;" class="s1" d="m697.7 738.7c-5.1 0-9.7-2-13-5.4-3.3-3.3-5.4-7.9-5.4-12.9 0-5.1 2.1-9.6 5.4-13 3.3-3.3 7.9-5.3 13-5.3 5 0 9.6 2 12.9 5.3 3.3 3.4 5.4 7.9 5.4 13 0 5-2.1 9.6-5.4 12.9-3.3 3.4-7.9 5.4-12.9 5.4z"/>
				<path id="&lt;Path&gt;" class="s1" d="m640.6 786.2c-5.7 0-11-2.4-14.8-6.2-3.8-3.8-6.1-9-6.1-14.8 0-5.8 2.3-11 6.1-14.8 3.8-3.8 9.1-6.1 14.8-6.1 5.8 0 11.1 2.3 14.8 6.1 3.8 3.8 6.2 9 6.2 14.8 0 5.8-2.4 11-6.2 14.8-3.7 3.8-9 6.2-14.8 6.2z"/>
				<path id="&lt;Path&gt;" class="s1" d="m572.9 814.7c-6.5 0-12.4-2.6-16.7-6.9-4.2-4.2-6.9-10.1-6.9-16.6 0-6.5 2.7-12.4 6.9-16.7 4.3-4.3 10.2-6.9 16.7-6.9 6.5 0 12.4 2.6 16.7 6.9 4.2 4.3 6.9 10.2 6.9 16.7 0 6.5-2.7 12.4-6.9 16.6-4.3 4.3-10.2 6.9-16.7 6.9z"/>
				<path id="&lt;Path&gt;" class="s1" d="m500.6 821.9c-7.3 0-13.8-2.9-18.5-7.7-4.8-4.7-7.7-11.3-7.7-18.5 0-7.2 2.9-13.8 7.7-18.5 4.7-4.7 11.2-7.7 18.5-7.7 7.2 0 13.7 3 18.5 7.7 4.7 4.7 7.7 11.3 7.7 18.5 0 7.2-3 13.8-7.7 18.5-4.8 4.8-11.3 7.7-18.5 7.7z"/>
			</g>
			<g id="&lt;Group&gt;">
				<path id="&lt;Path&gt;" class="s1" d="m539.8 375.7c-7.2 0-13.8-3-18.5-7.7-4.8-4.8-7.7-11.3-7.7-18.5 0-7.3 2.9-13.8 7.7-18.5 4.7-4.8 11.3-7.7 18.5-7.7 7.2 0 13.8 2.9 18.5 7.7 4.7 4.7 7.7 11.2 7.7 18.5 0 7.2-3 13.7-7.7 18.5-4.7 4.7-11.3 7.7-18.5 7.7z"/>
				<path id="&lt;Path&gt;" class="s1" d="m471.6 378.1c-6.4 0-12.2-2.6-16.4-6.8-4.3-4.2-6.9-10-6.9-16.5 0-6.4 2.6-12.2 6.9-16.4 4.2-4.2 10-6.8 16.4-6.8 6.4 0 12.3 2.6 16.5 6.8 4.2 4.2 6.8 10 6.8 16.4 0 6.5-2.6 12.3-6.8 16.5-4.2 4.2-10.1 6.8-16.5 6.8z"/>
				<path id="&lt;Path&gt;" class="s1" d="m409 402.6c-5.7 0-10.7-2.3-14.4-5.9-3.7-3.7-6-8.8-6-14.4 0-5.7 2.3-10.8 6-14.4 3.7-3.7 8.7-6 14.4-6 5.6 0 10.7 2.3 14.4 6 3.7 3.6 5.9 8.7 5.9 14.4 0 5.6-2.2 10.7-5.9 14.4-3.7 3.6-8.8 5.9-14.4 5.9z"/>
				<path id="&lt;Path&gt;" class="s1" d="m358.6 446c-4.8 0-9.2-1.9-12.3-5.1-3.2-3.1-5.1-7.5-5.1-12.3 0-4.8 1.9-9.2 5.1-12.4 3.1-3.1 7.5-5.1 12.3-5.1 4.8 0 9.2 2 12.4 5.1 3.1 3.2 5.1 7.6 5.1 12.4 0 4.8-2 9.2-5.1 12.3-3.2 3.2-7.6 5.1-12.4 5.1z"/>
				<path id="&lt;Path&gt;" class="s1" d="m326.1 503.3c-4 0-7.6-1.6-10.2-4.3-2.7-2.6-4.3-6.2-4.3-10.2 0-4.1 1.6-7.7 4.3-10.3 2.6-2.7 6.2-4.3 10.2-4.3 4.1 0 7.7 1.6 10.3 4.3 2.7 2.6 4.3 6.2 4.3 10.3 0 4-1.6 7.6-4.3 10.2-2.6 2.7-6.2 4.3-10.3 4.3z"/>
				<path id="&lt;Path&gt;" class="s1" d="m315.2 567.9c-3.2 0-6.1-1.3-8.2-3.4-2.2-2.1-3.5-5-3.5-8.2 0-3.2 1.3-6.2 3.5-8.3 2.1-2.1 5-3.4 8.2-3.4 3.2 0 6.1 1.3 8.2 3.4 2.1 2.1 3.4 5.1 3.4 8.3 0 3.2-1.3 6.1-3.4 8.2-2.1 2.1-5 3.4-8.2 3.4z"/>
				<path id="&lt;Path&gt;" class="s1" d="m326.9 632.4c-2.4 0-4.6-1-6.2-2.6-1.6-1.6-2.6-3.7-2.6-6.2 0-2.4 1-4.5 2.6-6.1 1.6-1.6 3.8-2.6 6.2-2.6 2.4 0 4.6 1 6.1 2.6 1.6 1.6 2.6 3.7 2.6 6.1 0 2.5-1 4.6-2.6 6.2-1.5 1.6-3.7 2.6-6.1 2.6z"/>
				<path id="&lt;Path&gt;" class="s1" d="m360 689.3c-1.6 0-3.1-0.6-4.1-1.7-1.1-1.1-1.7-2.5-1.7-4.1 0-1.6 0.6-3.1 1.7-4.1 1-1.1 2.5-1.7 4.1-1.7 1.6 0 3 0.6 4.1 1.7 1.1 1 1.7 2.5 1.7 4.1 0 1.6-0.6 3-1.7 4.1-1.1 1.1-2.5 1.7-4.1 1.7z"/>
				<path id="&lt;Path&gt;" class="s1" d="m410.7 732.3c-0.8 0-1.5-0.4-2-0.9-0.6-0.5-0.9-1.3-0.9-2.1 0-0.8 0.3-1.5 0.9-2 0.5-0.5 1.2-0.9 2-0.9 0.8 0 1.6 0.4 2.1 0.9 0.5 0.5 0.8 1.2 0.8 2 0 0.8-0.3 1.6-0.8 2.1-0.5 0.5-1.3 0.9-2.1 0.9z"/>
			</g>
			<g id="&lt;Group&gt;">
				<path id="&lt;Path&gt;" class="s0" d="m652 447.3c-1.1 0-2-0.4-2.7-1.1-0.7-0.7-1.1-1.6-1.1-2.7 0-1 0.4-1.9 1.1-2.6 0.7-0.7 1.6-1.1 2.7-1.1 1 0 1.9 0.4 2.6 1.1 0.7 0.7 1.1 1.6 1.1 2.6 0 1.1-0.4 2-1.1 2.7-0.7 0.7-1.6 1.1-2.6 1.1z"/>
				<path id="&lt;Path&gt;" class="s0" d="m686.4 514.4c-2.1 0-4-0.8-5.3-2.2-1.4-1.3-2.2-3.2-2.2-5.3 0-2 0.8-3.9 2.2-5.3 1.3-1.3 3.2-2.1 5.3-2.1 2 0 3.9 0.8 5.2 2.1 1.4 1.4 2.2 3.3 2.2 5.3 0 2.1-0.8 4-2.2 5.3-1.3 1.4-3.2 2.2-5.2 2.2z"/>
				<path id="&lt;Path&gt;" class="s0" d="m691.7 590.1c-3.1 0-5.9-1.3-7.9-3.3-2.1-2.1-3.3-4.9-3.3-8 0-3.1 1.2-5.9 3.3-7.9 2-2 4.8-3.3 7.9-3.3 3.1 0 5.9 1.3 7.9 3.3 2.1 2 3.3 4.8 3.3 7.9 0 3.1-1.2 5.9-3.3 8-2 2-4.8 3.3-7.9 3.3z"/>
				<path id="&lt;Path&gt;" class="s0" d="m667 661.6c-4.1 0-7.9-1.7-10.6-4.4-2.7-2.7-4.4-6.5-4.4-10.6 0-4.1 1.7-7.9 4.4-10.6 2.7-2.7 6.5-4.4 10.6-4.4 4.1 0 7.9 1.7 10.6 4.4 2.7 2.7 4.4 6.5 4.4 10.6 0 4.1-1.7 7.9-4.4 10.6-2.7 2.7-6.5 4.4-10.6 4.4z"/>
				<path id="&lt;Path&gt;" class="s0" d="m616.6 716.8c-5.2 0-9.9-2.1-13.2-5.4-3.4-3.4-5.5-8.1-5.5-13.3 0-5.1 2.1-9.8 5.5-13.2 3.3-3.4 8-5.5 13.2-5.5 5.1 0 9.8 2.1 13.2 5.5 3.4 3.4 5.5 8.1 5.5 13.2 0 5.2-2.1 9.9-5.5 13.3-3.4 3.3-8.1 5.4-13.2 5.4z"/>
				<path id="&lt;Path&gt;" class="s0" d="m549.5 747c-6.2 0-11.8-2.5-15.9-6.6-4-4-6.6-9.6-6.6-15.8 0-6.2 2.6-11.9 6.6-15.9 4.1-4.1 9.7-6.6 15.9-6.6 6.2 0 11.8 2.5 15.9 6.6 4 4 6.5 9.7 6.5 15.9 0 6.2-2.5 11.8-6.5 15.8-4.1 4.1-9.7 6.6-15.9 6.6z"/>
				<path id="&lt;Path&gt;" class="s0" d="m477.4 747.2c-7.3 0-13.8-3-18.6-7.7-4.7-4.7-7.6-11.3-7.6-18.5 0-7.2 2.9-13.8 7.6-18.5 4.8-4.8 11.3-7.7 18.6-7.7 7.2 0 13.7 2.9 18.5 7.7 4.7 4.7 7.6 11.3 7.6 18.5 0 7.2-2.9 13.8-7.6 18.5-4.8 4.7-11.3 7.7-18.5 7.7z"/>
			</g>
			<g id="&lt;Group&gt;">
				<path id="&lt;Path&gt;" class="s0" d="m557 449.3c-7.2 0-13.7-2.9-18.5-7.7-4.7-4.7-7.6-11.2-7.6-18.5 0-7.2 2.9-13.7 7.6-18.5 4.8-4.7 11.3-7.6 18.5-7.6 7.3 0 13.8 2.9 18.6 7.6 4.7 4.8 7.6 11.3 7.6 18.5 0 7.3-2.9 13.8-7.6 18.5-4.8 4.8-11.3 7.7-18.6 7.7z"/>
				<path id="&lt;Path&gt;" class="s0" d="m491.2 443.8c-6 0-11.4-2.5-15.4-6.4-3.9-4-6.4-9.4-6.4-15.5 0-6 2.5-11.4 6.4-15.4 4-3.9 9.4-6.4 15.4-6.4 6.1 0 11.5 2.5 15.5 6.4 3.9 4 6.4 9.4 6.4 15.4 0 6.1-2.5 11.5-6.4 15.5-4 3.9-9.4 6.4-15.5 6.4z"/>
				<path id="&lt;Path&gt;" class="s0" d="m432.5 469.1c-4.8 0-9.2-1.9-12.3-5.1-3.2-3.2-5.1-7.5-5.1-12.3 0-4.9 1.9-9.2 5.1-12.4 3.1-3.1 7.5-5.1 12.3-5.1 4.8 0 9.2 2 12.3 5.1 3.2 3.2 5.2 7.5 5.2 12.4 0 4.8-2 9.1-5.2 12.3-3.1 3.2-7.5 5.1-12.3 5.1z"/>
				<path id="&lt;Path&gt;" class="s0" d="m394.4 518.4c-3.6 0-6.9-1.4-9.2-3.8-2.4-2.4-3.9-5.7-3.9-9.3 0-3.6 1.5-6.9 3.9-9.2 2.3-2.4 5.6-3.9 9.2-3.9 3.6 0 6.9 1.5 9.3 3.9 2.3 2.3 3.8 5.6 3.8 9.2 0 3.6-1.5 6.9-3.8 9.3-2.4 2.4-5.7 3.8-9.3 3.8z"/>
				<path id="&lt;Path&gt;" class="s0" d="m385.9 579.3c-2.4 0-4.6-0.9-6.2-2.5-1.6-1.6-2.6-3.8-2.6-6.2 0-2.4 1-4.6 2.6-6.2 1.6-1.5 3.8-2.5 6.2-2.5 2.4 0 4.5 1 6.1 2.5 1.6 1.6 2.6 3.8 2.6 6.2 0 2.4-1 4.6-2.6 6.2-1.6 1.6-3.7 2.5-6.1 2.5z"/>
				<path id="&lt;Path&gt;" class="s0" d="m408.9 636.6c-1.2 0-2.3-0.4-3.1-1.2-0.8-0.8-1.3-1.9-1.3-3.1 0-1.2 0.5-2.3 1.3-3.1 0.8-0.8 1.9-1.3 3.1-1.3 1.2 0 2.3 0.5 3.1 1.3 0.7 0.8 1.2 1.9 1.2 3.1 0 1.2-0.5 2.3-1.2 3.1-0.8 0.8-1.9 1.2-3.1 1.2z"/>
			</g>
		</g>
	</g>
</svg>