<?xml version="1.0" standalone="no"?>
<!DOCTYPE svg PUBLIC "-//W3C//DTD SVG 1.1//EN" "http://www.w3.org/Graphics/SVG/1.1/DTD/svg11.dtd" >
<svg xmlns="http://www.w3.org/2000/svg" xmlns:xlink="http://www.w3.org/1999/xlink" version="1.1">
<metadata>
Created by FontForge 20201107 at Fri Sep  7 16:58:00 2018
 By 
Copyright 2018 The Kodchasan Project Authors (https://github.com/cadsondemak/Kodchasan)
</metadata>
<defs>
<font id="Kodchasan-SemiBold" horiz-adv-x="729" >
  <font-face 
    font-family="Kodchasan SemiBold"
    font-weight="600"
    font-stretch="normal"
    units-per-em="1000"
    panose-1="0 0 7 0 0 0 0 0 0 0"
    ascent="800"
    descent="-200"
    x-height="490"
    cap-height="710"
    bbox="-432 -466 1194 1230"
    underline-thickness="50"
    underline-position="-100"
    unicode-range="U+000D-2215"
  />
<missing-glyph 
d="M96 848h536v-848h-536v848zM583 50v748h-439v-748h439z" />
    <glyph glyph-name="fi" unicode="fi" horiz-adv-x="650" 
d="M576.5 478q15.5 -14 15.5 -39v-396q0 -24 -15.5 -38.5t-41.5 -14.5t-40.5 14t-14.5 39v362h-251v-362q0 -25 -15 -39t-41 -14t-41 14t-15 39v362h-28q-28 0 -44 11.5t-16 31.5q0 21 16 32.5t44 11.5h28v44q0 94 61 148.5t165 54.5q63 0 120.5 -22.5t92.5 -59.5
q10 -11 10 -28q0 -22 -16 -37q-13 -12 -31 -12q-21 0 -40 17q-29 24 -65 38t-71 14q-56 0 -85 -28t-29 -81v-48h306q26 0 41.5 -14z" />
    <glyph glyph-name="fl" unicode="fl" horiz-adv-x="666" 
d="M132.5 4.5q-15.5 14.5 -15.5 38.5v362h-28q-26 0 -43 11t-17 32q0 22 16.5 33t43.5 11h28v44q0 94 61 148.5t165 54.5q126 0 211 -71q20 -17 29 -33.5t9 -36.5v-555q0 -25 -15.5 -39t-41.5 -14q-25 0 -40 14t-15 39v362h-251v-362q0 -25 -15 -39t-41 -14
q-25 0 -40.5 14.5zM480 492v114q-55 43 -137 43q-56 0 -85 -28t-29 -81v-48h251z" />
    <glyph glyph-name=".notdef" 
d="M96 848h536v-848h-536v848zM583 50v748h-439v-748h439z" />
    <glyph glyph-name=".null" horiz-adv-x="0" 
 />
    <glyph glyph-name="nonmarkingreturn" unicode="&#xd;" horiz-adv-x="268" 
 />
    <glyph glyph-name="NULL" horiz-adv-x="0" 
 />
    <glyph glyph-name="NULL" horiz-adv-x="0" 
 />
    <glyph glyph-name="space" unicode=" " horiz-adv-x="268" 
 />
    <glyph glyph-name="exclam" unicode="!" horiz-adv-x="271" 
d="M84 224l-8 433q0 24 17 38.5t43 14.5t43.5 -14.5t16.5 -38.5l-8 -433q0 -25 -13.5 -38.5t-38.5 -13.5q-52 0 -52 52zM79 8.5q-21 18.5 -21 49.5t21 50.5t57 19.5q35 0 56 -19.5t21 -50.5t-21 -49.5t-56 -18.5q-36 0 -57 18.5z" />
    <glyph glyph-name="quotedbl" unicode="&#x22;" horiz-adv-x="380" 
d="M54.5 485.5q-10.5 11.5 -10.5 29.5q0 11 3 21l36 149q5 22 17.5 34t31.5 12q9 0 18 -3q37 -12 37 -44q0 -11 -4 -22l-53 -151q-6 -17 -17.5 -27t-27.5 -10q-20 0 -30.5 11.5zM204 486q-11 12 -11 30q0 10 3 20l36 149q5 22 17.5 34t31.5 12q9 0 18 -3q37 -10 37 -43
q0 -12 -4 -23l-53 -151q-6 -17 -17.5 -27t-27.5 -10q-19 0 -30 12z" />
    <glyph glyph-name="numbersign" unicode="#" horiz-adv-x="826" 
d="M783 475q0 -21 -14 -32.5t-40 -11.5h-88l-47 -153h78q54 0 54 -45q0 -21 -14 -32.5t-40 -11.5h-105l-48 -159q-7 -22 -19.5 -31t-35.5 -9t-36 11t-13 28q0 5 2 13l45 147h-199l-48 -159q-7 -22 -19.5 -31t-35.5 -9t-35.5 11t-12.5 28q0 3 2 13l44 147h-58q-27 0 -42 12
t-15 32q0 22 15 33.5t42 11.5h85l47 153h-75q-27 0 -42 12t-15 32q0 22 15 33.5t42 11.5h101l46 151q6 19 20 29t38 10q22 0 34 -9.5t12 -26.5q0 -10 -2 -15l-42 -139h198l46 151q11 39 57 39q22 0 34.5 -10t12.5 -27q0 -4 -2 -14l-42 -139h61q54 0 54 -45zM535 431h-198
l-47 -153h199z" />
    <glyph glyph-name="dollar" unicode="$" horiz-adv-x="703" 
d="M585.5 52q-68.5 -49 -187.5 -52v-74q0 -17 -10 -26.5t-29 -9.5t-28.5 10t-9.5 26v78q-78 9 -145 40t-114 81q-13 13 -13 29q0 19 18 37q14 13 30 13q20 0 42 -21q35 -33 82 -55.5t100 -30.5v217q-130 31 -190 79.5t-60 127.5q0 75 66 124t184 54v94q0 16 10 26t28 10
q19 0 29 -9.5t10 -26.5v-96q77 -8 135 -37.5t88 -76.5q10 -16 10 -30q0 -22 -22 -38q-11 -8 -25 -8q-13 0 -25 6t-20 16q-23 29 -59 48.5t-82 26.5v-203q131 -30 193.5 -81.5t62.5 -135.5q0 -83 -68.5 -132zM218.5 458.5q32.5 -23.5 102.5 -40.5v189q-135 -6 -135 -86
q0 -39 32.5 -62.5zM502.5 117q36.5 23 36.5 67q0 42 -33 67t-108 45v-204q68 2 104.5 25z" />
    <glyph glyph-name="percent" unicode="%" horiz-adv-x="757" 
d="M113.5 14q-5.5 10 -5.5 22q0 17 11 32l429 623q17 23 42 23q15 0 30 -8q28 -15 28 -39q0 -13 -10 -28l-433 -628q-7 -11 -18.5 -17.5t-24.5 -6.5q-17 0 -34 11q-9 6 -14.5 16zM126 419q-38 21 -60.5 57.5t-22.5 78.5q0 43 22.5 79t60.5 57t83 21t83.5 -21t60.5 -57
t22 -79t-22.5 -79t-60.5 -57t-83 -21t-83 21zM258 503q19 20 19 52q0 33 -19 53t-49 20q-31 0 -50 -20t-19 -53q0 -32 19 -52t50 -20q30 0 49 20zM465 11q-38 21 -60.5 57.5t-22.5 78.5q0 43 22 79t60.5 57t83.5 21t83.5 -21t60.5 -57t22 -79t-22.5 -79t-60.5 -57t-83 -21
t-83 21zM597 95q19 20 19 52q0 34 -18.5 54t-49.5 20t-50 -20t-19 -54q0 -32 19 -52t50 -20q30 0 49 20z" />
    <glyph glyph-name="ampersand" unicode="&#x26;" horiz-adv-x="783" 
d="M117 47q-74 57 -74 155q0 72 46 126t129 81q-41 31 -62.5 64t-21.5 75q0 76 50 119t138 43q84 0 134.5 -43.5t50.5 -119.5q0 -48 -32.5 -90.5t-90.5 -70.5l169 -154q17 33 25.5 66.5t13.5 78.5q2 22 15.5 34.5t35.5 12.5q26 0 42 -14t16 -35q0 -7 -1 -10
q-16 -120 -70 -205l93 -88q17 -14 17 -33q0 -18 -17 -35q-13 -14 -33 -14q-19 0 -33 12l-92 86q-37 -39 -100.5 -68.5t-141.5 -29.5q-132 0 -206 57zM399 549q0 34 -21 54t-58 20t-57.5 -19.5t-20.5 -53.5q0 -30 18 -53.5t55 -49.5q84 42 84 102zM421 98q46 20 76 57
l-206 188q-67 -16 -103 -51.5t-36 -89.5q0 -55 45.5 -89.5t124.5 -34.5q53 0 99 20z" />
    <glyph glyph-name="quotesingle" unicode="'" horiz-adv-x="231" 
d="M54 486.5q-11 12.5 -11 31.5q0 6 2 18l36 149q5 22 18 33.5t32 11.5q12 0 18 -2q39 -12 39 -44q0 -11 -4 -22l-53 -151q-6 -17 -18 -27t-28 -10q-20 0 -31 12.5z" />
    <glyph glyph-name="parenleft" unicode="(" horiz-adv-x="318" 
d="M217 -133q-29 0 -49 29q-125 179 -125 409t125 409q20 29 49 29q14 0 30 -8q28 -14 28 -37q0 -13 -10 -28q-51 -71 -79 -164t-28 -201q0 -111 28 -204t78 -160q11 -14 11 -29q0 -22 -28 -37q-16 -8 -30 -8z" />
    <glyph glyph-name="parenright" unicode=")" horiz-adv-x="318" 
d="M43 -88q0 13 11 29q50 67 78 160t28 204q0 107 -27.5 200.5t-78.5 164.5q-11 14 -11 28q0 22 28 37q16 8 30 8q30 0 50 -29q124 -179 124 -409t-124 -409q-20 -29 -50 -29q-14 0 -30 8q-28 15 -28 37z" />
    <glyph glyph-name="asterisk" unicode="*" horiz-adv-x="459" 
d="M197.5 338q-11.5 12 -11.5 31v76l-66 -52q-16 -13 -34 -13q-20 0 -32 16q-12 14 -12 27q0 18 21 33l88 62l-87 61q-22 16 -22 36q0 13 11 26q14 15 32 15t37 -14l64 -50v76q0 19 12 30.5t32 11.5t32 -11.5t12 -30.5v-76l64 50q19 14 37 14q17 0 31 -15q11 -14 11 -27
q0 -20 -21 -35l-87 -61l88 -62q20 -15 20 -33q0 -15 -11 -27q-13 -16 -32 -16q-18 0 -34 13l-66 52v-76q0 -19 -12 -31t-32 -12q-21 0 -32.5 12z" />
    <glyph glyph-name="plus" unicode="+" horiz-adv-x="547" 
d="M512.5 283.5q14.5 -11.5 14.5 -33.5q0 -20 -15 -32t-42 -12h-144v-128q0 -25 -13.5 -38t-39.5 -13q-24 0 -37.5 13.5t-13.5 37.5v128h-145q-27 0 -42 12t-15 32q0 22 14.5 33.5t42.5 11.5h145v130q0 24 13.5 37.5t37.5 13.5q26 0 39.5 -13t13.5 -38v-130h144
q28 0 42.5 -11.5z" />
    <glyph glyph-name="comma" unicode="," horiz-adv-x="248" 
d="M46 -118q0 13 18 27q22 18 38 38.5t20 39.5q-5 -1 -14 -1q-26 0 -44.5 17t-18.5 44q0 34 20.5 53t58.5 19t59.5 -23.5t21.5 -64.5q0 -39 -26.5 -82t-72.5 -75q-21 -15 -35 -15q-11 0 -19 8q-6 7 -6 15z" />
    <glyph glyph-name="hyphen" unicode="-" horiz-adv-x="495" 
d="M57.5 211q-14.5 12 -14.5 32q0 45 56 45h297q56 0 56 -45q0 -20 -14.5 -32t-41.5 -12h-297q-27 0 -41.5 12z" />
    <glyph glyph-name="period" unicode="." horiz-adv-x="232" 
d="M64.5 20.5q-21.5 20.5 -21.5 48.5q0 29 21 50t53 21q30 0 51 -21t21 -50q0 -28 -21 -48.5t-51 -20.5q-31 0 -52.5 20.5z" />
    <glyph glyph-name="slash" unicode="/" horiz-adv-x="556" 
d="M51 -82.5q-8 12.5 -8 27.5q0 14 6 26l359 794q16 33 48 33q12 0 23 -4q17 -6 26 -17.5t9 -26.5q0 -11 -6 -23l-362 -797q-8 -17 -21 -26.5t-29 -9.5q-11 0 -20 4q-17 7 -25 19.5z" />
    <glyph glyph-name="zero" unicode="0" horiz-adv-x="711" 
d="M188.5 33q-70.5 43 -107.5 124t-37 193t37 193t107.5 124t167.5 43t167 -43t107.5 -124t37.5 -193t-37.5 -193t-107.5 -124t-167 -43t-167.5 43zM502 152q52 71 52 198t-52 198t-146 71t-146.5 -70.5t-52.5 -198.5q0 -127 52.5 -198t146.5 -71t146 71z" />
    <glyph glyph-name="one" unicode="1" horiz-adv-x="378" 
d="M220.5 4q-15.5 14 -15.5 39v544l-99 -38q-15 -6 -29 -6q-15 0 -27 7t-18 20q-6 12 -6 24q0 14 9.5 25.5t27.5 18.5l183 69q11 4 22 4q23 0 37 -15t14 -40v-613q0 -24 -15.5 -38.5t-41.5 -14.5t-41.5 14z" />
    <glyph glyph-name="two" unicode="2" horiz-adv-x="650" 
d="M57.5 14.5q-14.5 14.5 -14.5 34.5q0 30 27 51l339 272q45 36 61 62.5t16 67.5q0 55 -39 86t-108 31q-62 0 -111 -22t-80 -63q-19 -25 -44 -25q-15 0 -29 10q-23 15 -23 39q0 19 15 37q46 55 116 85t156 30q122 0 191.5 -55.5t69.5 -152.5q0 -54 -30.5 -101.5
t-101.5 -103.5l-257 -208h344q52 0 52 -45q0 -44 -52 -44h-459q-24 0 -38.5 14.5z" />
    <glyph glyph-name="three" unicode="3" horiz-adv-x="664" 
d="M176.5 21.5q-72.5 31.5 -119.5 89.5q-14 17 -14 35q0 23 23 40q14 10 30 10q24 0 43 -25q33 -43 84 -66.5t111 -23.5q82 0 127.5 30t45.5 85q0 64 -30 95t-92 31h-110q-27 0 -42 12t-15 32q0 22 15 33.5t42 11.5h110q48 0 76.5 28t28.5 76q0 50 -39.5 77t-114.5 27
q-53 0 -97 -19t-76 -55q-21 -24 -44 -24q-16 0 -30 10q-22 15 -22 39q0 20 15 36q48 50 113.5 77t140.5 27q80 0 141 -24.5t94 -68.5t33 -102q0 -44 -25.5 -81t-72.5 -63v-2q59 -27 87 -69t28 -104q0 -97 -76.5 -151.5t-210.5 -54.5q-85 0 -157.5 31.5z" />
    <glyph glyph-name="four" unicode="4" horiz-adv-x="657" 
d="M421.5 5.5q-15.5 15.5 -15.5 41.5v102h-327q-24 0 -38.5 11.5t-14.5 28.5q0 19 14 34l379 467q7 9 20.5 14.5t26.5 5.5q22 0 37.5 -12.5t15.5 -32.5v-427h56q26 0 40.5 -11t14.5 -34q0 -22 -15 -33t-40 -11h-56v-102q0 -25 -16 -41t-41 -16t-40.5 15.5zM413 238v296
l-241 -296h241z" />
    <glyph glyph-name="five" unicode="5" horiz-adv-x="677" 
d="M177 22q-73 32 -120 89q-14 17 -14 35q0 24 23 40q14 10 30 10q25 0 43 -25q32 -43 83.5 -66.5t110.5 -23.5q90 0 138.5 43t48.5 122q0 75 -45.5 116t-127.5 41q-49 0 -89.5 -16t-64.5 -45q-30 -35 -63 -35q-8 0 -17 3q-21 7 -31.5 21.5t-8.5 33.5l39 259q6 36 33 56
t71 20h330q26 0 40 -11t14 -34q0 -22 -14.5 -33t-39.5 -11h-297q-30 0 -35 -33l-21 -138q36 26 81 40.5t92 14.5q81 0 142 -30t93.5 -86t32.5 -132q0 -77 -35.5 -135.5t-103.5 -90t-161 -31.5q-84 0 -157 32z" />
    <glyph glyph-name="six" unicode="6" horiz-adv-x="674" 
d="M185 33q-69 43 -105.5 124t-36.5 194q0 112 37.5 192.5t107.5 123.5t166 43q142 0 241 -84q18 -16 18 -37q0 -19 -18 -36q-14 -13 -31 -13q-19 0 -44 19q-43 33 -80.5 46.5t-85.5 13.5q-96 0 -149 -67t-53 -179l2 -1q31 47 85.5 75t120.5 28q127 0 199 -64.5t72 -176.5
q0 -114 -75.5 -179t-206.5 -65q-95 0 -164 43zM470.5 122.5q46.5 41.5 46.5 109.5q0 70 -46 111t-122 41q-48 0 -87.5 -19.5t-62 -54.5t-22.5 -79q0 -67 49 -108.5t123 -41.5q75 0 121.5 41.5z" />
    <glyph glyph-name="seven" unicode="7" horiz-adv-x="597" 
d="M126 37q0 17 10 34l308 540h-362q-25 0 -40 11t-15 33q0 45 55 45h429q27 0 43 -13t16 -37t-13 -47l-328 -585q-9 -13 -21.5 -21t-27.5 -8t-30 9q-24 14 -24 39z" />
    <glyph glyph-name="eight" unicode="8" horiz-adv-x="681" 
d="M122.5 44.5q-79.5 54.5 -79.5 153.5q0 54 36.5 98.5t99.5 69.5v2q-52 23 -81 61.5t-29 85.5q0 91 71.5 143t200.5 52t200 -52t71 -143q0 -47 -29 -85.5t-81 -61.5v-2q63 -25 99.5 -69.5t36.5 -98.5q0 -99 -79.5 -153.5t-217.5 -54.5q-139 0 -218.5 54.5zM456 438.5
q42 28.5 42 76.5q0 50 -41 77t-116 27t-116.5 -27.5t-41.5 -76.5q0 -48 42.5 -76.5t115.5 -28.5t115 28.5zM475.5 111.5q48.5 30.5 48.5 86.5q0 60 -48.5 92.5t-134.5 32.5t-135 -32.5t-49 -92.5q0 -56 48.5 -86.5t135.5 -30.5q86 0 134.5 30.5z" />
    <glyph glyph-name="nine" unicode="9" horiz-adv-x="674" 
d="M201.5 9.5q-58.5 19.5 -108.5 59.5q-19 16 -19 37q0 22 20 38q14 11 28 11q18 0 46 -20q42 -31 77.5 -42.5t86.5 -11.5q91 0 141 61.5t50 180.5l-2 1q-31 -48 -85.5 -76t-119.5 -28q-81 0 -143 30t-96 85t-34 129q0 75 34.5 130.5t98.5 85.5t152 30q152 0 227.5 -95
t75.5 -266q0 -113 -36 -193.5t-103 -123t-160 -42.5q-72 0 -130.5 19.5zM451 353q46 42 46 114q0 71 -45.5 111.5t-123.5 40.5q-79 0 -125 -41t-46 -112q0 -73 45.5 -114t124.5 -41q78 0 124 42z" />
    <glyph glyph-name="colon" unicode=":" horiz-adv-x="239" 
d="M64 359q-21 20 -21 50q0 32 21 52t54 20q34 0 56 -20t22 -52q0 -30 -22 -50t-56 -20q-33 0 -54 20zM64 13q-21 20 -21 51t21 51t54 20q34 0 56 -20t22 -51t-22 -51t-56 -20q-33 0 -54 20z" />
    <glyph glyph-name="semicolon" unicode=";" horiz-adv-x="246" 
d="M70 359q-21 20 -21 50q0 32 21 52t54 20q34 0 56 -20t22 -52q0 -30 -22 -50t-56 -20q-33 0 -54 20zM46 -115q0 12 18 26q21 16 37 36.5t20 39.5q-5 -1 -14 -1q-26 0 -44 16.5t-18 43.5q0 34 20.5 52.5t57.5 18.5t58.5 -23t21.5 -64q0 -38 -26 -80.5t-71 -73.5
q-21 -15 -34 -15q-11 0 -20 9q-6 7 -6 15z" />
    <glyph glyph-name="less" unicode="&#x3c;" horiz-adv-x="628" 
d="M77 204q-34 19 -34 48t34 48l426 237q17 9 32 9q26 0 41 -25q9 -13 9 -27q0 -13 -8 -24.5t-23 -18.5l-367 -199l367 -199q31 -17 31 -43q0 -14 -9 -27q-17 -26 -42 -26q-13 0 -31 10z" />
    <glyph glyph-name="equal" unicode="=" horiz-adv-x="537" 
d="M58 301q-15 12 -15 32q0 22 14.5 34t42.5 12h338q27 0 42 -12t15 -34q0 -20 -15 -32t-42 -12h-338q-27 0 -42 12zM58 124q-15 12 -15 33t15 33t42 12h338q27 0 42 -12t15 -33t-15 -33t-42 -12h-338q-27 0 -42 12z" />
    <glyph glyph-name="greater" unicode="&#x3e;" horiz-adv-x="628" 
d="M93 -43q-26 0 -41 26q-9 13 -9 27q0 26 31 43l367 199l-367 199q-31 17 -31 43q0 14 9 27q15 25 41 25q15 0 32 -9l426 -237q33 -18 33 -48t-33 -48l-426 -237q-18 -10 -32 -10z" />
    <glyph glyph-name="question" unicode="?" horiz-adv-x="587" 
d="M247.5 186q-15.5 14 -15.5 39v13q0 37 15 65t37 47.5t56 44.5q45 32 67 57t22 61q0 49 -33.5 77t-98.5 28q-98 0 -161 -73q-18 -21 -43 -21q-16 0 -27 8q-23 15 -23 39q0 15 10 29q39 53 102 81.5t142 28.5q76 0 132 -24.5t85.5 -69t29.5 -103.5q0 -39 -16 -69
t-38.5 -50.5t-58.5 -46.5q-44 -32 -64.5 -55t-20.5 -54v-13q0 -25 -16 -39t-42 -14q-25 0 -40.5 14zM233 8.5q-21 18.5 -21 49.5t21 50.5t57 19.5q35 0 56 -19.5t21 -50.5t-21 -49.5t-56 -18.5q-36 0 -57 18.5z" />
    <glyph glyph-name="at" unicode="@" horiz-adv-x="940" 
d="M237 -22.5q-93 46.5 -143.5 131t-50.5 197.5q0 128 52.5 219t151.5 138.5t238 47.5q127 0 220 -43t142.5 -122.5t49.5 -186.5q0 -115 -47 -187.5t-134 -72.5q-39 0 -64.5 17.5t-36.5 48.5q-61 -72 -172 -72q-93 0 -144.5 39.5t-51.5 110.5q0 72 49.5 111t142.5 39
q44 0 80.5 -11.5t61.5 -31.5v23q0 100 -104 100q-75 0 -133 -36q-16 -11 -33 -11t-28 11q-12 12 -12 25q0 17 17 32q31 26 82 41.5t105 15.5q104 0 155.5 -48t51.5 -127v-164q0 -16 9.5 -25t24.5 -9q35 0 53.5 47t18.5 135q0 122 -79.5 191.5t-222.5 69.5q-162 0 -248 -82
t-86 -237q0 -85 37.5 -148.5t106.5 -98t162 -34.5q82 0 125 16q23 9 39 9q23 0 35 -16q11 -17 11 -29q0 -22 -28 -38q-30 -16 -78 -24t-107 -8q-125 0 -218 46.5zM548 187.5q34 21.5 34 61.5q0 30 -32 51t-99 21q-51 0 -77 -22t-26 -56q0 -36 26.5 -56.5t74.5 -20.5
q65 0 99 21.5z" />
    <glyph glyph-name="A" unicode="A" 
d="M74 5q-15 14 -15 39v364q0 142 81 222t225 80q94 0 163 -36.5t105.5 -104.5t36.5 -161v-364q0 -25 -15 -39t-41 -14t-42 14.5t-16 38.5v184h-383v-184q0 -24 -16 -38.5t-42 -14.5t-41 14zM556 317v94q0 102 -48.5 155t-142.5 53q-95 0 -143.5 -52.5t-48.5 -155.5v-94h383
z" />
    <glyph glyph-name="B" unicode="B" horiz-adv-x="735" 
d="M103.5 37.5q-39.5 37.5 -39.5 104.5v419q0 65 38 102t106 37h233q111 0 172 -49.5t61 -141.5q0 -48 -27 -87t-72 -59v-2q50 -19 80.5 -60t30.5 -91q0 -98 -62 -154t-171 -56h-239q-71 0 -110.5 37.5zM444 403q53 0 84 28t31 77q0 103 -118 103h-218q-22 0 -34.5 -14
t-12.5 -38v-156h268zM444 89q127 0 127 119q0 51 -34 79.5t-93 28.5h-268v-175q0 -24 12.5 -38t34.5 -14h221z" />
    <glyph glyph-name="C" unicode="C" horiz-adv-x="764" 
d="M217.5 33.5q-81.5 43.5 -125 124.5t-43.5 191t43.5 191.5t124.5 125.5t191 44q90 0 167 -31t116 -84q11 -16 11 -29q0 -22 -23 -39q-13 -8 -27 -8q-13 0 -25.5 6t-21.5 16q-33 40 -81.5 59t-115.5 19q-115 0 -179.5 -71.5t-64.5 -198.5q0 -125 65 -196.5t180 -71.5
q136 0 209 78q24 24 49 24q16 0 29 -10q20 -17 20 -37q0 -17 -12 -32q-43 -53 -121 -83.5t-174 -30.5q-110 0 -191.5 43.5z" />
    <glyph glyph-name="D" unicode="D" horiz-adv-x="760" 
d="M103.5 37.5q-39.5 37.5 -39.5 104.5v419q0 65 38 102t106 37h140q112 0 193.5 -42.5t125.5 -121.5t44 -187t-43.5 -186.5t-125.5 -120.5t-194 -42h-134q-71 0 -110.5 37.5zM338 89q128 0 192.5 65.5t64.5 194.5t-65 195.5t-192 66.5h-114q-22 0 -34 -14t-12 -38v-418
q0 -24 12 -38t34 -14h114z" />
    <glyph glyph-name="E" unicode="E" horiz-adv-x="644" 
d="M103.5 37.5q-39.5 37.5 -39.5 104.5v419q0 65 38 102t106 37h311q26 0 40 -11.5t14 -33.5q0 -21 -14 -32.5t-40 -11.5h-295q-22 0 -34 -14t-12 -38v-157h265q26 0 40 -11.5t14 -33.5q0 -21 -14 -32.5t-40 -11.5h-265v-172q0 -24 12 -38t34 -14h317q26 0 40 -11.5
t14 -33.5q0 -21 -14 -32.5t-40 -11.5h-327q-71 0 -110.5 37.5z" />
    <glyph glyph-name="F" unicode="F" horiz-adv-x="616" 
d="M79 4q-15 14 -15 39v518q0 65 38 102t106 37h311q26 0 40 -11.5t14 -33.5q0 -21 -14 -32.5t-40 -11.5h-295q-22 0 -34 -14t-12 -38v-167h265q26 0 40 -11.5t14 -33.5q0 -21 -14 -32.5t-40 -11.5h-265v-260q0 -24 -16 -38.5t-42 -14.5t-41 14z" />
    <glyph glyph-name="G" unicode="G" horiz-adv-x="779" 
d="M217.5 33.5q-81.5 43.5 -125 124.5t-43.5 191t43.5 191.5t125 125.5t191.5 44q90 0 167 -31t116 -83q10 -14 10 -30q0 -23 -22 -39q-13 -8 -27 -8q-13 0 -25.5 6t-21.5 16q-33 39 -81.5 58.5t-115.5 19.5q-115 0 -180.5 -71.5t-65.5 -198.5q0 -126 65.5 -197t181.5 -71
q95 0 150.5 39t55.5 106v26q0 23 -9.5 32t-35.5 9h-138q-25 0 -38.5 11.5t-13.5 32.5q0 22 13.5 34t38.5 12h185q57 0 84.5 -25t27.5 -77v-39q0 -73 -41 -130t-114 -89.5t-165 -32.5q-111 0 -192.5 43.5z" />
    <glyph glyph-name="H" unicode="H" horiz-adv-x="740" 
d="M79 4q-15 14 -15 39v614q0 25 15 39t41 14t41.5 -14.5t15.5 -38.5v-253h386v253q0 24 15.5 38.5t41.5 14.5t41.5 -14t15.5 -39v-614q0 -25 -15.5 -39t-41.5 -14t-41.5 14.5t-15.5 38.5v272h-386v-272q0 -24 -15.5 -38.5t-41.5 -14.5t-41 14z" />
    <glyph glyph-name="I" unicode="I" horiz-adv-x="302" 
d="M109.5 4q-15.5 14 -15.5 39v614q0 25 15.5 39t41.5 14q25 0 41 -14.5t16 -38.5v-614q0 -24 -16 -38.5t-41 -14.5q-26 0 -41.5 14z" />
    <glyph glyph-name="J" unicode="J" horiz-adv-x="601" 
d="M153 20q-66 30 -109 85q-12 15 -12 31q0 21 20 38q15 12 32 12q26 0 46 -26q28 -38 71 -58t98 -20q129 0 129 146v429q0 25 15.5 39t41.5 14t41.5 -14.5t15.5 -38.5v-425q0 -72 -30 -127t-85 -85t-128 -30q-80 0 -146 30z" />
    <glyph glyph-name="K" unicode="K" horiz-adv-x="691" 
d="M536 30q-24 111 -82.5 185.5t-167.5 133.5l-108 -89v-217q0 -24 -15.5 -38.5t-41.5 -14.5t-41.5 14t-15.5 39v614q0 25 15.5 39t41.5 14t41.5 -14.5t15.5 -38.5v-272l356 309q15 14 35 14q22 0 36 -16q16 -16 16 -34q0 -20 -20 -36l-242 -211q123 -61 195 -155t88 -209
q3 -22 -10.5 -39t-34.5 -18q-54 0 -61 40z" />
    <glyph glyph-name="L" unicode="L" horiz-adv-x="636" 
d="M104.5 37.5q-39.5 37.5 -39.5 104.5v515q0 25 15 39t41 14t41.5 -14.5t15.5 -38.5v-516q0 -24 12.5 -38t34.5 -14h324q54 0 54 -45q0 -21 -14 -32.5t-40 -11.5h-335q-70 0 -109.5 37.5z" />
    <glyph glyph-name="M" unicode="M" horiz-adv-x="987" 
d="M77.5 4q-15.5 14 -15.5 39v426q0 113 64.5 177t176.5 64q57 0 107.5 -29t82.5 -80q32 52 82 80.5t110 28.5q113 0 176.5 -64t63.5 -177v-426q0 -24 -15.5 -38.5t-41.5 -14.5t-41.5 14t-15.5 39v426q0 77 -30.5 113t-99.5 36q-63 0 -97 -39t-34 -110v-426q0 -25 -15.5 -39
t-41.5 -14t-40.5 14t-14.5 39v426q0 70 -35 109.5t-96 39.5q-70 0 -100.5 -36t-30.5 -113v-426q0 -24 -15.5 -38.5t-41.5 -14.5t-41.5 14z" />
    <glyph glyph-name="N" unicode="N" 
d="M74 4q-15 14 -15 39v388q0 131 81.5 205t224.5 74q94 0 163 -33.5t105.5 -96.5t36.5 -149v-388q0 -25 -15 -39t-41 -14t-41.5 14.5t-15.5 38.5v391q0 89 -50 137t-142 48t-142.5 -48.5t-50.5 -136.5v-391q0 -24 -15.5 -38.5t-41.5 -14.5t-41 14z" />
    <glyph glyph-name="O" unicode="O" horiz-adv-x="833" 
d="M222.5 35q-83.5 45 -128.5 127t-45 188t45 188t128.5 127t194.5 45t194.5 -45t128.5 -127t45 -188t-45 -188t-128.5 -127t-194.5 -45t-194.5 45zM602 153q68 72 68 197q0 126 -69.5 197.5t-189.5 71.5q-76 0 -132 -33t-86 -94t-30 -142q0 -83 31 -143.5t88 -93t135 -32.5
q117 0 185 72z" />
    <glyph glyph-name="P" unicode="P" horiz-adv-x="728" 
d="M79 4q-15 14 -15 39v518q0 65 38 102t106 37h170q148 0 224.5 -62t76.5 -183q0 -119 -75.5 -180.5t-220.5 -61.5h-205v-170q0 -24 -16 -38.5t-42 -14.5t-41 14zM564 455q0 80 -45.5 118t-135.5 38h-159q-22 0 -34 -14t-12 -38v-256h204q182 0 182 152z" />
    <glyph glyph-name="Q" unicode="Q" horiz-adv-x="833" 
d="M668 -41q-12 0 -23 6t-17 17q-6 14 -27 50q-84 -42 -189 -42q-110 0 -192 45.5t-126.5 127t-44.5 187.5t45 188t128.5 127t194.5 45t194.5 -45t128.5 -127t45 -188q0 -81 -27.5 -149t-77.5 -115l14 -24q10 -16 15 -27q9 -16 9 -31q0 -23 -25 -38q-14 -7 -25 -7z
M306.5 244.5q52.5 24.5 109.5 24.5q60 0 113 -25t90 -69q51 72 51 175q0 126 -69.5 197.5t-189.5 71.5q-76 0 -132 -33t-86 -94t-30 -142q0 -104 51 -174q40 44 92.5 68.5zM548 113q-23 32 -56.5 49.5t-73.5 17.5q-42 0 -77 -17.5t-58 -48.5q58 -33 134 -33q73 0 131 32z
" />
    <glyph glyph-name="R" unicode="R" horiz-adv-x="728" 
d="M63 560q0 65 38 102.5t107 37.5h181q145 0 218.5 -58t73.5 -171q0 -107 -65 -166t-180 -59l166 -168q16 -16 16 -35q0 -21 -20 -38q-19 -14 -37 -14q-25 0 -48 24l-220 228h-113v-199q0 -25 -16.5 -39.5t-42.5 -14.5q-27 0 -42.5 14.5t-15.5 39.5v516zM388 335
q96 0 135.5 30.5t39.5 105.5q0 73 -43 105t-132 32h-163q-21 0 -33 -13.5t-12 -37.5v-222h208z" />
    <glyph glyph-name="S" unicode="S" horiz-adv-x="703" 
d="M203.5 23q-84.5 33 -141.5 92q-13 12 -13 29q0 21 18 37q13 13 29 13q21 0 43 -21q45 -44 108.5 -67.5t136.5 -23.5q74 0 114.5 26t40.5 73q0 46 -42 74.5t-143 50.5q-149 32 -216 84.5t-67 135.5q0 54 34.5 96t97 65t144.5 23q92 0 165.5 -31t108.5 -86q10 -16 10 -31
q0 -22 -22 -37q-13 -8 -26 -8q-12 0 -24 6t-20 16q-29 38 -79.5 58.5t-112.5 20.5q-78 0 -119.5 -23.5t-41.5 -68.5q0 -42 40 -68.5t141 -49.5q153 -36 220 -89t67 -138q0 -57 -33.5 -100.5t-94.5 -67t-142 -23.5q-96 0 -180.5 33z" />
    <glyph glyph-name="T" unicode="T" horiz-adv-x="696" 
d="M306.5 4q-15.5 14 -15.5 39v568h-205q-26 0 -40 11.5t-14 32.5q0 22 14 33.5t40 11.5h524q26 0 40.5 -11.5t14.5 -33.5q0 -21 -14.5 -32.5t-40.5 -11.5h-205v-568q0 -24 -15.5 -38.5t-41.5 -14.5t-41.5 14z" />
    <glyph glyph-name="U" unicode="U" horiz-adv-x="734" 
d="M202 27q-69 37 -106 106t-37 163v361q0 25 15 39t41 14t41.5 -14.5t15.5 -38.5v-364q0 -102 50.5 -157t143.5 -55t144 55.5t51 156.5v364q0 24 15.5 38.5t41.5 14.5t41.5 -14t15.5 -39v-361q0 -91 -38.5 -160.5t-109 -107.5t-164.5 -38q-92 0 -161 37z" />
    <glyph glyph-name="V" unicode="V" horiz-adv-x="759" 
d="M270 38.5q-43 48.5 -77 157.5l-140 453q-4 16 -4 22q0 39 53 39q27 0 40.5 -10.5t21.5 -35.5l140 -459q20 -68 37.5 -96.5t38.5 -28.5q20 0 37.5 28.5t38.5 96.5l139 459q8 25 21.5 35.5t40.5 10.5q53 0 53 -38q0 -11 -4 -23l-140 -453q-35 -111 -77.5 -158.5
t-108.5 -47.5q-67 0 -110 48.5z" />
    <glyph glyph-name="W" unicode="W" horiz-adv-x="962" 
d="M197 22.5q-31 32.5 -44 101.5l-102 526q-2 12 -2 16q0 21 13.5 32.5t38.5 11.5q27 0 41.5 -11.5t19.5 -35.5l99 -547q4 -20 8.5 -27.5t13.5 -7.5q18 0 22 34l68 491q7 49 35.5 76.5t72.5 27.5q45 0 73 -27.5t35 -76.5l69 -491q2 -18 7 -26t15 -8q8 0 12.5 7.5t9.5 27.5
l98 547q5 24 19.5 35.5t41.5 11.5q25 0 39 -11.5t14 -32.5q0 -4 -2 -16l-103 -526q-13 -68 -43.5 -101t-82.5 -33t-81 32t-38 99l-66 467q-2 17 -6 24t-11 7t-11 -7t-6 -24l-65 -467q-10 -67 -38.5 -99t-80.5 -32t-83 32.5z" />
    <glyph glyph-name="X" unicode="X" horiz-adv-x="713" 
d="M664 42q0 -13 -6.5 -24.5t-17.5 -18.5q-14 -8 -27 -8q-23 0 -44 26l-212 258l-213 -258q-21 -26 -44 -26q-13 0 -27 8q-11 7 -17.5 18.5t-6.5 24.5q0 19 10 30l232 283l-219 267q-14 17 -14 37q0 13 6 24t16 17q15 9 29 9q25 0 45 -26l203 -247l202 247q20 26 45 26
q14 0 29 -9q10 -7 16 -18t6 -23q0 -21 -13 -37l-220 -267l232 -283q10 -11 10 -30z" />
    <glyph glyph-name="Y" unicode="Y" horiz-adv-x="721" 
d="M657 696q15 -14 15 -39v-112q0 -132 -67.5 -216t-186.5 -101v-185q0 -24 -15.5 -38.5t-41.5 -14.5t-41.5 14t-15.5 39v185q-120 17 -187.5 100t-67.5 217v112q0 25 15.5 39t41.5 14t41.5 -14.5t15.5 -38.5v-115q0 -109 51.5 -168t146.5 -59q94 0 145.5 59.5t51.5 167.5
v115q0 24 16 38.5t42 14.5t41 -14z" />
    <glyph glyph-name="Z" unicode="Z" horiz-adv-x="717" 
d="M83.5 28.5q-34.5 28.5 -34.5 77.5q0 37 14.5 64.5t54.5 58.5l400 310q15 12 21.5 21.5t6.5 23.5q0 27 -38 27h-380q-26 0 -43 11.5t-17 32.5q0 22 17 33.5t43 11.5h404q60 0 94 -27.5t34 -78.5q0 -40 -14 -65.5t-55 -56.5l-400 -311q-15 -11 -21.5 -21.5t-6.5 -24.5
q0 -26 47 -26h398q26 0 43 -11.5t17 -32.5q0 -22 -17 -33.5t-43 -11.5h-431q-59 0 -93.5 28.5z" />
    <glyph glyph-name="bracketleft" unicode="[" horiz-adv-x="344" 
d="M83 -175q-24 22 -24 62v811q0 40 24 62t67 22h95q27 0 42 -12t15 -33q0 -20 -15 -32t-42 -12h-72v-801h72q27 0 42 -12t15 -32q0 -21 -15 -33t-42 -12h-95q-43 0 -67 22z" />
    <glyph glyph-name="backslash" unicode="\" horiz-adv-x="556" 
d="M460 -106q-16 0 -29 9.5t-21 26.5l-362 797q-6 12 -6 23q0 32 35 44q11 4 22 4q32 0 48 -33l360 -795q6 -12 6 -25q0 -15 -8 -27.5t-25 -19.5q-9 -4 -20 -4z" />
    <glyph glyph-name="bracketright" unicode="]" horiz-adv-x="344" 
d="M57 -185q-15 12 -15 33q0 20 15 32t42 12h73v801h-73q-27 0 -42 12t-15 32q0 21 15 33t42 12h95q43 0 67 -22t24 -62v-811q0 -40 -24 -62t-67 -22h-95q-27 0 -42 12z" />
    <glyph glyph-name="asciicircum" unicode="^" horiz-adv-x="615" 
d="M43 377q0 14 9 26l210 297q15 23 46 23t46 -23l210 -297q8 -13 8 -26q0 -26 -24 -43q-14 -11 -31 -11q-14 0 -26.5 7t-19.5 17l-163 245l-163 -245q-8 -11 -20 -17.5t-26 -6.5q-18 0 -32 11q-24 18 -24 43z" />
    <glyph glyph-name="underscore" unicode="_" horiz-adv-x="604" 
d="M60 -128q-17 12 -17 32q0 21 16.5 33t44.5 12h397q27 0 43.5 -12t16.5 -33q0 -20 -16.5 -32t-43.5 -12h-397q-27 0 -44 12z" />
    <glyph glyph-name="grave" unicode="`" horiz-adv-x="242" 
d="M142.5 549q-10.5 6 -16.5 16l-80 139q-8 13 -8 25q0 24 32 41q14 7 28 7q30 0 45 -36l58 -145q3 -7 3 -15q0 -15 -10.5 -26.5t-29.5 -11.5q-11 0 -21.5 6z" />
    <glyph glyph-name="a" unicode="a" horiz-adv-x="583" 
d="M96 35q-57 45 -57 120q0 74 60.5 118t163.5 44q100 0 156 -46v38q0 50 -31.5 76.5t-92.5 26.5q-86 0 -148 -38q-21 -12 -38 -12q-18 0 -33 16q-10 11 -10 26q0 24 21 38q36 27 91 42.5t115 15.5q113 0 177 -51t64 -141v-268q0 -23 -15 -36.5t-41 -13.5t-40.5 13t-14.5 36
v19q-59 -68 -175 -68q-95 0 -152 45zM380 94.5q40 22.5 40 61.5q0 38 -39 60t-107 22q-59 0 -91.5 -22t-32.5 -61q0 -40 31.5 -61.5t90.5 -21.5q68 0 108 22.5z" />
    <glyph glyph-name="b" unicode="b" horiz-adv-x="666" 
d="M68.5 4q-14.5 14 -14.5 39v663q0 25 14.5 39t40.5 14t41 -14t15 -39l1 -292q38 42 88 64t109 22q124 0 194.5 -68t70.5 -187q0 -121 -70 -188t-197 -67q-61 0 -108 21t-88 67v-35q0 -24 -15 -38.5t-41 -14.5t-40.5 14zM471 123q44 43 44 122q0 77 -45 121t-124 44
q-83 0 -132 -44.5t-49 -120.5q0 -77 48 -121t133 -44q81 0 125 43z" />
    <glyph glyph-name="c" unicode="c" horiz-adv-x="597" 
d="M113 58q-74 68 -74 188q0 118 74 186t203 68q72 0 129 -23t90 -65q11 -14 11 -28q0 -23 -24 -40q-11 -8 -25 -8q-28 0 -48 22q-23 25 -57 38.5t-76 13.5q-78 0 -121 -43t-43 -121q0 -79 43 -122.5t121 -43.5q87 0 145 56q24 24 47 24q17 0 29 -11q21 -16 21 -39
q0 -17 -13 -29q-47 -47 -102.5 -69t-126.5 -22q-129 0 -203 68z" />
    <glyph glyph-name="d" unicode="d" horiz-adv-x="666" 
d="M165.5 20.5q-60.5 30.5 -94 88t-33.5 135.5q0 77 32.5 135t93.5 89.5t144 31.5q65 0 110 -22t82 -64l1 292q0 25 15 39t41 14t41 -14t15 -39v-663q0 -25 -15 -39t-41 -14q-25 0 -40.5 14.5t-15.5 38.5v35q-69 -88 -196 -88q-79 0 -139.5 30.5zM453 124q48 44 48 121
t-49.5 121t-130.5 44q-80 0 -125 -44.5t-45 -121.5q0 -79 45 -121.5t125 -42.5q84 0 132 44z" />
    <glyph glyph-name="e" unicode="e" horiz-adv-x="618" 
d="M168.5 20.5q-63.5 30.5 -97 87.5t-33.5 135q0 121 72 189t200 68q79 0 140 -25t95 -69.5t34 -101.5q0 -46 -28 -71t-79 -25h-324q0 -62 44 -96t126 -34q47 0 83 10t67 32q29 19 44 19q13 0 27 -14q16 -15 16 -33q0 -19 -17 -32q-84 -70 -220 -70q-86 0 -149.5 30.5z
M438 289q17 0 25 7t8 24q0 41 -44 66.5t-117 25.5q-74 0 -117 -33.5t-43 -89.5h288z" />
    <glyph glyph-name="f" unicode="f" horiz-adv-x="474" 
d="M445 665q0 -14 -9 -26q-15 -21 -34 -21q-11 0 -30 8q-38 19 -77 19q-31 0 -48.5 -18.5t-17.5 -51.5v-85h124q26 0 41.5 -12t15.5 -33q0 -20 -15.5 -32t-41.5 -12h-124v-358q0 -25 -15 -39t-41 -14t-41 14t-15 39v358h-31q-26 0 -41.5 12t-15.5 32q0 21 15 33t42 12h31v81
q0 74 46 119t121 45q47 0 81 -8.5t60 -27.5q20 -14 20 -34z" />
    <glyph glyph-name="g" unicode="g" horiz-adv-x="665" 
d="M193 -228q-63 22 -99 62q-12 13 -12 30q0 23 21 38q13 10 28 10q23 0 48 -24q24 -24 62 -37.5t84 -13.5q85 0 131 47t45 132l-1 58q-71 -86 -200 -86q-124 0 -193 68t-69 186q0 119 70.5 188.5t198.5 69.5q56 0 106 -23t88 -65v35q0 24 15.5 38.5t40.5 14.5t40 -14
t15 -39v-431q0 -78 -34 -138.5t-97.5 -94t-148.5 -33.5q-76 0 -139 22zM450 122q50 43 50 122q0 76 -47 121t-131 45q-81 0 -126 -44t-45 -124q0 -77 44 -120t125 -43q80 0 130 43z" />
    <glyph glyph-name="h" unicode="h" horiz-adv-x="614" 
d="M69 4q-15 14 -15 39v663q0 25 15 39t41 14t41 -14t15 -39v-298q73 92 195 92q95 0 149.5 -58t54.5 -160v-239q0 -25 -15.5 -39t-41.5 -14t-40.5 14t-14.5 39v239q0 62 -30 95t-85 33q-80 0 -126 -47.5t-46 -128.5v-191q0 -24 -15.5 -38.5t-40.5 -14.5q-26 0 -41 14z" />
    <glyph glyph-name="i" unicode="i" horiz-adv-x="255" 
d="M74.5 595.5q-20.5 18.5 -20.5 47.5t20.5 47.5t52.5 18.5t53 -18.5t21 -47.5t-21 -47.5t-53 -18.5t-52.5 18.5zM86.5 4q-14.5 14 -14.5 39v404q0 25 14.5 39t40.5 14t41.5 -14t15.5 -39v-404q0 -25 -15.5 -39t-41.5 -14t-40.5 14z" />
    <glyph glyph-name="j" unicode="j" horiz-adv-x="342" 
d="M160.5 596.5q-20.5 18.5 -20.5 47.5t20.5 47.5t52.5 18.5t53 -18.5t21 -47.5t-21 -47.5t-53 -18.5t-52.5 18.5zM36.5 -279q-14.5 13 -14.5 33t14.5 32.5t37.5 12.5q36 0 53.5 8t24 28.5t6.5 61.5v550q0 25 14.5 39t40.5 14t41.5 -14t15.5 -39l-1 -550q0 -95 -47 -142
t-148 -47q-23 0 -37.5 13z" />
    <glyph glyph-name="k" unicode="k" horiz-adv-x="591" 
d="M69.5 4q-14.5 14 -14.5 39v663q0 25 14.5 39t40.5 14t41.5 -14t15.5 -39v-415l305 200q17 12 34 12q24 0 36 -23q7 -14 7 -27q0 -23 -26 -39l-163 -103q88 -55 132.5 -118t57.5 -147q1 -4 1 -11q0 -21 -12.5 -33t-34.5 -12q-49 0 -58 38q-15 60 -34.5 99t-51 69t-84.5 61
l-109 -74v-140q0 -24 -15.5 -38.5t-41.5 -14.5t-40.5 14z" />
    <glyph glyph-name="l" unicode="l" horiz-adv-x="260" 
d="M89 4q-15 14 -15 39v663q0 25 15 39t41 14t41 -14t15 -39v-663q0 -24 -15.5 -38.5t-40.5 -14.5q-26 0 -41 14z" />
    <glyph glyph-name="m" unicode="m" horiz-adv-x="815" 
d="M68.5 4q-14.5 14 -14.5 39v404q0 25 14.5 39t40.5 14t41 -14.5t15 -38.5v-35q25 42 62.5 65t80.5 23q44 0 78.5 -23.5t51.5 -64.5q70 88 162 88q80 0 123.5 -53.5t43.5 -151.5v-252q0 -25 -15.5 -39t-41.5 -14t-40.5 14t-14.5 39v258q0 109 -78 109q-67 0 -106 -79v-288
q0 -25 -15 -39t-41 -14t-41 14t-15 39v239q0 128 -77 128q-53 0 -85 -41.5t-32 -111.5v-214q0 -24 -15 -38.5t-41 -14.5t-40.5 14z" />
    <glyph glyph-name="n" unicode="n" horiz-adv-x="614" 
d="M69 4q-15 14 -15 39v404q0 25 14.5 39t39.5 14q26 0 40.5 -14t14.5 -39v-39q74 92 198 92q95 0 149.5 -58t54.5 -160v-239q0 -25 -15.5 -39t-41.5 -14t-40.5 14t-14.5 39v239q0 62 -30 95t-85 33q-80 0 -126 -47.5t-46 -128.5v-191q0 -24 -15.5 -38.5t-40.5 -14.5
q-26 0 -41 14z" />
    <glyph glyph-name="o" unicode="o" horiz-adv-x="658" 
d="M176 22.5q-66 32.5 -101.5 90.5t-35.5 132t35.5 132t101.5 90.5t153 32.5t153 -32.5t101.5 -90.5t35.5 -132t-35.5 -132t-101.5 -90.5t-153 -32.5t-153 32.5zM458 124q48 44 48 121t-48 121t-129 44q-82 0 -129.5 -44t-47.5 -121t47.5 -121t129.5 -44q81 0 129 44z" />
    <glyph glyph-name="p" unicode="p" horiz-adv-x="666" 
d="M68.5 -285q-14.5 14 -14.5 39v693q0 25 14.5 39t40.5 14t41 -14.5t15 -38.5v-35q42 45 91 66.5t113 21.5q119 0 189 -68t70 -186q0 -78 -32 -136t-91 -89t-139 -31q-63 0 -111 20.5t-89 65.5v-322q0 -24 -15.5 -38.5t-41.5 -14.5t-40.5 14zM470.5 124q44.5 44 44.5 123
q0 78 -44 120.5t-125 42.5q-85 0 -133 -43.5t-48 -120.5q0 -76 49 -121t132 -45q80 0 124.5 44z" />
    <glyph glyph-name="q" unicode="q" horiz-adv-x="666" 
d="M516 -285q-15 14 -15 39l-1 322q-34 -42 -86 -64t-114 -22q-123 0 -192.5 67.5t-69.5 186.5q0 121 70.5 188.5t196.5 67.5q123 0 196 -88v35q0 25 15 39t41 14t41 -14t15 -39v-693q0 -25 -15 -39t-41 -14t-41 14zM451.5 125q49.5 45 49.5 120q0 77 -48 121t-132 44
q-82 0 -126 -43t-44 -123q0 -77 44.5 -120.5t123.5 -43.5q83 0 132.5 45z" />
    <glyph glyph-name="r" unicode="r" horiz-adv-x="437" 
d="M69 4q-15 14 -15 39v404q0 25 14.5 39t39.5 14q26 0 40.5 -14t14.5 -39v-42q65 85 171 85h23q27 0 42.5 -12t15.5 -33q0 -22 -15.5 -33.5t-42.5 -11.5h-32q-73 0 -116 -44.5t-43 -121.5v-191q0 -24 -15.5 -38.5t-40.5 -14.5q-26 0 -41 14z" />
    <glyph glyph-name="s" unicode="s" horiz-adv-x="536" 
d="M146.5 15.5q-58.5 25.5 -94.5 69.5q-12 17 -12 32q0 24 23 38q14 8 26 8q19 0 38 -19q34 -34 69.5 -49.5t85.5 -15.5q46 0 75 13t29 35q0 17 -10.5 28.5t-36.5 22.5t-81 29q-106 34 -149.5 69.5t-43.5 90.5q0 62 53 97.5t144 35.5q69 0 126 -22t84 -58q11 -14 11 -30
q0 -20 -21 -34q-13 -9 -30 -9q-23 0 -46 21q-45 43 -125 43q-83 0 -83 -44q0 -17 11 -28t38.5 -21.5t89.5 -30.5q68 -21 107 -43t56 -49.5t17 -67.5q0 -62 -56 -99.5t-154 -37.5q-82 0 -140.5 25.5z" />
    <glyph glyph-name="t" unicode="t" horiz-adv-x="481" 
d="M452 91q0 -17 -13 -34q-21 -31 -60 -49t-86 -18q-75 0 -118 42t-43 115v254h-45q-27 0 -42.5 12t-15.5 32q0 21 15.5 33t42.5 12h45v158q0 25 15 39t41 14t41 -14t15 -39v-158h109q26 0 41.5 -12t15.5 -33q0 -20 -15 -32t-42 -12h-109v-263q0 -27 15 -42.5t42 -15.5
q37 0 66 29q23 21 42 21q16 0 28 -11q15 -12 15 -28z" />
    <glyph glyph-name="u" unicode="u" horiz-adv-x="614" 
d="M106 48.5q-57 58.5 -57 162.5v236q0 25 15.5 39t41.5 14t40.5 -14t14.5 -39v-236q0 -62 33 -96.5t92 -34.5q74 0 118 47.5t44 128.5v191q0 25 15 39t41 14t41 -14t15 -39v-404q0 -25 -14 -39t-40 -14t-40.5 14.5t-14.5 38.5v39q-73 -92 -187 -92q-101 0 -158 58.5z" />
    <glyph glyph-name="v" unicode="v" horiz-adv-x="618" 
d="M214.5 21.5q-38.5 31.5 -61.5 96.5l-112 317q-2 5 -2 15q0 21 17 35t45 14q17 0 29.5 -8t17.5 -22l117 -333q10 -31 20 -43.5t24 -12.5t24 12.5t20 43.5l117 333q5 14 17 22t30 8q27 0 45 -14t18 -35q0 -7 -3 -15l-113 -317q-22 -65 -60.5 -96.5t-94.5 -31.5t-94.5 31.5z
" />
    <glyph glyph-name="w" unicode="w" horiz-adv-x="822" 
d="M158.5 20q-32.5 30 -45.5 88l-72 334q-1 4 -1 12q0 21 15 33.5t41 12.5q58 0 65 -45l60 -349q5 -26 20 -26q16 0 20 25l43 297q7 46 35.5 72t71.5 26t71.5 -26t35.5 -72l43 -297q4 -25 21 -25q14 0 19 26l60 349q8 45 65 45q27 0 41.5 -12t14.5 -33q0 -9 -1 -13l-72 -334
q-13 -58 -45.5 -88t-81.5 -30q-50 0 -78.5 30.5t-37.5 93.5l-39 274q-2 12 -5.5 17t-10.5 5t-10.5 -5t-5.5 -17l-39 -274q-9 -63 -37.5 -93.5t-77.5 -30.5q-50 0 -82.5 30z" />
    <glyph glyph-name="x" unicode="x" horiz-adv-x="568" 
d="M529 38q0 -21 -18 -36q-14 -12 -30 -12q-23 0 -43 21l-154 167l-154 -167q-20 -20 -43 -20q-19 0 -31 11q-17 14 -17 36q0 20 14 34l164 178l-152 165q-16 18 -16 38q0 22 17 36q14 11 29 11q26 0 47 -23l142 -154l142 154q21 23 45 23q16 0 30 -11q18 -15 18 -36
q0 -20 -16 -38l-152 -165l164 -178q14 -16 14 -34z" />
    <glyph glyph-name="y" unicode="y" horiz-adv-x="613" 
d="M161.5 -227.5q-59.5 22.5 -89.5 61.5q-11 16 -11 30q0 22 21 39q13 9 28 9q25 0 45 -23q22 -24 57.5 -37t78.5 -13q77 0 119 43t42 122v51q-26 -29 -67 -46t-84 -17q-124 0 -193.5 67.5t-69.5 188.5v202q0 21 16 35.5t41 14.5q23 0 39 -14.5t16 -35.5v-202
q0 -80 40 -124.5t111 -44.5q69 0 107.5 43.5t38.5 122.5v195q0 28 15 44t42 16t42 -16t15 -44v-423q0 -124 -71.5 -195.5t-195.5 -71.5q-73 0 -132.5 22.5z" />
    <glyph glyph-name="z" unicode="z" horiz-adv-x="569" 
d="M75.5 28.5q-36.5 28.5 -36.5 80.5q0 37 19.5 64.5t54.5 43.5l270 122q16 7 22.5 15t6.5 21q0 12 -9 18.5t-24 6.5h-266q-31 0 -47.5 11.5t-16.5 33.5q0 45 64 45h272q64 0 100 -29t36 -79q0 -40 -19 -69t-54 -44l-271 -121q-30 -14 -30 -35q0 -11 8 -17t21 -6h291
q63 0 63 -44q0 -46 -63 -46h-288q-67 0 -103.5 28.5z" />
    <glyph glyph-name="braceleft" unicode="{" horiz-adv-x="419" 
d="M170 -162.5q-35 34.5 -35 96.5v188q0 40 -13 59.5t-39 38.5q-20 15 -30 27.5t-10 35.5q0 20 9 31.5t29 26.5q26 20 40 40.5t14 61.5v208q0 60 36 95.5t103 35.5h50q26 0 39.5 -11.5t13.5 -32.5q0 -45 -53 -45h-34q-19 0 -30 -10.5t-11 -28.5v-211q0 -105 -88 -160
q88 -59 88 -161v-191q0 -18 11 -28.5t30 -10.5h34q53 0 53 -45q0 -21 -13.5 -32.5t-39.5 -11.5h-50q-69 0 -104 34.5z" />
    <glyph glyph-name="bar" unicode="|" horiz-adv-x="230" 
d="M73.5 -181.5q-15.5 15.5 -15.5 39.5v869q0 24 15.5 39.5t41.5 15.5q25 0 41 -15.5t16 -39.5v-869q0 -24 -16 -39.5t-41 -15.5q-26 0 -41.5 15.5z" />
    <glyph glyph-name="braceright" unicode="}" horiz-adv-x="419" 
d="M56.5 -185.5q-13.5 11.5 -13.5 32.5q0 45 53 45h34q19 0 30 10.5t11 28.5v191q0 102 88 161q-88 55 -88 160v211q0 18 -11 28.5t-30 10.5h-34q-53 0 -53 45q0 21 13.5 32.5t39.5 11.5h50q67 0 103 -35.5t36 -95.5v-208q0 -41 14 -61.5t40 -40.5q20 -15 29 -26.5t9 -31.5
q0 -23 -10 -35.5t-30 -27.5q-26 -19 -39 -38.5t-13 -59.5v-188q0 -62 -35 -96.5t-104 -34.5h-50q-26 0 -39.5 11.5z" />
    <glyph glyph-name="asciitilde" unicode="~" horiz-adv-x="598" 
d="M44 275q0 13 5 23q44 92 144 92q33 0 60.5 -8.5t62.5 -24.5q32 -13 48.5 -18.5t34.5 -5.5q22 0 36.5 9t25.5 27q20 32 43 32q11 0 23 -6q27 -12 27 -37q0 -11 -6 -23q-20 -45 -56 -68.5t-86 -23.5q-33 0 -58.5 8t-63.5 24q-28 13 -47 19t-39 6q-22 0 -36.5 -9t-24.5 -27
q-19 -32 -44 -32q-11 0 -23 6q-26 12 -26 37z" />
    <glyph glyph-name="uni00A0" unicode="&#xa0;" horiz-adv-x="268" 
 />
    <glyph glyph-name="exclamdown" unicode="&#xa1;" horiz-adv-x="271" 
d="M79 381.5q-21 19.5 -21 50.5t21 49.5t57 18.5q35 0 56 -18.5t21 -49.5t-21 -50.5t-56 -19.5q-36 0 -57 19.5zM92 -205.5q-17 14.5 -16 38.5l7 433q2 52 52 52q26 0 39.5 -13.5t13.5 -38.5l8 -433q0 -24 -17.5 -38.5t-43.5 -14.5t-43 14.5z" />
    <glyph glyph-name="cent" unicode="&#xa2;" horiz-adv-x="606" 
d="M567 112q0 -16 -12 -31q-43 -41 -91.5 -63.5t-111.5 -26.5v-65q0 -17 -10 -26.5t-29 -9.5q-18 0 -28 9.5t-10 26.5v66q-111 12 -173.5 79t-62.5 175q0 105 61.5 172.5t174.5 79.5v65q0 17 10 26.5t28 9.5q19 0 29 -9.5t10 -26.5v-64q63 -5 113.5 -27t77.5 -59
q10 -14 10 -29q0 -24 -22 -40q-11 -8 -26 -8q-13 0 -26 6t-22 16q-38 41 -105 50v-326q73 9 118 54q26 24 50 24q16 0 27 -10q20 -16 20 -38zM184 138.5q32 -42.5 91 -54.5v322q-59 -12 -91 -53.5t-32 -106.5t32 -107.5z" />
    <glyph glyph-name="sterling" unicode="&#xa3;" horiz-adv-x="648" 
d="M400.5 -4.5q-20.5 5.5 -54.5 17.5q-31 11 -50.5 16.5t-41.5 5.5q-30 0 -52.5 -7.5t-44.5 -25.5q-12 -11 -32 -11q-16 0 -30 7.5t-23 21.5q-12 21 -12 34q0 24 26 44q58 49 81.5 79.5t23.5 66.5t-13 60h-85q-23 0 -36.5 11.5t-13.5 32.5q0 22 13.5 33.5t36.5 11.5h34
q-19 28 -27.5 55.5t-8.5 59.5q0 95 63 148.5t175 53.5q80 0 144 -35t99 -97q5 -9 5 -21q0 -24 -26 -38q-15 -9 -31 -9q-26 0 -46 27q-28 40 -62.5 60.5t-82.5 20.5q-59 0 -92 -29.5t-33 -81.5q0 -53 47 -114h170q22 0 34 -11.5t12 -33.5q0 -21 -12 -32.5t-34 -11.5h-128
q11 -30 11 -60q0 -39 -23 -72t-69 -70l1 -2q22 10 39.5 14.5t37.5 4.5q24 0 42 -5t39 -14q22 -9 39 -13.5t40 -4.5q37 0 71 31q16 16 34 16q15 0 31 -11q18 -13 18 -34q0 -18 -13 -34q-26 -29 -64 -44.5t-81 -15.5q-25 0 -45.5 5.5z" />
    <glyph glyph-name="currency" unicode="&#xa4;" horiz-adv-x="634" 
d="M44 105q0 19 20 41l29 31q-25 35 -37 69.5t-12 77.5t12 77.5t37 69.5l-29 31q-20 20 -20 39q0 18 20 40q18 18 39 18q27 0 50 -25l27 -28q64 37 137 37q71 0 137 -37l27 28q23 25 49 25q22 0 40 -18q20 -19 20 -39t-20 -40l-29 -31q25 -35 37 -69.5t12 -77.5t-12 -77.5
t-37 -69.5l29 -31q20 -22 20 -40q0 -19 -20 -39q-18 -18 -39 -18q-25 0 -50 25l-27 28q-66 -37 -137 -37q-73 0 -137 37l-27 -28q-25 -25 -50 -25q-21 0 -39 18q-20 20 -20 38zM437.5 200.5q44.5 45.5 44.5 123.5t-44.5 123.5t-120.5 45.5t-120.5 -45.5t-44.5 -123.5
t44.5 -123.5t120.5 -45.5t120.5 45.5z" />
    <glyph glyph-name="yen" unicode="&#xa5;" horiz-adv-x="709" 
d="M651 696q15 -14 15 -39v-112q0 -132 -67.5 -216t-186.5 -101v-7h97q23 0 34 -6.5t11 -26.5q0 -19 -11 -25.5t-34 -6.5h-97v-32h97q23 0 34 -6.5t11 -26.5q0 -18 -11 -25t-34 -7h-97v-16q0 -24 -15.5 -38.5t-41.5 -14.5t-41.5 14t-15.5 39v16h-94q-24 0 -35 7t-11 25
q0 20 11 26.5t35 6.5h94v32h-94q-24 0 -35 7t-11 25q0 20 11.5 26.5t34.5 6.5h94v7q-120 17 -187.5 100t-67.5 217v112q0 25 15.5 39t41.5 14t41.5 -14.5t15.5 -38.5v-115q0 -109 51.5 -168t146.5 -59q94 0 145.5 59.5t51.5 167.5v115q0 24 16 38.5t42 14.5t41 -14z" />
    <glyph glyph-name="brokenbar" unicode="&#xa6;" horiz-adv-x="230" 
d="M73.5 383.5q-15.5 15.5 -15.5 39.5v304q0 24 15.5 39.5t41.5 15.5q25 0 41 -15.5t16 -39.5v-304q0 -24 -16 -39.5t-41 -15.5q-26 0 -41.5 15.5zM73.5 -181.5q-15.5 15.5 -15.5 39.5v304q0 24 15.5 39.5t41.5 15.5q25 0 41 -15.5t16 -39.5v-304q0 -24 -16 -39.5t-41 -15.5
q-26 0 -41.5 15.5z" />
    <glyph glyph-name="section" unicode="&#xa7;" horiz-adv-x="573" 
d="M129 -24q-56 51 -56 138q0 25 17 37.5t44 12.5q23 0 38.5 -14t15.5 -37q0 -46 25 -72t70 -26q40 0 62.5 15t22.5 41q0 19 -10 35t-28 27l-204 118q-83 45 -83 135q0 78 81 123q-17 18 -24 35.5t-7 41.5q0 69 53 107.5t142 38.5q91 0 144.5 -45.5t53.5 -123.5
q0 -22 -15.5 -35.5t-37.5 -13.5q-24 0 -40 13.5t-16 35.5q0 41 -21.5 60t-69.5 19q-40 0 -61 -14.5t-21 -41.5q0 -31 26 -47l236 -134q31 -17 47.5 -49t16.5 -69t-23 -73t-63 -58q18 -22 27 -41t9 -42q0 -69 -52.5 -108.5t-144.5 -39.5q-98 0 -154 51zM409.5 245
q15.5 20 15.5 42q0 23 -8 38t-28 26l-189 102q-52 -20 -52 -67q0 -28 10 -42.5t32 -27.5l178 -101q26 10 41.5 30z" />
    <glyph glyph-name="dieresis" unicode="&#xa8;" horiz-adv-x="431" 
d="M57.5 580q-18.5 18 -18.5 44t18 44.5t46 18.5q27 0 45 -18t18 -45q0 -25 -18 -43.5t-45 -18.5t-45.5 18zM283.5 580q-18.5 18 -18.5 44t18 44.5t46 18.5t46 -18t18 -45q0 -25 -18.5 -43.5t-45.5 -18.5t-45.5 18z" />
    <glyph glyph-name="copyright" unicode="&#xa9;" horiz-adv-x="880" 
d="M237.5 18.5q-90.5 49.5 -142.5 136.5t-52 195t52 195t143 136.5t203 49.5t202.5 -49.5t142 -136.5t51.5 -195t-51.5 -195t-142 -136.5t-202.5 -49.5q-113 0 -203.5 49.5zM595.5 98q66.5 35 103 99.5t36.5 152.5t-36.5 153.5t-103 100.5t-154.5 35q-90 0 -157 -35.5
t-103 -100.5t-36 -153q0 -87 36 -152t103 -100t157 -35q88 0 154.5 35zM315.5 136q-56.5 29 -87.5 82.5t-31 125.5q0 71 31 124.5t87.5 82.5t132.5 29q62 0 115.5 -24t88.5 -67q11 -12 11 -28q0 -17 -16 -30q-12 -11 -28 -11q-22 0 -39 17q-31 30 -62.5 44.5t-69.5 14.5
q-72 0 -112 -39t-40 -113t40 -114t112 -40q39 0 70.5 13t58.5 43q18 20 39 20q13 0 26 -10q18 -13 18 -32q0 -16 -13 -29q-41 -44 -93.5 -66t-105.5 -22q-76 0 -132.5 29z" />
    <glyph glyph-name="ordfeminine" unicode="&#xaa;" horiz-adv-x="417" 
d="M79.5 414.5q-37.5 30.5 -37.5 78.5q0 50 41.5 79t104.5 29q31 0 58.5 -7.5t44.5 -21.5v15q0 27 -22.5 44t-60.5 17q-58 0 -95 -25q-11 -8 -24 -8q-16 0 -24 11q-7 8 -7 19q0 14 13 24q24 20 60.5 30.5t75.5 10.5q73 0 115 -32.5t42 -90.5v-171q0 -15 -9.5 -23.5
t-25.5 -8.5t-25.5 8t-9.5 23v13q-17 -21 -48.5 -32.5t-69.5 -11.5q-59 0 -96.5 30.5zM264.5 456q26.5 14 26.5 40q0 24 -26.5 37.5t-67.5 13.5q-34 0 -55 -13.5t-21 -37.5q0 -26 21 -40t54 -14q42 0 68.5 14z" />
    <glyph glyph-name="guillemotleft" unicode="&#xab;" horiz-adv-x="517" 
d="M249 28q-21 0 -39 21l-153 187q-7 9 -10 15t-3 15t3 15t10 16l153 187q19 21 40 21q14 0 27 -10q18 -14 18 -35q0 -19 -14 -35l-133 -159l133 -158q14 -17 14 -35q0 -20 -18 -35q-13 -10 -28 -10zM427 28q-21 0 -39 21l-153 187q-7 10 -10 16t-3 14q0 15 13 31l153 187
q19 21 40 21q14 0 27 -10q18 -14 18 -35q0 -19 -14 -35l-133 -159l133 -158q14 -17 14 -35q0 -20 -18 -35q-13 -10 -28 -10z" />
    <glyph glyph-name="logicalnot" unicode="&#xac;" horiz-adv-x="530" 
d="M395.5 105.5q-13.5 13.5 -13.5 37.5v86h-283q-27 0 -41.5 12t-14.5 32q0 45 56 45h327q28 0 44.5 -12t16.5 -33v-130q0 -25 -13.5 -38t-39.5 -13q-25 0 -38.5 13.5z" />
    <glyph glyph-name="uni00AD" unicode="&#xad;" horiz-adv-x="495" 
d="M57.5 211q-14.5 12 -14.5 32q0 45 56 45h297q56 0 56 -45q0 -20 -14.5 -32t-41.5 -12h-297q-27 0 -41.5 12z" />
    <glyph glyph-name="registered" unicode="&#xae;" horiz-adv-x="880" 
d="M236 17.5q-91 49.5 -142.5 136.5t-51.5 196q0 108 52 195.5t143 137t204 49.5t203.5 -49.5t142.5 -137t52 -195.5q0 -109 -51.5 -196t-142.5 -136.5t-204 -49.5q-114 0 -205 49.5zM596 98.5q66 34.5 102 99t36 152.5t-36 153t-102 100t-155 35q-90 0 -156.5 -35
t-102.5 -100t-36 -153t36 -152.5t102.5 -99t156.5 -34.5q89 0 155 34.5zM260 472q0 45 30 72.5t81 27.5h92q91 0 142 -38.5t51 -109.5q0 -54 -37 -91.5t-96 -43.5l83 -91q11 -14 11 -27q0 -18 -18 -33q-12 -10 -26 -10q-23 0 -37 17l-118 136h-64v-112q0 -19 -13 -30.5
t-34 -11.5q-22 0 -34.5 11.5t-12.5 30.5v303zM475 357q40 0 63 17t23 50q0 39 -23 56.5t-72 17.5h-91q-9 0 -15 -6.5t-6 -16.5v-117z" />
    <glyph glyph-name="macron" unicode="&#xaf;" horiz-adv-x="421" 
d="M38 584q0 20 11.5 28t35.5 8h252q24 0 35.5 -8t11.5 -28q0 -35 -47 -35h-252q-47 0 -47 35z" />
    <glyph glyph-name="degree" unicode="&#xb0;" horiz-adv-x="374" 
d="M84 611q-41 36 -41 94t41 94t104 36t103.5 -36.5t39.5 -94.5q1 -56 -39.5 -92.5t-103.5 -36.5t-104 36zM226 665q15 15 15 40t-15 40t-38 15q-24 0 -40 -15.5t-15 -40.5q-1 -24 15 -39t40 -15q23 0 38 15z" />
    <glyph glyph-name="plusminus" unicode="&#xb1;" horiz-adv-x="547" 
d="M35 274q-15 12 -15 33t15 33t42 12h145v93q0 24 13.5 37.5t37.5 13.5q26 0 39.5 -13t13.5 -38v-93h144q27 0 42 -12t15 -33t-15 -33t-42 -12h-144v-91q0 -24 -14 -37.5t-39 -13.5q-24 0 -37.5 13.5t-13.5 37.5v91h-145q-27 0 -42 12zM512.5 78q14.5 -12 14.5 -34
q0 -20 -15 -32t-42 -12h-393q-27 0 -42 12t-15 32q0 22 14.5 34t42.5 12h393q28 0 42.5 -12z" />
    <glyph glyph-name="uni00B2" unicode="&#xb2;" horiz-adv-x="473" 
d="M56.5 413.5q-12.5 13.5 -12.5 32.5q0 29 25 48l189 139q35 25 45.5 38t10.5 36q0 26 -18 41.5t-53 15.5t-60.5 -12t-44.5 -36t-42 -24q-14 0 -25 8q-21 14 -21 38q0 18 13 36q28 36 74 54.5t106 18.5q87 0 134.5 -36.5t47.5 -103.5q0 -36 -27 -70t-78 -70l-117 -86h179
q48 0 48 -39q0 -42 -48 -42h-292q-21 0 -33.5 13.5z" />
    <glyph glyph-name="uni00B3" unicode="&#xb3;" horiz-adv-x="483" 
d="M135 415q-49 21 -78 59q-14 19 -14 35q0 21 23 35q14 9 27 9q21 0 40 -25q41 -51 111 -51q85 0 85 58q0 53 -59 53h-56q-21 0 -33 10.5t-12 29.5q0 42 45 42h56q22 0 35.5 11.5t13.5 33.5q0 49 -77 49q-52 0 -91 -37q-24 -22 -45 -22q-14 0 -23 8q-20 14 -20 35
q0 18 15 33q29 31 73 48.5t98 17.5q86 0 133 -35t47 -90q0 -28 -16 -52t-49 -38v-2q39 -14 57.5 -42t18.5 -63q0 -60 -52.5 -95.5t-143.5 -35.5q-60 0 -109 21z" />
    <glyph glyph-name="acute" unicode="&#xb4;" horiz-adv-x="242" 
d="M43.5 562q-5.5 9 -5.5 19q0 8 3 15l59 145q15 36 44 36q14 0 28 -7q32 -17 32 -41q0 -11 -8 -25l-80 -139q-6 -10 -16.5 -16t-21.5 -6q-9 0 -19 5t-15.5 14z" />
    <glyph glyph-name="uni00B5" unicode="&#xb5;" horiz-adv-x="627" 
d="M73.5 -236q-15.5 14 -15.5 39v644q0 25 15.5 39t41.5 14t40.5 -14t14.5 -39v-236q0 -62 33 -96.5t92 -34.5q74 0 118 47t44 129v191q0 25 15 39t41 14t41 -14t15 -39v-404q0 -25 -14 -39t-40 -14t-40.5 14t-14.5 39v39q-72 -92 -178 -92q-32 0 -61.5 11t-50.5 31v-229
q0 -25 -14.5 -39t-40.5 -14t-41.5 14z" />
    <glyph glyph-name="paragraph" unicode="&#xb6;" horiz-adv-x="681" 
d="M256.5 -266q-15.5 15 -15.5 40v560q-61 0 -105.5 25t-68.5 69t-24 99q0 93 60 143.5t169 50.5h313q25 0 39 -11.5t14 -33.5q0 -21 -14 -32.5t-39 -11.5h-15v-858q0 -25 -15.5 -40t-41.5 -15t-41.5 15t-15.5 40v858h-101v-858q0 -25 -15.5 -40t-41.5 -15t-41.5 15z" />
    <glyph glyph-name="periodcentered" unicode="&#xb7;" horiz-adv-x="232" 
d="M64.5 292.5q-21.5 20.5 -21.5 47.5q0 30 21 50.5t53 20.5q30 0 51 -21t21 -50q0 -27 -21 -47.5t-51 -20.5q-31 0 -52.5 20.5z" />
    <glyph glyph-name="cedilla" unicode="&#xb8;" horiz-adv-x="313" 
d="M94 -201q-31 15 -49 39q-7 10 -7 19q0 12 15 26q12 10 21 10q14 0 24 -15q11 -14 27 -21.5t33 -7.5q19 0 29.5 7.5t10.5 21.5q0 15 -9 23.5t-26 8.5l-11 -1q-19 -2 -32.5 7.5t-13.5 25.5q0 7 3 15l24 50q12 26 34 26q11 0 20 -4q12 -4 18 -11.5t6 -16.5q0 -4 -4 -14
l-20 -37q42 -2 65 -23t23 -53q0 -38 -28 -64t-81 -26q-41 0 -72 15z" />
    <glyph glyph-name="uni00B9" unicode="&#xb9;" horiz-adv-x="304" 
d="M152 407q-16 13 -16 34v293l-34 -13q-19 -7 -31 -7q-27 0 -38 23q-6 14 -6 24q0 27 32 39l121 44q12 4 19 4q20 0 33.5 -13t13.5 -37v-357q0 -23 -15.5 -35t-40.5 -12q-22 0 -38 13z" />
    <glyph glyph-name="ordmasculine" unicode="&#xba;" horiz-adv-x="449" 
d="M91.5 428.5q-49.5 44.5 -49.5 118.5t49.5 118.5t132.5 44.5q84 0 133.5 -44.5t49.5 -118.5t-49.5 -118.5t-133.5 -44.5q-83 0 -132.5 44.5zM298 476.5q27 25.5 27 70.5t-27 71t-74 26t-73.5 -25.5t-26.5 -71.5q0 -45 26.5 -70.5t73.5 -25.5t74 25.5z" />
    <glyph glyph-name="guillemotright" unicode="&#xbb;" horiz-adv-x="517" 
d="M44 73q0 18 14 35l133 158l-133 159q-14 16 -14 35q0 20 18 35q13 10 28 10q21 0 39 -21l153 -187q7 -10 10 -16t3 -15q0 -8 -3 -14t-10 -16l-153 -187q-18 -21 -39 -21q-15 0 -28 10q-18 15 -18 35zM222 73q0 18 14 35l133 158l-133 159q-14 16 -14 35q0 20 18 35
q13 10 28 10q21 0 39 -21l153 -187q7 -10 10 -16t3 -15q0 -8 -3 -14t-10 -16l-153 -187q-18 -21 -39 -21q-15 0 -28 10q-18 15 -18 35z" />
    <glyph glyph-name="onequarter" unicode="&#xbc;" horiz-adv-x="859" 
d="M156 36q0 15 11 32l430 623q15 23 41 23q16 0 31 -8q27 -15 27 -39q0 -15 -10 -28l-432 -628q-8 -11 -19.5 -17.5t-23.5 -6.5q-15 0 -34 11q-21 13 -21 38zM171 269q-16 13 -16 34v293l-34 -13q-19 -7 -31 -7q-27 0 -38 23q-7 16 -7 24q0 27 34 39l120 44q12 4 20 4
q19 0 32.5 -13t13.5 -37v-357q0 -23 -15 -35t-40 -12q-23 0 -39 13zM653.5 2.5q-12.5 12.5 -12.5 35.5v37h-196q-22 0 -35 12t-13 28q0 17 12 30l241 282q13 16 41 16q25 0 39 -11.5t14 -31.5v-242h22q23 0 35 -11t12 -31t-12.5 -30.5t-34.5 -10.5h-22v-37q0 -23 -15 -35.5
t-40 -12.5q-23 0 -35.5 12.5zM645 158v144l-120 -144h120z" />
    <glyph glyph-name="onehalf" unicode="&#xbd;" horiz-adv-x="959" 
d="M161.5 14q-5.5 10 -5.5 21q0 16 11 33l429 623q17 23 42 23q17 0 30 -8q28 -15 28 -39q0 -13 -10 -28l-433 -628q-17 -24 -43 -24q-15 0 -34 11q-9 6 -14.5 16zM171 269q-16 13 -16 34v293l-34 -13q-19 -7 -31 -7q-27 0 -38 23q-7 13 -7 24q0 26 33 39l121 44q12 4 19 4
q20 0 33.5 -13t13.5 -37v-357q0 -23 -15.5 -35t-40.5 -12q-22 0 -38 13zM539.5 13.5q-12.5 13.5 -12.5 32.5q0 29 25 48l190 139q35 25 45 38t10 36q0 26 -18 41.5t-53 15.5q-68 0 -104 -48q-21 -24 -43 -24q-12 0 -25 8q-21 14 -21 38q0 20 13 36q28 36 75 54.5t105 18.5
q87 0 134.5 -36.5t47.5 -103.5q0 -37 -26.5 -71t-77.5 -69l-118 -86h180q47 0 47 -39q0 -42 -47 -42h-293q-21 0 -33.5 13.5z" />
    <glyph glyph-name="threequarters" unicode="&#xbe;" horiz-adv-x="987" 
d="M285 36q0 17 10 31l430 624q15 23 41 23q17 0 30 -8q28 -15 28 -39q0 -15 -10 -28l-432 -628q-8 -11 -19.5 -17.5t-24.5 -6.5q-16 0 -33 11q-20 12 -20 38zM137 278q-49 21 -77 58q-14 19 -14 36q0 21 22 35q12 8 27 8q24 0 41 -23q39 -52 111 -52q84 0 84 58
q0 52 -58 52h-57q-20 0 -32 10.5t-12 29.5q0 42 44 42h57q22 0 35 12t13 34q0 24 -18 36t-58 12q-55 0 -91 -37q-23 -21 -46 -21q-13 0 -23 7q-19 16 -19 36q0 17 14 33q30 31 74 48.5t98 17.5q85 0 132 -35t47 -90q0 -28 -16 -52.5t-49 -37.5v-2q39 -15 57.5 -43t18.5 -63
q0 -59 -52 -94.5t-143 -35.5q-61 0 -110 21zM781 2.5q-13 12.5 -13 35.5v37h-195q-22 0 -35 12t-13 29t11 29l242 282q13 16 41 16q25 0 39 -11.5t14 -31.5v-242h23q23 0 34.5 -11t11.5 -31q0 -19 -12 -30t-34 -11h-23v-37q0 -23 -15 -35.5t-40 -12.5q-23 0 -36 12.5z
M773 158v144l-120 -144h120z" />
    <glyph glyph-name="questiondown" unicode="&#xbf;" horiz-adv-x="586" 
d="M240 381.5q-21 19.5 -21 50.5t21 49.5t57 18.5q35 0 56 -18.5t21 -49.5t-21 -50.5t-56 -19.5q-36 0 -57 19.5zM157.5 -195.5q-55.5 24.5 -85 69t-29.5 103.5q0 39 16 69t38.5 50.5t58.5 46.5q44 32 64.5 55t20.5 54v13q0 25 16 39t41 14q26 0 41 -14t15 -39v-13
q0 -37 -15 -65t-37 -47.5t-56 -44.5q-45 -32 -67 -57t-22 -61q0 -49 33.5 -77t98.5 -28q99 0 161 73q8 10 20 15.5t24 5.5q15 0 26 -8q23 -15 23 -39q0 -15 -10 -29q-39 -53 -102 -81.5t-142 -28.5q-76 0 -131.5 24.5z" />
    <glyph glyph-name="Agrave" unicode="&#xc0;" 
d="M74 5q-15 14 -15 39v364q0 142 81 222t225 80q94 0 163 -36.5t105.5 -104.5t36.5 -161v-364q0 -25 -15 -39t-41 -14t-42 14.5t-16 38.5v184h-383v-184q0 -24 -16 -38.5t-42 -14.5t-41 14zM556 317v94q0 102 -48.5 155t-142.5 53q-95 0 -143.5 -52.5t-48.5 -155.5v-94h383
zM342.5 779q-10.5 6 -16.5 16l-80 139q-8 13 -8 25q0 24 32 41q14 7 28 7q30 0 45 -36l58 -145q3 -7 3 -15q0 -15 -10.5 -26.5t-29.5 -11.5q-11 0 -21.5 6z" />
    <glyph glyph-name="Aacute" unicode="&#xc1;" 
d="M74 5q-15 14 -15 39v364q0 142 81 222t225 80q94 0 163 -36.5t105.5 -104.5t36.5 -161v-364q0 -25 -15 -39t-41 -14t-42 14.5t-16 38.5v184h-383v-184q0 -24 -16 -38.5t-42 -14.5t-41 14zM556 317v94q0 102 -48.5 155t-142.5 53q-95 0 -143.5 -52.5t-48.5 -155.5v-94h383
zM338.5 792q-5.5 9 -5.5 19q0 8 3 15l59 145q15 36 44 36q14 0 28 -7q32 -17 32 -41q0 -11 -8 -25l-80 -139q-6 -10 -16.5 -16t-21.5 -6q-9 0 -19 5t-15.5 14z" />
    <glyph glyph-name="Acircumflex" unicode="&#xc2;" 
d="M74 5q-15 14 -15 39v364q0 142 81 222t225 80q94 0 163 -36.5t105.5 -104.5t36.5 -161v-364q0 -25 -15 -39t-41 -14t-42 14.5t-16 38.5v184h-383v-184q0 -24 -16 -38.5t-42 -14.5t-41 14zM556 317v94q0 102 -48.5 155t-142.5 53q-95 0 -143.5 -52.5t-48.5 -155.5v-94h383
zM202 814q0 17 13 33l105 126q19 22 45 22t45 -22l105 -126q13 -16 13 -33q0 -19 -18 -34q-14 -10 -28 -10q-21 0 -41 24l-76 104l-76 -104q-20 -24 -41 -24q-14 0 -27 10q-19 15 -19 34z" />
    <glyph glyph-name="Atilde" unicode="&#xc3;" 
d="M74 5q-15 14 -15 39v364q0 142 81 222t225 80q94 0 163 -36.5t105.5 -104.5t36.5 -161v-364q0 -25 -15 -39t-41 -14t-42 14.5t-16 38.5v184h-383v-184q0 -24 -16 -38.5t-42 -14.5t-41 14zM556 317v94q0 102 -48.5 155t-142.5 53q-95 0 -143.5 -52.5t-48.5 -155.5v-94h383
zM190 807.5q-11 9.5 -11 24.5q0 10 4 19q32 82 108 82q26 0 47 -9t47 -26q17 -11 28 -16.5t22 -5.5q15 0 24 8.5t17 27.5q13 28 37 28q17 0 28 -9.5t11 -24.5q0 -10 -4 -19q-32 -82 -108 -82q-25 0 -43.5 8t-42.5 24q-18 13 -31 19t-27 6q-15 0 -24 -8t-17 -27
q-13 -29 -36 -29q-18 0 -29 9.5z" />
    <glyph glyph-name="Adieresis" unicode="&#xc4;" 
d="M74 5q-15 14 -15 39v364q0 142 81 222t225 80q94 0 163 -36.5t105.5 -104.5t36.5 -161v-364q0 -25 -15 -39t-41 -14t-42 14.5t-16 38.5v184h-383v-184q0 -24 -16 -38.5t-42 -14.5t-41 14zM556 317v94q0 102 -48.5 155t-142.5 53q-95 0 -143.5 -52.5t-48.5 -155.5v-94h383
zM207 810q-18 18 -18 44t18 44.5t46 18.5q27 0 45 -18t18 -45q0 -25 -18 -43.5t-45 -18.5q-28 0 -46 18zM433.5 810q-18.5 18 -18.5 44t18 44.5t46 18.5t46 -18t18 -45q0 -25 -18.5 -43.5t-45.5 -18.5t-45.5 18z" />
    <glyph glyph-name="Aring" unicode="&#xc5;" 
d="M74 5q-15 14 -15 39v364q0 142 81 222t225 80q94 0 163 -36.5t105.5 -104.5t36.5 -161v-364q0 -25 -15 -39t-41 -14t-42 14.5t-16 38.5v184h-383v-184q0 -24 -16 -38.5t-42 -14.5t-41 14zM556 317v94q0 102 -48.5 155t-142.5 53q-95 0 -143.5 -52.5t-48.5 -155.5v-94h383
zM276.5 784q-33.5 30 -33.5 78t33.5 77.5t88.5 29.5t87.5 -30t32.5 -77q0 -48 -32.5 -78t-87.5 -30t-88.5 30zM401.5 827q13.5 13 13.5 35q0 23 -13.5 36t-36.5 13t-36.5 -13t-13.5 -36q0 -22 13.5 -35t36.5 -13t36.5 13z" />
    <glyph glyph-name="AE" unicode="&#xc6;" horiz-adv-x="1114" 
d="M74 5q-15 14 -15 39v364q0 142 81 222t225 80q135 0 213 -87q13 37 43.5 57t72.5 20h295q54 0 54 -45q0 -21 -14 -32.5t-40 -11.5h-280q-21 0 -33.5 -14t-12.5 -38v-157h250q54 0 54 -45q0 -21 -14 -32.5t-40 -11.5h-250v-172q0 -24 12.5 -38t33.5 -14h302q26 0 40 -11.5
t14 -33.5q0 -20 -14.5 -32t-39.5 -12h-312q-69 0 -106 36.5t-37 105.5v86h-383v-184q0 -24 -16 -38.5t-42 -14.5t-41 14zM556 317v94q0 102 -48.5 155t-142.5 53q-95 0 -143.5 -52.5t-48.5 -155.5v-94h383z" />
    <glyph glyph-name="Ccedilla" unicode="&#xc7;" horiz-adv-x="764" 
d="M716 136q0 -17 -12 -32q-38 -48 -105.5 -77.5t-150.5 -35.5l-2 -4l-20 -37q42 -2 65 -23t23 -53q0 -38 -28 -64t-81 -26q-41 0 -72 15t-49 39q-7 10 -7 19q0 12 15 26q11 9 21 9q13 0 24 -14t27 -21.5t33 -7.5q19 0 29 7.5t10 21.5q0 35 -44 31q-19 -2 -33 7.5t-14 25.5
q0 7 3 15l17 35q-97 8 -168.5 54t-109.5 123.5t-38 179.5q0 110 43.5 191.5t124.5 125.5t191 44q90 0 167 -31t116 -84q11 -16 11 -29q0 -22 -23 -39q-13 -8 -27 -8q-13 0 -25.5 6t-21.5 16q-33 40 -81.5 59t-115.5 19q-115 0 -179.5 -71.5t-64.5 -198.5q0 -125 65 -196.5
t180 -71.5q136 0 209 78q24 24 49 24q16 0 29 -10q20 -17 20 -37z" />
    <glyph glyph-name="Egrave" unicode="&#xc8;" horiz-adv-x="644" 
d="M103.5 37.5q-39.5 37.5 -39.5 104.5v419q0 65 38 102t106 37h311q26 0 40 -11.5t14 -33.5q0 -21 -14 -32.5t-40 -11.5h-295q-22 0 -34 -14t-12 -38v-157h265q26 0 40 -11.5t14 -33.5q0 -21 -14 -32.5t-40 -11.5h-265v-172q0 -24 12 -38t34 -14h317q26 0 40 -11.5
t14 -33.5q0 -21 -14 -32.5t-40 -11.5h-327q-71 0 -110.5 37.5zM331.5 779q-10.5 6 -16.5 16l-80 139q-8 13 -8 25q0 24 32 41q14 7 28 7q30 0 45 -36l58 -145q3 -7 3 -15q0 -15 -10.5 -26.5t-29.5 -11.5q-11 0 -21.5 6z" />
    <glyph glyph-name="Eacute" unicode="&#xc9;" horiz-adv-x="644" 
d="M103.5 37.5q-39.5 37.5 -39.5 104.5v419q0 65 38 102t106 37h311q26 0 40 -11.5t14 -33.5q0 -21 -14 -32.5t-40 -11.5h-295q-22 0 -34 -14t-12 -38v-157h265q26 0 40 -11.5t14 -33.5q0 -21 -14 -32.5t-40 -11.5h-265v-172q0 -24 12 -38t34 -14h317q26 0 40 -11.5
t14 -33.5q0 -21 -14 -32.5t-40 -11.5h-327q-71 0 -110.5 37.5zM314.5 792q-5.5 9 -5.5 19q0 8 3 15l59 145q15 36 44 36q14 0 28 -7q32 -17 32 -41q0 -11 -8 -25l-80 -139q-6 -10 -16.5 -16t-21.5 -6q-9 0 -19 5t-15.5 14z" />
    <glyph glyph-name="Ecircumflex" unicode="&#xca;" horiz-adv-x="644" 
d="M103.5 37.5q-39.5 37.5 -39.5 104.5v419q0 65 38 102t106 37h311q26 0 40 -11.5t14 -33.5q0 -21 -14 -32.5t-40 -11.5h-295q-22 0 -34 -14t-12 -38v-157h265q26 0 40 -11.5t14 -33.5q0 -21 -14 -32.5t-40 -11.5h-265v-172q0 -24 12 -38t34 -14h317q26 0 40 -11.5
t14 -33.5q0 -21 -14 -32.5t-40 -11.5h-327q-71 0 -110.5 37.5zM178 814q0 17 13 33l105 126q19 22 45 22t45 -22l105 -126q13 -16 13 -33q0 -19 -18 -34q-14 -10 -28 -10q-22 0 -41 24l-76 104l-76 -104q-18 -24 -41 -24q-14 0 -27 10q-19 15 -19 34z" />
    <glyph glyph-name="Edieresis" unicode="&#xcb;" horiz-adv-x="644" 
d="M103.5 37.5q-39.5 37.5 -39.5 104.5v419q0 65 38 102t106 37h311q26 0 40 -11.5t14 -33.5q0 -21 -14 -32.5t-40 -11.5h-295q-22 0 -34 -14t-12 -38v-157h265q26 0 40 -11.5t14 -33.5q0 -21 -14 -32.5t-40 -11.5h-265v-172q0 -24 12 -38t34 -14h317q26 0 40 -11.5
t14 -33.5q0 -21 -14 -32.5t-40 -11.5h-327q-71 0 -110.5 37.5zM183.5 810q-18.5 18 -18.5 44t18 44.5t46 18.5q27 0 45 -18t18 -45q0 -25 -18 -43.5t-45 -18.5t-45.5 18zM409.5 810q-18.5 18 -18.5 44t18 44.5t46 18.5t46 -18t18 -45q0 -25 -18.5 -43.5t-45.5 -18.5
t-45.5 18z" />
    <glyph glyph-name="Igrave" unicode="&#xcc;" horiz-adv-x="302" 
d="M109.5 4q-15.5 14 -15.5 39v614q0 25 15.5 39t41.5 14q25 0 41 -14.5t16 -38.5v-614q0 -24 -16 -38.5t-41 -14.5q-26 0 -41.5 14zM138.5 779q-10.5 6 -16.5 16l-80 139q-8 13 -8 25q0 24 32 41q14 7 28 7q30 0 45 -36l58 -145q3 -7 3 -15q0 -15 -10.5 -26.5t-29.5 -11.5
q-11 0 -21.5 6z" />
    <glyph glyph-name="Iacute" unicode="&#xcd;" horiz-adv-x="302" 
d="M109.5 4q-15.5 14 -15.5 39v614q0 25 15.5 39t41.5 14q25 0 41 -14.5t16 -38.5v-614q0 -24 -16 -38.5t-41 -14.5q-26 0 -41.5 14zM121.5 792q-5.5 9 -5.5 19q0 8 3 15l59 145q15 36 44 36q14 0 28 -7q32 -17 32 -41q0 -11 -8 -25l-80 -139q-6 -10 -16.5 -16t-21.5 -6
q-9 0 -19 5t-15.5 14z" />
    <glyph glyph-name="Icircumflex" unicode="&#xce;" horiz-adv-x="302" 
d="M109.5 4q-15.5 14 -15.5 39v614q0 25 15.5 39t41.5 14q25 0 41 -14.5t16 -38.5v-614q0 -24 -16 -38.5t-41 -14.5q-26 0 -41.5 14zM-15 814q0 17 13 33l105 126q19 22 45 22t45 -22l105 -126q13 -16 13 -33q0 -19 -18 -34q-14 -10 -28 -10q-22 0 -41 24l-76 104l-76 -104
q-18 -24 -41 -24q-14 0 -27 10q-19 15 -19 34z" />
    <glyph glyph-name="Idieresis" unicode="&#xcf;" horiz-adv-x="302" 
d="M109.5 4q-15.5 14 -15.5 39v614q0 25 15.5 39t41.5 14q25 0 41 -14.5t16 -38.5v-614q0 -24 -16 -38.5t-41 -14.5q-26 0 -41.5 14zM-9.5 810q-18.5 18 -18.5 44t18 44.5t46 18.5q27 0 45 -18t18 -45q0 -25 -18 -43.5t-45 -18.5t-45.5 18zM216.5 810q-18.5 18 -18.5 44
t18 44.5t46 18.5t46 -18t18 -45q0 -25 -18.5 -43.5t-45.5 -18.5t-45.5 18z" />
    <glyph glyph-name="Eth" unicode="&#xd0;" horiz-adv-x="819" 
d="M167.5 37.5q-39.5 37.5 -39.5 104.5v164h-45q-26 0 -41.5 11.5t-15.5 31.5q0 22 15 34t42 12h45v166q0 65 38.5 102t106.5 37h140q111 0 192.5 -42.5t125.5 -121.5t44 -187t-43.5 -186.5t-125 -120.5t-193.5 -42h-135q-71 0 -110.5 37.5zM403 89q128 0 192.5 65.5
t64.5 194.5t-65 195.5t-192 66.5h-114q-22 0 -34.5 -14t-12.5 -38v-164h158q27 0 42 -12t15 -34q0 -20 -15.5 -31.5t-41.5 -11.5h-158v-165q0 -24 12.5 -38t34.5 -14h114z" />
    <glyph glyph-name="Ntilde" unicode="&#xd1;" 
d="M74 4q-15 14 -15 39v388q0 131 81.5 205t224.5 74q94 0 163 -33.5t105.5 -96.5t36.5 -149v-388q0 -25 -15 -39t-41 -14t-41.5 14.5t-15.5 38.5v391q0 89 -50 137t-142 48t-142.5 -48.5t-50.5 -136.5v-391q0 -24 -15.5 -38.5t-41.5 -14.5t-41 14zM191 806.5
q-11 9.5 -11 24.5q0 10 4 19q32 82 108 82q26 0 47 -9t47 -26q17 -11 28 -16.5t22 -5.5q15 0 24 8.5t17 27.5q13 28 37 28q17 0 28 -9.5t11 -24.5q0 -10 -4 -19q-32 -82 -108 -82q-25 0 -43.5 8t-42.5 24q-18 13 -31 19t-27 6q-15 0 -24 -8t-17 -27q-13 -29 -36 -29
q-18 0 -29 9.5z" />
    <glyph glyph-name="Ograve" unicode="&#xd2;" horiz-adv-x="833" 
d="M222.5 35q-83.5 45 -128.5 127t-45 188t45 188t128.5 127t194.5 45t194.5 -45t128.5 -127t45 -188t-45 -188t-128.5 -127t-194.5 -45t-194.5 45zM602 153q68 72 68 197q0 126 -69.5 197.5t-189.5 71.5q-76 0 -132 -33t-86 -94t-30 -142q0 -83 31 -143.5t88 -93t135 -32.5
q117 0 185 72zM406.5 779q-10.5 6 -16.5 16l-80 139q-8 13 -8 25q0 24 32 41q14 7 28 7q30 0 45 -36l58 -145q3 -7 3 -15q0 -15 -10.5 -26.5t-29.5 -11.5q-11 0 -21.5 6z" />
    <glyph glyph-name="Oacute" unicode="&#xd3;" horiz-adv-x="833" 
d="M222.5 35q-83.5 45 -128.5 127t-45 188t45 188t128.5 127t194.5 45t194.5 -45t128.5 -127t45 -188t-45 -188t-128.5 -127t-194.5 -45t-194.5 45zM602 153q68 72 68 197q0 126 -69.5 197.5t-189.5 71.5q-76 0 -132 -33t-86 -94t-30 -142q0 -83 31 -143.5t88 -93t135 -32.5
q117 0 185 72zM389.5 792q-5.5 9 -5.5 19q0 8 3 15l59 145q15 36 44 36q14 0 28 -7q32 -17 32 -41q0 -11 -8 -25l-80 -139q-6 -10 -16.5 -16t-21.5 -6q-9 0 -19 5t-15.5 14z" />
    <glyph glyph-name="Ocircumflex" unicode="&#xd4;" horiz-adv-x="833" 
d="M222.5 35q-83.5 45 -128.5 127t-45 188t45 188t128.5 127t194.5 45t194.5 -45t128.5 -127t45 -188t-45 -188t-128.5 -127t-194.5 -45t-194.5 45zM602 153q68 72 68 197q0 126 -69.5 197.5t-189.5 71.5q-76 0 -132 -33t-86 -94t-30 -142q0 -83 31 -143.5t88 -93t135 -32.5
q117 0 185 72zM254 814q0 17 13 33l105 126q19 22 45 22t45 -22l105 -126q13 -16 13 -33q0 -19 -18 -34q-14 -10 -28 -10q-22 0 -41 24l-76 104l-76 -104q-18 -24 -41 -24q-14 0 -27 10q-19 15 -19 34z" />
    <glyph glyph-name="Otilde" unicode="&#xd5;" horiz-adv-x="833" 
d="M222.5 35q-83.5 45 -128.5 127t-45 188t45 188t128.5 127t194.5 45t194.5 -45t128.5 -127t45 -188t-45 -188t-128.5 -127t-194.5 -45t-194.5 45zM602 153q68 72 68 197q0 126 -69.5 197.5t-189.5 71.5q-76 0 -132 -33t-86 -94t-30 -142q0 -83 31 -143.5t88 -93t135 -32.5
q117 0 185 72zM241 806.5q-11 9.5 -11 24.5q0 10 4 19q32 82 108 82q26 0 47 -9t47 -26q17 -11 28 -16.5t22 -5.5q15 0 24 8.5t17 27.5q13 28 37 28q17 0 28 -9.5t11 -24.5q0 -10 -4 -19q-32 -82 -108 -82q-25 0 -43.5 8t-42.5 24q-18 13 -31 19t-27 6q-15 0 -24 -8t-17 -27
q-13 -29 -36 -29q-18 0 -29 9.5z" />
    <glyph glyph-name="Odieresis" unicode="&#xd6;" horiz-adv-x="833" 
d="M222.5 35q-83.5 45 -128.5 127t-45 188t45 188t128.5 127t194.5 45t194.5 -45t128.5 -127t45 -188t-45 -188t-128.5 -127t-194.5 -45t-194.5 45zM602 153q68 72 68 197q0 126 -69.5 197.5t-189.5 71.5q-76 0 -132 -33t-86 -94t-30 -142q0 -83 31 -143.5t88 -93t135 -32.5
q117 0 185 72zM258.5 810q-18.5 18 -18.5 44t18 44.5t46 18.5q27 0 45 -18t18 -45q0 -25 -18 -43.5t-45 -18.5t-45.5 18zM484.5 810q-18.5 18 -18.5 44t18 44.5t46 18.5t46 -18t18 -45q0 -25 -18.5 -43.5t-45.5 -18.5t-45.5 18z" />
    <glyph glyph-name="multiply" unicode="&#xd7;" horiz-adv-x="547" 
d="M468 123q16 -16 16 -35q0 -18 -16 -34q-13 -13 -33 -13q-24 0 -43 19l-118 118l-118 -118q-19 -19 -43 -19q-19 0 -33 13q-16 16 -16 34t17 35l124 124l-124 124q-17 19 -17 35q0 17 17 34q13 14 33 14q24 0 43 -19l117 -118l118 119q19 19 43 19q19 0 33 -13
q17 -17 17 -34q0 -19 -17 -36l-124 -124z" />
    <glyph glyph-name="Oslash" unicode="&#xd8;" horiz-adv-x="821" 
d="M735 538q45 -81 45 -188q0 -108 -45.5 -189.5t-129.5 -126t-194 -44.5q-56 0 -106 12l-20 -43q-6 -13 -19 -20.5t-28 -7.5t-25 5q-29 14 -29 44q0 10 5 22l17 38q-78 46 -121 125.5t-43 184.5q0 108 45.5 189.5t129 126t194.5 44.5q54 0 98 -10l20 44q6 13 18.5 21
t27.5 8q13 0 25 -6q15 -7 23.5 -18.5t8.5 -24.5q0 -8 -3 -16l-20 -44q81 -45 126 -126zM178.5 221q23.5 -56 68.5 -91l223 485q-44 6 -68 6q-75 0 -131 -33t-86 -94t-30 -144q0 -73 23.5 -129zM598.5 151.5q68.5 72.5 68.5 198.5q0 75 -26 132t-74 92l-224 -488q29 -7 68 -7
q119 0 187.5 72.5z" />
    <glyph glyph-name="Ugrave" unicode="&#xd9;" horiz-adv-x="734" 
d="M202 27q-69 37 -106 106t-37 163v361q0 25 15 39t41 14t41.5 -14.5t15.5 -38.5v-364q0 -102 50.5 -157t143.5 -55t144 55.5t51 156.5v364q0 24 15.5 38.5t41.5 14.5t41.5 -14t15.5 -39v-361q0 -91 -38.5 -160.5t-109 -107.5t-164.5 -38q-92 0 -161 37zM356.5 779
q-10.5 6 -16.5 16l-80 139q-8 13 -8 25q0 24 32 41q14 7 28 7q30 0 45 -36l58 -145q3 -7 3 -15q0 -15 -10.5 -26.5t-29.5 -11.5q-11 0 -21.5 6z" />
    <glyph glyph-name="Uacute" unicode="&#xda;" horiz-adv-x="734" 
d="M202 27q-69 37 -106 106t-37 163v361q0 25 15 39t41 14t41.5 -14.5t15.5 -38.5v-364q0 -102 50.5 -157t143.5 -55t144 55.5t51 156.5v364q0 24 15.5 38.5t41.5 14.5t41.5 -14t15.5 -39v-361q0 -91 -38.5 -160.5t-109 -107.5t-164.5 -38q-92 0 -161 37zM339.5 792
q-5.5 9 -5.5 19q0 8 3 15l59 145q15 36 44 36q14 0 28 -7q32 -17 32 -41q0 -11 -8 -25l-80 -139q-6 -10 -16.5 -16t-21.5 -6q-9 0 -19 5t-15.5 14z" />
    <glyph glyph-name="Ucircumflex" unicode="&#xdb;" horiz-adv-x="734" 
d="M202 27q-69 37 -106 106t-37 163v361q0 25 15 39t41 14t41.5 -14.5t15.5 -38.5v-364q0 -102 50.5 -157t143.5 -55t144 55.5t51 156.5v364q0 24 15.5 38.5t41.5 14.5t41.5 -14t15.5 -39v-361q0 -91 -38.5 -160.5t-109 -107.5t-164.5 -38q-92 0 -161 37zM204 814
q0 17 13 33l105 126q19 22 45 22t45 -22l105 -126q13 -16 13 -33q0 -19 -18 -34q-14 -10 -28 -10q-22 0 -41 24l-76 104l-76 -104q-18 -24 -41 -24q-14 0 -27 10q-19 15 -19 34z" />
    <glyph glyph-name="Udieresis" unicode="&#xdc;" horiz-adv-x="734" 
d="M202 27q-69 37 -106 106t-37 163v361q0 25 15 39t41 14t41.5 -14.5t15.5 -38.5v-364q0 -102 50.5 -157t143.5 -55t144 55.5t51 156.5v364q0 24 15.5 38.5t41.5 14.5t41.5 -14t15.5 -39v-361q0 -91 -38.5 -160.5t-109 -107.5t-164.5 -38q-92 0 -161 37zM208.5 810
q-18.5 18 -18.5 44t18 44.5t46 18.5q27 0 45 -18t18 -45q0 -25 -18 -43.5t-45 -18.5t-45.5 18zM434.5 810q-18.5 18 -18.5 44t18 44.5t46 18.5t46 -18t18 -45q0 -25 -18.5 -43.5t-45.5 -18.5t-45.5 18z" />
    <glyph glyph-name="Yacute" unicode="&#xdd;" horiz-adv-x="721" 
d="M657 696q15 -14 15 -39v-112q0 -132 -67.5 -216t-186.5 -101v-185q0 -24 -15.5 -38.5t-41.5 -14.5t-41.5 14t-15.5 39v185q-120 17 -187.5 100t-67.5 217v112q0 25 15.5 39t41.5 14t41.5 -14.5t15.5 -38.5v-115q0 -109 51.5 -168t146.5 -59q94 0 145.5 59.5t51.5 167.5
v115q0 24 16 38.5t42 14.5t41 -14zM333.5 792q-5.5 9 -5.5 19q0 8 3 15l59 145q15 36 44 36q14 0 28 -7q32 -17 32 -41q0 -11 -8 -25l-80 -139q-6 -10 -16.5 -16t-21.5 -6q-9 0 -19 5t-15.5 14z" />
    <glyph glyph-name="Thorn" unicode="&#xde;" horiz-adv-x="636" 
d="M72.5 4.5q-15.5 14.5 -15.5 39.5v613q0 25 15.5 39.5t42.5 14.5t43 -14.5t16 -39.5v-71h174q113 0 180 -59t67 -159t-67 -159t-180 -59h-174v-106q0 -25 -16 -39.5t-43 -14.5t-42.5 14.5zM348 242q59 0 94 34t35 92t-35 92t-94 34h-174v-252h174z" />
    <glyph glyph-name="germandbls" unicode="&#xdf;" horiz-adv-x="650" 
d="M286 6q-45 17 -67 43q-13 16 -13 30q0 18 19 35q16 13 35 13q22 0 42 -17q32 -28 78 -28q112 0 112 132q-1 70 -40.5 103t-123.5 33h-31q-27 0 -42.5 11.5t-15.5 32.5q0 22 15 33.5t43 11.5h44q47 0 72.5 28.5t25.5 80.5q0 46 -36.5 72t-100.5 26q-67 0 -101 -34
t-34 -100v-470q0 -17 -17 -30t-40 -13t-40.5 13t-17.5 30v472q0 66 31.5 117t88.5 79.5t130 28.5q74 0 131.5 -24t89.5 -67.5t32 -99.5q0 -54 -20.5 -88t-67.5 -59v-2q68 -19 104.5 -66.5t36.5 -117.5q0 -109 -59 -167.5t-169 -58.5q-49 0 -94 17z" />
    <glyph glyph-name="agrave" unicode="&#xe0;" horiz-adv-x="587" 
d="M96 35q-57 45 -57 120q0 74 60.5 118t163.5 44q100 0 156 -46v38q0 50 -31.5 76.5t-92.5 26.5q-86 0 -148 -38q-21 -12 -38 -12q-18 0 -33 16q-10 11 -10 26q0 24 21 38q36 27 91 42.5t115 15.5q113 0 177 -51t64 -141v-268q0 -23 -15 -36.5t-41 -13.5t-40.5 13t-14.5 36
v19q-59 -68 -175 -68q-95 0 -152 45zM380 94.5q40 22.5 40 61.5q0 38 -39 60t-107 22q-59 0 -91.5 -22t-32.5 -61q0 -40 31.5 -61.5t90.5 -21.5q68 0 108 22.5zM296.5 562q-10.5 6 -16.5 16l-80 139q-8 13 -8 25q0 24 32 41q14 7 28 7q30 0 45 -36l58 -145q3 -7 3 -15
q0 -15 -10.5 -26.5t-29.5 -11.5q-11 0 -21.5 6z" />
    <glyph glyph-name="aacute" unicode="&#xe1;" horiz-adv-x="587" 
d="M96 35q-57 45 -57 120q0 74 60.5 118t163.5 44q100 0 156 -46v38q0 50 -31.5 76.5t-92.5 26.5q-86 0 -148 -38q-21 -12 -38 -12q-18 0 -33 16q-10 11 -10 26q0 24 21 38q36 27 91 42.5t115 15.5q113 0 177 -51t64 -141v-268q0 -23 -15 -36.5t-41 -13.5t-40.5 13t-14.5 36
v19q-59 -68 -175 -68q-95 0 -152 45zM380 94.5q40 22.5 40 61.5q0 38 -39 60t-107 22q-59 0 -91.5 -22t-32.5 -61q0 -40 31.5 -61.5t90.5 -21.5q68 0 108 22.5zM279.5 575q-5.5 9 -5.5 19q0 8 3 15l59 145q15 36 44 36q14 0 28 -7q32 -17 32 -41q0 -11 -8 -25l-80 -139
q-6 -10 -16.5 -16t-21.5 -6q-9 0 -19 5t-15.5 14z" />
    <glyph glyph-name="acircumflex" unicode="&#xe2;" horiz-adv-x="587" 
d="M96 35q-57 45 -57 120q0 74 60.5 118t163.5 44q100 0 156 -46v38q0 50 -31.5 76.5t-92.5 26.5q-86 0 -148 -38q-21 -12 -38 -12q-18 0 -33 16q-10 11 -10 26q0 24 21 38q36 27 91 42.5t115 15.5q113 0 177 -51t64 -141v-268q0 -23 -15 -36.5t-41 -13.5t-40.5 13t-14.5 36
v19q-59 -68 -175 -68q-95 0 -152 45zM380 94.5q40 22.5 40 61.5q0 38 -39 60t-107 22q-59 0 -91.5 -22t-32.5 -61q0 -40 31.5 -61.5t90.5 -21.5q68 0 108 22.5zM143 597q0 17 13 33l105 126q19 22 45 22t45 -22l105 -126q13 -16 13 -33q0 -19 -18 -34q-14 -10 -28 -10
q-22 0 -41 24l-76 104l-76 -104q-18 -24 -41 -24q-14 0 -27 10q-19 15 -19 34z" />
    <glyph glyph-name="atilde" unicode="&#xe3;" horiz-adv-x="587" 
d="M96 35q-57 45 -57 120q0 74 60.5 118t163.5 44q100 0 156 -46v38q0 50 -31.5 76.5t-92.5 26.5q-86 0 -148 -38q-21 -12 -38 -12q-18 0 -33 16q-10 11 -10 26q0 24 21 38q36 27 91 42.5t115 15.5q113 0 177 -51t64 -141v-268q0 -23 -15 -36.5t-41 -13.5t-40.5 13t-14.5 36
v19q-59 -68 -175 -68q-95 0 -152 45zM380 94.5q40 22.5 40 61.5q0 38 -39 60t-107 22q-59 0 -91.5 -22t-32.5 -61q0 -40 31.5 -61.5t90.5 -21.5q68 0 108 22.5zM130 589.5q-11 9.5 -11 24.5q0 10 4 19q32 82 108 82q26 0 47 -9t47 -26q17 -11 28 -16.5t22 -5.5q15 0 24 8.5
t17 27.5q13 28 37 28q17 0 28 -9.5t11 -24.5q0 -10 -4 -19q-32 -82 -108 -82q-25 0 -43.5 8t-42.5 24q-18 13 -31 19t-27 6q-15 0 -24 -8t-17 -27q-13 -29 -36 -29q-18 0 -29 9.5z" />
    <glyph glyph-name="adieresis" unicode="&#xe4;" horiz-adv-x="587" 
d="M96 35q-57 45 -57 120q0 74 60.5 118t163.5 44q100 0 156 -46v38q0 50 -31.5 76.5t-92.5 26.5q-86 0 -148 -38q-21 -12 -38 -12q-18 0 -33 16q-10 11 -10 26q0 24 21 38q36 27 91 42.5t115 15.5q113 0 177 -51t64 -141v-268q0 -23 -15 -36.5t-41 -13.5t-40.5 13t-14.5 36
v19q-59 -68 -175 -68q-95 0 -152 45zM380 94.5q40 22.5 40 61.5q0 38 -39 60t-107 22q-59 0 -91.5 -22t-32.5 -61q0 -40 31.5 -61.5t90.5 -21.5q68 0 108 22.5zM148.5 593q-18.5 18 -18.5 44t18 44.5t46 18.5q27 0 45 -18t18 -45q0 -25 -18 -43.5t-45 -18.5t-45.5 18z
M374.5 593q-18.5 18 -18.5 44t18 44.5t46 18.5t46 -18t18 -45q0 -25 -18.5 -43.5t-45.5 -18.5t-45.5 18z" />
    <glyph glyph-name="aring" unicode="&#xe5;" horiz-adv-x="587" 
d="M96 35q-57 45 -57 120q0 74 60.5 118t163.5 44q100 0 156 -46v38q0 50 -31.5 76.5t-92.5 26.5q-86 0 -148 -38q-21 -12 -38 -12q-18 0 -33 16q-10 11 -10 26q0 24 21 38q36 27 91 42.5t115 15.5q113 0 177 -51t64 -141v-268q0 -23 -15 -36.5t-41 -13.5t-40.5 13t-14.5 36
v19q-59 -68 -175 -68q-95 0 -152 45zM380 94.5q40 22.5 40 61.5q0 38 -39 60t-107 22q-59 0 -91.5 -22t-32.5 -61q0 -40 31.5 -61.5t90.5 -21.5q68 0 108 22.5zM217.5 567q-33.5 30 -33.5 78q0 47 33.5 77t88.5 30t88 -30t33 -77q0 -48 -33 -78t-88 -30t-88.5 30zM342.5 610
q13.5 13 13.5 35q0 23 -13.5 36t-36.5 13t-36.5 -13t-13.5 -36q0 -22 13.5 -35t36.5 -13t36.5 13z" />
    <glyph glyph-name="ae" unicode="&#xe6;" horiz-adv-x="1006" 
d="M143.5 11q-49.5 21 -77 60t-27.5 89q0 49 28.5 87t80 59t118.5 21q51 0 93.5 -11.5t68.5 -33.5v23q0 48 -35.5 77t-94.5 29q-43 0 -79 -10t-70 -30q-20 -14 -40 -14q-19 0 -34 15q-11 11 -11 28q0 21 21 37q36 29 92.5 46t118.5 17t111 -23.5t81 -67.5q34 43 89 67
t119 24q80 0 142 -24.5t96 -69t34 -102.5q0 -46 -28 -71t-79 -25h-329q0 -59 46.5 -93.5t126.5 -34.5q88 0 153 46q27 19 43 19q14 0 30 -14q15 -15 15 -32q0 -19 -17 -34q-43 -36 -100 -55t-124 -19q-68 0 -125.5 23t-90.5 63q-79 -87 -231 -87q-65 0 -114.5 21zM825 289
q18 0 25.5 7t7.5 24q0 42 -43.5 66.5t-118.5 24.5q-74 0 -118 -33t-44 -89h291zM387.5 96q41.5 24 41.5 65q0 40 -40.5 63t-111.5 23q-58 0 -92.5 -23.5t-34.5 -63.5q0 -41 33 -64.5t92 -23.5q71 0 112.5 24z" />
    <glyph glyph-name="ccedilla" unicode="&#xe7;" horiz-adv-x="600" 
d="M558 110q0 -17 -13 -29q-40 -40 -86.5 -62t-103.5 -27l-2 -5l-19 -37q42 -2 65 -23t23 -53q0 -38 -28 -64t-81 -26q-41 0 -72 15t-49 39q-8 11 -8 20q0 12 16 25q12 10 21 10q12 0 24 -15q11 -14 27 -21.5t33 -7.5q39 0 39 29q0 32 -34 32l-11 -1q-18 -2 -32.5 7.5
t-14.5 25.5q0 8 4 15l17 35q-110 11 -172 78t-62 176q0 118 74 186t203 68q72 0 129 -23t90 -65q11 -14 11 -28q0 -23 -24 -40q-11 -8 -25 -8q-28 0 -48 22q-23 25 -57 38.5t-76 13.5q-78 0 -121 -43t-43 -121q0 -79 43 -122.5t121 -43.5q87 0 145 56q24 24 47 24
q17 0 29 -11q21 -16 21 -39z" />
    <glyph glyph-name="egrave" unicode="&#xe8;" horiz-adv-x="622" 
d="M168.5 20.5q-63.5 30.5 -97 87.5t-33.5 135q0 121 72 189t200 68q79 0 140 -25t95 -69.5t34 -101.5q0 -46 -28 -71t-79 -25h-324q0 -62 44 -96t126 -34q47 0 83 10t67 32q29 19 44 19q13 0 27 -14q16 -15 16 -33q0 -19 -17 -32q-84 -70 -220 -70q-86 0 -149.5 30.5z
M438 289q17 0 25 7t8 24q0 41 -44 66.5t-117 25.5q-74 0 -117 -33.5t-43 -89.5h288zM305.5 562q-10.5 6 -16.5 16l-80 139q-8 13 -8 25q0 24 32 41q14 7 28 7q30 0 45 -36l58 -145q3 -7 3 -15q0 -15 -10.5 -26.5t-29.5 -11.5q-11 0 -21.5 6z" />
    <glyph glyph-name="eacute" unicode="&#xe9;" horiz-adv-x="622" 
d="M168.5 20.5q-63.5 30.5 -97 87.5t-33.5 135q0 121 72 189t200 68q79 0 140 -25t95 -69.5t34 -101.5q0 -46 -28 -71t-79 -25h-324q0 -62 44 -96t126 -34q47 0 83 10t67 32q29 19 44 19q13 0 27 -14q16 -15 16 -33q0 -19 -17 -32q-84 -70 -220 -70q-86 0 -149.5 30.5z
M438 289q17 0 25 7t8 24q0 41 -44 66.5t-117 25.5q-74 0 -117 -33.5t-43 -89.5h288zM288.5 575q-5.5 9 -5.5 19q0 8 3 15l59 145q15 36 44 36q14 0 28 -7q32 -17 32 -41q0 -11 -8 -25l-80 -139q-6 -10 -16.5 -16t-21.5 -6q-9 0 -19 5t-15.5 14z" />
    <glyph glyph-name="ecircumflex" unicode="&#xea;" horiz-adv-x="622" 
d="M168.5 20.5q-63.5 30.5 -97 87.5t-33.5 135q0 121 72 189t200 68q79 0 140 -25t95 -69.5t34 -101.5q0 -46 -28 -71t-79 -25h-324q0 -62 44 -96t126 -34q47 0 83 10t67 32q29 19 44 19q13 0 27 -14q16 -15 16 -33q0 -19 -17 -32q-84 -70 -220 -70q-86 0 -149.5 30.5z
M438 289q17 0 25 7t8 24q0 41 -44 66.5t-117 25.5q-74 0 -117 -33.5t-43 -89.5h288zM152 597q0 17 13 33l105 126q19 22 45 22t45 -22l105 -126q13 -16 13 -33q0 -19 -18 -34q-14 -10 -28 -10q-22 0 -41 24l-76 104l-76 -104q-18 -24 -41 -24q-14 0 -27 10q-19 15 -19 34z
" />
    <glyph glyph-name="edieresis" unicode="&#xeb;" horiz-adv-x="622" 
d="M168.5 20.5q-63.5 30.5 -97 87.5t-33.5 135q0 121 72 189t200 68q79 0 140 -25t95 -69.5t34 -101.5q0 -46 -28 -71t-79 -25h-324q0 -62 44 -96t126 -34q47 0 83 10t67 32q29 19 44 19q13 0 27 -14q16 -15 16 -33q0 -19 -17 -32q-84 -70 -220 -70q-86 0 -149.5 30.5z
M438 289q17 0 25 7t8 24q0 41 -44 66.5t-117 25.5q-74 0 -117 -33.5t-43 -89.5h288zM156.5 593q-18.5 18 -18.5 44t18 44.5t46 18.5q27 0 45 -18t18 -45q0 -25 -18 -43.5t-45 -18.5t-45.5 18zM382.5 593q-18.5 18 -18.5 44t18 44.5t46 18.5t46 -18t18 -45q0 -25 -18.5 -43.5
t-45.5 -18.5t-45.5 18z" />
    <glyph glyph-name="igrave" unicode="&#xec;" horiz-adv-x="255" 
d="M87 4q-15 14 -15 39v404q0 25 15 39t41 14t41 -14t15 -39v-404q0 -25 -15 -39t-41 -14t-41 14zM105.5 549q-10.5 6 -16.5 16l-80 139q-8 13 -8 25q0 24 32 41q14 7 28 7q30 0 45 -36l58 -145q3 -7 3 -15q0 -15 -10.5 -26.5t-29.5 -11.5q-11 0 -21.5 6z" />
    <glyph glyph-name="iacute" unicode="&#xed;" horiz-adv-x="255" 
d="M87 4q-15 14 -15 39v404q0 25 15 39t41 14t41 -14t15 -39v-404q0 -25 -15 -39t-41 -14t-41 14zM101.5 562q-5.5 9 -5.5 19q0 8 3 15l59 145q15 36 44 36q14 0 28 -7q32 -17 32 -41q0 -11 -8 -25l-80 -139q-6 -10 -16.5 -16t-21.5 -6q-9 0 -19 5t-15.5 14z" />
    <glyph glyph-name="icircumflex" unicode="&#xee;" horiz-adv-x="255" 
d="M87 4q-15 14 -15 39v404q0 25 15 39t41 14t41 -14t15 -39v-404q0 -25 -15 -39t-41 -14t-41 14zM-35 584q0 17 13 33l105 126q19 22 45 22t45 -22l105 -126q13 -16 13 -33q0 -19 -18 -34q-14 -10 -28 -10q-21 0 -41 24l-76 104l-76 -104q-20 -24 -41 -24q-14 0 -27 10
q-19 15 -19 34z" />
    <glyph glyph-name="idieresis" unicode="&#xef;" horiz-adv-x="255" 
d="M87 4q-15 14 -15 39v404q0 25 15 39t41 14t41 -14t15 -39v-404q0 -25 -15 -39t-41 -14t-41 14zM-30 580q-18 18 -18 44t18 44.5t46 18.5q27 0 45 -18t18 -45q0 -25 -18 -43.5t-45 -18.5q-28 0 -46 18zM196.5 580q-18.5 18 -18.5 44t18 44.5t46 18.5t46 -18t18 -45
q0 -25 -18.5 -43.5t-45.5 -18.5t-45.5 18z" />
    <glyph glyph-name="eth" unicode="&#xf0;" horiz-adv-x="666" 
d="M623 330q0 -103 -36.5 -179.5t-105.5 -118.5t-166 -42q-85 0 -146 30.5t-93.5 85.5t-32.5 127q0 71 32.5 125.5t93 84.5t141.5 30q72 0 126 -29t89 -79l2 1q-7 61 -27.5 106t-58.5 79l-34 -36q-20 -20 -41 -20q-14 0 -27 11q-14 13 -14 29q0 18 17 34l28 29
q-42 19 -81 31q-32 10 -32 36q0 13 7 27q11 23 42 23q17 0 34 -7q49 -17 95 -43l58 60q17 20 37 20q17 0 30 -12q14 -13 14 -29q0 -17 -16 -33l-54 -55q119 -106 119 -286zM442 122q47 41 47 110q0 68 -47 109t-127 41q-74 0 -116 -40t-42 -110t42 -110.5t116 -40.5
q80 0 127 41z" />
    <glyph glyph-name="ntilde" unicode="&#xf1;" horiz-adv-x="614" 
d="M69 4q-15 14 -15 39v404q0 25 14.5 39t39.5 14q26 0 40.5 -14t14.5 -39v-39q74 92 198 92q95 0 149.5 -58t54.5 -160v-239q0 -25 -15.5 -39t-41.5 -14t-40.5 14t-14.5 39v239q0 62 -30 95t-85 33q-80 0 -126 -47.5t-46 -128.5v-191q0 -24 -15.5 -38.5t-40.5 -14.5
q-26 0 -41 14zM134 596.5q-11 9.5 -11 24.5q0 10 4 19q32 82 108 82q26 0 47 -9t47 -26q17 -11 28 -16.5t22 -5.5q15 0 24 8.5t17 27.5q13 28 37 28q17 0 28 -9.5t11 -24.5q0 -10 -4 -19q-32 -82 -108 -82q-25 0 -43.5 8t-42.5 24q-18 13 -31 19t-27 6q-15 0 -24 -8t-17 -27
q-13 -29 -36 -29q-18 0 -29 9.5z" />
    <glyph glyph-name="ograve" unicode="&#xf2;" horiz-adv-x="658" 
d="M176 22.5q-66 32.5 -101.5 90.5t-35.5 132t35.5 132t101.5 90.5t153 32.5t153 -32.5t101.5 -90.5t35.5 -132t-35.5 -132t-101.5 -90.5t-153 -32.5t-153 32.5zM458 124q48 44 48 121t-48 121t-129 44q-82 0 -129.5 -44t-47.5 -121t47.5 -121t129.5 -44q81 0 129 44z
M319.5 569q-10.5 6 -16.5 16l-80 139q-8 13 -8 25q0 24 32 41q14 7 28 7q30 0 45 -36l58 -145q3 -7 3 -15q0 -15 -10.5 -26.5t-29.5 -11.5q-11 0 -21.5 6z" />
    <glyph glyph-name="oacute" unicode="&#xf3;" horiz-adv-x="658" 
d="M176 22.5q-66 32.5 -101.5 90.5t-35.5 132t35.5 132t101.5 90.5t153 32.5t153 -32.5t101.5 -90.5t35.5 -132t-35.5 -132t-101.5 -90.5t-153 -32.5t-153 32.5zM458 124q48 44 48 121t-48 121t-129 44q-82 0 -129.5 -44t-47.5 -121t47.5 -121t129.5 -44q81 0 129 44z
M302.5 582q-5.5 9 -5.5 19q0 8 3 15l59 145q15 36 44 36q14 0 28 -7q32 -17 32 -41q0 -11 -8 -25l-80 -139q-6 -10 -16.5 -16t-21.5 -6q-9 0 -19 5t-15.5 14z" />
    <glyph glyph-name="ocircumflex" unicode="&#xf4;" horiz-adv-x="658" 
d="M176 22.5q-66 32.5 -101.5 90.5t-35.5 132t35.5 132t101.5 90.5t153 32.5t153 -32.5t101.5 -90.5t35.5 -132t-35.5 -132t-101.5 -90.5t-153 -32.5t-153 32.5zM458 124q48 44 48 121t-48 121t-129 44q-82 0 -129.5 -44t-47.5 -121t47.5 -121t129.5 -44q81 0 129 44z
M166 604q0 17 13 33l105 126q19 22 45 22t45 -22l105 -126q13 -16 13 -33q0 -19 -18 -34q-14 -10 -28 -10q-22 0 -41 24l-76 104l-76 -104q-18 -24 -41 -24q-14 0 -27 10q-19 15 -19 34z" />
    <glyph glyph-name="otilde" unicode="&#xf5;" horiz-adv-x="658" 
d="M176 22.5q-66 32.5 -101.5 90.5t-35.5 132t35.5 132t101.5 90.5t153 32.5t153 -32.5t101.5 -90.5t35.5 -132t-35.5 -132t-101.5 -90.5t-153 -32.5t-153 32.5zM458 124q48 44 48 121t-48 121t-129 44q-82 0 -129.5 -44t-47.5 -121t47.5 -121t129.5 -44q81 0 129 44z
M153 596.5q-11 9.5 -11 24.5q0 10 4 19q32 82 108 82q26 0 47 -9t47 -26q17 -11 28 -16.5t22 -5.5q15 0 24 8.5t17 27.5q13 28 37 28q17 0 28 -9.5t11 -24.5q0 -10 -4 -19q-32 -82 -108 -82q-25 0 -43.5 8t-42.5 24q-18 13 -31 19t-27 6q-15 0 -24 -8t-17 -27
q-13 -29 -36 -29q-18 0 -29 9.5z" />
    <glyph glyph-name="odieresis" unicode="&#xf6;" horiz-adv-x="658" 
d="M176 22.5q-66 32.5 -101.5 90.5t-35.5 132t35.5 132t101.5 90.5t153 32.5t153 -32.5t101.5 -90.5t35.5 -132t-35.5 -132t-101.5 -90.5t-153 -32.5t-153 32.5zM458 124q48 44 48 121t-48 121t-129 44q-82 0 -129.5 -44t-47.5 -121t47.5 -121t129.5 -44q81 0 129 44z
M171.5 600q-18.5 18 -18.5 44t18 44.5t46 18.5q27 0 45 -18t18 -45q0 -25 -18 -43.5t-45 -18.5t-45.5 18zM397.5 600q-18.5 18 -18.5 44t18 44.5t46 18.5t46 -18t18 -45q0 -25 -18.5 -43.5t-45.5 -18.5t-45.5 18z" />
    <glyph glyph-name="divide" unicode="&#xf7;" horiz-adv-x="547" 
d="M225.5 349q-17.5 18 -17.5 43q0 26 17.5 43.5t45.5 17.5t46 -17.5t18 -43.5q0 -25 -18 -43t-46 -18t-45.5 18zM68 211q-15 12 -15 32q0 22 15 33.5t42 11.5h327q27 0 41.5 -11.5t14.5 -33.5q0 -20 -14.5 -32t-41.5 -12h-327q-27 0 -42 12zM225.5 51.5
q-17.5 17.5 -17.5 42.5q0 26 17.5 44t45.5 18t46 -18t18 -44q0 -25 -18.5 -42.5t-45.5 -17.5q-28 0 -45.5 17.5z" />
    <glyph glyph-name="oslash" unicode="&#xf8;" horiz-adv-x="666" 
d="M587.5 376.5q35.5 -58.5 35.5 -131.5q0 -74 -35.5 -132t-101.5 -90.5t-153 -32.5q-29 0 -62 5l-16 -35q-14 -32 -44 -32q-14 0 -25 5q-30 12 -30 38q0 12 6 24l14 30q-63 32 -98 89.5t-35 130.5q0 74 35.5 132t101.5 90.5t153 32.5q34 0 59 -4l15 33q14 32 44 32
q14 0 25 -5q30 -12 30 -38q0 -10 -6 -24l-13 -27q65 -32 100.5 -90.5zM215 110l138 301q-7 1 -20 1q-84 0 -132.5 -44t-48.5 -123q0 -89 63 -135zM465.5 122q48.5 44 48.5 123q0 46 -17 81t-49 55l-138 -302q7 -1 23 -1q84 0 132.5 44z" />
    <glyph glyph-name="ugrave" unicode="&#xf9;" horiz-adv-x="614" 
d="M106 48.5q-57 58.5 -57 162.5v236q0 25 15.5 39t41.5 14t40.5 -14t14.5 -39v-236q0 -62 33 -96.5t92 -34.5q74 0 118 47.5t44 128.5v191q0 25 15 39t41 14t41 -14t15 -39v-404q0 -25 -14 -39t-40 -14t-40.5 14.5t-14.5 38.5v39q-73 -92 -187 -92q-101 0 -158 58.5z
M292.5 569q-10.5 6 -16.5 16l-80 139q-8 13 -8 25q0 24 32 41q14 7 28 7q30 0 45 -36l58 -145q3 -7 3 -15q0 -15 -10.5 -26.5t-29.5 -11.5q-11 0 -21.5 6z" />
    <glyph glyph-name="uacute" unicode="&#xfa;" horiz-adv-x="614" 
d="M106 48.5q-57 58.5 -57 162.5v236q0 25 15.5 39t41.5 14t40.5 -14t14.5 -39v-236q0 -62 33 -96.5t92 -34.5q74 0 118 47.5t44 128.5v191q0 25 15 39t41 14t41 -14t15 -39v-404q0 -25 -14 -39t-40 -14t-40.5 14.5t-14.5 38.5v39q-73 -92 -187 -92q-101 0 -158 58.5z
M275.5 582q-5.5 9 -5.5 19q0 8 3 15l59 145q15 36 44 36q14 0 28 -7q32 -17 32 -41q0 -11 -8 -25l-80 -139q-6 -10 -16.5 -16t-21.5 -6q-9 0 -19 5t-15.5 14z" />
    <glyph glyph-name="ucircumflex" unicode="&#xfb;" horiz-adv-x="614" 
d="M106 48.5q-57 58.5 -57 162.5v236q0 25 15.5 39t41.5 14t40.5 -14t14.5 -39v-236q0 -62 33 -96.5t92 -34.5q74 0 118 47.5t44 128.5v191q0 25 15 39t41 14t41 -14t15 -39v-404q0 -25 -14 -39t-40 -14t-40.5 14.5t-14.5 38.5v39q-73 -92 -187 -92q-101 0 -158 58.5z
M139 604q0 17 13 33l105 126q19 22 45 22t45 -22l105 -126q13 -16 13 -33q0 -19 -18 -34q-14 -10 -28 -10q-22 0 -41 24l-76 104l-76 -104q-18 -24 -41 -24q-14 0 -27 10q-19 15 -19 34z" />
    <glyph glyph-name="udieresis" unicode="&#xfc;" horiz-adv-x="614" 
d="M106 48.5q-57 58.5 -57 162.5v236q0 25 15.5 39t41.5 14t40.5 -14t14.5 -39v-236q0 -62 33 -96.5t92 -34.5q74 0 118 47.5t44 128.5v191q0 25 15 39t41 14t41 -14t15 -39v-404q0 -25 -14 -39t-40 -14t-40.5 14.5t-14.5 38.5v39q-73 -92 -187 -92q-101 0 -158 58.5z
M144.5 600q-18.5 18 -18.5 44t18 44.5t46 18.5q27 0 45 -18t18 -45q0 -25 -18 -43.5t-45 -18.5t-45.5 18zM370.5 600q-18.5 18 -18.5 44t18 44.5t46 18.5t46 -18t18 -45q0 -25 -18.5 -43.5t-45.5 -18.5t-45.5 18z" />
    <glyph glyph-name="yacute" unicode="&#xfd;" horiz-adv-x="613" 
d="M161.5 -227.5q-59.5 22.5 -89.5 61.5q-11 16 -11 30q0 22 21 39q13 9 28 9q25 0 45 -23q22 -24 57.5 -37t78.5 -13q77 0 119 43t42 122v51q-26 -29 -67 -46t-84 -17q-124 0 -193.5 67.5t-69.5 188.5v202q0 21 16 35.5t41 14.5q23 0 39 -14.5t16 -35.5v-202
q0 -80 40 -124.5t111 -44.5q69 0 107.5 43.5t38.5 122.5v195q0 28 15 44t42 16t42 -16t15 -44v-423q0 -124 -71.5 -195.5t-195.5 -71.5q-73 0 -132.5 22.5zM266.5 582q-5.5 9 -5.5 19q0 8 3 15l59 145q15 36 44 36q14 0 28 -7q32 -17 32 -41q0 -11 -8 -25l-80 -139
q-6 -10 -16.5 -16t-21.5 -6q-9 0 -19 5t-15.5 14z" />
    <glyph glyph-name="thorn" unicode="&#xfe;" horiz-adv-x="674" 
d="M72.5 -285q-14.5 14 -14.5 39v982q0 25 14.5 39t40.5 14t41.5 -14.5t15.5 -38.5v-322q37 42 86.5 64t105.5 22q127 0 198.5 -67.5t71.5 -187.5q0 -119 -71.5 -187t-198.5 -68q-56 0 -105.5 22t-86.5 64v-322q0 -24 -15.5 -38.5t-41.5 -14.5t-40.5 14zM474 124
q45 44 45 121q0 79 -44 122t-125 43q-85 0 -133 -44t-48 -121q0 -76 49 -120.5t132 -44.5q79 0 124 44z" />
    <glyph glyph-name="ydieresis" unicode="&#xff;" horiz-adv-x="613" 
d="M161.5 -227.5q-59.5 22.5 -89.5 61.5q-11 16 -11 30q0 22 21 39q13 9 28 9q25 0 45 -23q22 -24 57.5 -37t78.5 -13q77 0 119 43t42 122v51q-26 -29 -67 -46t-84 -17q-124 0 -193.5 67.5t-69.5 188.5v202q0 21 16 35.5t41 14.5q23 0 39 -14.5t16 -35.5v-202
q0 -80 40 -124.5t111 -44.5q69 0 107.5 43.5t38.5 122.5v195q0 28 15 44t42 16t42 -16t15 -44v-423q0 -124 -71.5 -195.5t-195.5 -71.5q-73 0 -132.5 22.5zM135.5 600q-18.5 18 -18.5 44t18 44.5t46 18.5q27 0 45 -18t18 -45q0 -25 -18 -43.5t-45 -18.5t-45.5 18zM361.5 600
q-18.5 18 -18.5 44t18 44.5t46 18.5t46 -18t18 -45q0 -25 -18.5 -43.5t-45.5 -18.5t-45.5 18z" />
    <glyph glyph-name="Amacron" unicode="&#x100;" 
d="M74 5q-15 14 -15 39v364q0 142 81 222t225 80q94 0 163 -36.5t105.5 -104.5t36.5 -161v-364q0 -25 -15 -39t-41 -14t-42 14.5t-16 38.5v184h-383v-184q0 -24 -16 -38.5t-42 -14.5t-41 14zM556 317v94q0 102 -48.5 155t-142.5 53q-95 0 -143.5 -52.5t-48.5 -155.5v-94h383
zM192 809q0 20 11.5 28t35.5 8h252q24 0 35.5 -8t11.5 -28q0 -35 -47 -35h-252q-47 0 -47 35z" />
    <glyph glyph-name="amacron" unicode="&#x101;" horiz-adv-x="587" 
d="M96 35q-57 45 -57 120q0 74 60.5 118t163.5 44q100 0 156 -46v38q0 50 -31.5 76.5t-92.5 26.5q-86 0 -148 -38q-21 -12 -38 -12q-18 0 -33 16q-10 11 -10 26q0 24 21 38q36 27 91 42.5t115 15.5q113 0 177 -51t64 -141v-268q0 -23 -15 -36.5t-41 -13.5t-40.5 13t-14.5 36
v19q-59 -68 -175 -68q-95 0 -152 45zM380 94.5q40 22.5 40 61.5q0 38 -39 60t-107 22q-59 0 -91.5 -22t-32.5 -61q0 -40 31.5 -61.5t90.5 -21.5q68 0 108 22.5zM131 597q0 20 11.5 28t35.5 8h252q24 0 35.5 -8t11.5 -28q0 -35 -47 -35h-252q-47 0 -47 35z" />
    <glyph glyph-name="Abreve" unicode="&#x102;" 
d="M74 5q-15 14 -15 39v364q0 142 81 222t225 80q94 0 163 -36.5t105.5 -104.5t36.5 -161v-364q0 -25 -15 -39t-41 -14t-42 14.5t-16 38.5v184h-383v-184q0 -24 -16 -38.5t-42 -14.5t-41 14zM556 317v94q0 102 -48.5 155t-142.5 53q-95 0 -143.5 -52.5t-48.5 -155.5v-94h383
zM233.5 817q-48.5 45 -48.5 118q0 25 13.5 38t38.5 13t38.5 -13t13.5 -38q0 -39 19.5 -60.5t56.5 -21.5t56.5 21.5t19.5 60.5q0 24 13.5 37.5t38.5 13.5t38.5 -13t13.5 -38q0 -73 -48.5 -118t-131.5 -45t-131.5 45z" />
    <glyph glyph-name="abreve" unicode="&#x103;" horiz-adv-x="587" 
d="M96 35q-57 45 -57 120q0 74 60.5 118t163.5 44q100 0 156 -46v38q0 50 -31.5 76.5t-92.5 26.5q-86 0 -148 -38q-21 -12 -38 -12q-18 0 -33 16q-10 11 -10 26q0 24 21 38q36 27 91 42.5t115 15.5q113 0 177 -51t64 -141v-268q0 -23 -15 -36.5t-41 -13.5t-40.5 13t-14.5 36
v19q-59 -68 -175 -68q-95 0 -152 45zM380 94.5q40 22.5 40 61.5q0 38 -39 60t-107 22q-59 0 -91.5 -22t-32.5 -61q0 -40 31.5 -61.5t90.5 -21.5q68 0 108 22.5zM173.5 600q-48.5 45 -48.5 118q0 25 13.5 38t38.5 13t38.5 -13t13.5 -38q0 -39 19.5 -60.5t56.5 -21.5
t56.5 21.5t19.5 60.5q0 24 13.5 37.5t38.5 13.5t38.5 -13t13.5 -38q0 -73 -48.5 -118t-131.5 -45t-131.5 45z" />
    <glyph glyph-name="Aogonek" unicode="&#x104;" 
d="M712 -144q0 -12 -13 -25q-39 -39 -99 -39q-54 0 -88.5 24t-34.5 71q0 37 20 70t62 68q-3 9 -3 19v184h-383v-184q0 -24 -16 -38.5t-42 -14.5t-41 14t-15 39v364q0 142 81 222t225 80q94 0 163 -36.5t105.5 -104.5t36.5 -161v-364q0 -32 -26 -47l-2 -1q-7 -6 -31.5 -26.5
t-33.5 -36.5t-9 -35q0 -17 12 -26t29 -9q28 0 46 16q13 11 24 11t21 -10q12 -12 12 -24zM556 411q0 102 -48.5 155t-142.5 53q-95 0 -143.5 -52.5t-48.5 -155.5v-94h383v94z" />
    <glyph glyph-name="aogonek" unicode="&#x105;" horiz-adv-x="587" 
d="M580 -143q0 -13 -13 -26q-37 -39 -99 -39q-53 0 -87.5 24t-34.5 71q0 37 19 68.5t60 67.5q-2 10 -2 16v19q-59 -68 -175 -68q-95 0 -152 45t-57 120q0 74 60.5 118t163.5 44q100 0 156 -46v38q0 50 -31.5 76.5t-92.5 26.5q-86 0 -148 -38q-21 -12 -38 -12q-18 0 -33 16
q-10 11 -10 26q0 24 21 38q36 27 91 42.5t115 15.5q113 0 177 -51t64 -141v-268q0 -25 -18 -39l-5 -5q-7 -6 -31.5 -26t-34 -36.5t-9.5 -35.5q0 -17 12.5 -26t29.5 -9q27 0 46 16q13 11 24 11t21 -10q11 -11 11 -23zM380 94.5q40 22.5 40 61.5q0 38 -39 60t-107 22
q-59 0 -91.5 -22t-32.5 -61q0 -40 31.5 -61.5t90.5 -21.5q68 0 108 22.5z" />
    <glyph glyph-name="Cacute" unicode="&#x106;" horiz-adv-x="764" 
d="M217.5 33.5q-81.5 43.5 -125 124.5t-43.5 191t43.5 191.5t124.5 125.5t191 44q90 0 167 -31t116 -84q11 -16 11 -29q0 -22 -23 -39q-13 -8 -27 -8q-13 0 -25.5 6t-21.5 16q-33 40 -81.5 59t-115.5 19q-115 0 -179.5 -71.5t-64.5 -198.5q0 -125 65 -196.5t180 -71.5
q136 0 209 78q24 24 49 24q16 0 29 -10q20 -17 20 -37q0 -17 -12 -32q-43 -53 -121 -83.5t-174 -30.5q-110 0 -191.5 43.5zM393.5 792q-5.5 9 -5.5 19q0 8 3 15l59 145q15 36 44 36q14 0 28 -7q32 -17 32 -41q0 -11 -8 -25l-80 -139q-6 -10 -16.5 -16t-21.5 -6q-9 0 -19 5
t-15.5 14z" />
    <glyph glyph-name="cacute" unicode="&#x107;" horiz-adv-x="600" 
d="M113 58q-74 68 -74 188q0 118 74 186t203 68q72 0 129 -23t90 -65q11 -14 11 -28q0 -23 -24 -40q-11 -8 -25 -8q-28 0 -48 22q-23 25 -57 38.5t-76 13.5q-78 0 -121 -43t-43 -121q0 -79 43 -122.5t121 -43.5q87 0 145 56q24 24 47 24q17 0 29 -11q21 -16 21 -39
q0 -17 -13 -29q-47 -47 -102.5 -69t-126.5 -22q-129 0 -203 68zM294.5 575q-5.5 9 -5.5 19q0 8 3 15l59 145q15 36 44 36q14 0 28 -7q32 -17 32 -41q0 -11 -8 -25l-80 -139q-6 -10 -16.5 -16t-21.5 -6q-9 0 -19 5t-15.5 14z" />
    <glyph glyph-name="Ccircumflex" unicode="&#x108;" horiz-adv-x="764" 
d="M217.5 33.5q-81.5 43.5 -125 124.5t-43.5 191t43.5 191.5t124.5 125.5t191 44q90 0 167 -31t116 -84q11 -16 11 -29q0 -22 -23 -39q-13 -8 -27 -8q-13 0 -25.5 6t-21.5 16q-33 40 -81.5 59t-115.5 19q-115 0 -179.5 -71.5t-64.5 -198.5q0 -125 65 -196.5t180 -71.5
q136 0 209 78q24 24 49 24q16 0 29 -10q20 -17 20 -37q0 -17 -12 -32q-43 -53 -121 -83.5t-174 -30.5q-110 0 -191.5 43.5zM257 814q0 17 13 33l105 126q19 22 45 22t45 -22l105 -126q13 -16 13 -33q0 -19 -18 -34q-14 -10 -28 -10q-21 0 -41 24l-76 104l-76 -104
q-20 -24 -41 -24q-14 0 -27 10q-19 15 -19 34z" />
    <glyph glyph-name="ccircumflex" unicode="&#x109;" horiz-adv-x="600" 
d="M113 58q-74 68 -74 188q0 118 74 186t203 68q72 0 129 -23t90 -65q11 -14 11 -28q0 -23 -24 -40q-11 -8 -25 -8q-28 0 -48 22q-23 25 -57 38.5t-76 13.5q-78 0 -121 -43t-43 -121q0 -79 43 -122.5t121 -43.5q87 0 145 56q24 24 47 24q17 0 29 -11q21 -16 21 -39
q0 -17 -13 -29q-47 -47 -102.5 -69t-126.5 -22q-129 0 -203 68zM158 597q0 17 13 33l105 126q19 22 45 22t45 -22l105 -126q13 -16 13 -33q0 -19 -18 -34q-14 -10 -28 -10q-22 0 -41 24l-76 104l-76 -104q-18 -24 -41 -24q-14 0 -27 10q-19 15 -19 34z" />
    <glyph glyph-name="Cdotaccent" unicode="&#x10a;" horiz-adv-x="764" 
d="M217.5 33.5q-81.5 43.5 -125 124.5t-43.5 191t43.5 191.5t124.5 125.5t191 44q90 0 167 -31t116 -84q11 -16 11 -29q0 -22 -23 -39q-13 -8 -27 -8q-13 0 -25.5 6t-21.5 16q-33 40 -81.5 59t-115.5 19q-115 0 -179.5 -71.5t-64.5 -198.5q0 -125 65 -196.5t180 -71.5
q136 0 209 78q24 24 49 24q16 0 29 -10q20 -17 20 -37q0 -17 -12 -32q-43 -53 -121 -83.5t-174 -30.5q-110 0 -191.5 43.5zM368.5 804.5q-20.5 19.5 -20.5 47.5t20.5 47.5t51.5 19.5q30 0 50.5 -19.5t20.5 -47.5t-20.5 -47.5t-50.5 -19.5q-31 0 -51.5 19.5z" />
    <glyph glyph-name="cdotaccent" unicode="&#x10b;" horiz-adv-x="600" 
d="M113 58q-74 68 -74 188q0 118 74 186t203 68q72 0 129 -23t90 -65q11 -14 11 -28q0 -23 -24 -40q-11 -8 -25 -8q-28 0 -48 22q-23 25 -57 38.5t-76 13.5q-78 0 -121 -43t-43 -121q0 -79 43 -122.5t121 -43.5q87 0 145 56q24 24 47 24q17 0 29 -11q21 -16 21 -39
q0 -17 -13 -29q-47 -47 -102.5 -69t-126.5 -22q-129 0 -203 68zM269.5 587.5q-20.5 19.5 -20.5 47.5t20.5 47.5t51.5 19.5q30 0 50.5 -19.5t20.5 -47.5t-20.5 -47.5t-50.5 -19.5q-31 0 -51.5 19.5z" />
    <glyph glyph-name="Ccaron" unicode="&#x10c;" horiz-adv-x="764" 
d="M217.5 33.5q-81.5 43.5 -125 124.5t-43.5 191t43.5 191.5t124.5 125.5t191 44q90 0 167 -31t116 -84q11 -16 11 -29q0 -22 -23 -39q-13 -8 -27 -8q-13 0 -25.5 6t-21.5 16q-33 40 -81.5 59t-115.5 19q-115 0 -179.5 -71.5t-64.5 -198.5q0 -125 65 -196.5t180 -71.5
q136 0 209 78q24 24 49 24q16 0 29 -10q20 -17 20 -37q0 -17 -12 -32q-43 -53 -121 -83.5t-174 -30.5q-110 0 -191.5 43.5zM376 791l-105 127q-13 16 -13 32q0 19 19 34q14 11 28 11q21 0 40 -25l76 -104l76 104q19 25 41 25q14 0 27 -10q20 -15 20 -35q0 -16 -14 -33
l-105 -126q-19 -21 -45 -21t-45 21z" />
    <glyph glyph-name="ccaron" unicode="&#x10d;" horiz-adv-x="600" 
d="M113 58q-74 68 -74 188q0 118 74 186t203 68q72 0 129 -23t90 -65q11 -14 11 -28q0 -23 -24 -40q-11 -8 -25 -8q-28 0 -48 22q-23 25 -57 38.5t-76 13.5q-78 0 -121 -43t-43 -121q0 -79 43 -122.5t121 -43.5q87 0 145 56q24 24 47 24q17 0 29 -11q21 -16 21 -39
q0 -17 -13 -29q-47 -47 -102.5 -69t-126.5 -22q-129 0 -203 68zM276 574l-105 127q-13 16 -13 32q0 19 19 34q14 11 28 11q21 0 40 -25l76 -104l76 104q19 25 41 25q14 0 27 -10q20 -15 20 -35q0 -16 -14 -33l-105 -126q-19 -21 -45 -21t-45 21z" />
    <glyph glyph-name="Dcaron" unicode="&#x10e;" horiz-adv-x="760" 
d="M103.5 37.5q-39.5 37.5 -39.5 104.5v419q0 65 38 102t106 37h140q112 0 193.5 -42.5t125.5 -121.5t44 -187t-43.5 -186.5t-125.5 -120.5t-194 -42h-134q-71 0 -110.5 37.5zM338 89q128 0 192.5 65.5t64.5 194.5t-65 195.5t-192 66.5h-114q-22 0 -34 -14t-12 -38v-418
q0 -24 12 -38t34 -14h114zM313 791l-105 127q-13 16 -13 32q0 19 19 34q14 11 28 11q21 0 40 -25l76 -104l76 104q19 25 41 25q14 0 27 -10q20 -15 20 -35q0 -16 -14 -33l-105 -126q-19 -21 -45 -21t-45 21z" />
    <glyph glyph-name="dcaron" unicode="&#x10f;" horiz-adv-x="820" 
d="M168.5 20.5q-60.5 30.5 -94 88t-33.5 135.5q0 77 32.5 135t93.5 89.5t144 31.5q65 0 110 -22t82 -64l1 292q0 25 15 39t41 14t41 -14t15 -39v-663q0 -25 -15 -39t-41 -14q-25 0 -40.5 14.5t-15.5 38.5v35q-69 -88 -196 -88q-79 0 -139.5 30.5zM456 124q48 44 48 121
t-49.5 121t-130.5 44q-80 0 -125 -44.5t-45 -121.5q0 -79 45 -121.5t125 -42.5q84 0 132 44zM687 528q0 15 21 33q19 15 31 32t14 32q-25 -4 -43.5 13.5t-18.5 44.5q0 32 21 49.5t56 17.5t56 -23.5t21 -60.5q0 -36 -22 -72.5t-62 -69.5q-24 -21 -45 -21q-14 0 -23 11
q-6 8 -6 14z" />
    <glyph glyph-name="Dcroat" unicode="&#x110;" horiz-adv-x="819" 
d="M167.5 37.5q-39.5 37.5 -39.5 104.5v164h-45q-26 0 -41.5 11.5t-15.5 31.5q0 22 15 34t42 12h45v166q0 65 38.5 102t106.5 37h140q111 0 192.5 -42.5t125.5 -121.5t44 -187t-43.5 -186.5t-125 -120.5t-193.5 -42h-135q-71 0 -110.5 37.5zM403 89q128 0 192.5 65.5
t64.5 194.5t-65 195.5t-192 66.5h-114q-22 0 -34.5 -14t-12.5 -38v-164h158q27 0 42 -12t15 -34q0 -20 -15.5 -31.5t-41.5 -11.5h-158v-165q0 -24 12.5 -38t34.5 -14h114z" />
    <glyph glyph-name="dcroat" unicode="&#x111;" horiz-adv-x="754" 
d="M728 599q0 -22 -13.5 -33t-38.5 -11h-63v-512q0 -25 -14.5 -39t-40.5 -14t-41 14t-15 39v35q-69 -88 -196 -88q-79 0 -139.5 30.5t-94 88t-33.5 135.5q0 77 32 135t93 89.5t145 31.5q64 0 109 -22t83 -64v141h-127q-25 0 -39 11t-14 33q0 44 53 44h128v63q0 25 15 39
t41 14t40.5 -14t14.5 -39v-63h63q52 0 52 -44zM454 124q48 44 48 121t-49.5 121t-130.5 44q-80 0 -125 -44.5t-45 -121.5q0 -79 44.5 -121.5t124.5 -42.5q85 0 133 44z" />
    <glyph glyph-name="Emacron" unicode="&#x112;" horiz-adv-x="644" 
d="M103.5 37.5q-39.5 37.5 -39.5 104.5v419q0 65 38 102t106 37h311q26 0 40 -11.5t14 -33.5q0 -21 -14 -32.5t-40 -11.5h-295q-22 0 -34 -14t-12 -38v-157h265q26 0 40 -11.5t14 -33.5q0 -21 -14 -32.5t-40 -11.5h-265v-172q0 -24 12 -38t34 -14h317q26 0 40 -11.5
t14 -33.5q0 -21 -14 -32.5t-40 -11.5h-327q-71 0 -110.5 37.5zM166 814q0 20 11.5 28t35.5 8h252q24 0 35.5 -8t11.5 -28q0 -35 -47 -35h-252q-47 0 -47 35z" />
    <glyph glyph-name="emacron" unicode="&#x113;" horiz-adv-x="622" 
d="M168.5 20.5q-63.5 30.5 -97 87.5t-33.5 135q0 121 72 189t200 68q79 0 140 -25t95 -69.5t34 -101.5q0 -46 -28 -71t-79 -25h-324q0 -62 44 -96t126 -34q47 0 83 10t67 32q29 19 44 19q13 0 27 -14q16 -15 16 -33q0 -19 -17 -32q-84 -70 -220 -70q-86 0 -149.5 30.5z
M438 289q17 0 25 7t8 24q0 41 -44 66.5t-117 25.5q-74 0 -117 -33.5t-43 -89.5h288zM140 597q0 20 11.5 28t35.5 8h252q24 0 35.5 -8t11.5 -28q0 -35 -47 -35h-252q-47 0 -47 35z" />
    <glyph glyph-name="Ebreve" unicode="&#x114;" horiz-adv-x="644" 
d="M103.5 37.5q-39.5 37.5 -39.5 104.5v419q0 65 38 102t106 37h311q26 0 40 -11.5t14 -33.5q0 -21 -14 -32.5t-40 -11.5h-295q-22 0 -34 -14t-12 -38v-157h265q26 0 40 -11.5t14 -33.5q0 -21 -14 -32.5t-40 -11.5h-265v-172q0 -24 12 -38t34 -14h317q26 0 40 -11.5
t14 -33.5q0 -21 -14 -32.5t-40 -11.5h-327q-71 0 -110.5 37.5zM208.5 817q-48.5 45 -48.5 118q0 25 13.5 38t38.5 13t38.5 -13t13.5 -38q0 -39 19.5 -60.5t56.5 -21.5t56.5 21.5t19.5 60.5q0 24 13.5 37.5t38.5 13.5t38.5 -13t13.5 -38q0 -73 -48.5 -118t-131.5 -45
t-131.5 45z" />
    <glyph glyph-name="ebreve" unicode="&#x115;" horiz-adv-x="622" 
d="M168.5 20.5q-63.5 30.5 -97 87.5t-33.5 135q0 121 72 189t200 68q79 0 140 -25t95 -69.5t34 -101.5q0 -46 -28 -71t-79 -25h-324q0 -62 44 -96t126 -34q47 0 83 10t67 32q29 19 44 19q13 0 27 -14q16 -15 16 -33q0 -19 -17 -32q-84 -70 -220 -70q-86 0 -149.5 30.5z
M438 289q17 0 25 7t8 24q0 41 -44 66.5t-117 25.5q-74 0 -117 -33.5t-43 -89.5h288zM181.5 600q-48.5 45 -48.5 118q0 25 13.5 38t38.5 13t38.5 -13t13.5 -38q0 -39 19.5 -60.5t56.5 -21.5t56.5 21.5t19.5 60.5q0 24 13.5 37.5t38.5 13.5t38.5 -13t13.5 -38
q0 -73 -48.5 -118t-131.5 -45t-131.5 45z" />
    <glyph glyph-name="Edotaccent" unicode="&#x116;" horiz-adv-x="644" 
d="M103.5 37.5q-39.5 37.5 -39.5 104.5v419q0 65 38 102t106 37h311q26 0 40 -11.5t14 -33.5q0 -21 -14 -32.5t-40 -11.5h-295q-22 0 -34 -14t-12 -38v-157h265q26 0 40 -11.5t14 -33.5q0 -21 -14 -32.5t-40 -11.5h-265v-172q0 -24 12 -38t34 -14h317q26 0 40 -11.5
t14 -33.5q0 -21 -14 -32.5t-40 -11.5h-327q-71 0 -110.5 37.5zM289.5 804.5q-20.5 19.5 -20.5 47.5t20.5 47.5t51.5 19.5q30 0 50.5 -19.5t20.5 -47.5t-20.5 -47.5t-50.5 -19.5q-31 0 -51.5 19.5z" />
    <glyph glyph-name="edotaccent" unicode="&#x117;" horiz-adv-x="622" 
d="M168.5 20.5q-63.5 30.5 -97 87.5t-33.5 135q0 121 72 189t200 68q79 0 140 -25t95 -69.5t34 -101.5q0 -46 -28 -71t-79 -25h-324q0 -62 44 -96t126 -34q47 0 83 10t67 32q29 19 44 19q13 0 27 -14q16 -15 16 -33q0 -19 -17 -32q-84 -70 -220 -70q-86 0 -149.5 30.5z
M438 289q17 0 25 7t8 24q0 41 -44 66.5t-117 25.5q-74 0 -117 -33.5t-43 -89.5h288zM263.5 587.5q-20.5 19.5 -20.5 47.5t20.5 47.5t51.5 19.5q30 0 50.5 -19.5t20.5 -47.5t-20.5 -47.5t-50.5 -19.5q-31 0 -51.5 19.5z" />
    <glyph glyph-name="Eogonek" unicode="&#x118;" horiz-adv-x="644" 
d="M602 -144q0 -12 -13 -25q-39 -39 -99 -39q-54 0 -88.5 24t-34.5 71q0 31 13.5 57.5t41.5 55.5h-208q-71 0 -110.5 37.5t-39.5 104.5v419q0 65 38 102t106 37h311q26 0 40 -11.5t14 -33.5q0 -21 -14 -32.5t-40 -11.5h-295q-22 0 -34 -14t-12 -38v-157h265q26 0 40 -11.5
t14 -33.5q0 -21 -14 -32.5t-40 -11.5h-265v-172q0 -24 12 -38t34 -14h317q26 0 40 -11.5t14 -33.5q0 -21 -14 -32.5t-40 -11.5h-5l-4 -4q-7 -6 -31.5 -26.5t-33.5 -36.5t-9 -35q0 -17 12 -26t29 -9q28 0 47 16q13 11 23 11q11 0 21 -10q12 -12 12 -24z" />
    <glyph glyph-name="eogonek" unicode="&#x119;" horiz-adv-x="622" 
d="M555 92q0 -19 -17 -32q-61 -51 -149 -64q-5 -4 -29.5 -24.5t-33.5 -37.5t-9 -36q0 -17 12 -26t29 -9q28 0 47 17q11 10 23 10q11 0 21 -10q12 -12 12 -24t-13 -25q-40 -38 -99 -38q-54 0 -88.5 24t-34.5 71q0 29 11.5 54t35.5 50q-110 12 -172.5 78.5t-62.5 172.5
q0 121 72 189t200 68q79 0 140 -25t95 -69.5t34 -101.5q0 -46 -28 -71t-79 -25h-324q0 -62 44 -96t126 -34q47 0 83 10t67 32q29 19 44 19q13 0 27 -14q16 -15 16 -33zM193 378.5q-43 -33.5 -43 -89.5h288q17 0 25 7t8 24q0 41 -44 66.5t-117 25.5q-74 0 -117 -33.5z" />
    <glyph glyph-name="Ecaron" unicode="&#x11a;" horiz-adv-x="644" 
d="M103.5 37.5q-39.5 37.5 -39.5 104.5v419q0 65 38 102t106 37h311q26 0 40 -11.5t14 -33.5q0 -21 -14 -32.5t-40 -11.5h-295q-22 0 -34 -14t-12 -38v-157h265q26 0 40 -11.5t14 -33.5q0 -21 -14 -32.5t-40 -11.5h-265v-172q0 -24 12 -38t34 -14h317q26 0 40 -11.5
t14 -33.5q0 -21 -14 -32.5t-40 -11.5h-327q-71 0 -110.5 37.5zM296 791l-105 127q-13 16 -13 32q0 19 19 34q14 11 28 11q21 0 40 -25l76 -104l76 104q19 25 41 25q14 0 27 -10q20 -15 20 -35q0 -16 -14 -33l-105 -126q-19 -21 -45 -21t-45 21z" />
    <glyph glyph-name="ecaron" unicode="&#x11b;" horiz-adv-x="622" 
d="M168.5 20.5q-63.5 30.5 -97 87.5t-33.5 135q0 121 72 189t200 68q79 0 140 -25t95 -69.5t34 -101.5q0 -46 -28 -71t-79 -25h-324q0 -62 44 -96t126 -34q47 0 83 10t67 32q29 19 44 19q13 0 27 -14q16 -15 16 -33q0 -19 -17 -32q-84 -70 -220 -70q-86 0 -149.5 30.5z
M438 289q17 0 25 7t8 24q0 41 -44 66.5t-117 25.5q-74 0 -117 -33.5t-43 -89.5h288zM270 574l-105 127q-13 16 -13 32q0 19 19 34q14 11 28 11q21 0 40 -25l76 -104l76 104q19 25 41 25q14 0 27 -10q20 -15 20 -35q0 -16 -14 -33l-105 -126q-19 -21 -45 -21t-45 21z" />
    <glyph glyph-name="Gcircumflex" unicode="&#x11c;" horiz-adv-x="779" 
d="M217.5 33.5q-81.5 43.5 -125 124.5t-43.5 191t43.5 191.5t125 125.5t191.5 44q90 0 167 -31t116 -83q10 -14 10 -30q0 -23 -22 -39q-13 -8 -27 -8q-13 0 -25.5 6t-21.5 16q-33 39 -81.5 58.5t-115.5 19.5q-115 0 -180.5 -71.5t-65.5 -198.5q0 -126 65.5 -197t181.5 -71
q95 0 150.5 39t55.5 106v26q0 23 -9.5 32t-35.5 9h-138q-25 0 -38.5 11.5t-13.5 32.5q0 22 13.5 34t38.5 12h185q57 0 84.5 -25t27.5 -77v-39q0 -73 -41 -130t-114 -89.5t-165 -32.5q-111 0 -192.5 43.5zM241 814q0 17 13 33l105 126q19 22 45 22t45 -22l105 -126
q13 -16 13 -33q0 -19 -18 -34q-14 -10 -28 -10q-22 0 -41 24l-76 104l-76 -104q-18 -24 -41 -24q-14 0 -27 10q-19 15 -19 34z" />
    <glyph glyph-name="gcircumflex" unicode="&#x11d;" horiz-adv-x="665" 
d="M193 -228q-63 22 -99 62q-12 13 -12 30q0 23 21 38q13 10 28 10q23 0 48 -24q24 -24 62 -37.5t84 -13.5q85 0 131 47t45 132l-1 58q-71 -86 -200 -86q-124 0 -193 68t-69 186q0 119 70.5 188.5t198.5 69.5q56 0 106 -23t88 -65v35q0 24 15.5 38.5t40.5 14.5t40 -14
t15 -39v-431q0 -78 -34 -138.5t-97.5 -94t-148.5 -33.5q-76 0 -139 22zM450 122q50 43 50 122q0 76 -47 121t-131 45q-81 0 -126 -44t-45 -124q0 -77 44 -120t125 -43q80 0 130 43zM146 604q0 17 13 33l105 126q19 22 45 22t45 -22l105 -126q13 -16 13 -33q0 -19 -18 -34
q-14 -10 -28 -10q-22 0 -41 24l-76 104l-76 -104q-18 -24 -41 -24q-14 0 -27 10q-19 15 -19 34z" />
    <glyph glyph-name="Gbreve" unicode="&#x11e;" horiz-adv-x="779" 
d="M217.5 33.5q-81.5 43.5 -125 124.5t-43.5 191t43.5 191.5t125 125.5t191.5 44q90 0 167 -31t116 -83q10 -14 10 -30q0 -23 -22 -39q-13 -8 -27 -8q-13 0 -25.5 6t-21.5 16q-33 39 -81.5 58.5t-115.5 19.5q-115 0 -180.5 -71.5t-65.5 -198.5q0 -126 65.5 -197t181.5 -71
q95 0 150.5 39t55.5 106v26q0 23 -9.5 32t-35.5 9h-138q-25 0 -38.5 11.5t-13.5 32.5q0 22 13.5 34t38.5 12h185q57 0 84.5 -25t27.5 -77v-39q0 -73 -41 -130t-114 -89.5t-165 -32.5q-111 0 -192.5 43.5zM271.5 817q-48.5 45 -48.5 118q0 25 13.5 38t38.5 13t38.5 -13
t13.5 -38q0 -39 19.5 -60.5t56.5 -21.5t56.5 21.5t19.5 60.5q0 24 13.5 37.5t38.5 13.5t38.5 -13t13.5 -38q0 -73 -48.5 -118t-131.5 -45t-131.5 45z" />
    <glyph glyph-name="gbreve" unicode="&#x11f;" horiz-adv-x="665" 
d="M193 -228q-63 22 -99 62q-12 13 -12 30q0 23 21 38q13 10 28 10q23 0 48 -24q24 -24 62 -37.5t84 -13.5q85 0 131 47t45 132l-1 58q-71 -86 -200 -86q-124 0 -193 68t-69 186q0 119 70.5 188.5t198.5 69.5q56 0 106 -23t88 -65v35q0 24 15.5 38.5t40.5 14.5t40 -14
t15 -39v-431q0 -78 -34 -138.5t-97.5 -94t-148.5 -33.5q-76 0 -139 22zM450 122q50 43 50 122q0 76 -47 121t-131 45q-81 0 -126 -44t-45 -124q0 -77 44 -120t125 -43q80 0 130 43zM176.5 607q-48.5 45 -48.5 118q0 25 13.5 38t38.5 13t38.5 -13t13.5 -38q0 -39 19.5 -60.5
t56.5 -21.5t56.5 21.5t19.5 60.5q0 24 13.5 37.5t38.5 13.5t38.5 -13t13.5 -38q0 -73 -48.5 -118t-131.5 -45t-131.5 45z" />
    <glyph glyph-name="Gdotaccent" unicode="&#x120;" horiz-adv-x="779" 
d="M217.5 33.5q-81.5 43.5 -125 124.5t-43.5 191t43.5 191.5t125 125.5t191.5 44q90 0 167 -31t116 -83q10 -14 10 -30q0 -23 -22 -39q-13 -8 -27 -8q-13 0 -25.5 6t-21.5 16q-33 39 -81.5 58.5t-115.5 19.5q-115 0 -180.5 -71.5t-65.5 -198.5q0 -126 65.5 -197t181.5 -71
q95 0 150.5 39t55.5 106v26q0 23 -9.5 32t-35.5 9h-138q-25 0 -38.5 11.5t-13.5 32.5q0 22 13.5 34t38.5 12h185q57 0 84.5 -25t27.5 -77v-39q0 -73 -41 -130t-114 -89.5t-165 -32.5q-111 0 -192.5 43.5zM352.5 804.5q-20.5 19.5 -20.5 47.5t20.5 47.5t51.5 19.5
q30 0 50.5 -19.5t20.5 -47.5t-20.5 -47.5t-50.5 -19.5q-31 0 -51.5 19.5z" />
    <glyph glyph-name="gdotaccent" unicode="&#x121;" horiz-adv-x="665" 
d="M193 -228q-63 22 -99 62q-12 13 -12 30q0 23 21 38q13 10 28 10q23 0 48 -24q24 -24 62 -37.5t84 -13.5q85 0 131 47t45 132l-1 58q-71 -86 -200 -86q-124 0 -193 68t-69 186q0 119 70.5 188.5t198.5 69.5q56 0 106 -23t88 -65v35q0 24 15.5 38.5t40.5 14.5t40 -14
t15 -39v-431q0 -78 -34 -138.5t-97.5 -94t-148.5 -33.5q-76 0 -139 22zM450 122q50 43 50 122q0 76 -47 121t-131 45q-81 0 -126 -44t-45 -124q0 -77 44 -120t125 -43q80 0 130 43zM257.5 594.5q-20.5 19.5 -20.5 47.5t20.5 47.5t51.5 19.5q30 0 50.5 -19.5t20.5 -47.5
t-20.5 -47.5t-50.5 -19.5q-31 0 -51.5 19.5z" />
    <glyph glyph-name="uni0122" unicode="&#x122;" horiz-adv-x="779" 
d="M217.5 33.5q-81.5 43.5 -125 124.5t-43.5 191t43.5 191.5t125 125.5t191.5 44q90 0 167 -31t116 -83q10 -14 10 -30q0 -23 -22 -39q-13 -8 -27 -8q-13 0 -25.5 6t-21.5 16q-33 39 -81.5 58.5t-115.5 19.5q-115 0 -180.5 -71.5t-65.5 -198.5q0 -126 65.5 -197t181.5 -71
q95 0 150.5 39t55.5 106v26q0 23 -9.5 32t-35.5 9h-138q-25 0 -38.5 11.5t-13.5 32.5q0 22 13.5 34t38.5 12h185q57 0 84.5 -25t27.5 -77v-39q0 -73 -41 -130t-114 -89.5t-165 -32.5q-111 0 -192.5 43.5zM327 -293q0 15 19 32q35 34 43 67q-27 -2 -45.5 14.5t-18.5 43.5
q0 32 21.5 50t55.5 18q37 0 58 -22.5t21 -62.5q0 -35 -23.5 -75t-61.5 -70q-23 -19 -41 -19q-11 0 -21 9q-7 7 -7 15z" />
    <glyph glyph-name="uni0123" unicode="&#x123;" horiz-adv-x="665" 
d="M193 -228q-63 22 -99 62q-12 13 -12 30q0 23 21 38q13 10 28 10q23 0 48 -24q24 -24 62 -37.5t84 -13.5q85 0 131 47t45 132l-1 58q-71 -86 -200 -86q-124 0 -193 68t-69 186q0 119 70.5 188.5t198.5 69.5q56 0 106 -23t88 -65v35q0 24 15.5 38.5t40.5 14.5t40 -14
t15 -39v-431q0 -78 -34 -138.5t-97.5 -94t-148.5 -33.5q-76 0 -139 22zM450 122q50 43 50 122q0 76 -47 121t-131 45q-81 0 -126 -44t-45 -124q0 -77 44 -120t125 -43q80 0 130 43zM250 588.5q-21 23.5 -21 60.5q0 36 22 73.5t61 68.5q26 20 46 20q15 0 23 -11q6 -6 6 -14
q0 -14 -21 -32q-41 -34 -45 -64q25 4 43.5 -13.5t18.5 -44.5q0 -33 -20.5 -50t-56.5 -17q-35 0 -56 23.5z" />
    <glyph glyph-name="Hcircumflex" unicode="&#x124;" horiz-adv-x="740" 
d="M79 4q-15 14 -15 39v614q0 25 15 39t41 14t41.5 -14.5t15.5 -38.5v-253h386v253q0 24 15.5 38.5t41.5 14.5t41.5 -14t15.5 -39v-614q0 -25 -15.5 -39t-41.5 -14t-41.5 14.5t-15.5 38.5v272h-386v-272q0 -24 -15.5 -38.5t-41.5 -14.5t-41 14zM207 814q0 17 13 33l105 126
q19 22 45 22t45 -22l105 -126q13 -16 13 -33q0 -19 -18 -34q-14 -10 -28 -10q-22 0 -41 24l-76 104l-76 -104q-18 -24 -41 -24q-14 0 -27 10q-19 15 -19 34z" />
    <glyph glyph-name="hcircumflex" unicode="&#x125;" horiz-adv-x="614" 
d="M69 4q-15 14 -15 39v663q0 25 15 39t41 14t41 -14t15 -39v-298q73 92 195 92q95 0 149.5 -58t54.5 -160v-239q0 -25 -15.5 -39t-41.5 -14t-40.5 14t-14.5 39v239q0 62 -30 95t-85 33q-80 0 -126 -47.5t-46 -128.5v-191q0 -24 -15.5 -38.5t-40.5 -14.5q-26 0 -41 14z
M67 863q0 17 13 33l105 126q19 22 45 22t45 -22l105 -126q13 -16 13 -33q0 -19 -18 -34q-14 -10 -28 -10q-22 0 -41 24l-76 104l-76 -104q-18 -24 -41 -24q-14 0 -27 10q-19 15 -19 34z" />
    <glyph glyph-name="Hbar" unicode="&#x126;" horiz-adv-x="829" 
d="M808 539q0 -22 -14 -33t-39 -11h-34v-452q0 -25 -15 -39t-41 -14t-42 14.5t-16 38.5v272h-385v-272q0 -24 -16 -38.5t-42 -14.5t-41 14t-15 39v452h-34q-25 0 -39 11t-14 33q0 44 53 44h34v74q0 25 15 39t41 14t42 -14.5t16 -38.5v-74h385v74q0 24 16 38.5t42 14.5
t41 -14t15 -39v-74h34q53 0 53 -44zM607 495h-385v-91h385v91z" />
    <glyph glyph-name="hbar" unicode="&#x127;" horiz-adv-x="676" 
d="M577.5 442q54.5 -58 54.5 -160v-239q0 -25 -15.5 -39t-41.5 -14t-40.5 14t-14.5 39v239q0 62 -30 95t-85 33q-80 0 -126 -47.5t-46 -128.5v-191q0 -24 -15.5 -38.5t-40.5 -14.5q-26 0 -41 14t-15 39v521h-43q-25 0 -38.5 11t-13.5 32q0 44 52 44h43v55q0 25 15 39t41 14
t41 -14t15 -39v-55h107q52 0 52 -44q0 -21 -13.5 -32t-38.5 -11h-107v-156q73 92 195 92q95 0 149.5 -58z" />
    <glyph glyph-name="Itilde" unicode="&#x128;" horiz-adv-x="302" 
d="M109.5 4q-15.5 14 -15.5 39v614q0 25 15.5 39t41.5 14q25 0 41 -14.5t16 -38.5v-614q0 -24 -16 -38.5t-41 -14.5q-26 0 -41.5 14zM-28 806.5q-11 9.5 -11 24.5q0 10 4 19q32 82 108 82q26 0 47 -9t47 -26q17 -11 28 -16.5t22 -5.5q15 0 24 8.5t17 27.5q13 28 37 28
q17 0 28 -9.5t11 -24.5q0 -10 -4 -19q-32 -82 -108 -82q-25 0 -43.5 8t-42.5 24q-18 13 -31 19t-27 6q-15 0 -24 -8t-17 -27q-13 -29 -36 -29q-18 0 -29 9.5z" />
    <glyph glyph-name="itilde" unicode="&#x129;" horiz-adv-x="255" 
d="M87 4q-15 14 -15 39v404q0 25 15 39t41 14t41 -14t15 -39v-404q0 -25 -15 -39t-41 -14t-41 14zM-47 577.5q-11 9.5 -11 24.5q0 10 4 19q32 82 108 82q26 0 47 -9t47 -26q17 -11 28 -16.5t22 -5.5q15 0 24 8.5t17 27.5q13 28 37 28q17 0 28 -9.5t11 -24.5q0 -10 -4 -19
q-32 -82 -108 -82q-25 0 -43.5 8t-42.5 24q-18 13 -31 19t-27 6q-15 0 -24 -8t-17 -27q-13 -29 -36 -29q-18 0 -29 9.5z" />
    <glyph glyph-name="Imacron" unicode="&#x12a;" horiz-adv-x="302" 
d="M109.5 4q-15.5 14 -15.5 39v614q0 25 15.5 39t41.5 14q25 0 41 -14.5t16 -38.5v-614q0 -24 -16 -38.5t-41 -14.5q-26 0 -41.5 14zM-27 814q0 20 11.5 28t35.5 8h252q24 0 35.5 -8t11.5 -28q0 -35 -47 -35h-252q-47 0 -47 35z" />
    <glyph glyph-name="imacron" unicode="&#x12b;" horiz-adv-x="255" 
d="M87 4q-15 14 -15 39v404q0 25 15 39t41 14t41 -14t15 -39v-404q0 -25 -15 -39t-41 -14t-41 14zM-45 579q0 20 11.5 28t35.5 8h252q24 0 35.5 -8t11.5 -28q0 -35 -47 -35h-252q-47 0 -47 35z" />
    <glyph glyph-name="Ibreve" unicode="&#x12c;" horiz-adv-x="302" 
d="M109.5 4q-15.5 14 -15.5 39v614q0 25 15.5 39t41.5 14q25 0 41 -14.5t16 -38.5v-614q0 -24 -16 -38.5t-41 -14.5q-26 0 -41.5 14zM15.5 817q-48.5 45 -48.5 118q0 25 13.5 38t38.5 13t38.5 -13t13.5 -38q0 -39 19.5 -60.5t56.5 -21.5t56.5 21.5t19.5 60.5q0 24 13.5 37.5
t38.5 13.5t38.5 -13t13.5 -38q0 -73 -48.5 -118t-131.5 -45t-131.5 45z" />
    <glyph glyph-name="ibreve" unicode="&#x12d;" horiz-adv-x="255" 
d="M87 4q-15 14 -15 39v404q0 25 15 39t41 14t41 -14t15 -39v-404q0 -25 -15 -39t-41 -14t-41 14zM-3.5 587q-48.5 45 -48.5 118q0 25 13.5 38t38.5 13t38.5 -13t13.5 -38q0 -39 19.5 -60.5t56.5 -21.5t56.5 21.5t19.5 60.5q0 24 13.5 37.5t38.5 13.5t38.5 -13t13.5 -38
q0 -73 -48.5 -118t-131.5 -45t-131.5 45z" />
    <glyph glyph-name="Iogonek" unicode="&#x12e;" horiz-adv-x="302" 
d="M253 -144q0 -12 -13 -25q-39 -39 -99 -39q-54 0 -88.5 24t-34.5 71q0 36 19 68t60 68q-3 9 -3 20v614q0 25 15.5 39t41.5 14q25 0 41 -14.5t16 -38.5v-614q0 -25 -17 -40l-8 -7q-7 -6 -31.5 -26.5t-33.5 -36.5t-9 -35q0 -17 12 -26t29 -9q28 0 47 16q13 11 23 11
q11 0 21 -10q12 -12 12 -24z" />
    <glyph glyph-name="iogonek" unicode="&#x12f;" horiz-adv-x="255" 
d="M74.5 595.5q-20.5 18.5 -20.5 47.5t20.5 47.5t52.5 18.5t53 -18.5t21 -47.5t-21 -47.5t-53 -18.5t-52.5 18.5zM229 -142q0 -12 -13 -25q-39 -39 -99 -39q-54 0 -88.5 24t-34.5 71q0 37 19.5 69t60.5 67q-2 12 -2 18v404q0 25 14.5 39t40.5 14t41.5 -14t15.5 -39v-404
q0 -16 -7 -28.5t-20 -18.5l-30 -25t-33 -36t-9 -35q0 -17 12 -26t29 -9q28 0 47 16q13 11 23 11q11 0 21 -10q12 -12 12 -24z" />
    <glyph glyph-name="Idotaccent" unicode="&#x130;" horiz-adv-x="302" 
d="M109.5 4q-15.5 14 -15.5 39v614q0 25 15.5 39t41.5 14q25 0 41 -14.5t16 -38.5v-614q0 -24 -16 -38.5t-41 -14.5q-26 0 -41.5 14zM96.5 804.5q-20.5 19.5 -20.5 47.5t20.5 47.5t51.5 19.5q30 0 50.5 -19.5t20.5 -47.5t-20.5 -47.5t-50.5 -19.5q-31 0 -51.5 19.5z" />
    <glyph glyph-name="dotlessi" unicode="&#x131;" horiz-adv-x="255" 
d="M87 4q-15 14 -15 39v404q0 25 15 39t41 14t41 -14t15 -39v-404q0 -25 -15 -39t-41 -14t-41 14z" />
    <glyph glyph-name="IJ" unicode="&#x132;" horiz-adv-x="829" 
d="M109.5 4q-15.5 14 -15.5 39v614q0 25 15.5 39t41.5 14t41.5 -14.5t15.5 -38.5v-614q0 -24 -15.5 -38.5t-41.5 -14.5t-41.5 14zM380 20q-66 30 -109 85q-12 15 -12 32q0 20 20 37q15 12 33 12q27 0 45 -26q28 -38 71 -58t98 -20q130 0 130 146v429q0 24 15.5 38.5
t41.5 14.5t41.5 -14.5t15.5 -38.5v-425q0 -72 -30 -127t-85.5 -85t-128.5 -30q-80 0 -146 30z" />
    <glyph glyph-name="ij" unicode="&#x133;" horiz-adv-x="511" 
d="M74.5 577.5q-20.5 18.5 -20.5 47.5t20.5 47.5t52.5 18.5t53 -18.5t21 -47.5t-21 -47.5t-53 -18.5t-52.5 18.5zM330 577.5q-20 18.5 -20 47.5t20 47.5t52 18.5t53 -18.5t21 -47.5t-21 -47.5t-53 -18.5t-52 18.5zM86.5 4q-14.5 14 -14.5 39v404q0 25 14.5 39t40.5 14
t41.5 -14t15.5 -39v-404q0 -25 -15.5 -39t-41.5 -14t-40.5 14zM205.5 -279q-14.5 13 -14.5 33t14.5 32.5t37.5 12.5q36 0 54 8.5t24 28.5t6 61v550q0 25 14.5 39t41.5 14q26 0 41 -14t15 -39v-550q0 -96 -48 -142.5t-148 -46.5q-23 0 -37.5 13z" />
    <glyph glyph-name="Jcircumflex" unicode="&#x134;" horiz-adv-x="601" 
d="M153 20q-66 30 -109 85q-12 15 -12 31q0 21 20 38q15 12 32 12q26 0 46 -26q28 -38 71 -58t98 -20q129 0 129 146v429q0 25 15.5 39t41.5 14t41.5 -14.5t15.5 -38.5v-425q0 -72 -30 -127t-85 -85t-128 -30q-80 0 -146 30zM322 814q0 17 13 33l105 126q19 22 45 22t45 -22
l105 -126q13 -16 13 -33q0 -19 -18 -34q-14 -10 -28 -10q-22 0 -41 24l-76 104l-76 -104q-18 -24 -41 -24q-14 0 -27 10q-19 15 -19 34z" />
    <glyph glyph-name="jcircumflex" unicode="&#x135;" horiz-adv-x="333" 
d="M40.5 -279.5q-14.5 12.5 -14.5 33.5t14.5 33t37.5 12q35 0 52.5 7.5t24.5 28t7 62.5v550q0 25 15 39t41 14t41 -14t15 -39v-550q0 -94 -47.5 -141.5t-148.5 -47.5q-23 0 -37.5 12.5zM52 584q0 17 13 33l105 126q19 22 45 22t45 -22l105 -126q13 -16 13 -33q0 -19 -18 -34
q-14 -10 -28 -10q-21 0 -41 24l-76 104l-76 -104q-20 -24 -41 -24q-14 0 -27 10q-19 15 -19 34z" />
    <glyph glyph-name="uni0136" unicode="&#x136;" horiz-adv-x="691" 
d="M536 30q-24 111 -82.5 185.5t-167.5 133.5l-108 -89v-217q0 -24 -15.5 -38.5t-41.5 -14.5t-41.5 14t-15.5 39v614q0 25 15.5 39t41.5 14t41.5 -14.5t15.5 -38.5v-272l356 309q15 14 35 14q22 0 36 -16q16 -16 16 -34q0 -20 -20 -36l-242 -211q123 -61 195 -155t88 -209
q3 -22 -10.5 -39t-34.5 -18q-54 0 -61 40zM269 -293q0 15 19 32q35 34 43 67q-27 -2 -45.5 14.5t-18.5 43.5q0 32 21.5 50t55.5 18q37 0 58 -22.5t21 -62.5q0 -35 -23.5 -75t-61.5 -70q-23 -19 -41 -19q-11 0 -21 9q-7 7 -7 15z" />
    <glyph glyph-name="uni0137" unicode="&#x137;" horiz-adv-x="599" 
d="M69.5 4q-14.5 14 -14.5 39v663q0 25 14.5 39t40.5 14t41.5 -14t15.5 -39v-415l305 200q17 12 34 12q24 0 36 -23q7 -14 7 -27q0 -23 -26 -39l-163 -103q88 -55 132.5 -118t57.5 -147q1 -4 1 -11q0 -21 -12.5 -33t-34.5 -12q-49 0 -58 38q-15 60 -34.5 99t-51 69t-84.5 61
l-109 -74v-140q0 -24 -15.5 -38.5t-41.5 -14.5t-40.5 14zM233 -270q0 15 19 32q35 34 43 67q-27 -2 -45.5 14.5t-18.5 43.5q0 32 21.5 50t55.5 18q37 0 58 -22.5t21 -62.5q0 -35 -23.5 -75t-61.5 -70q-23 -19 -41 -19q-11 0 -21 9q-7 7 -7 15z" />
    <glyph glyph-name="kgreenlandic" unicode="&#x138;" horiz-adv-x="582" 
d="M69.5 4q-14.5 14 -14.5 39v404q0 25 14.5 39t40.5 14t41.5 -14.5t15.5 -38.5v-153l294 197q17 10 30 10q12 0 22.5 -6.5t16.5 -17.5q8 -16 8 -28q0 -23 -25 -39l-164 -109q82 -43 128 -103.5t64 -150.5q1 -5 1 -14q0 -20 -12 -31.5t-33 -11.5q-50 0 -57 38
q-17 82 -54.5 129t-121.5 93l-97 -65v-142q0 -24 -15.5 -38.5t-41.5 -14.5t-40.5 14z" />
    <glyph glyph-name="Lacute" unicode="&#x139;" horiz-adv-x="624" 
d="M104.5 37.5q-39.5 37.5 -39.5 104.5v515q0 25 15 39t41 14t41.5 -14.5t15.5 -38.5v-516q0 -24 12.5 -38t34.5 -14h324q54 0 54 -45q0 -21 -14 -32.5t-40 -11.5h-335q-70 0 -109.5 37.5zM99.5 792q-5.5 9 -5.5 19q0 8 3 15l59 145q15 36 44 36q14 0 28 -7q32 -17 32 -41
q0 -11 -8 -25l-80 -139q-6 -10 -16.5 -16t-21.5 -6q-9 0 -19 5t-15.5 14z" />
    <glyph glyph-name="lacute" unicode="&#x13a;" horiz-adv-x="260" 
d="M89 4q-15 14 -15 39v663q0 25 15 39t41 14t41 -14t15 -39v-663q0 -24 -15.5 -38.5t-40.5 -14.5q-26 0 -41 14zM103.5 841q-5.5 9 -5.5 19q0 8 3 15l59 145q15 36 44 36q14 0 28 -7q32 -17 32 -41q0 -11 -8 -25l-80 -139q-6 -10 -16.5 -16t-21.5 -6q-9 0 -19 5t-15.5 14z
" />
    <glyph glyph-name="uni013B" unicode="&#x13b;" horiz-adv-x="636" 
d="M104.5 37.5q-39.5 37.5 -39.5 104.5v515q0 25 15 39t41 14t41.5 -14.5t15.5 -38.5v-516q0 -24 12.5 -38t34.5 -14h324q54 0 54 -45q0 -21 -14 -32.5t-40 -11.5h-335q-70 0 -109.5 37.5zM233 -293q0 15 19 32q35 34 43 67q-27 -2 -45.5 14.5t-18.5 43.5q0 32 21.5 50
t55.5 18q37 0 58 -22.5t21 -62.5q0 -35 -23.5 -75t-61.5 -70q-23 -19 -41 -19q-11 0 -21 9q-7 7 -7 15z" />
    <glyph glyph-name="uni013C" unicode="&#x13c;" horiz-adv-x="260" 
d="M89 4q-15 14 -15 39v663q0 25 15 39t41 14t41 -14t15 -39v-663q0 -24 -15.5 -38.5t-40.5 -14.5q-26 0 -41 14zM54 -293q0 15 19 32q35 34 43 67q-27 -2 -45.5 14.5t-18.5 43.5q0 32 21.5 50t55.5 18q37 0 58 -22.5t21 -62.5q0 -35 -23.5 -75t-61.5 -70q-23 -19 -41 -19
q-11 0 -21 9q-7 7 -7 15z" />
    <glyph glyph-name="Lcaron" unicode="&#x13d;" horiz-adv-x="624" 
d="M104.5 37.5q-39.5 37.5 -39.5 104.5v515q0 25 15 39t41 14t41.5 -14.5t15.5 -38.5v-516q0 -24 12.5 -38t34.5 -14h324q54 0 54 -45q0 -21 -14 -32.5t-40 -11.5h-335q-70 0 -109.5 37.5zM334 480q0 15 21 33q19 15 31 32t14 32q-25 -4 -43.5 13.5t-18.5 44.5q0 32 21 49.5
t56 17.5t56 -23.5t21 -60.5q0 -36 -22 -72.5t-62 -69.5q-24 -21 -45 -21q-14 0 -23 11q-6 8 -6 14z" />
    <glyph glyph-name="lcaron" unicode="&#x13e;" horiz-adv-x="383" 
d="M89 4q-15 14 -15 39v663q0 25 15 39t41 14t41 -14t15 -39v-663q0 -24 -15.5 -38.5t-40.5 -14.5q-26 0 -41 14zM250 529q0 15 21 33q19 15 31 32t14 32q-25 -4 -43.5 13.5t-18.5 44.5q0 32 21 49.5t56 17.5t56 -23.5t21 -60.5q0 -36 -22 -72.5t-62 -69.5q-24 -21 -45 -21
q-14 0 -23 11q-6 8 -6 14z" />
    <glyph glyph-name="Ldot" unicode="&#x13f;" horiz-adv-x="636" 
d="M104.5 37.5q-39.5 37.5 -39.5 104.5v515q0 25 15 39t41 14t41.5 -14.5t15.5 -38.5v-516q0 -24 12.5 -38t34.5 -14h324q54 0 54 -45q0 -21 -14 -32.5t-40 -11.5h-335q-70 0 -109.5 37.5zM314.5 292.5q-21.5 20.5 -21.5 47.5q0 30 21 50.5t53 20.5q30 0 51 -21t21 -50
q0 -27 -21 -47.5t-51 -20.5q-31 0 -52.5 20.5z" />
    <glyph glyph-name="ldot" unicode="&#x140;" horiz-adv-x="407" 
d="M89 4q-15 14 -15 39v663q0 25 15 39t41 14t41 -14t15 -39v-663q0 -24 -15.5 -38.5t-40.5 -14.5q-26 0 -41 14zM252.5 292.5q-21.5 20.5 -21.5 47.5q0 30 21 50.5t53 20.5q30 0 51 -21t21 -50q0 -27 -21 -47.5t-51 -20.5q-31 0 -52.5 20.5z" />
    <glyph glyph-name="Lslash" unicode="&#x141;" horiz-adv-x="711" 
d="M665 77.5q14 -11.5 14 -33.5q0 -21 -14.5 -32.5t-40.5 -11.5h-334q-71 0 -110.5 37.5t-39.5 104.5v158l-36 -26q-15 -10 -29 -10q-11 0 -21.5 5t-17.5 15q-11 14 -11 30q0 22 20 37l95 67v239q0 25 15 39t41 14t42 -14.5t16 -38.5v-158l40 28q15 10 29 10q11 0 21.5 -5
t17.5 -15q11 -16 11 -30q0 -10 -5 -19.5t-15 -16.5l-99 -70v-240q0 -24 12 -38t34 -14h324q27 0 41 -11.5z" />
    <glyph glyph-name="lslash" unicode="&#x142;" horiz-adv-x="394" 
d="M369 508q0 -21 -20 -35l-77 -55v-375q0 -24 -15.5 -38.5t-41.5 -14.5t-40.5 14t-14.5 39v296l-58 -41q-14 -8 -29 -8q-23 0 -37 18q-11 16 -11 29q0 22 20 36l115 81v252q0 25 14.5 39t40.5 14t41.5 -14t15.5 -39v-173l20 14q13 9 30 9q21 0 36 -19q11 -14 11 -29z" />
    <glyph glyph-name="Nacute" unicode="&#x143;" 
d="M74 4q-15 14 -15 39v388q0 131 81.5 205t224.5 74q94 0 163 -33.5t105.5 -96.5t36.5 -149v-388q0 -25 -15 -39t-41 -14t-41.5 14.5t-15.5 38.5v391q0 89 -50 137t-142 48t-142.5 -48.5t-50.5 -136.5v-391q0 -24 -15.5 -38.5t-41.5 -14.5t-41 14zM340.5 792
q-5.5 9 -5.5 19q0 8 3 15l59 145q15 36 44 36q14 0 28 -7q32 -17 32 -41q0 -11 -8 -25l-80 -139q-6 -10 -16.5 -16t-21.5 -6q-9 0 -19 5t-15.5 14z" />
    <glyph glyph-name="nacute" unicode="&#x144;" horiz-adv-x="614" 
d="M69 4q-15 14 -15 39v404q0 25 14.5 39t39.5 14q26 0 40.5 -14t14.5 -39v-39q74 92 198 92q95 0 149.5 -58t54.5 -160v-239q0 -25 -15.5 -39t-41.5 -14t-40.5 14t-14.5 39v239q0 62 -30 95t-85 33q-80 0 -126 -47.5t-46 -128.5v-191q0 -24 -15.5 -38.5t-40.5 -14.5
q-26 0 -41 14zM282.5 582q-5.5 9 -5.5 19q0 8 3 15l59 145q15 36 44 36q14 0 28 -7q32 -17 32 -41q0 -11 -8 -25l-80 -139q-6 -10 -16.5 -16t-21.5 -6q-9 0 -19 5t-15.5 14z" />
    <glyph glyph-name="uni0145" unicode="&#x145;" 
d="M74 4q-15 14 -15 39v388q0 131 81.5 205t224.5 74q94 0 163 -33.5t105.5 -96.5t36.5 -149v-388q0 -25 -15 -39t-41 -14t-41.5 14.5t-15.5 38.5v391q0 89 -50 137t-142 48t-142.5 -48.5t-50.5 -136.5v-391q0 -24 -15.5 -38.5t-41.5 -14.5t-41 14zM290 -293q0 15 19 32
q35 34 43 67q-27 -2 -45.5 14.5t-18.5 43.5q0 32 21.5 50t55.5 18q37 0 58 -22.5t21 -62.5q0 -35 -23.5 -75t-61.5 -70q-23 -19 -41 -19q-11 0 -21 9q-7 7 -7 15z" />
    <glyph glyph-name="uni0146" unicode="&#x146;" horiz-adv-x="614" 
d="M69 4q-15 14 -15 39v404q0 25 14.5 39t39.5 14q26 0 40.5 -14t14.5 -39v-39q74 92 198 92q95 0 149.5 -58t54.5 -160v-239q0 -25 -15.5 -39t-41.5 -14t-40.5 14t-14.5 39v239q0 62 -30 95t-85 33q-80 0 -126 -47.5t-46 -128.5v-191q0 -24 -15.5 -38.5t-40.5 -14.5
q-26 0 -41 14zM233 -293q0 15 19 32q35 34 43 67q-27 -2 -45.5 14.5t-18.5 43.5q0 32 21.5 50t55.5 18q37 0 58 -22.5t21 -62.5q0 -35 -23.5 -75t-61.5 -70q-23 -19 -41 -19q-11 0 -21 9q-7 7 -7 15z" />
    <glyph glyph-name="Ncaron" unicode="&#x147;" 
d="M74 4q-15 14 -15 39v388q0 131 81.5 205t224.5 74q94 0 163 -33.5t105.5 -96.5t36.5 -149v-388q0 -25 -15 -39t-41 -14t-41.5 14.5t-15.5 38.5v391q0 89 -50 137t-142 48t-142.5 -48.5t-50.5 -136.5v-391q0 -24 -15.5 -38.5t-41.5 -14.5t-41 14zM322 791l-105 127
q-13 16 -13 32q0 19 19 34q14 11 28 11q21 0 40 -25l76 -104l76 104q19 25 41 25q14 0 27 -10q20 -15 20 -35q0 -16 -14 -33l-105 -126q-19 -21 -45 -21t-45 21z" />
    <glyph glyph-name="ncaron" unicode="&#x148;" horiz-adv-x="614" 
d="M69 4q-15 14 -15 39v404q0 25 14.5 39t39.5 14q26 0 40.5 -14t14.5 -39v-39q74 92 198 92q95 0 149.5 -58t54.5 -160v-239q0 -25 -15.5 -39t-41.5 -14t-40.5 14t-14.5 39v239q0 62 -30 95t-85 33q-80 0 -126 -47.5t-46 -128.5v-191q0 -24 -15.5 -38.5t-40.5 -14.5
q-26 0 -41 14zM265 581l-105 127q-13 16 -13 32q0 19 19 34q14 11 28 11q21 0 40 -25l76 -104l76 104q19 25 41 25q14 0 27 -10q20 -15 20 -35q0 -16 -14 -33l-105 -126q-19 -21 -45 -21t-45 21z" />
    <glyph glyph-name="napostrophe" unicode="&#x149;" horiz-adv-x="751" 
d="M206 4q-15 14 -15 39v404q0 25 14.5 39t39.5 14q26 0 40.5 -14t14.5 -39v-39q74 92 198 92q95 0 149.5 -58t54.5 -160v-239q0 -25 -15.5 -39t-41.5 -14t-40.5 14t-14.5 39v239q0 62 -30 95t-85 33q-80 0 -126 -47.5t-46 -128.5v-191q0 -24 -15.5 -38.5t-40.5 -14.5
q-26 0 -41 14zM37 428q0 15 21 33q19 15 31 32t14 32q-25 -4 -43.5 13.5t-18.5 44.5q0 32 21 49.5t56 17.5t56 -23.5t21 -60.5q0 -36 -22 -72.5t-62 -69.5q-24 -21 -45 -21q-14 0 -23 11q-6 8 -6 14z" />
    <glyph glyph-name="Eng" unicode="&#x14a;" horiz-adv-x="717" 
d="M173 -159q-12 15 -12 32q0 20 20 37q15 12 33 12q27 0 45 -26q27 -37 65.5 -53.5t95.5 -16.5q130 0 130 146v462q0 89 -49.5 137t-142.5 48q-92 0 -142 -48.5t-50 -136.5v-391q0 -24 -15.5 -38.5t-41.5 -14.5t-41.5 14t-15.5 39v388q0 86 37 149t106 96.5t163 33.5
q143 0 224.5 -74t81.5 -205v-455q0 -72 -30 -127t-85.5 -85t-128.5 -30q-164 0 -247 107z" />
    <glyph glyph-name="eng" unicode="&#x14b;" horiz-adv-x="614" 
d="M331.5 -279q-14.5 13 -14.5 33t14 32.5t37 12.5q37 0 54.5 8.5t24 28.5t6.5 61v385q0 62 -30 95t-85 33q-80 0 -126 -47.5t-46 -128.5v-191q0 -24 -15.5 -38.5t-40.5 -14.5q-26 0 -41 14t-15 39v404q0 25 14 39t40 14t40.5 -14t14.5 -39v-39q74 92 198 92q96 0 150 -58
t54 -160l-1 -385q0 -96 -48 -142.5t-148 -46.5q-22 0 -36.5 13z" />
    <glyph glyph-name="Omacron" unicode="&#x14c;" horiz-adv-x="833" 
d="M222.5 35q-83.5 45 -128.5 127t-45 188t45 188t128.5 127t194.5 45t194.5 -45t128.5 -127t45 -188t-45 -188t-128.5 -127t-194.5 -45t-194.5 45zM602 153q68 72 68 197q0 126 -69.5 197.5t-189.5 71.5q-76 0 -132 -33t-86 -94t-30 -142q0 -83 31 -143.5t88 -93t135 -32.5
q117 0 185 72zM242 814q0 20 11.5 28t35.5 8h252q24 0 35.5 -8t11.5 -28q0 -35 -47 -35h-252q-47 0 -47 35z" />
    <glyph glyph-name="omacron" unicode="&#x14d;" horiz-adv-x="658" 
d="M176 22.5q-66 32.5 -101.5 90.5t-35.5 132t35.5 132t101.5 90.5t153 32.5t153 -32.5t101.5 -90.5t35.5 -132t-35.5 -132t-101.5 -90.5t-153 -32.5t-153 32.5zM458 124q48 44 48 121t-48 121t-129 44q-82 0 -129.5 -44t-47.5 -121t47.5 -121t129.5 -44q81 0 129 44z
M154 604q0 20 11.5 28t35.5 8h252q24 0 35.5 -8t11.5 -28q0 -35 -47 -35h-252q-47 0 -47 35z" />
    <glyph glyph-name="Obreve" unicode="&#x14e;" horiz-adv-x="833" 
d="M222.5 35q-83.5 45 -128.5 127t-45 188t45 188t128.5 127t194.5 45t194.5 -45t128.5 -127t45 -188t-45 -188t-128.5 -127t-194.5 -45t-194.5 45zM602 153q68 72 68 197q0 126 -69.5 197.5t-189.5 71.5q-76 0 -132 -33t-86 -94t-30 -142q0 -83 31 -143.5t88 -93t135 -32.5
q117 0 185 72zM284.5 817q-48.5 45 -48.5 118q0 25 13.5 38t38.5 13t38.5 -13t13.5 -38q0 -39 19.5 -60.5t56.5 -21.5t56.5 21.5t19.5 60.5q0 24 13.5 37.5t38.5 13.5t38.5 -13t13.5 -38q0 -73 -48.5 -118t-131.5 -45t-131.5 45z" />
    <glyph glyph-name="obreve" unicode="&#x14f;" horiz-adv-x="658" 
d="M176 22.5q-66 32.5 -101.5 90.5t-35.5 132t35.5 132t101.5 90.5t153 32.5t153 -32.5t101.5 -90.5t35.5 -132t-35.5 -132t-101.5 -90.5t-153 -32.5t-153 32.5zM458 124q48 44 48 121t-48 121t-129 44q-82 0 -129.5 -44t-47.5 -121t47.5 -121t129.5 -44q81 0 129 44z
M196.5 607q-48.5 45 -48.5 118q0 25 13.5 38t38.5 13t38.5 -13t13.5 -38q0 -39 19.5 -60.5t56.5 -21.5t56.5 21.5t19.5 60.5q0 24 13.5 37.5t38.5 13.5t38.5 -13t13.5 -38q0 -73 -48.5 -118t-131.5 -45t-131.5 45z" />
    <glyph glyph-name="Ohungarumlaut" unicode="&#x150;" horiz-adv-x="833" 
d="M222.5 35q-83.5 45 -128.5 127t-45 188t45 188t128.5 127t194.5 45t194.5 -45t128.5 -127t45 -188t-45 -188t-128.5 -127t-194.5 -45t-194.5 45zM602 153q68 72 68 197q0 126 -69.5 197.5t-189.5 71.5q-76 0 -132 -33t-86 -94t-30 -142q0 -83 31 -143.5t88 -93t135 -32.5
q117 0 185 72zM476 809q0 15 8 30l77 136q16 31 46 31q13 0 29 -8q15 -7 22.5 -17.5t7.5 -22.5q0 -15 -10 -28l-98 -134q-16 -24 -41 -24q-11 0 -21 6q-20 10 -20 31zM306 809q0 12 8 30l66 137q14 30 46 30q16 0 30 -7q28 -13 28 -39q0 -15 -9 -29l-87 -135
q-15 -24 -40 -24q-12 0 -22 6q-20 10 -20 31z" />
    <glyph glyph-name="ohungarumlaut" unicode="&#x151;" horiz-adv-x="658" 
d="M176 22.5q-66 32.5 -101.5 90.5t-35.5 132t35.5 132t101.5 90.5t153 32.5t153 -32.5t101.5 -90.5t35.5 -132t-35.5 -132t-101.5 -90.5t-153 -32.5t-153 32.5zM458 124q48 44 48 121t-48 121t-129 44q-82 0 -129.5 -44t-47.5 -121t47.5 -121t129.5 -44q81 0 129 44z
M388 599q0 15 8 30l77 136q16 31 46 31q13 0 29 -8q15 -7 22.5 -17.5t7.5 -22.5q0 -15 -10 -28l-98 -134q-16 -24 -41 -24q-11 0 -21 6q-20 10 -20 31zM218 599q0 12 8 30l66 137q14 30 46 30q16 0 30 -7q28 -13 28 -39q0 -15 -9 -29l-87 -135q-15 -24 -40 -24q-12 0 -22 6
q-20 10 -20 31z" />
    <glyph glyph-name="OE" unicode="&#x152;" horiz-adv-x="1243" 
d="M223.5 34.5q-83.5 44.5 -129 126t-45.5 189.5t45.5 189.5t129 126t194.5 44.5q159 0 262 -129v15q0 47 34 75.5t89 28.5h313q27 0 41.5 -12t14.5 -34t-15 -34t-41 -12h-286q-21 0 -33 -13.5t-12 -37.5v-154h255q27 0 41.5 -12t14.5 -34t-15 -33.5t-41 -11.5h-255v-169
q0 -24 12 -37.5t33 -13.5h308q27 0 41.5 -12t14.5 -35q0 -21 -15 -33t-41 -12h-330q-54 0 -90 29.5t-36 74.5v14q-54 -67 -117 -97.5t-147 -30.5q-111 0 -194.5 44.5zM600.5 155q66.5 71 66.5 195q0 125 -68.5 195.5t-189.5 70.5q-74 0 -129 -32.5t-84.5 -92.5t-29.5 -141
q0 -124 67.5 -195t184.5 -71q116 0 182.5 71z" />
    <glyph glyph-name="oe" unicode="&#x153;" horiz-adv-x="1095" 
d="M177.5 21q-65.5 31 -100.5 88.5t-35 135.5t35 135.5t100.5 88.5t154.5 31q69 0 128 -26t100 -75q34 48 92 74.5t127 26.5q81 0 143 -24.5t96.5 -69t34.5 -102.5q0 -46 -28 -71t-79 -25h-334q1 -59 48 -93.5t127 -34.5q46 0 83 11t70 35q26 19 44 19q14 0 28 -14
q16 -15 16 -33q0 -20 -17 -33q-43 -36 -100 -55t-124 -19q-72 0 -131.5 26.5t-94.5 73.5q-42 -49 -100.5 -75t-128.5 -26q-89 0 -154.5 31zM910 289q18 0 25.5 7t7.5 24q0 42 -44 66.5t-120 24.5q-75 0 -120 -33.5t-45 -88.5h296zM461.5 124.5q47.5 44.5 47.5 120.5
t-47.5 120.5t-129.5 44.5q-83 0 -130.5 -44.5t-47.5 -120.5t47.5 -120.5t130.5 -44.5q82 0 129.5 44.5z" />
    <glyph glyph-name="Racute" unicode="&#x154;" horiz-adv-x="728" 
d="M63 560q0 65 38 102.5t107 37.5h181q145 0 218.5 -58t73.5 -171q0 -107 -65 -166t-180 -59l166 -168q16 -16 16 -35q0 -21 -20 -38q-19 -14 -37 -14q-25 0 -48 24l-220 228h-113v-199q0 -25 -16.5 -39.5t-42.5 -14.5q-27 0 -42.5 14.5t-15.5 39.5v516zM388 335
q96 0 135.5 30.5t39.5 105.5q0 73 -43 105t-132 32h-163q-21 0 -33 -13.5t-12 -37.5v-222h208zM319.5 792q-5.5 9 -5.5 19q0 8 3 15l59 145q15 36 44 36q14 0 28 -7q32 -17 32 -41q0 -11 -8 -25l-80 -139q-6 -10 -16.5 -16t-21.5 -6q-9 0 -19 5t-15.5 14z" />
    <glyph glyph-name="racute" unicode="&#x155;" horiz-adv-x="437" 
d="M69 4q-15 14 -15 39v404q0 25 14.5 39t39.5 14q26 0 40.5 -14t14.5 -39v-42q65 85 171 85h23q27 0 42.5 -12t15.5 -33q0 -22 -15.5 -33.5t-42.5 -11.5h-32q-73 0 -116 -44.5t-43 -121.5v-191q0 -24 -15.5 -38.5t-40.5 -14.5q-26 0 -41 14zM207.5 582q-5.5 9 -5.5 19
q0 8 3 15l59 145q15 36 44 36q14 0 28 -7q32 -17 32 -41q0 -11 -8 -25l-80 -139q-6 -10 -16.5 -16t-21.5 -6q-9 0 -19 5t-15.5 14z" />
    <glyph glyph-name="uni0156" unicode="&#x156;" horiz-adv-x="728" 
d="M63 560q0 65 38 102.5t107 37.5h181q145 0 218.5 -58t73.5 -171q0 -107 -65 -166t-180 -59l166 -168q16 -16 16 -35q0 -21 -20 -38q-19 -14 -37 -14q-25 0 -48 24l-220 228h-113v-199q0 -25 -16.5 -39.5t-42.5 -14.5q-27 0 -42.5 14.5t-15.5 39.5v516zM388 335
q96 0 135.5 30.5t39.5 105.5q0 73 -43 105t-132 32h-163q-21 0 -33 -13.5t-12 -37.5v-222h208zM264 -293q0 15 19 32q35 34 43 67q-27 -2 -45.5 14.5t-18.5 43.5q0 32 21.5 50t55.5 18q37 0 58 -22.5t21 -62.5q0 -35 -23.5 -75t-61.5 -70q-23 -19 -41 -19q-11 0 -21 9
q-7 7 -7 15z" />
    <glyph glyph-name="uni0157" unicode="&#x157;" horiz-adv-x="440" 
d="M69 4q-15 14 -15 39v404q0 25 14.5 39t39.5 14q26 0 40.5 -14t14.5 -39v-42q65 85 171 85h23q27 0 42.5 -12t15.5 -33q0 -22 -15.5 -33.5t-42.5 -11.5h-32q-73 0 -116 -44.5t-43 -121.5v-191q0 -24 -15.5 -38.5t-40.5 -14.5q-26 0 -41 14zM34 -293q0 15 19 32
q35 34 43 67q-27 -2 -45.5 14.5t-18.5 43.5q0 32 21.5 50t55.5 18q37 0 58 -22.5t21 -62.5q0 -35 -23.5 -75t-61.5 -70q-23 -19 -41 -19q-11 0 -21 9q-7 7 -7 15z" />
    <glyph glyph-name="Rcaron" unicode="&#x158;" horiz-adv-x="728" 
d="M63 560q0 65 38 102.5t107 37.5h181q145 0 218.5 -58t73.5 -171q0 -107 -65 -166t-180 -59l166 -168q16 -16 16 -35q0 -21 -20 -38q-19 -14 -37 -14q-25 0 -48 24l-220 228h-113v-199q0 -25 -16.5 -39.5t-42.5 -14.5q-27 0 -42.5 14.5t-15.5 39.5v516zM388 335
q96 0 135.5 30.5t39.5 105.5q0 73 -43 105t-132 32h-163q-21 0 -33 -13.5t-12 -37.5v-222h208zM301 791l-105 127q-13 16 -13 32q0 19 19 34q14 11 28 11q21 0 40 -25l76 -104l76 104q19 25 41 25q14 0 27 -10q20 -15 20 -35q0 -16 -14 -33l-105 -126q-19 -21 -45 -21
t-45 21z" />
    <glyph glyph-name="rcaron" unicode="&#x159;" horiz-adv-x="437" 
d="M69 4q-15 14 -15 39v404q0 25 14.5 39t39.5 14q26 0 40.5 -14t14.5 -39v-42q65 85 171 85h23q27 0 42.5 -12t15.5 -33q0 -22 -15.5 -33.5t-42.5 -11.5h-32q-73 0 -116 -44.5t-43 -121.5v-191q0 -24 -15.5 -38.5t-40.5 -14.5q-26 0 -41 14zM189 581l-105 127
q-13 16 -13 32q0 19 19 34q14 11 28 11q21 0 40 -25l76 -104l76 104q19 25 41 25q14 0 27 -10q20 -15 20 -35q0 -16 -14 -33l-105 -126q-19 -21 -45 -21t-45 21z" />
    <glyph glyph-name="Sacute" unicode="&#x15a;" horiz-adv-x="703" 
d="M203.5 23q-84.5 33 -141.5 92q-13 12 -13 29q0 21 18 37q13 13 29 13q21 0 43 -21q45 -44 108.5 -67.5t136.5 -23.5q74 0 114.5 26t40.5 73q0 46 -42 74.5t-143 50.5q-149 32 -216 84.5t-67 135.5q0 54 34.5 96t97 65t144.5 23q92 0 165.5 -31t108.5 -86q10 -16 10 -31
q0 -22 -22 -37q-13 -8 -26 -8q-12 0 -24 6t-20 16q-29 38 -79.5 58.5t-112.5 20.5q-78 0 -119.5 -23.5t-41.5 -68.5q0 -42 40 -68.5t141 -49.5q153 -36 220 -89t67 -138q0 -57 -33.5 -100.5t-94.5 -67t-142 -23.5q-96 0 -180.5 33zM325.5 792q-5.5 9 -5.5 19q0 8 3 15
l59 145q15 36 44 36q14 0 28 -7q32 -17 32 -41q0 -11 -8 -25l-80 -139q-6 -10 -16.5 -16t-21.5 -6q-9 0 -19 5t-15.5 14z" />
    <glyph glyph-name="sacute" unicode="&#x15b;" horiz-adv-x="536" 
d="M146.5 15.5q-58.5 25.5 -94.5 69.5q-12 17 -12 32q0 24 23 38q14 8 26 8q19 0 38 -19q34 -34 69.5 -49.5t85.5 -15.5q46 0 75 13t29 35q0 17 -10.5 28.5t-36.5 22.5t-81 29q-106 34 -149.5 69.5t-43.5 90.5q0 62 53 97.5t144 35.5q69 0 126 -22t84 -58q11 -14 11 -30
q0 -20 -21 -34q-13 -9 -30 -9q-23 0 -46 21q-45 43 -125 43q-83 0 -83 -44q0 -17 11 -28t38.5 -21.5t89.5 -30.5q68 -21 107 -43t56 -49.5t17 -67.5q0 -62 -56 -99.5t-154 -37.5q-82 0 -140.5 25.5zM244.5 582q-5.5 9 -5.5 19q0 8 3 15l59 145q15 36 44 36q14 0 28 -7
q32 -17 32 -41q0 -11 -8 -25l-80 -139q-6 -10 -16.5 -16t-21.5 -6q-9 0 -19 5t-15.5 14z" />
    <glyph glyph-name="Scircumflex" unicode="&#x15c;" horiz-adv-x="703" 
d="M203.5 23q-84.5 33 -141.5 92q-13 12 -13 29q0 21 18 37q13 13 29 13q21 0 43 -21q45 -44 108.5 -67.5t136.5 -23.5q74 0 114.5 26t40.5 73q0 46 -42 74.5t-143 50.5q-149 32 -216 84.5t-67 135.5q0 54 34.5 96t97 65t144.5 23q92 0 165.5 -31t108.5 -86q10 -16 10 -31
q0 -22 -22 -37q-13 -8 -26 -8q-12 0 -24 6t-20 16q-29 38 -79.5 58.5t-112.5 20.5q-78 0 -119.5 -23.5t-41.5 -68.5q0 -42 40 -68.5t141 -49.5q153 -36 220 -89t67 -138q0 -57 -33.5 -100.5t-94.5 -67t-142 -23.5q-96 0 -180.5 33zM189 814q0 17 13 33l105 126q19 22 45 22
t45 -22l105 -126q13 -16 13 -33q0 -19 -18 -34q-14 -10 -28 -10q-22 0 -41 24l-76 104l-76 -104q-18 -24 -41 -24q-14 0 -27 10q-19 15 -19 34z" />
    <glyph glyph-name="scircumflex" unicode="&#x15d;" horiz-adv-x="536" 
d="M146.5 15.5q-58.5 25.5 -94.5 69.5q-12 17 -12 32q0 24 23 38q14 8 26 8q19 0 38 -19q34 -34 69.5 -49.5t85.5 -15.5q46 0 75 13t29 35q0 17 -10.5 28.5t-36.5 22.5t-81 29q-106 34 -149.5 69.5t-43.5 90.5q0 62 53 97.5t144 35.5q69 0 126 -22t84 -58q11 -14 11 -30
q0 -20 -21 -34q-13 -9 -30 -9q-23 0 -46 21q-45 43 -125 43q-83 0 -83 -44q0 -17 11 -28t38.5 -21.5t89.5 -30.5q68 -21 107 -43t56 -49.5t17 -67.5q0 -62 -56 -99.5t-154 -37.5q-82 0 -140.5 25.5zM108 604q0 17 13 33l105 126q19 22 45 22t45 -22l105 -126q13 -16 13 -33
q0 -19 -18 -34q-14 -10 -28 -10q-22 0 -41 24l-76 104l-76 -104q-18 -24 -41 -24q-14 0 -27 10q-19 15 -19 34z" />
    <glyph glyph-name="Scedilla" unicode="&#x15e;" horiz-adv-x="703" 
d="M411 -13l-20 -37q42 -2 65 -23t23 -53q0 -38 -28 -64t-81 -26q-41 0 -72 15t-49 39q-7 10 -7 19q0 12 15 26q12 10 21 10q14 0 24 -15q11 -14 27 -21.5t33 -7.5q19 0 29.5 7.5t10.5 21.5q0 15 -9 23.5t-26 8.5l-11 -1q-19 -2 -32.5 7.5t-13.5 25.5q0 7 3 15l17 36
q-81 8 -150 39.5t-118 82.5q-13 12 -13 29q0 21 18 37q13 13 29 13q21 0 43 -21q45 -44 108.5 -67.5t136.5 -23.5q74 0 114.5 26t40.5 73q0 46 -42 74.5t-143 50.5q-149 32 -216 84.5t-67 135.5q0 54 34.5 96t97 65t144.5 23q92 0 165.5 -31t108.5 -86q10 -16 10 -31
q0 -22 -22 -37q-13 -8 -26 -8q-12 0 -24 6t-20 16q-29 38 -79.5 58.5t-112.5 20.5q-78 0 -119.5 -23.5t-41.5 -68.5q0 -42 40 -68.5t141 -49.5q153 -36 220 -89t67 -138q0 -82 -65 -133t-176 -57z" />
    <glyph glyph-name="scedilla" unicode="&#x15f;" horiz-adv-x="536" 
d="M323 -13l-20 -37q42 -2 65.5 -23t23.5 -53q0 -38 -28 -64t-82 -26q-41 0 -71.5 15t-48.5 39q-8 11 -8 20q0 11 15 25q12 10 22 10q12 0 24 -15q11 -14 27 -21.5t33 -7.5q18 0 28.5 7.5t10.5 21.5q0 32 -34 32l-11 -1q-19 -2 -33 7.5t-14 25.5q0 7 3 15l17 35
q-125 12 -190 93q-12 17 -12 32q0 24 23 38q14 8 26 8q19 0 38 -19q34 -34 69.5 -49.5t85.5 -15.5q46 0 75 13t29 35q0 17 -10.5 28.5t-36.5 22.5t-81 29q-106 34 -149.5 69.5t-43.5 90.5q0 62 53 97.5t144 35.5q69 0 126 -22t84 -58q11 -14 11 -30q0 -20 -21 -34
q-13 -9 -30 -9q-23 0 -46 21q-45 43 -125 43q-83 0 -83 -44q0 -17 11 -28t38.5 -21.5t89.5 -30.5q68 -21 107 -43t56 -49.5t17 -67.5q0 -55 -45.5 -91.5t-126.5 -43.5z" />
    <glyph glyph-name="Scaron" unicode="&#x160;" horiz-adv-x="703" 
d="M203.5 23q-84.5 33 -141.5 92q-13 12 -13 29q0 21 18 37q13 13 29 13q21 0 43 -21q45 -44 108.5 -67.5t136.5 -23.5q74 0 114.5 26t40.5 73q0 46 -42 74.5t-143 50.5q-149 32 -216 84.5t-67 135.5q0 54 34.5 96t97 65t144.5 23q92 0 165.5 -31t108.5 -86q10 -16 10 -31
q0 -22 -22 -37q-13 -8 -26 -8q-12 0 -24 6t-20 16q-29 38 -79.5 58.5t-112.5 20.5q-78 0 -119.5 -23.5t-41.5 -68.5q0 -42 40 -68.5t141 -49.5q153 -36 220 -89t67 -138q0 -57 -33.5 -100.5t-94.5 -67t-142 -23.5q-96 0 -180.5 33zM307 791l-105 127q-13 16 -13 32
q0 19 19 34q14 11 28 11q21 0 40 -25l76 -104l76 104q19 25 41 25q14 0 27 -10q20 -15 20 -35q0 -16 -14 -33l-105 -126q-19 -21 -45 -21t-45 21z" />
    <glyph glyph-name="scaron" unicode="&#x161;" horiz-adv-x="536" 
d="M146.5 15.5q-58.5 25.5 -94.5 69.5q-12 17 -12 32q0 24 23 38q14 8 26 8q19 0 38 -19q34 -34 69.5 -49.5t85.5 -15.5q46 0 75 13t29 35q0 17 -10.5 28.5t-36.5 22.5t-81 29q-106 34 -149.5 69.5t-43.5 90.5q0 62 53 97.5t144 35.5q69 0 126 -22t84 -58q11 -14 11 -30
q0 -20 -21 -34q-13 -9 -30 -9q-23 0 -46 21q-45 43 -125 43q-83 0 -83 -44q0 -17 11 -28t38.5 -21.5t89.5 -30.5q68 -21 107 -43t56 -49.5t17 -67.5q0 -62 -56 -99.5t-154 -37.5q-82 0 -140.5 25.5zM226 581l-105 127q-13 16 -13 32q0 19 19 34q14 11 28 11q21 0 40 -25
l76 -104l76 104q19 25 41 25q14 0 27 -10q20 -15 20 -35q0 -16 -14 -33l-105 -126q-19 -21 -45 -21t-45 21z" />
    <glyph glyph-name="uni0162" unicode="&#x162;" horiz-adv-x="696" 
d="M650.5 688.5q14.5 -11.5 14.5 -33.5q0 -21 -14.5 -32.5t-40.5 -11.5h-205v-568q0 -25 -17 -39v-4q0 -7 -3 -13l-20 -37q42 -2 65 -23t23 -53q0 -38 -28 -64t-81 -26q-41 0 -72 15t-49 39q-7 10 -7 19q0 13 15 26q11 9 21 9q13 0 24 -14t27 -21.5t33 -7.5q19 0 29 7.5
t10 21.5q0 35 -44 31q-19 -2 -33 7.5t-14 25.5q0 7 3 15l22 45q-18 14 -18 41v568h-205q-26 0 -40 11.5t-14 32.5q0 22 14 33.5t40 11.5h524q26 0 40.5 -11.5z" />
    <glyph glyph-name="uni0163" unicode="&#x163;" horiz-adv-x="481" 
d="M452 91q0 -17 -13 -34q-17 -26 -47.5 -43t-67.5 -22q0 -1 -2 -5l-20 -37q42 -2 65.5 -23t23.5 -53q0 -38 -28 -64t-82 -26q-41 0 -71.5 15t-48.5 39q-8 11 -8 20q0 11 15 25q11 9 21 9q14 0 25 -14t27 -21.5t33 -7.5q19 0 29 7.5t10 21.5q0 35 -45 31q-18 -2 -32.5 7.5
t-14.5 25.5q0 8 4 15l18 38q-53 13 -82 52.5t-29 99.5v254h-45q-27 0 -42.5 12t-15.5 32q0 21 15.5 33t42.5 12h45v158q0 25 15 39t41 14t41 -14t15 -39v-158h109q26 0 41.5 -12t15.5 -33q0 -20 -15 -32t-42 -12h-109v-263q0 -27 15 -42.5t42 -15.5q37 0 66 29q23 21 42 21
q16 0 28 -11q15 -12 15 -28z" />
    <glyph glyph-name="Tcaron" unicode="&#x164;" horiz-adv-x="696" 
d="M306.5 4q-15.5 14 -15.5 39v568h-205q-26 0 -40 11.5t-14 32.5q0 22 14 33.5t40 11.5h524q26 0 40.5 -11.5t14.5 -33.5q0 -21 -14.5 -32.5t-40.5 -11.5h-205v-568q0 -24 -15.5 -38.5t-41.5 -14.5t-41.5 14zM304 791l-105 127q-13 16 -13 32q0 19 19 34q14 11 28 11
q21 0 40 -25l76 -104l76 104q19 25 41 25q14 0 27 -10q20 -15 20 -35q0 -16 -14 -33l-105 -126q-19 -21 -45 -21t-45 21z" />
    <glyph glyph-name="tcaron" unicode="&#x165;" horiz-adv-x="492" 
d="M452 91q0 -17 -13 -34q-21 -31 -60 -49t-86 -18q-75 0 -118 42t-43 115v254h-45q-27 0 -42.5 12t-15.5 32q0 21 15.5 33t42.5 12h45v158q0 25 15 39t41 14t41 -14t15 -39v-158h109q26 0 41.5 -12t15.5 -33q0 -20 -15 -32t-42 -12h-109v-263q0 -27 15 -42.5t42 -15.5
q37 0 66 29q23 21 42 21q16 0 28 -11q15 -12 15 -28zM342 565q0 15 21 33q19 15 31 32t14 32q-25 -4 -43.5 13.5t-18.5 44.5q0 32 21 49.5t56 17.5t56 -23.5t21 -60.5q0 -36 -22 -72.5t-62 -69.5q-24 -21 -45 -21q-14 0 -23 11q-6 8 -6 14z" />
    <glyph glyph-name="Tbar" unicode="&#x166;" horiz-adv-x="696" 
d="M650.5 688.5q14.5 -11.5 14.5 -33.5q0 -21 -14.5 -32.5t-40.5 -11.5h-205v-218h95q53 0 53 -44q0 -21 -13.5 -32t-39.5 -11h-95v-263q0 -24 -15.5 -38.5t-41.5 -14.5t-41.5 14t-15.5 39v263h-87q-26 0 -39.5 11t-13.5 32q0 44 53 44h87v218h-205q-26 0 -40 11.5t-14 32.5
q0 22 14 33.5t40 11.5h524q26 0 40.5 -11.5z" />
    <glyph glyph-name="tbar" unicode="&#x167;" horiz-adv-x="490" 
d="M463 91q0 -17 -13 -34q-22 -31 -60.5 -49t-85.5 -18q-76 0 -118.5 41.5t-42.5 115.5v68h-30q-25 0 -39.5 11.5t-14.5 33.5q0 45 54 45h30v96h-46q-26 0 -41.5 12t-15.5 32q0 21 15 33t42 12h46v158q0 25 15 39t41 14t40.5 -14t14.5 -39v-158h110q26 0 41.5 -12t15.5 -33
q0 -20 -15 -32t-42 -12h-110v-96h108q54 0 54 -45q0 -22 -14.5 -33.5t-39.5 -11.5h-108v-77q0 -27 15 -42.5t43 -15.5q19 0 34.5 7t31.5 22q23 21 41 21q15 0 29 -11q15 -12 15 -28z" />
    <glyph glyph-name="Utilde" unicode="&#x168;" horiz-adv-x="734" 
d="M202 27q-69 37 -106 106t-37 163v361q0 25 15 39t41 14t41.5 -14.5t15.5 -38.5v-364q0 -102 50.5 -157t143.5 -55t144 55.5t51 156.5v364q0 24 15.5 38.5t41.5 14.5t41.5 -14t15.5 -39v-361q0 -91 -38.5 -160.5t-109 -107.5t-164.5 -38q-92 0 -161 37zM191 806.5
q-11 9.5 -11 24.5q0 10 4 19q32 82 108 82q26 0 47 -9t47 -26q17 -11 28 -16.5t22 -5.5q15 0 24 8.5t17 27.5q13 28 37 28q17 0 28 -9.5t11 -24.5q0 -10 -4 -19q-32 -82 -108 -82q-25 0 -43.5 8t-42.5 24q-18 13 -31 19t-27 6q-15 0 -24 -8t-17 -27q-13 -29 -36 -29
q-18 0 -29 9.5z" />
    <glyph glyph-name="utilde" unicode="&#x169;" horiz-adv-x="614" 
d="M106 48.5q-57 58.5 -57 162.5v236q0 25 15.5 39t41.5 14t40.5 -14t14.5 -39v-236q0 -62 33 -96.5t92 -34.5q74 0 118 47.5t44 128.5v191q0 25 15 39t41 14t41 -14t15 -39v-404q0 -25 -14 -39t-40 -14t-40.5 14.5t-14.5 38.5v39q-73 -92 -187 -92q-101 0 -158 58.5z
M126 596.5q-11 9.5 -11 24.5q0 10 4 19q32 82 108 82q26 0 47 -9t47 -26q17 -11 28 -16.5t22 -5.5q15 0 24 8.5t17 27.5q13 28 37 28q17 0 28 -9.5t11 -24.5q0 -10 -4 -19q-32 -82 -108 -82q-25 0 -43.5 8t-42.5 24q-18 13 -31 19t-27 6q-15 0 -24 -8t-17 -27
q-13 -29 -36 -29q-18 0 -29 9.5z" />
    <glyph glyph-name="Umacron" unicode="&#x16a;" horiz-adv-x="734" 
d="M202 27q-69 37 -106 106t-37 163v361q0 25 15 39t41 14t41.5 -14.5t15.5 -38.5v-364q0 -102 50.5 -157t143.5 -55t144 55.5t51 156.5v364q0 24 15.5 38.5t41.5 14.5t41.5 -14t15.5 -39v-361q0 -91 -38.5 -160.5t-109 -107.5t-164.5 -38q-92 0 -161 37zM192 814
q0 20 11.5 28t35.5 8h252q24 0 35.5 -8t11.5 -28q0 -35 -47 -35h-252q-47 0 -47 35z" />
    <glyph glyph-name="umacron" unicode="&#x16b;" horiz-adv-x="614" 
d="M106 48.5q-57 58.5 -57 162.5v236q0 25 15.5 39t41.5 14t40.5 -14t14.5 -39v-236q0 -62 33 -96.5t92 -34.5q74 0 118 47.5t44 128.5v191q0 25 15 39t41 14t41 -14t15 -39v-404q0 -25 -14 -39t-40 -14t-40.5 14.5t-14.5 38.5v39q-73 -92 -187 -92q-101 0 -158 58.5z
M127 604q0 20 11.5 28t35.5 8h252q24 0 35.5 -8t11.5 -28q0 -35 -47 -35h-252q-47 0 -47 35z" />
    <glyph glyph-name="Ubreve" unicode="&#x16c;" horiz-adv-x="734" 
d="M202 27q-69 37 -106 106t-37 163v361q0 25 15 39t41 14t41.5 -14.5t15.5 -38.5v-364q0 -102 50.5 -157t143.5 -55t144 55.5t51 156.5v364q0 24 15.5 38.5t41.5 14.5t41.5 -14t15.5 -39v-361q0 -91 -38.5 -160.5t-109 -107.5t-164.5 -38q-92 0 -161 37zM234.5 817
q-48.5 45 -48.5 118q0 25 13.5 38t38.5 13t38.5 -13t13.5 -38q0 -39 19.5 -60.5t56.5 -21.5t56.5 21.5t19.5 60.5q0 24 13.5 37.5t38.5 13.5t38.5 -13t13.5 -38q0 -73 -48.5 -118t-131.5 -45t-131.5 45z" />
    <glyph glyph-name="ubreve" unicode="&#x16d;" horiz-adv-x="614" 
d="M106 48.5q-57 58.5 -57 162.5v236q0 25 15.5 39t41.5 14t40.5 -14t14.5 -39v-236q0 -62 33 -96.5t92 -34.5q74 0 118 47.5t44 128.5v191q0 25 15 39t41 14t41 -14t15 -39v-404q0 -25 -14 -39t-40 -14t-40.5 14.5t-14.5 38.5v39q-73 -92 -187 -92q-101 0 -158 58.5z
M169.5 607q-48.5 45 -48.5 118q0 25 13.5 38t38.5 13t38.5 -13t13.5 -38q0 -39 19.5 -60.5t56.5 -21.5t56.5 21.5t19.5 60.5q0 24 13.5 37.5t38.5 13.5t38.5 -13t13.5 -38q0 -73 -48.5 -118t-131.5 -45t-131.5 45z" />
    <glyph glyph-name="Uring" unicode="&#x16e;" horiz-adv-x="734" 
d="M202 27q-69 37 -106 106t-37 163v361q0 25 15 39t41 14t41.5 -14.5t15.5 -38.5v-364q0 -102 50.5 -157t143.5 -55t144 55.5t51 156.5v364q0 24 15.5 38.5t41.5 14.5t41.5 -14t15.5 -39v-361q0 -91 -38.5 -160.5t-109 -107.5t-164.5 -38q-92 0 -161 37zM278.5 784
q-33.5 30 -33.5 78q0 47 33.5 77t88.5 30t88 -30t33 -77q0 -48 -33 -78t-88 -30t-88.5 30zM403.5 827q13.5 13 13.5 35q0 23 -13.5 36t-36.5 13t-36.5 -13t-13.5 -36q0 -22 13.5 -35t36.5 -13t36.5 13z" />
    <glyph glyph-name="uring" unicode="&#x16f;" horiz-adv-x="614" 
d="M106 48.5q-57 58.5 -57 162.5v236q0 25 15.5 39t41.5 14t40.5 -14t14.5 -39v-236q0 -62 33 -96.5t92 -34.5q74 0 118 47.5t44 128.5v191q0 25 15 39t41 14t41 -14t15 -39v-404q0 -25 -14 -39t-40 -14t-40.5 14.5t-14.5 38.5v39q-73 -92 -187 -92q-101 0 -158 58.5z
M214.5 574q-33.5 30 -33.5 78q0 47 33.5 77t88.5 30t88 -30t33 -77q0 -48 -33 -78t-88 -30t-88.5 30zM339.5 617q13.5 13 13.5 35q0 23 -13.5 36t-36.5 13t-36.5 -13t-13.5 -36q0 -22 13.5 -35t36.5 -13t36.5 13z" />
    <glyph glyph-name="Uhungarumlaut" unicode="&#x170;" horiz-adv-x="734" 
d="M202 27q-69 37 -106 106t-37 163v361q0 25 15 39t41 14t41.5 -14.5t15.5 -38.5v-364q0 -102 50.5 -157t143.5 -55t144 55.5t51 156.5v364q0 24 15.5 38.5t41.5 14.5t41.5 -14t15.5 -39v-361q0 -91 -38.5 -160.5t-109 -107.5t-164.5 -38q-92 0 -161 37zM426 809q0 15 8 30
l77 136q16 31 46 31q13 0 29 -8q15 -7 22.5 -17.5t7.5 -22.5q0 -15 -10 -28l-98 -134q-16 -24 -41 -24q-11 0 -21 6q-20 10 -20 31zM256 809q0 12 8 30l66 137q14 30 46 30q16 0 30 -7q28 -13 28 -39q0 -15 -9 -29l-87 -135q-15 -24 -40 -24q-12 0 -22 6q-20 10 -20 31z" />
    <glyph glyph-name="uhungarumlaut" unicode="&#x171;" horiz-adv-x="614" 
d="M106 48.5q-57 58.5 -57 162.5v236q0 25 15.5 39t41.5 14t40.5 -14t14.5 -39v-236q0 -62 33 -96.5t92 -34.5q74 0 118 47.5t44 128.5v191q0 25 15 39t41 14t41 -14t15 -39v-404q0 -25 -14 -39t-40 -14t-40.5 14.5t-14.5 38.5v39q-73 -92 -187 -92q-101 0 -158 58.5z
M361 599q0 15 8 30l77 136q16 31 46 31q13 0 29 -8q15 -7 22.5 -17.5t7.5 -22.5q0 -15 -10 -28l-98 -134q-16 -24 -41 -24q-11 0 -21 6q-20 10 -20 31zM191 599q0 12 8 30l66 137q14 30 46 30q16 0 30 -7q28 -13 28 -39q0 -15 -9 -29l-87 -135q-15 -24 -40 -24q-12 0 -22 6
q-20 10 -20 31z" />
    <glyph glyph-name="Uogonek" unicode="&#x172;" horiz-adv-x="734" 
d="M659.5 696q15.5 -14 15.5 -39v-361q0 -122 -67.5 -203t-183.5 -98l-30 -25t-33 -36.5t-9 -35.5q0 -17 12 -26t29 -9q28 0 46 16q13 11 24 11t21 -10q12 -12 12 -24t-13 -25q-39 -39 -99 -39q-54 0 -88.5 24t-34.5 71q0 55 48 106q-116 16 -183 96t-67 207v361q0 25 15 39
t41 14t41.5 -14.5t15.5 -38.5v-364q0 -102 50.5 -157t143.5 -55t144 55.5t51 156.5v364q0 24 15.5 38.5t41.5 14.5t41.5 -14z" />
    <glyph glyph-name="uogonek" unicode="&#x173;" horiz-adv-x="614" 
d="M606 -143q0 -13 -13 -26q-37 -39 -99 -39q-53 0 -87.5 24t-34.5 71q0 37 19.5 70t61.5 68q-2 12 -2 18v39q-73 -92 -187 -92q-101 0 -158 58.5t-57 162.5v236q0 25 15.5 39t41.5 14t40.5 -14t14.5 -39v-236q0 -62 33 -96.5t92 -34.5q74 0 118 47.5t44 128.5v191
q0 25 15 39t41 14t41 -14t15 -39v-404q0 -29 -19 -43l-4 -4q-7 -6 -31.5 -26t-34 -36.5t-9.5 -35.5q0 -17 12.5 -26t29.5 -9q27 0 46 16q13 11 24 11t21 -10q11 -11 11 -23z" />
    <glyph glyph-name="Wcircumflex" unicode="&#x174;" horiz-adv-x="962" 
d="M197 22.5q-31 32.5 -44 101.5l-102 526q-2 12 -2 16q0 21 13.5 32.5t38.5 11.5q27 0 41.5 -11.5t19.5 -35.5l99 -547q4 -20 8.5 -27.5t13.5 -7.5q18 0 22 34l68 491q7 49 35.5 76.5t72.5 27.5q45 0 73 -27.5t35 -76.5l69 -491q2 -18 7 -26t15 -8q8 0 12.5 7.5t9.5 27.5
l98 547q5 24 19.5 35.5t41.5 11.5q25 0 39 -11.5t14 -32.5q0 -4 -2 -16l-103 -526q-13 -68 -43.5 -101t-82.5 -33t-81 32t-38 99l-66 467q-2 17 -6 24t-11 7t-11 -7t-6 -24l-65 -467q-10 -67 -38.5 -99t-80.5 -32t-83 32.5zM318 814q0 17 13 33l105 126q19 22 45 22t45 -22
l105 -126q13 -16 13 -33q0 -19 -18 -34q-14 -10 -28 -10q-22 0 -41 24l-76 104l-76 -104q-18 -24 -41 -24q-14 0 -27 10q-19 15 -19 34z" />
    <glyph glyph-name="wcircumflex" unicode="&#x175;" horiz-adv-x="822" 
d="M158.5 20q-32.5 30 -45.5 88l-72 334q-1 4 -1 12q0 21 15 33.5t41 12.5q58 0 65 -45l60 -349q5 -26 20 -26q16 0 20 25l43 297q7 46 35.5 72t71.5 26t71.5 -26t35.5 -72l43 -297q4 -25 21 -25q14 0 19 26l60 349q8 45 65 45q27 0 41.5 -12t14.5 -33q0 -9 -1 -13l-72 -334
q-13 -58 -45.5 -88t-81.5 -30q-50 0 -78.5 30.5t-37.5 93.5l-39 274q-2 12 -5.5 17t-10.5 5t-10.5 -5t-5.5 -17l-39 -274q-9 -63 -37.5 -93.5t-77.5 -30.5q-50 0 -82.5 30zM248 604q0 17 13 33l105 126q19 22 45 22t45 -22l105 -126q13 -16 13 -33q0 -19 -18 -34
q-14 -10 -28 -10q-22 0 -41 24l-76 104l-76 -104q-18 -24 -41 -24q-14 0 -27 10q-19 15 -19 34z" />
    <glyph glyph-name="Ycircumflex" unicode="&#x176;" horiz-adv-x="721" 
d="M657 696q15 -14 15 -39v-112q0 -132 -67.5 -216t-186.5 -101v-185q0 -24 -15.5 -38.5t-41.5 -14.5t-41.5 14t-15.5 39v185q-120 17 -187.5 100t-67.5 217v112q0 25 15.5 39t41.5 14t41.5 -14.5t15.5 -38.5v-115q0 -109 51.5 -168t146.5 -59q94 0 145.5 59.5t51.5 167.5
v115q0 24 16 38.5t42 14.5t41 -14zM198 814q0 17 13 33l105 126q19 22 45 22t45 -22l105 -126q13 -16 13 -33q0 -19 -18 -34q-14 -10 -28 -10q-22 0 -41 24l-76 104l-76 -104q-18 -24 -41 -24q-14 0 -27 10q-19 15 -19 34z" />
    <glyph glyph-name="ycircumflex" unicode="&#x177;" horiz-adv-x="613" 
d="M161.5 -227.5q-59.5 22.5 -89.5 61.5q-11 16 -11 30q0 22 21 39q13 9 28 9q25 0 45 -23q22 -24 57.5 -37t78.5 -13q77 0 119 43t42 122v51q-26 -29 -67 -46t-84 -17q-124 0 -193.5 67.5t-69.5 188.5v202q0 21 16 35.5t41 14.5q23 0 39 -14.5t16 -35.5v-202
q0 -80 40 -124.5t111 -44.5q69 0 107.5 43.5t38.5 122.5v195q0 28 15 44t42 16t42 -16t15 -44v-423q0 -124 -71.5 -195.5t-195.5 -71.5q-73 0 -132.5 22.5zM131 604q0 17 13 33l105 126q19 22 45 22t45 -22l105 -126q13 -16 13 -33q0 -19 -18 -34q-14 -10 -28 -10
q-22 0 -41 24l-76 104l-76 -104q-18 -24 -41 -24q-14 0 -27 10q-19 15 -19 34z" />
    <glyph glyph-name="Ydieresis" unicode="&#x178;" horiz-adv-x="721" 
d="M657 696q15 -14 15 -39v-112q0 -132 -67.5 -216t-186.5 -101v-185q0 -24 -15.5 -38.5t-41.5 -14.5t-41.5 14t-15.5 39v185q-120 17 -187.5 100t-67.5 217v112q0 25 15.5 39t41.5 14t41.5 -14.5t15.5 -38.5v-115q0 -109 51.5 -168t146.5 -59q94 0 145.5 59.5t51.5 167.5
v115q0 24 16 38.5t42 14.5t41 -14zM202.5 810q-18.5 18 -18.5 44t18 44.5t46 18.5q27 0 45 -18t18 -45q0 -25 -18 -43.5t-45 -18.5t-45.5 18zM428.5 810q-18.5 18 -18.5 44t18 44.5t46 18.5t46 -18t18 -45q0 -25 -18.5 -43.5t-45.5 -18.5t-45.5 18z" />
    <glyph glyph-name="Zacute" unicode="&#x179;" horiz-adv-x="717" 
d="M83.5 28.5q-34.5 28.5 -34.5 77.5q0 37 14.5 64.5t54.5 58.5l400 310q15 12 21.5 21.5t6.5 23.5q0 27 -38 27h-380q-26 0 -43 11.5t-17 32.5q0 22 17 33.5t43 11.5h404q60 0 94 -27.5t34 -78.5q0 -40 -14 -65.5t-55 -56.5l-400 -311q-15 -11 -21.5 -21.5t-6.5 -24.5
q0 -26 47 -26h398q26 0 43 -11.5t17 -32.5q0 -22 -17 -33.5t-43 -11.5h-431q-59 0 -93.5 28.5zM342.5 792q-5.5 9 -5.5 19q0 8 3 15l59 145q15 36 44 36q14 0 28 -7q32 -17 32 -41q0 -11 -8 -25l-80 -139q-6 -10 -16.5 -16t-21.5 -6q-9 0 -19 5t-15.5 14z" />
    <glyph glyph-name="zacute" unicode="&#x17a;" horiz-adv-x="569" 
d="M75.5 28.5q-36.5 28.5 -36.5 80.5q0 37 19.5 64.5t54.5 43.5l270 122q16 7 22.5 15t6.5 21q0 12 -9 18.5t-24 6.5h-266q-31 0 -47.5 11.5t-16.5 33.5q0 45 64 45h272q64 0 100 -29t36 -79q0 -40 -19 -69t-54 -44l-271 -121q-30 -14 -30 -35q0 -11 8 -17t21 -6h291
q63 0 63 -44q0 -46 -63 -46h-288q-67 0 -103.5 28.5zM255.5 582q-5.5 9 -5.5 19q0 8 3 15l59 145q15 36 44 36q14 0 28 -7q32 -17 32 -41q0 -11 -8 -25l-80 -139q-6 -10 -16.5 -16t-21.5 -6q-9 0 -19 5t-15.5 14z" />
    <glyph glyph-name="Zdotaccent" unicode="&#x17b;" horiz-adv-x="717" 
d="M83.5 28.5q-34.5 28.5 -34.5 77.5q0 37 14.5 64.5t54.5 58.5l400 310q15 12 21.5 21.5t6.5 23.5q0 27 -38 27h-380q-26 0 -43 11.5t-17 32.5q0 22 17 33.5t43 11.5h404q60 0 94 -27.5t34 -78.5q0 -40 -14 -65.5t-55 -56.5l-400 -311q-15 -11 -21.5 -21.5t-6.5 -24.5
q0 -26 47 -26h398q26 0 43 -11.5t17 -32.5q0 -22 -17 -33.5t-43 -11.5h-431q-59 0 -93.5 28.5zM317.5 804.5q-20.5 19.5 -20.5 47.5t20.5 47.5t51.5 19.5q30 0 50.5 -19.5t20.5 -47.5t-20.5 -47.5t-50.5 -19.5q-31 0 -51.5 19.5z" />
    <glyph glyph-name="zdotaccent" unicode="&#x17c;" horiz-adv-x="569" 
d="M75.5 28.5q-36.5 28.5 -36.5 80.5q0 37 19.5 64.5t54.5 43.5l270 122q16 7 22.5 15t6.5 21q0 12 -9 18.5t-24 6.5h-266q-31 0 -47.5 11.5t-16.5 33.5q0 45 64 45h272q64 0 100 -29t36 -79q0 -40 -19 -69t-54 -44l-271 -121q-30 -14 -30 -35q0 -11 8 -17t21 -6h291
q63 0 63 -44q0 -46 -63 -46h-288q-67 0 -103.5 28.5zM230.5 594.5q-20.5 19.5 -20.5 47.5t20.5 47.5t51.5 19.5q30 0 50.5 -19.5t20.5 -47.5t-20.5 -47.5t-50.5 -19.5q-31 0 -51.5 19.5z" />
    <glyph glyph-name="Zcaron" unicode="&#x17d;" horiz-adv-x="717" 
d="M83.5 28.5q-34.5 28.5 -34.5 77.5q0 37 14.5 64.5t54.5 58.5l400 310q15 12 21.5 21.5t6.5 23.5q0 27 -38 27h-380q-26 0 -43 11.5t-17 32.5q0 22 17 33.5t43 11.5h404q60 0 94 -27.5t34 -78.5q0 -40 -14 -65.5t-55 -56.5l-400 -311q-15 -11 -21.5 -21.5t-6.5 -24.5
q0 -26 47 -26h398q26 0 43 -11.5t17 -32.5q0 -22 -17 -33.5t-43 -11.5h-431q-59 0 -93.5 28.5zM324 791l-105 127q-13 16 -13 32q0 19 19 34q14 11 28 11q21 0 40 -25l76 -104l76 104q19 25 41 25q14 0 27 -10q20 -15 20 -35q0 -16 -14 -33l-105 -126q-19 -21 -45 -21
t-45 21z" />
    <glyph glyph-name="zcaron" unicode="&#x17e;" horiz-adv-x="569" 
d="M75.5 28.5q-36.5 28.5 -36.5 80.5q0 37 19.5 64.5t54.5 43.5l270 122q16 7 22.5 15t6.5 21q0 12 -9 18.5t-24 6.5h-266q-31 0 -47.5 11.5t-16.5 33.5q0 45 64 45h272q64 0 100 -29t36 -79q0 -40 -19 -69t-54 -44l-271 -121q-30 -14 -30 -35q0 -11 8 -17t21 -6h291
q63 0 63 -44q0 -46 -63 -46h-288q-67 0 -103.5 28.5zM237 581l-105 127q-13 16 -13 32q0 19 19 34q14 11 28 11q21 0 40 -25l76 -104l76 104q19 25 41 25q14 0 27 -10q20 -15 20 -35q0 -16 -14 -33l-105 -126q-19 -21 -45 -21t-45 21z" />
    <glyph glyph-name="uni018F" unicode="&#x18f;" horiz-adv-x="821" 
d="M218 27q-84 36 -129.5 102.5t-45.5 154.5q0 52 31 82.5t84 30.5h506q0 104 -67 163t-186 59q-159 0 -239 -76q-25 -23 -50 -23q-18 0 -33 12q-19 17 -19 32t19 36q47 51 133.5 80.5t188.5 29.5q115 0 197.5 -43.5t126 -125.5t43.5 -196q0 -109 -44 -189t-126 -122.5
t-194 -42.5t-196 36zM598.5 141.5q65.5 59.5 65.5 166.5h-484q-11 0 -17.5 -7t-6.5 -18q0 -95 68 -148t190 -53q119 0 184.5 59.5z" />
    <glyph glyph-name="florin" unicode="&#x192;" horiz-adv-x="523" 
d="M519 646q0 -21 -20 -35q-17 -11 -32 -11q-22 0 -41 22q-9 12 -27 19.5t-38 7.5q-24 0 -41 -18t-24 -53l-28 -147h115q50 0 50 -38q0 -24 -15.5 -36.5t-42.5 -12.5h-123l-69 -365q-14 -77 -62 -117t-124 -40q-48 0 -88 19.5t-57 48.5q-8 14 -8 24q0 17 25 36q14 11 33 11
q25 0 43 -21q12 -14 25.5 -21t35.5 -7q28 0 43 15.5t23 55.5l68 361h-60q-23 0 -36.5 9t-13.5 27q0 51 58 51h69l28 151q14 75 63.5 116t121.5 41q48 0 86 -19.5t57 -50.5q6 -12 6 -23z" />
    <glyph glyph-name="Ohorn" unicode="&#x1a0;" horiz-adv-x="833" 
d="M818.5 620q-36.5 -41 -97.5 -51q64 -92 64 -219q0 -106 -45 -188t-128.5 -127t-194.5 -45t-194.5 45t-128.5 127t-45 188t45 188t128.5 127t194.5 45q143 0 238 -73h1l44 5q65 10 65 79q0 47 43 47q23 0 35 -12t12 -35q0 -60 -36.5 -101zM602 153q68 72 68 197
q0 126 -69.5 197.5t-189.5 71.5q-76 0 -132 -33t-86 -94t-30 -142q0 -83 31 -143.5t88 -93t135 -32.5q117 0 185 72z" />
    <glyph glyph-name="ohorn" unicode="&#x1a1;" horiz-adv-x="658" 
d="M692.5 388.5q-33.5 -40.5 -89.5 -52.5q16 -41 16 -91q0 -74 -35.5 -132t-101.5 -90.5t-153 -32.5t-153 32.5t-101.5 90.5t-35.5 132t35.5 132t101.5 90.5t153 32.5q75 0 134.5 -24.5t97.5 -68.5l10 1q65 8 65 78q0 48 43 48q23 0 35 -12.5t12 -35.5q0 -57 -33.5 -97.5z
M458 124q48 44 48 121t-48 121t-129 44q-82 0 -129.5 -44t-47.5 -121t47.5 -121t129.5 -44q81 0 129 44z" />
    <glyph glyph-name="Uhorn" unicode="&#x1af;" horiz-adv-x="794" 
d="M821.5 763.5q12.5 -12.5 12.5 -35.5q0 -65 -42 -107t-111 -47h-6v-278q0 -91 -38.5 -160.5t-109 -107.5t-164.5 -38q-92 0 -161 37t-106 106t-37 163v361q0 25 15 39t41 14t41.5 -14.5t15.5 -38.5v-364q0 -102 50.5 -157t143.5 -55t144 55.5t51 156.5v364q0 24 15.5 38.5
t41.5 14.5t41.5 -14t15.5 -39v-7h3q65 8 65 78q0 48 43 48q23 0 35.5 -12.5z" />
    <glyph glyph-name="uhorn" unicode="&#x1b0;" horiz-adv-x="716" 
d="M719.5 549q12.5 -12 12.5 -35q0 -65 -42 -107t-111 -47l-19 -1v-316q0 -25 -14 -39t-40 -14t-40.5 14.5t-14.5 38.5v39q-73 -92 -187 -92q-101 0 -158 58.5t-57 162.5v236q0 25 15.5 39t41.5 14t40.5 -14t14.5 -39v-236q0 -62 33 -96.5t92 -34.5q74 0 118 47.5t44 128.5
v191q0 25 15 39t41 14t41 -14t15 -39v-14l16 2q65 10 65 79q0 47 43 47q23 0 35.5 -12z" />
    <glyph glyph-name="uni01CD" unicode="&#x1cd;" 
d="M74 5q-15 14 -15 39v364q0 142 81 222t225 80q94 0 163 -36.5t105.5 -104.5t36.5 -161v-364q0 -25 -15 -39t-41 -14t-42 14.5t-16 38.5v184h-383v-184q0 -24 -16 -38.5t-42 -14.5t-41 14zM556 317v94q0 102 -48.5 155t-142.5 53q-95 0 -143.5 -52.5t-48.5 -155.5v-94h383
zM320 791l-105 127q-13 16 -13 32q0 19 19 34q14 11 28 11q21 0 40 -25l76 -104l76 104q19 25 41 25q14 0 27 -10q20 -15 20 -35q0 -16 -14 -33l-105 -126q-19 -21 -45 -21t-45 21z" />
    <glyph glyph-name="uni01CE" unicode="&#x1ce;" horiz-adv-x="587" 
d="M96 35q-57 45 -57 120q0 74 60.5 118t163.5 44q100 0 156 -46v38q0 50 -31.5 76.5t-92.5 26.5q-86 0 -148 -38q-21 -12 -38 -12q-18 0 -33 16q-10 11 -10 26q0 24 21 38q36 27 91 42.5t115 15.5q113 0 177 -51t64 -141v-268q0 -23 -15 -36.5t-41 -13.5t-40.5 13t-14.5 36
v19q-59 -68 -175 -68q-95 0 -152 45zM380 94.5q40 22.5 40 61.5q0 38 -39 60t-107 22q-59 0 -91.5 -22t-32.5 -61q0 -40 31.5 -61.5t90.5 -21.5q68 0 108 22.5zM261 574l-105 127q-13 16 -13 32q0 19 19 34q14 11 28 11q21 0 40 -25l76 -104l76 104q19 25 41 25q14 0 27 -10
q20 -15 20 -35q0 -16 -14 -33l-105 -126q-19 -21 -45 -21t-45 21z" />
    <glyph glyph-name="uni01CF" unicode="&#x1cf;" horiz-adv-x="302" 
d="M109.5 4q-15.5 14 -15.5 39v614q0 25 15.5 39t41.5 14q25 0 41 -14.5t16 -38.5v-614q0 -24 -16 -38.5t-41 -14.5q-26 0 -41.5 14zM103 791l-105 127q-13 16 -13 32q0 19 19 34q14 11 28 11q21 0 40 -25l76 -104l76 104q19 25 41 25q14 0 27 -10q20 -15 20 -35
q0 -16 -14 -33l-105 -126q-19 -21 -45 -21t-45 21z" />
    <glyph glyph-name="uni01D0" unicode="&#x1d0;" horiz-adv-x="255" 
d="M87 4q-15 14 -15 39v404q0 25 15 39t41 14t41 -14t15 -39v-404q0 -25 -15 -39t-41 -14t-41 14zM83 561l-105 127q-13 16 -13 32q0 19 19 34q14 11 28 11q21 0 40 -25l76 -104l76 104q19 25 41 25q14 0 27 -10q20 -15 20 -35q0 -16 -14 -33l-105 -126q-19 -21 -45 -21
t-45 21z" />
    <glyph glyph-name="uni01D1" unicode="&#x1d1;" horiz-adv-x="833" 
d="M222.5 35q-83.5 45 -128.5 127t-45 188t45 188t128.5 127t194.5 45t194.5 -45t128.5 -127t45 -188t-45 -188t-128.5 -127t-194.5 -45t-194.5 45zM602 153q68 72 68 197q0 126 -69.5 197.5t-189.5 71.5q-76 0 -132 -33t-86 -94t-30 -142q0 -83 31 -143.5t88 -93t135 -32.5
q117 0 185 72zM372 791l-105 127q-13 16 -13 32q0 19 19 34q14 11 28 11q21 0 40 -25l76 -104l76 104q19 25 41 25q14 0 27 -10q20 -15 20 -35q0 -16 -14 -33l-105 -126q-19 -21 -45 -21t-45 21z" />
    <glyph glyph-name="uni01D2" unicode="&#x1d2;" horiz-adv-x="658" 
d="M176 22.5q-66 32.5 -101.5 90.5t-35.5 132t35.5 132t101.5 90.5t153 32.5t153 -32.5t101.5 -90.5t35.5 -132t-35.5 -132t-101.5 -90.5t-153 -32.5t-153 32.5zM458 124q48 44 48 121t-48 121t-129 44q-82 0 -129.5 -44t-47.5 -121t47.5 -121t129.5 -44q81 0 129 44z
M284 581l-105 127q-13 16 -13 32q0 19 19 34q14 11 28 11q21 0 40 -25l76 -104l76 104q19 25 41 25q14 0 27 -10q20 -15 20 -35q0 -16 -14 -33l-105 -126q-19 -21 -45 -21t-45 21z" />
    <glyph glyph-name="uni01D3" unicode="&#x1d3;" horiz-adv-x="734" 
d="M202 27q-69 37 -106 106t-37 163v361q0 25 15 39t41 14t41.5 -14.5t15.5 -38.5v-364q0 -102 50.5 -157t143.5 -55t144 55.5t51 156.5v364q0 24 15.5 38.5t41.5 14.5t41.5 -14t15.5 -39v-361q0 -91 -38.5 -160.5t-109 -107.5t-164.5 -38q-92 0 -161 37zM322 791l-105 127
q-13 16 -13 32q0 19 19 34q14 11 28 11q21 0 40 -25l76 -104l76 104q19 25 41 25q14 0 27 -10q20 -15 20 -35q0 -16 -14 -33l-105 -126q-19 -21 -45 -21t-45 21z" />
    <glyph glyph-name="uni01D4" unicode="&#x1d4;" horiz-adv-x="614" 
d="M106 48.5q-57 58.5 -57 162.5v236q0 25 15.5 39t41.5 14t40.5 -14t14.5 -39v-236q0 -62 33 -96.5t92 -34.5q74 0 118 47.5t44 128.5v191q0 25 15 39t41 14t41 -14t15 -39v-404q0 -25 -14 -39t-40 -14t-40.5 14.5t-14.5 38.5v39q-73 -92 -187 -92q-101 0 -158 58.5z
M257 581l-105 127q-13 16 -13 32q0 19 19 34q14 11 28 11q21 0 40 -25l76 -104l76 104q19 25 41 25q14 0 27 -10q20 -15 20 -35q0 -16 -14 -33l-105 -126q-19 -21 -45 -21t-45 21z" />
    <glyph glyph-name="uni01D5" unicode="&#x1d5;" horiz-adv-x="734" 
d="M202 27q-69 37 -106 106t-37 163v361q0 25 15 39t41 14t41.5 -14.5t15.5 -38.5v-364q0 -102 50.5 -157t143.5 -55t144 55.5t51 156.5v364q0 24 15.5 38.5t41.5 14.5t41.5 -14t15.5 -39v-361q0 -91 -38.5 -160.5t-109 -107.5t-164.5 -38q-92 0 -161 37zM208.5 810
q-18.5 18 -18.5 44t18 44.5t46 18.5q27 0 45 -18t18 -45q0 -25 -18 -43.5t-45 -18.5t-45.5 18zM434.5 810q-18.5 18 -18.5 44t18 44.5t46 18.5t46 -18t18 -45q0 -25 -18.5 -43.5t-45.5 -18.5t-45.5 18zM190 1011q0 20 11.5 28t35.5 8h252q24 0 35.5 -8t11.5 -28
q0 -35 -47 -35h-252q-47 0 -47 35z" />
    <glyph glyph-name="uni01D6" unicode="&#x1d6;" horiz-adv-x="614" 
d="M106 48.5q-57 58.5 -57 162.5v236q0 25 15.5 39t41.5 14t40.5 -14t14.5 -39v-236q0 -62 33 -96.5t92 -34.5q74 0 118 47.5t44 128.5v191q0 25 15 39t41 14t41 -14t15 -39v-404q0 -25 -14 -39t-40 -14t-40.5 14.5t-14.5 38.5v39q-73 -92 -187 -92q-101 0 -158 58.5z
M143.5 600q-18.5 18 -18.5 44t18 44.5t46 18.5q27 0 45 -18t18 -45q0 -25 -18 -43.5t-45 -18.5t-45.5 18zM369.5 600q-18.5 18 -18.5 44t18 44.5t46 18.5t46 -18t18 -45q0 -25 -18.5 -43.5t-45.5 -18.5t-45.5 18zM125 801q0 20 11.5 28t35.5 8h252q24 0 35.5 -8t11.5 -28
q0 -35 -47 -35h-252q-47 0 -47 35z" />
    <glyph glyph-name="uni01D7" unicode="&#x1d7;" horiz-adv-x="734" 
d="M202 27q-69 37 -106 106t-37 163v361q0 25 15 39t41 14t41.5 -14.5t15.5 -38.5v-364q0 -102 50.5 -157t143.5 -55t144 55.5t51 156.5v364q0 24 15.5 38.5t41.5 14.5t41.5 -14t15.5 -39v-361q0 -91 -38.5 -160.5t-109 -107.5t-164.5 -38q-92 0 -161 37zM332 942q0 8 3 17
l47 122q7 17 19 26.5t27 9.5q12 0 24 -6q13 -7 21 -18t8 -24q0 -12 -7 -23l-68 -117q-6 -10 -16 -16t-21 -6t-19 4q-18 8 -18 31zM206.5 810q-18.5 18 -18.5 44t18 44.5t46 18.5q27 0 45 -18t18 -45q0 -25 -18 -43.5t-45 -18.5t-45.5 18zM432.5 810q-18.5 18 -18.5 44
t18 44.5t46 18.5t46 -18t18 -45q0 -25 -18.5 -43.5t-45.5 -18.5t-45.5 18z" />
    <glyph glyph-name="uni01D8" unicode="&#x1d8;" horiz-adv-x="614" 
d="M106 48.5q-57 58.5 -57 162.5v236q0 25 15.5 39t41.5 14t40.5 -14t14.5 -39v-236q0 -62 33 -96.5t92 -34.5q74 0 118 47.5t44 128.5v191q0 25 15 39t41 14t41 -14t15 -39v-404q0 -25 -14 -39t-40 -14t-40.5 14.5t-14.5 38.5v39q-73 -92 -187 -92q-101 0 -158 58.5z
M268 732q0 8 3 17l47 122q7 17 19 26.5t27 9.5q12 0 24 -6q13 -7 21 -18t8 -24q0 -12 -7 -23l-68 -117q-6 -10 -16 -16t-21 -6t-19 4q-18 8 -18 31zM142.5 600q-18.5 18 -18.5 44t18 44.5t46 18.5q27 0 45 -18t18 -45q0 -25 -18 -43.5t-45 -18.5t-45.5 18zM368.5 600
q-18.5 18 -18.5 44t18 44.5t46 18.5t46 -18t18 -45q0 -25 -18.5 -43.5t-45.5 -18.5t-45.5 18z" />
    <glyph glyph-name="uni01D9" unicode="&#x1d9;" horiz-adv-x="734" 
d="M202 27q-69 37 -106 106t-37 163v361q0 25 15 39t41 14t41.5 -14.5t15.5 -38.5v-364q0 -102 50.5 -157t143.5 -55t144 55.5t51 156.5v364q0 24 15.5 38.5t41.5 14.5t41.5 -14t15.5 -39v-361q0 -91 -38.5 -160.5t-109 -107.5t-164.5 -38q-92 0 -161 37zM329 936l-96 110
q-12 14 -12 28q0 17 17 31q12 9 24 9q19 0 37 -22l69 -90l69 90q17 23 36 23q12 0 25 -10q17 -14 17 -31q0 -14 -12 -28l-96 -110q-16 -20 -39 -20q-24 0 -39 20zM210 810.5q-18 18.5 -18 43.5q0 27 18 45t45 18q28 0 46 -18.5t18 -44.5t-18.5 -44t-45.5 -18t-45 18.5z
M436 810.5q-18 18.5 -18 43.5q0 27 18 45t45 18q28 0 46.5 -18.5t18.5 -44.5t-18.5 -44t-46.5 -18q-27 0 -45 18.5z" />
    <glyph glyph-name="uni01DA" unicode="&#x1da;" horiz-adv-x="614" 
d="M106 48.5q-57 58.5 -57 162.5v236q0 25 15.5 39t41.5 14t40.5 -14t14.5 -39v-236q0 -62 33 -96.5t92 -34.5q74 0 118 47.5t44 128.5v191q0 25 15 39t41 14t41 -14t15 -39v-404q0 -25 -14 -39t-40 -14t-40.5 14.5t-14.5 38.5v39q-73 -92 -187 -92q-101 0 -158 58.5z
M264 726l-96 110q-12 14 -12 28q0 17 17 31q12 9 24 9q19 0 37 -22l69 -90l69 90q17 23 36 23q12 0 25 -10q17 -14 17 -31q0 -14 -12 -28l-96 -110q-16 -20 -39 -20q-24 0 -39 20zM145 600.5q-18 18.5 -18 43.5q0 27 18 45t45 18q28 0 46 -18.5t18 -44.5t-18.5 -44
t-45.5 -18t-45 18.5zM371 600.5q-18 18.5 -18 43.5q0 27 18 45t45 18q28 0 46.5 -18.5t18.5 -44.5t-18.5 -44t-46.5 -18q-27 0 -45 18.5z" />
    <glyph glyph-name="uni01DB" unicode="&#x1db;" horiz-adv-x="734" 
d="M202 27q-69 37 -106 106t-37 163v361q0 25 15 39t41 14t41.5 -14.5t15.5 -38.5v-364q0 -102 50.5 -157t143.5 -55t144 55.5t51 156.5v364q0 24 15.5 38.5t41.5 14.5t41.5 -14t15.5 -39v-361q0 -91 -38.5 -160.5t-109 -107.5t-164.5 -38q-92 0 -161 37zM363 907
q-11 0 -20.5 6t-15.5 16l-69 117q-7 11 -7 23q0 13 8 24t21 18q12 6 24 6q15 0 27 -9t19 -27l47 -122q4 -12 4 -18q0 -20 -19 -30q-8 -4 -19 -4zM209 810.5q-18 18.5 -18 43.5q0 27 18 45t45 18q28 0 46 -18.5t18 -44.5t-18.5 -44t-45.5 -18t-45 18.5zM435 810.5
q-18 18.5 -18 43.5q0 27 18 45t45 18q28 0 46.5 -18.5t18.5 -44.5t-18.5 -44t-46.5 -18q-27 0 -45 18.5z" />
    <glyph glyph-name="uni01DC" unicode="&#x1dc;" horiz-adv-x="614" 
d="M106 48.5q-57 58.5 -57 162.5v236q0 25 15.5 39t41.5 14t40.5 -14t14.5 -39v-236q0 -62 33 -96.5t92 -34.5q74 0 118 47.5t44 128.5v191q0 25 15 39t41 14t41 -14t15 -39v-404q0 -25 -14 -39t-40 -14t-40.5 14.5t-14.5 38.5v39q-73 -92 -187 -92q-101 0 -158 58.5z
M298 697q-11 0 -20.5 6t-15.5 16l-69 117q-7 11 -7 23q0 13 8 24t21 18q12 6 24 6q15 0 27 -9t19 -27l47 -122q4 -12 4 -18q0 -20 -19 -30q-8 -4 -19 -4zM144 600.5q-18 18.5 -18 43.5q0 27 18 45t45 18q28 0 46 -18.5t18 -44.5t-18.5 -44t-45.5 -18t-45 18.5zM370 600.5
q-18 18.5 -18 43.5q0 27 18 45t45 18q28 0 46.5 -18.5t18.5 -44.5t-18.5 -44t-46.5 -18q-27 0 -45 18.5z" />
    <glyph glyph-name="Gcaron" unicode="&#x1e6;" horiz-adv-x="779" 
d="M217.5 33.5q-81.5 43.5 -125 124.5t-43.5 191t43.5 191.5t125 125.5t191.5 44q90 0 167 -31t116 -83q10 -14 10 -30q0 -23 -22 -39q-13 -8 -27 -8q-13 0 -25.5 6t-21.5 16q-33 39 -81.5 58.5t-115.5 19.5q-115 0 -180.5 -71.5t-65.5 -198.5q0 -126 65.5 -197t181.5 -71
q95 0 150.5 39t55.5 106v26q0 23 -9.5 32t-35.5 9h-138q-25 0 -38.5 11.5t-13.5 32.5q0 22 13.5 34t38.5 12h185q57 0 84.5 -25t27.5 -77v-39q0 -73 -41 -130t-114 -89.5t-165 -32.5q-111 0 -192.5 43.5zM359 791l-105 127q-13 16 -13 32q0 19 19 34q14 11 28 11
q21 0 40 -25l76 -104l76 104q19 25 41 25q14 0 27 -10q20 -15 20 -35q0 -16 -14 -33l-105 -126q-19 -21 -45 -21t-45 21z" />
    <glyph glyph-name="gcaron" unicode="&#x1e7;" horiz-adv-x="665" 
d="M193 -228q-63 22 -99 62q-12 13 -12 30q0 23 21 38q13 10 28 10q23 0 48 -24q24 -24 62 -37.5t84 -13.5q85 0 131 47t45 132l-1 58q-71 -86 -200 -86q-124 0 -193 68t-69 186q0 119 70.5 188.5t198.5 69.5q56 0 106 -23t88 -65v35q0 24 15.5 38.5t40.5 14.5t40 -14
t15 -39v-431q0 -78 -34 -138.5t-97.5 -94t-148.5 -33.5q-76 0 -139 22zM450 122q50 43 50 122q0 76 -47 121t-131 45q-81 0 -126 -44t-45 -124q0 -77 44 -120t125 -43q80 0 130 43zM264 581l-105 127q-13 16 -13 32q0 19 19 34q14 11 28 11q21 0 40 -25l76 -104l76 104
q19 25 41 25q14 0 27 -10q20 -15 20 -35q0 -16 -14 -33l-105 -126q-19 -21 -45 -21t-45 21z" />
    <glyph glyph-name="Aringacute" unicode="&#x1fa;" 
d="M74 5q-15 14 -15 39v364q0 142 81 222t225 80q94 0 163 -36.5t105.5 -104.5t36.5 -161v-364q0 -25 -15 -39t-41 -14t-42 14.5t-16 38.5v184h-383v-184q0 -24 -16 -38.5t-42 -14.5t-41 14zM556 317v94q0 102 -48.5 155t-142.5 53q-95 0 -143.5 -52.5t-48.5 -155.5v-94h383
zM276.5 784q-33.5 30 -33.5 78t33.5 77.5t88.5 29.5t87.5 -30t32.5 -77q0 -48 -32.5 -78t-87.5 -30t-88.5 30zM401.5 827q13.5 13 13.5 35q0 23 -13.5 36t-36.5 13t-36.5 -13t-13.5 -36q0 -22 13.5 -35t36.5 -13t36.5 13zM338.5 1015q-5.5 9 -5.5 19q0 8 3 15l59 145
q15 36 44 36q14 0 28 -7q32 -17 32 -41q0 -11 -8 -25l-80 -139q-6 -10 -16.5 -16t-21.5 -6q-9 0 -19 5t-15.5 14z" />
    <glyph glyph-name="aringacute" unicode="&#x1fb;" horiz-adv-x="587" 
d="M268.5 795.5q-5.5 7.5 -5.5 15.5q0 5 3 11l59 116q15 29 44 29q14 0 29 -6q31 -12 31 -33q0 -9 -7 -19l-80 -111q-6 -8 -16.5 -13t-22.5 -5q-7 0 -19 4q-10 4 -15.5 11.5zM218.5 568q-33.5 30 -33.5 77q0 48 33 78t89 30q54 0 87 -30t33 -78q0 -47 -33 -77t-87 -30
q-55 0 -88.5 30zM342.5 610q13.5 13 13.5 35q0 23 -13.5 36t-36.5 13t-36.5 -13t-13.5 -36q0 -22 13.5 -35t36.5 -13t36.5 13zM96 35q-57 45 -57 120q0 74 60.5 118t163.5 44q100 0 156 -46v38q0 50 -31.5 76.5t-92.5 26.5q-86 0 -148 -38q-21 -12 -38 -12q-18 0 -33 16
q-10 11 -10 26q0 24 21 38q36 27 91 42.5t115 15.5q113 0 177 -51t64 -141v-268q0 -23 -15 -36.5t-41 -13.5t-40.5 13t-14.5 36v19q-59 -68 -175 -68q-95 0 -152 45zM380 94.5q40 22.5 40 61.5q0 38 -39 60t-107 22q-59 0 -91.5 -22t-32.5 -61q0 -40 31.5 -61.5t90.5 -21.5
q68 0 108 22.5z" />
    <glyph glyph-name="AEacute" unicode="&#x1fc;" horiz-adv-x="1114" 
d="M74 5q-15 14 -15 39v364q0 142 81 222t225 80q135 0 213 -87q13 37 43.5 57t72.5 20h295q54 0 54 -45q0 -21 -14 -32.5t-40 -11.5h-280q-21 0 -33.5 -14t-12.5 -38v-157h250q54 0 54 -45q0 -21 -14 -32.5t-40 -11.5h-250v-172q0 -24 12.5 -38t33.5 -14h302q26 0 40 -11.5
t14 -33.5q0 -20 -14.5 -32t-39.5 -12h-312q-69 0 -106 36.5t-37 105.5v86h-383v-184q0 -24 -16 -38.5t-42 -14.5t-41 14zM556 317v94q0 102 -48.5 155t-142.5 53q-95 0 -143.5 -52.5t-48.5 -155.5v-94h383zM527.5 792q-5.5 9 -5.5 19q0 8 3 15l59 145q15 36 44 36
q14 0 28 -7q32 -17 32 -41q0 -11 -8 -25l-80 -139q-6 -10 -16.5 -16t-21.5 -6q-9 0 -19 5t-15.5 14z" />
    <glyph glyph-name="aeacute" unicode="&#x1fd;" horiz-adv-x="1006" 
d="M143.5 11q-49.5 21 -77 60t-27.5 89q0 49 28.5 87t80 59t118.5 21q51 0 93.5 -11.5t68.5 -33.5v23q0 48 -35.5 77t-94.5 29q-43 0 -79 -10t-70 -30q-20 -14 -40 -14q-19 0 -34 15q-11 11 -11 28q0 21 21 37q36 29 92.5 46t118.5 17t111 -23.5t81 -67.5q34 43 89 67
t119 24q80 0 142 -24.5t96 -69t34 -102.5q0 -46 -28 -71t-79 -25h-329q0 -59 46.5 -93.5t126.5 -34.5q88 0 153 46q27 19 43 19q14 0 30 -14q15 -15 15 -32q0 -19 -17 -34q-43 -36 -100 -55t-124 -19q-68 0 -125.5 23t-90.5 63q-79 -87 -231 -87q-65 0 -114.5 21zM825 289
q18 0 25.5 7t7.5 24q0 42 -43.5 66.5t-118.5 24.5q-74 0 -118 -33t-44 -89h291zM387.5 96q41.5 24 41.5 65q0 40 -40.5 63t-111.5 23q-58 0 -92.5 -23.5t-34.5 -63.5q0 -41 33 -64.5t92 -23.5q71 0 112.5 24zM461.5 582q-5.5 9 -5.5 19q0 8 3 15l59 145q15 36 44 36
q14 0 28 -7q32 -17 32 -41q0 -11 -8 -25l-80 -139q-6 -10 -16.5 -16t-21.5 -6q-9 0 -19 5t-15.5 14z" />
    <glyph glyph-name="Oslashacute" unicode="&#x1fe;" horiz-adv-x="821" 
d="M735 538q45 -81 45 -188q0 -108 -45.5 -189.5t-129.5 -126t-194 -44.5q-56 0 -106 12l-20 -43q-6 -13 -19 -20.5t-28 -7.5t-25 5q-29 14 -29 44q0 10 5 22l17 38q-78 46 -121 125.5t-43 184.5q0 108 45.5 189.5t129 126t194.5 44.5q54 0 98 -10l20 44q6 13 18.5 21
t27.5 8q13 0 25 -6q15 -7 23.5 -18.5t8.5 -24.5q0 -8 -3 -16l-20 -44q81 -45 126 -126zM178.5 221q23.5 -56 68.5 -91l223 485q-44 6 -68 6q-75 0 -131 -33t-86 -94t-30 -144q0 -73 23.5 -129zM598.5 151.5q68.5 72.5 68.5 198.5q0 75 -26 132t-74 92l-224 -488q29 -7 68 -7
q119 0 187.5 72.5zM383.5 792q-5.5 9 -5.5 19q0 8 3 15l59 145q15 36 44 36q14 0 28 -7q32 -17 32 -41q0 -11 -8 -25l-80 -139q-6 -10 -16.5 -16t-21.5 -6q-9 0 -19 5t-15.5 14z" />
    <glyph glyph-name="oslashacute" unicode="&#x1ff;" horiz-adv-x="666" 
d="M587.5 376.5q35.5 -58.5 35.5 -131.5q0 -74 -35.5 -132t-101.5 -90.5t-153 -32.5q-29 0 -62 5l-16 -35q-14 -32 -44 -32q-14 0 -25 5q-30 12 -30 38q0 12 6 24l14 30q-63 32 -98 89.5t-35 130.5q0 74 35.5 132t101.5 90.5t153 32.5q34 0 59 -4l15 33q14 32 44 32
q14 0 25 -5q30 -12 30 -38q0 -10 -6 -24l-13 -27q65 -32 100.5 -90.5zM215 110l138 301q-7 1 -20 1q-84 0 -132.5 -44t-48.5 -123q0 -89 63 -135zM465.5 122q48.5 44 48.5 123q0 46 -17 81t-49 55l-138 -302q7 -1 23 -1q84 0 132.5 44zM306.5 562q-5.5 9 -5.5 19q0 8 3 15
l59 145q15 36 44 36q14 0 28 -7q32 -17 32 -41q0 -11 -8 -25l-80 -139q-6 -10 -16.5 -16t-21.5 -6q-9 0 -19 5t-15.5 14z" />
    <glyph glyph-name="uni0218" unicode="&#x218;" horiz-adv-x="703" 
d="M203.5 23q-84.5 33 -141.5 92q-13 12 -13 29q0 21 18 37q13 13 29 13q21 0 43 -21q45 -44 108.5 -67.5t136.5 -23.5q74 0 114.5 26t40.5 73q0 46 -42 74.5t-143 50.5q-149 32 -216 84.5t-67 135.5q0 54 34.5 96t97 65t144.5 23q92 0 165.5 -31t108.5 -86q10 -16 10 -31
q0 -22 -22 -37q-13 -8 -26 -8q-12 0 -24 6t-20 16q-29 38 -79.5 58.5t-112.5 20.5q-78 0 -119.5 -23.5t-41.5 -68.5q0 -42 40 -68.5t141 -49.5q153 -36 220 -89t67 -138q0 -57 -33.5 -100.5t-94.5 -67t-142 -23.5q-96 0 -180.5 33zM301 -293q0 15 19 32q35 34 43 67
q-27 -2 -45.5 14.5t-18.5 43.5q0 32 21.5 50t55.5 18q37 0 58 -22.5t21 -62.5q0 -35 -23.5 -75t-61.5 -70q-23 -19 -41 -19q-11 0 -21 9q-7 7 -7 15z" />
    <glyph glyph-name="uni0219" unicode="&#x219;" horiz-adv-x="536" 
d="M146.5 15.5q-58.5 25.5 -94.5 69.5q-12 17 -12 32q0 24 23 38q14 8 26 8q19 0 38 -19q34 -34 69.5 -49.5t85.5 -15.5q46 0 75 13t29 35q0 17 -10.5 28.5t-36.5 22.5t-81 29q-106 34 -149.5 69.5t-43.5 90.5q0 62 53 97.5t144 35.5q69 0 126 -22t84 -58q11 -14 11 -30
q0 -20 -21 -34q-13 -9 -30 -9q-23 0 -46 21q-45 43 -125 43q-83 0 -83 -44q0 -17 11 -28t38.5 -21.5t89.5 -30.5q68 -21 107 -43t56 -49.5t17 -67.5q0 -62 -56 -99.5t-154 -37.5q-82 0 -140.5 25.5zM213 -293q0 15 19 32q35 34 43 67q-27 -2 -45.5 14.5t-18.5 43.5
q0 32 21.5 50t55.5 18q37 0 58 -22.5t21 -62.5q0 -35 -23.5 -75t-61.5 -70q-23 -19 -41 -19q-11 0 -21 9q-7 7 -7 15z" />
    <glyph glyph-name="uni021A" unicode="&#x21a;" horiz-adv-x="696" 
d="M306.5 4q-15.5 14 -15.5 39v568h-205q-26 0 -40 11.5t-14 32.5q0 22 14 33.5t40 11.5h524q26 0 40.5 -11.5t14.5 -33.5q0 -21 -14.5 -32.5t-40.5 -11.5h-205v-568q0 -24 -15.5 -38.5t-41.5 -14.5t-41.5 14zM272 -293q0 15 19 32q35 34 43 67q-27 -2 -45.5 14.5
t-18.5 43.5q0 32 21.5 50t55.5 18q37 0 58 -22.5t21 -62.5q0 -35 -23.5 -75t-61.5 -70q-23 -19 -41 -19q-11 0 -21 9q-7 7 -7 15z" />
    <glyph glyph-name="uni021B" unicode="&#x21b;" horiz-adv-x="481" 
d="M452 91q0 -17 -13 -34q-21 -31 -60 -49t-86 -18q-75 0 -118 42t-43 115v254h-45q-27 0 -42.5 12t-15.5 32q0 21 15.5 33t42.5 12h45v158q0 25 15 39t41 14t41 -14t15 -39v-158h109q26 0 41.5 -12t15.5 -33q0 -20 -15 -32t-42 -12h-109v-263q0 -27 15 -42.5t42 -15.5
q37 0 66 29q23 21 42 21q16 0 28 -11q15 -12 15 -28zM209 -293q0 15 19 32q35 34 43 67q-27 -2 -45.5 14.5t-18.5 43.5q0 32 21.5 50t55.5 18q37 0 58 -22.5t21 -62.5q0 -35 -23.5 -75t-61.5 -70q-23 -19 -41 -19q-11 0 -21 9q-7 7 -7 15z" />
    <glyph glyph-name="uni0237" unicode="&#x237;" horiz-adv-x="333" 
d="M40.5 -279.5q-14.5 12.5 -14.5 33.5t14.5 33t37.5 12q35 0 52.5 7.5t24.5 28t7 62.5v550q0 25 15 39t41 14t41 -14t15 -39v-550q0 -94 -47.5 -141.5t-148.5 -47.5q-23 0 -37.5 12.5z" />
    <glyph glyph-name="uni0259" unicode="&#x259;" horiz-adv-x="636" 
d="M173.5 15.5q-62.5 24.5 -97 69t-34.5 102.5q0 46 28 71t80 25h333q0 59 -47 93.5t-127 34.5q-47 0 -83.5 -11t-70.5 -35q-26 -19 -43 -19q-15 0 -29 14q-16 15 -16 33q0 19 17 33q43 36 100.5 55t124.5 19q134 0 209.5 -67t75.5 -185q0 -120 -74 -188.5t-204 -68.5
q-80 0 -142.5 24.5zM436 113.5q45 33.5 45 88.5h-296q-17 0 -25 -7t-8 -24q0 -42 44 -66.5t120 -24.5q75 0 120 33.5z" />
    <glyph glyph-name="uni02BB" unicode="&#x2bb;" horiz-adv-x="233" 
d="M59 514.5q-21 23.5 -21 60.5q0 36 22 73.5t61 68.5q26 20 46 20q15 0 23 -11q6 -6 6 -14q0 -14 -21 -32q-41 -34 -45 -64q25 4 43.5 -13.5t18.5 -44.5q0 -33 -20.5 -50t-56.5 -17q-35 0 -56 23.5z" />
    <glyph glyph-name="uni02BC" unicode="&#x2bc;" horiz-adv-x="233" 
d="M37 503q0 15 21 33q19 15 31 32t14 32q-25 -4 -43.5 13.5t-18.5 44.5q0 32 21 49.5t56 17.5t56 -23.5t21 -60.5q0 -36 -22 -72.5t-62 -69.5q-24 -21 -45 -21q-14 0 -23 11q-6 8 -6 14z" />
    <glyph glyph-name="circumflex" unicode="&#x2c6;" horiz-adv-x="402" 
d="M38 584q0 17 13 33l105 126q19 22 45 22t45 -22l105 -126q13 -16 13 -33q0 -19 -18 -34q-14 -10 -28 -10q-22 0 -41 24l-76 104l-76 -104q-18 -24 -41 -24q-14 0 -27 10q-19 15 -19 34z" />
    <glyph glyph-name="caron" horiz-adv-x="402" 
d="M156 561l-105 127q-13 16 -13 32q0 19 19 34q14 11 28 11q21 0 40 -25l76 -104l76 104q19 25 41 25q14 0 27 -10q20 -15 20 -35q0 -16 -14 -33l-105 -126q-19 -21 -45 -21t-45 21z" />
    <glyph glyph-name="breve" horiz-adv-x="387" 
d="M55.5 587q-48.5 45 -48.5 118q0 25 13.5 38t38.5 13t38.5 -13t13.5 -38q0 -39 19.5 -60.5t56.5 -21.5t56.5 21.5t19.5 60.5q0 24 13.5 37.5t38.5 13.5t38.5 -13t13.5 -38q0 -73 -48.5 -118t-131.5 -45t-131.5 45z" />
    <glyph glyph-name="dotaccent" horiz-adv-x="219" 
d="M58.5 574.5q-20.5 19.5 -20.5 47.5t20.5 47.5t51.5 19.5q30 0 50.5 -19.5t20.5 -47.5t-20.5 -47.5t-50.5 -19.5q-31 0 -51.5 19.5z" />
    <glyph glyph-name="ring" unicode="&#x2da;" horiz-adv-x="317" 
d="M70.5 554q-33.5 30 -33.5 78q0 47 33.5 77t88.5 30t88 -30t33 -77q0 -48 -33 -78t-88 -30t-88.5 30zM195.5 597q13.5 13 13.5 35q0 23 -13.5 36t-36.5 13t-36.5 -13t-13.5 -36q0 -22 13.5 -35t36.5 -13t36.5 13z" />
    <glyph glyph-name="tilde" unicode="&#x2dc;" horiz-adv-x="449" 
d="M49 576.5q-11 9.5 -11 24.5q0 10 4 19q32 82 108 82q26 0 47 -9t47 -26q17 -11 28 -16.5t22 -5.5q15 0 24 8.5t17 27.5q13 28 37 28q17 0 28 -9.5t11 -24.5q0 -10 -4 -19q-32 -82 -108 -82q-25 0 -43.5 8t-42.5 24q-18 13 -31 19t-27 6q-15 0 -24 -8t-17 -27
q-13 -29 -36 -29q-18 0 -29 9.5z" />
    <glyph glyph-name="hungarumlaut" horiz-adv-x="435" 
d="M207 579q0 15 8 30l77 136q16 31 46 31q13 0 29 -8q15 -7 22.5 -17.5t7.5 -22.5q0 -15 -10 -28l-98 -134q-16 -24 -41 -24q-11 0 -21 6q-20 10 -20 31zM37 579q0 12 8 30l66 137q14 30 46 30q16 0 30 -7q28 -13 28 -39q0 -15 -9 -29l-87 -135q-15 -24 -40 -24
q-12 0 -22 6q-20 10 -20 31z" />
    <glyph glyph-name="gravecomb" horiz-adv-x="0" 
d="M-99.5 549q-10.5 6 -16.5 16l-80 139q-8 13 -8 25q0 24 32 41q14 7 28 7q30 0 45 -36l58 -145q3 -7 3 -15q0 -15 -10.5 -26.5t-29.5 -11.5q-11 0 -21.5 6z" />
    <glyph glyph-name="acutecomb" horiz-adv-x="0" 
d="M-198.5 562q-5.5 9 -5.5 19q0 8 3 15l59 145q15 36 44 36q14 0 28 -7q32 -17 32 -41q0 -11 -8 -25l-80 -139q-6 -10 -16.5 -16t-21.5 -6q-9 0 -19 5t-15.5 14z" />
    <glyph glyph-name="uni0302" horiz-adv-x="0" 
d="M-163 584q0 17 13 33l105 126q19 22 45 22t45 -22l105 -126q13 -16 13 -33q0 -19 -18 -34q-14 -10 -28 -10q-21 0 -41 24l-76 104l-76 -104q-20 -24 -41 -24q-14 0 -27 10q-19 15 -19 34z" />
    <glyph glyph-name="tildecomb" horiz-adv-x="0" 
d="M-400 577.5q-11 9.5 -11 24.5q0 10 4 19q32 82 108 82q26 0 47 -9t47 -26q17 -11 28 -16.5t22 -5.5q15 0 24 8.5t17 27.5q13 28 37 28q17 0 28 -9.5t11 -24.5q0 -10 -4 -19q-32 -82 -108 -82q-25 0 -43.5 8t-42.5 24q-18 13 -31 19t-27 6q-15 0 -24 -8t-17 -27
q-13 -29 -36 -29q-18 0 -29 9.5z" />
    <glyph glyph-name="uni0304" horiz-adv-x="0" 
d="M-173 579q0 20 11.5 28t35.5 8h252q24 0 35.5 -8t11.5 -28q0 -35 -47 -35h-252q-47 0 -47 35z" />
    <glyph glyph-name="uni0306" horiz-adv-x="0" 
d="M-131.5 587q-48.5 45 -48.5 118q0 25 13.5 38t38.5 13t38.5 -13t13.5 -38q0 -39 19.5 -60.5t56.5 -21.5t56.5 21.5t19.5 60.5q0 24 13.5 37.5t38.5 13.5t38.5 -13t13.5 -38q0 -73 -48.5 -118t-131.5 -45t-131.5 45z" />
    <glyph glyph-name="uni0307" horiz-adv-x="0" 
d="M-160.5 574.5q-20.5 19.5 -20.5 47.5t20.5 47.5t51.5 19.5q30 0 50.5 -19.5t20.5 -47.5t-20.5 -47.5t-50.5 -19.5q-31 0 -51.5 19.5z" />
    <glyph glyph-name="uni0308" horiz-adv-x="0" 
d="M-159 580q-18 18 -18 44t18 44.5t46 18.5q27 0 45 -18t18 -45q0 -25 -18 -43.5t-45 -18.5q-28 0 -46 18zM67.5 580q-18.5 18 -18.5 44t18 44.5t46 18.5t46 -18t18 -45q0 -25 -18.5 -43.5t-45.5 -18.5t-45.5 18z" />
    <glyph glyph-name="hookabovecomb" horiz-adv-x="0" 
d="M-195 533q-13 9 -13 25v6q0 17 10.5 30.5t29.5 28.5q15 13 21.5 20.5t6.5 16.5q0 12 -7.5 18.5t-21.5 6.5q-27 0 -47 -25q-11 -12 -26 -12q-13 0 -24 8q-16 10 -16 25q0 9 7 19q17 24 49 39.5t74 15.5q56 0 85 -23t29 -60q0 -21 -11.5 -36t-32.5 -32q-15 -13 -22 -21.5
t-7 -17.5v-7q0 -16 -13 -25t-36 -9q-22 0 -35 9z" />
    <glyph glyph-name="uni030A" horiz-adv-x="0" 
d="M-88.5 554q-33.5 30 -33.5 78t33.5 77.5t88.5 29.5t87.5 -30t32.5 -77q0 -48 -32.5 -78t-87.5 -30t-88.5 30zM36.5 597q13.5 13 13.5 35q0 23 -13.5 36t-36.5 13t-36.5 -13t-13.5 -36q0 -22 13.5 -35t36.5 -13t36.5 13z" />
    <glyph glyph-name="uni030C" horiz-adv-x="0" 
d="M-246 561l-105 127q-13 16 -13 32q0 19 19 34q14 11 28 11q21 0 40 -25l76 -104l76 104q19 25 41 25q14 0 27 -10q20 -15 20 -35q0 -16 -14 -33l-105 -126q-19 -21 -45 -21t-45 21z" />
    <glyph glyph-name="dotbelowcomb" horiz-adv-x="0" 
d="M-161.5 -182.5q-19.5 18.5 -19.5 47.5q0 31 19.5 49t52.5 18q32 0 51.5 -18t19.5 -49q0 -29 -19.5 -47.5t-51.5 -18.5q-33 0 -52.5 18.5z" />
    <glyph glyph-name="uni0326" horiz-adv-x="0" 
d="M-192 -293q0 15 19 32q35 34 43 67q-27 -2 -45.5 14.5t-18.5 43.5q0 32 21.5 50t55.5 18q37 0 58 -22.5t21 -62.5q0 -35 -23.5 -75t-61.5 -70q-23 -19 -41 -19q-11 0 -21 9q-7 7 -7 15z" />
    <glyph glyph-name="uni032E" horiz-adv-x="0" 
d="M-128 -233.5q-46 40.5 -46 108.5q0 24 13 37.5t36 13.5q25 0 35.5 -12.5t10.5 -38.5q0 -33 21 -53t58 -20t57.5 19.5t20.5 53.5q0 26 11 38.5t36 12.5q23 0 35.5 -13.5t12.5 -37.5q0 -68 -45.5 -108.5t-127.5 -40.5t-128 40.5z" />
    <glyph glyph-name="uni0331" horiz-adv-x="0" 
d="M-173 -121q0 20 11.5 28.5t35.5 8.5h252q24 0 35.5 -8.5t11.5 -28.5q0 -35 -47 -35h-252q-47 0 -47 35z" />
    <glyph glyph-name="uni03BC" horiz-adv-x="627" 
d="M73.5 -236q-15.5 14 -15.5 39v644q0 25 15.5 39t41.5 14t40.5 -14t14.5 -39v-236q0 -62 33 -96.5t92 -34.5q74 0 118 47t44 129v191q0 25 15 39t41 14t41 -14t15 -39v-404q0 -25 -14 -39t-40 -14t-40.5 14t-14.5 39v39q-72 -92 -178 -92q-32 0 -61.5 11t-50.5 31v-229
q0 -25 -14.5 -39t-40.5 -14t-41.5 14z" />
    <glyph glyph-name="uni1E0C" unicode="&#x1e0c;" horiz-adv-x="760" 
d="M103.5 37.5q-39.5 37.5 -39.5 104.5v419q0 65 38 102t106 37h140q112 0 193.5 -42.5t125.5 -121.5t44 -187t-43.5 -186.5t-125.5 -120.5t-194 -42h-134q-71 0 -110.5 37.5zM338 89q128 0 192.5 65.5t64.5 194.5t-65 195.5t-192 66.5h-114q-22 0 -34 -14t-12 -38v-418
q0 -24 12 -38t34 -14h114zM328.5 -182.5q-19.5 18.5 -19.5 47.5q0 31 19.5 49t52.5 18q32 0 51.5 -18t19.5 -49q0 -29 -19.5 -47.5t-51.5 -18.5q-33 0 -52.5 18.5z" />
    <glyph glyph-name="uni1E0D" unicode="&#x1e0d;" horiz-adv-x="666" 
d="M165.5 20.5q-60.5 30.5 -94 88t-33.5 135.5q0 77 32.5 135t93.5 89.5t144 31.5q65 0 110 -22t82 -64l1 292q0 25 15 39t41 14t41 -14t15 -39v-663q0 -25 -15 -39t-41 -14q-25 0 -40.5 14.5t-15.5 38.5v35q-69 -88 -196 -88q-79 0 -139.5 30.5zM453 124q48 44 48 121
t-49.5 121t-130.5 44q-80 0 -125 -44.5t-45 -121.5q0 -79 45 -121.5t125 -42.5q84 0 132 44zM265.5 -182.5q-19.5 18.5 -19.5 47.5q0 31 19.5 49t52.5 18q32 0 51.5 -18t19.5 -49q0 -29 -19.5 -47.5t-51.5 -18.5q-33 0 -52.5 18.5z" />
    <glyph glyph-name="uni1E0E" unicode="&#x1e0e;" horiz-adv-x="760" 
d="M103.5 37.5q-39.5 37.5 -39.5 104.5v419q0 65 38 102t106 37h140q112 0 193.5 -42.5t125.5 -121.5t44 -187t-43.5 -186.5t-125.5 -120.5t-194 -42h-134q-71 0 -110.5 37.5zM338 89q128 0 192.5 65.5t64.5 194.5t-65 195.5t-192 66.5h-114q-22 0 -34 -14t-12 -38v-418
q0 -24 12 -38t34 -14h114zM208 -121q0 20 11.5 28.5t35.5 8.5h252q24 0 35.5 -8.5t11.5 -28.5q0 -35 -47 -35h-252q-47 0 -47 35z" />
    <glyph glyph-name="uni1E0F" unicode="&#x1e0f;" horiz-adv-x="666" 
d="M165.5 20.5q-60.5 30.5 -94 88t-33.5 135.5q0 77 32.5 135t93.5 89.5t144 31.5q65 0 110 -22t82 -64l1 292q0 25 15 39t41 14t41 -14t15 -39v-663q0 -25 -15 -39t-41 -14q-25 0 -40.5 14.5t-15.5 38.5v35q-69 -88 -196 -88q-79 0 -139.5 30.5zM453 124q48 44 48 121
t-49.5 121t-130.5 44q-80 0 -125 -44.5t-45 -121.5q0 -79 45 -121.5t125 -42.5q84 0 132 44zM145 -121q0 20 11.5 28.5t35.5 8.5h252q24 0 35.5 -8.5t11.5 -28.5q0 -35 -47 -35h-252q-47 0 -47 35z" />
    <glyph glyph-name="uni1E20" unicode="&#x1e20;" horiz-adv-x="779" 
d="M217.5 33.5q-81.5 43.5 -125 124.5t-43.5 191t43.5 191.5t125 125.5t191.5 44q90 0 167 -31t116 -83q10 -14 10 -30q0 -23 -22 -39q-13 -8 -27 -8q-13 0 -25.5 6t-21.5 16q-33 39 -81.5 58.5t-115.5 19.5q-115 0 -180.5 -71.5t-65.5 -198.5q0 -126 65.5 -197t181.5 -71
q95 0 150.5 39t55.5 106v26q0 23 -9.5 32t-35.5 9h-138q-25 0 -38.5 11.5t-13.5 32.5q0 22 13.5 34t38.5 12h185q57 0 84.5 -25t27.5 -77v-39q0 -73 -41 -130t-114 -89.5t-165 -32.5q-111 0 -192.5 43.5zM229 814q0 20 11.5 28t35.5 8h252q24 0 35.5 -8t11.5 -28
q0 -35 -47 -35h-252q-47 0 -47 35z" />
    <glyph glyph-name="uni1E21" unicode="&#x1e21;" horiz-adv-x="665" 
d="M193 -228q-63 22 -99 62q-12 13 -12 30q0 23 21 38q13 10 28 10q23 0 48 -24q24 -24 62 -37.5t84 -13.5q85 0 131 47t45 132l-1 58q-71 -86 -200 -86q-124 0 -193 68t-69 186q0 119 70.5 188.5t198.5 69.5q56 0 106 -23t88 -65v35q0 24 15.5 38.5t40.5 14.5t40 -14
t15 -39v-431q0 -78 -34 -138.5t-97.5 -94t-148.5 -33.5q-76 0 -139 22zM450 122q50 43 50 122q0 76 -47 121t-131 45q-81 0 -126 -44t-45 -124q0 -77 44 -120t125 -43q80 0 130 43zM134 604q0 20 11.5 28t35.5 8h252q24 0 35.5 -8t11.5 -28q0 -35 -47 -35h-252q-47 0 -47 35
z" />
    <glyph glyph-name="uni1E24" unicode="&#x1e24;" horiz-adv-x="740" 
d="M79 4q-15 14 -15 39v614q0 25 15 39t41 14t41.5 -14.5t15.5 -38.5v-253h386v253q0 24 15.5 38.5t41.5 14.5t41.5 -14t15.5 -39v-614q0 -25 -15.5 -39t-41.5 -14t-41.5 14.5t-15.5 38.5v272h-386v-272q0 -24 -15.5 -38.5t-41.5 -14.5t-41 14zM329.5 -182.5
q-19.5 18.5 -19.5 47.5q0 31 19.5 49t52.5 18q32 0 51.5 -18t19.5 -49q0 -29 -19.5 -47.5t-51.5 -18.5q-33 0 -52.5 18.5z" />
    <glyph glyph-name="uni1E25" unicode="&#x1e25;" horiz-adv-x="614" 
d="M69 4q-15 14 -15 39v663q0 25 15 39t41 14t41 -14t15 -39v-298q73 92 195 92q95 0 149.5 -58t54.5 -160v-239q0 -25 -15.5 -39t-41.5 -14t-40.5 14t-14.5 39v239q0 62 -30 95t-85 33q-80 0 -126 -47.5t-46 -128.5v-191q0 -24 -15.5 -38.5t-40.5 -14.5q-26 0 -41 14z
M263.5 -182.5q-19.5 18.5 -19.5 47.5q0 31 19.5 49t52.5 18q32 0 51.5 -18t19.5 -49q0 -29 -19.5 -47.5t-51.5 -18.5q-33 0 -52.5 18.5z" />
    <glyph glyph-name="uni1E2A" unicode="&#x1e2a;" horiz-adv-x="740" 
d="M79 4q-15 14 -15 39v614q0 25 15 39t41 14t41.5 -14.5t15.5 -38.5v-253h386v253q0 24 15.5 38.5t41.5 14.5t41.5 -14t15.5 -39v-614q0 -25 -15.5 -39t-41.5 -14t-41.5 14.5t-15.5 38.5v272h-386v-272q0 -24 -15.5 -38.5t-41.5 -14.5t-41 14zM255 -233.5
q-46 40.5 -46 108.5q0 24 13 37.5t36 13.5q25 0 35.5 -12.5t10.5 -38.5q0 -33 21 -53t58 -20t57.5 19.5t20.5 53.5q0 26 11 38.5t36 12.5q23 0 35.5 -13.5t12.5 -37.5q0 -68 -45.5 -108.5t-127.5 -40.5t-128 40.5z" />
    <glyph glyph-name="uni1E2B" unicode="&#x1e2b;" horiz-adv-x="614" 
d="M69 4q-15 14 -15 39v663q0 25 15 39t41 14t41 -14t15 -39v-298q73 92 195 92q95 0 149.5 -58t54.5 -160v-239q0 -25 -15.5 -39t-41.5 -14t-40.5 14t-14.5 39v239q0 62 -30 95t-85 33q-80 0 -126 -47.5t-46 -128.5v-191q0 -24 -15.5 -38.5t-40.5 -14.5q-26 0 -41 14z
M189 -233.5q-46 40.5 -46 108.5q0 24 13 37.5t36 13.5q25 0 35.5 -12.5t10.5 -38.5q0 -33 21 -53t58 -20t57.5 19.5t20.5 53.5q0 26 11 38.5t36 12.5q23 0 35.5 -13.5t12.5 -37.5q0 -68 -45.5 -108.5t-127.5 -40.5t-128 40.5z" />
    <glyph glyph-name="uni1E36" unicode="&#x1e36;" horiz-adv-x="636" 
d="M104.5 37.5q-39.5 37.5 -39.5 104.5v515q0 25 15 39t41 14t41.5 -14.5t15.5 -38.5v-516q0 -24 12.5 -38t34.5 -14h324q54 0 54 -45q0 -21 -14 -32.5t-40 -11.5h-335q-70 0 -109.5 37.5zM257.5 -182.5q-19.5 18.5 -19.5 47.5q0 31 19.5 49t52.5 18q32 0 51.5 -18t19.5 -49
q0 -29 -19.5 -47.5t-51.5 -18.5q-33 0 -52.5 18.5z" />
    <glyph glyph-name="uni1E37" unicode="&#x1e37;" horiz-adv-x="260" 
d="M89 4q-15 14 -15 39v663q0 25 15 39t41 14t41 -14t15 -39v-663q0 -24 -15.5 -38.5t-40.5 -14.5q-26 0 -41 14zM78.5 -182.5q-19.5 18.5 -19.5 47.5q0 31 19.5 49t52.5 18q32 0 51.5 -18t19.5 -49q0 -29 -19.5 -47.5t-51.5 -18.5q-33 0 -52.5 18.5z" />
    <glyph glyph-name="uni1E38" unicode="&#x1e38;" horiz-adv-x="624" 
d="M104.5 37.5q-39.5 37.5 -39.5 104.5v515q0 25 15 39t41 14t41.5 -14.5t15.5 -38.5v-516q0 -24 12.5 -38t34.5 -14h324q54 0 54 -45q0 -21 -14 -32.5t-40 -11.5h-335q-70 0 -109.5 37.5zM257.5 -182.5q-19.5 18.5 -19.5 47.5q0 31 19.5 49t52.5 18q32 0 51.5 -18t19.5 -49
q0 -29 -19.5 -47.5t-51.5 -18.5q-33 0 -52.5 18.5zM-48 814q0 20 11.5 28t35.5 8h252q24 0 35.5 -8t11.5 -28q0 -35 -47 -35h-252q-47 0 -47 35z" />
    <glyph glyph-name="uni1E39" unicode="&#x1e39;" horiz-adv-x="260" 
d="M89 4q-15 14 -15 39v663q0 25 15 39t41 14t41 -14t15 -39v-663q0 -24 -15.5 -38.5t-40.5 -14.5q-26 0 -41 14zM78.5 -182.5q-19.5 18.5 -19.5 47.5q0 31 19.5 49t52.5 18q32 0 51.5 -18t19.5 -49q0 -29 -19.5 -47.5t-51.5 -18.5q-33 0 -52.5 18.5zM-44 863q0 20 11.5 28
t35.5 8h252q24 0 35.5 -8t11.5 -28q0 -35 -47 -35h-252q-47 0 -47 35z" />
    <glyph glyph-name="uni1E3A" unicode="&#x1e3a;" horiz-adv-x="636" 
d="M104.5 37.5q-39.5 37.5 -39.5 104.5v515q0 25 15 39t41 14t41.5 -14.5t15.5 -38.5v-516q0 -24 12.5 -38t34.5 -14h324q54 0 54 -45q0 -21 -14 -32.5t-40 -11.5h-335q-70 0 -109.5 37.5zM137 -121q0 20 11.5 28.5t35.5 8.5h252q24 0 35.5 -8.5t11.5 -28.5q0 -35 -47 -35
h-252q-47 0 -47 35z" />
    <glyph glyph-name="uni1E3B" unicode="&#x1e3b;" horiz-adv-x="260" 
d="M89 4q-15 14 -15 39v663q0 25 15 39t41 14t41 -14t15 -39v-663q0 -24 -15.5 -38.5t-40.5 -14.5q-26 0 -41 14zM-42 -121q0 20 11.5 28.5t35.5 8.5h252q24 0 35.5 -8.5t11.5 -28.5q0 -35 -47 -35h-252q-47 0 -47 35z" />
    <glyph glyph-name="uni1E42" unicode="&#x1e42;" horiz-adv-x="987" 
d="M77.5 4q-15.5 14 -15.5 39v426q0 113 64.5 177t176.5 64q57 0 107.5 -29t82.5 -80q32 52 82 80.5t110 28.5q113 0 176.5 -64t63.5 -177v-426q0 -24 -15.5 -38.5t-41.5 -14.5t-41.5 14t-15.5 39v426q0 77 -30.5 113t-99.5 36q-63 0 -97 -39t-34 -110v-426q0 -25 -15.5 -39
t-41.5 -14t-40.5 14t-14.5 39v426q0 70 -35 109.5t-96 39.5q-70 0 -100.5 -36t-30.5 -113v-426q0 -24 -15.5 -38.5t-41.5 -14.5t-41.5 14zM446.5 -182.5q-19.5 18.5 -19.5 47.5q0 31 19.5 49t52.5 18q32 0 51.5 -18t19.5 -49q0 -29 -19.5 -47.5t-51.5 -18.5
q-33 0 -52.5 18.5z" />
    <glyph glyph-name="uni1E43" unicode="&#x1e43;" horiz-adv-x="815" 
d="M68.5 4q-14.5 14 -14.5 39v404q0 25 14.5 39t40.5 14t41 -14.5t15 -38.5v-35q25 42 62.5 65t80.5 23q44 0 78.5 -23.5t51.5 -64.5q70 88 162 88q80 0 123.5 -53.5t43.5 -151.5v-252q0 -25 -15.5 -39t-41.5 -14t-40.5 14t-14.5 39v258q0 109 -78 109q-67 0 -106 -79v-288
q0 -25 -15 -39t-41 -14t-41 14t-15 39v239q0 128 -77 128q-53 0 -85 -41.5t-32 -111.5v-214q0 -24 -15 -38.5t-41 -14.5t-40.5 14zM369.5 -182.5q-19.5 18.5 -19.5 47.5q0 31 19.5 49t52.5 18q32 0 51.5 -18t19.5 -49q0 -29 -19.5 -47.5t-51.5 -18.5q-33 0 -52.5 18.5z" />
    <glyph glyph-name="uni1E44" unicode="&#x1e44;" 
d="M74 4q-15 14 -15 39v388q0 131 81.5 205t224.5 74q94 0 163 -33.5t105.5 -96.5t36.5 -149v-388q0 -25 -15 -39t-41 -14t-41.5 14.5t-15.5 38.5v391q0 89 -50 137t-142 48t-142.5 -48.5t-50.5 -136.5v-391q0 -24 -15.5 -38.5t-41.5 -14.5t-41 14zM315.5 804.5
q-20.5 19.5 -20.5 47.5t20.5 47.5t51.5 19.5q30 0 50.5 -19.5t20.5 -47.5t-20.5 -47.5t-50.5 -19.5q-31 0 -51.5 19.5z" />
    <glyph glyph-name="uni1E45" unicode="&#x1e45;" horiz-adv-x="614" 
d="M69 4q-15 14 -15 39v404q0 25 14.5 39t39.5 14q26 0 40.5 -14t14.5 -39v-39q74 92 198 92q95 0 149.5 -58t54.5 -160v-239q0 -25 -15.5 -39t-41.5 -14t-40.5 14t-14.5 39v239q0 62 -30 95t-85 33q-80 0 -126 -47.5t-46 -128.5v-191q0 -24 -15.5 -38.5t-40.5 -14.5
q-26 0 -41 14zM258.5 594.5q-20.5 19.5 -20.5 47.5t20.5 47.5t51.5 19.5q30 0 50.5 -19.5t20.5 -47.5t-20.5 -47.5t-50.5 -19.5q-31 0 -51.5 19.5z" />
    <glyph glyph-name="uni1E46" unicode="&#x1e46;" 
d="M74 4q-15 14 -15 39v388q0 131 81.5 205t224.5 74q94 0 163 -33.5t105.5 -96.5t36.5 -149v-388q0 -25 -15 -39t-41 -14t-41.5 14.5t-15.5 38.5v391q0 89 -50 137t-142 48t-142.5 -48.5t-50.5 -136.5v-391q0 -24 -15.5 -38.5t-41.5 -14.5t-41 14zM314.5 -182.5
q-19.5 18.5 -19.5 47.5q0 31 19.5 49t52.5 18q32 0 51.5 -18t19.5 -49q0 -29 -19.5 -47.5t-51.5 -18.5q-33 0 -52.5 18.5z" />
    <glyph glyph-name="uni1E47" unicode="&#x1e47;" horiz-adv-x="614" 
d="M69 4q-15 14 -15 39v404q0 25 14.5 39t39.5 14q26 0 40.5 -14t14.5 -39v-39q74 92 198 92q95 0 149.5 -58t54.5 -160v-239q0 -25 -15.5 -39t-41.5 -14t-40.5 14t-14.5 39v239q0 62 -30 95t-85 33q-80 0 -126 -47.5t-46 -128.5v-191q0 -24 -15.5 -38.5t-40.5 -14.5
q-26 0 -41 14zM257.5 -182.5q-19.5 18.5 -19.5 47.5q0 31 19.5 49t52.5 18q32 0 51.5 -18t19.5 -49q0 -29 -19.5 -47.5t-51.5 -18.5q-33 0 -52.5 18.5z" />
    <glyph glyph-name="uni1E48" unicode="&#x1e48;" 
d="M74 4q-15 14 -15 39v388q0 131 81.5 205t224.5 74q94 0 163 -33.5t105.5 -96.5t36.5 -149v-388q0 -25 -15 -39t-41 -14t-41.5 14.5t-15.5 38.5v391q0 89 -50 137t-142 48t-142.5 -48.5t-50.5 -136.5v-391q0 -24 -15.5 -38.5t-41.5 -14.5t-41 14zM194 -121q0 20 11.5 28.5
t35.5 8.5h252q24 0 35.5 -8.5t11.5 -28.5q0 -35 -47 -35h-252q-47 0 -47 35z" />
    <glyph glyph-name="uni1E49" unicode="&#x1e49;" horiz-adv-x="614" 
d="M69 4q-15 14 -15 39v404q0 25 14.5 39t39.5 14q26 0 40.5 -14t14.5 -39v-39q74 92 198 92q95 0 149.5 -58t54.5 -160v-239q0 -25 -15.5 -39t-41.5 -14t-40.5 14t-14.5 39v239q0 62 -30 95t-85 33q-80 0 -126 -47.5t-46 -128.5v-191q0 -24 -15.5 -38.5t-40.5 -14.5
q-26 0 -41 14zM137 -121q0 20 11.5 28.5t35.5 8.5h252q24 0 35.5 -8.5t11.5 -28.5q0 -35 -47 -35h-252q-47 0 -47 35z" />
    <glyph glyph-name="uni1E5A" unicode="&#x1e5a;" horiz-adv-x="728" 
d="M63 560q0 65 38 102.5t107 37.5h181q145 0 218.5 -58t73.5 -171q0 -107 -65 -166t-180 -59l166 -168q16 -16 16 -35q0 -21 -20 -38q-19 -14 -37 -14q-25 0 -48 24l-220 228h-113v-199q0 -25 -16.5 -39.5t-42.5 -14.5q-27 0 -42.5 14.5t-15.5 39.5v516zM388 335
q96 0 135.5 30.5t39.5 105.5q0 73 -43 105t-132 32h-163q-21 0 -33 -13.5t-12 -37.5v-222h208zM288.5 -182.5q-19.5 18.5 -19.5 47.5q0 31 19.5 49t52.5 18q32 0 51.5 -18t19.5 -49q0 -29 -19.5 -47.5t-51.5 -18.5q-33 0 -52.5 18.5z" />
    <glyph glyph-name="uni1E5B" unicode="&#x1e5b;" horiz-adv-x="440" 
d="M69 4q-15 14 -15 39v404q0 25 14.5 39t39.5 14q26 0 40.5 -14t14.5 -39v-42q65 85 171 85h23q27 0 42.5 -12t15.5 -33q0 -22 -15.5 -33.5t-42.5 -11.5h-32q-73 0 -116 -44.5t-43 -121.5v-191q0 -24 -15.5 -38.5t-40.5 -14.5q-26 0 -41 14zM57.5 -182.5
q-19.5 18.5 -19.5 47.5q0 31 19.5 49t52.5 18q32 0 51.5 -18t19.5 -49q0 -29 -19.5 -47.5t-51.5 -18.5q-33 0 -52.5 18.5z" />
    <glyph glyph-name="uni1E5C" unicode="&#x1e5c;" horiz-adv-x="728" 
d="M63 560q0 65 38 102.5t107 37.5h181q145 0 218.5 -58t73.5 -171q0 -107 -65 -166t-180 -59l166 -168q16 -16 16 -35q0 -21 -20 -38q-19 -14 -37 -14q-25 0 -48 24l-220 228h-113v-199q0 -25 -16.5 -39.5t-42.5 -14.5q-27 0 -42.5 14.5t-15.5 39.5v516zM388 335
q96 0 135.5 30.5t39.5 105.5q0 73 -43 105t-132 32h-163q-21 0 -33 -13.5t-12 -37.5v-222h208zM288.5 -182.5q-19.5 18.5 -19.5 47.5q0 31 19.5 49t52.5 18q32 0 51.5 -18t19.5 -49q0 -29 -19.5 -47.5t-51.5 -18.5q-33 0 -52.5 18.5zM171 814q0 20 11.5 28t35.5 8h252
q24 0 35.5 -8t11.5 -28q0 -35 -47 -35h-252q-47 0 -47 35z" />
    <glyph glyph-name="uni1E5D" unicode="&#x1e5d;" horiz-adv-x="440" 
d="M69 4q-15 14 -15 39v404q0 25 14.5 39t39.5 14q26 0 40.5 -14t14.5 -39v-42q65 85 171 85h23q27 0 42.5 -12t15.5 -33q0 -22 -15.5 -33.5t-42.5 -11.5h-32q-73 0 -116 -44.5t-43 -121.5v-191q0 -24 -15.5 -38.5t-40.5 -14.5q-26 0 -41 14zM57.5 -182.5
q-19.5 18.5 -19.5 47.5q0 31 19.5 49t52.5 18q32 0 51.5 -18t19.5 -49q0 -29 -19.5 -47.5t-51.5 -18.5q-33 0 -52.5 18.5zM59 604q0 20 11.5 28t35.5 8h252q24 0 35.5 -8t11.5 -28q0 -35 -47 -35h-252q-47 0 -47 35z" />
    <glyph glyph-name="uni1E5E" unicode="&#x1e5e;" horiz-adv-x="728" 
d="M63 560q0 65 38 102.5t107 37.5h181q145 0 218.5 -58t73.5 -171q0 -107 -65 -166t-180 -59l166 -168q16 -16 16 -35q0 -21 -20 -38q-19 -14 -37 -14q-25 0 -48 24l-220 228h-113v-199q0 -25 -16.5 -39.5t-42.5 -14.5q-27 0 -42.5 14.5t-15.5 39.5v516zM388 335
q96 0 135.5 30.5t39.5 105.5q0 73 -43 105t-132 32h-163q-21 0 -33 -13.5t-12 -37.5v-222h208zM168 -121q0 20 11.5 28.5t35.5 8.5h252q24 0 35.5 -8.5t11.5 -28.5q0 -35 -47 -35h-252q-47 0 -47 35z" />
    <glyph glyph-name="uni1E5F" unicode="&#x1e5f;" horiz-adv-x="437" 
d="M69 4q-15 14 -15 39v404q0 25 14.5 39t39.5 14q26 0 40.5 -14t14.5 -39v-42q65 85 171 85h23q27 0 42.5 -12t15.5 -33q0 -22 -15.5 -33.5t-42.5 -11.5h-32q-73 0 -116 -44.5t-43 -121.5v-191q0 -24 -15.5 -38.5t-40.5 -14.5q-26 0 -41 14zM-63 -121q0 20 11.5 28.5
t35.5 8.5h252q24 0 35.5 -8.5t11.5 -28.5q0 -35 -47 -35h-252q-47 0 -47 35z" />
    <glyph glyph-name="uni1E60" unicode="&#x1e60;" horiz-adv-x="703" 
d="M203.5 23q-84.5 33 -141.5 92q-13 12 -13 29q0 21 18 37q13 13 29 13q21 0 43 -21q45 -44 108.5 -67.5t136.5 -23.5q74 0 114.5 26t40.5 73q0 46 -42 74.5t-143 50.5q-149 32 -216 84.5t-67 135.5q0 54 34.5 96t97 65t144.5 23q92 0 165.5 -31t108.5 -86q10 -16 10 -31
q0 -22 -22 -37q-13 -8 -26 -8q-12 0 -24 6t-20 16q-29 38 -79.5 58.5t-112.5 20.5q-78 0 -119.5 -23.5t-41.5 -68.5q0 -42 40 -68.5t141 -49.5q153 -36 220 -89t67 -138q0 -57 -33.5 -100.5t-94.5 -67t-142 -23.5q-96 0 -180.5 33zM300.5 804.5q-20.5 19.5 -20.5 47.5
t20.5 47.5t51.5 19.5q30 0 50.5 -19.5t20.5 -47.5t-20.5 -47.5t-50.5 -19.5q-31 0 -51.5 19.5z" />
    <glyph glyph-name="uni1E61" unicode="&#x1e61;" horiz-adv-x="536" 
d="M146.5 15.5q-58.5 25.5 -94.5 69.5q-12 17 -12 32q0 24 23 38q14 8 26 8q19 0 38 -19q34 -34 69.5 -49.5t85.5 -15.5q46 0 75 13t29 35q0 17 -10.5 28.5t-36.5 22.5t-81 29q-106 34 -149.5 69.5t-43.5 90.5q0 62 53 97.5t144 35.5q69 0 126 -22t84 -58q11 -14 11 -30
q0 -20 -21 -34q-13 -9 -30 -9q-23 0 -46 21q-45 43 -125 43q-83 0 -83 -44q0 -17 11 -28t38.5 -21.5t89.5 -30.5q68 -21 107 -43t56 -49.5t17 -67.5q0 -62 -56 -99.5t-154 -37.5q-82 0 -140.5 25.5zM219.5 594.5q-20.5 19.5 -20.5 47.5t20.5 47.5t51.5 19.5q30 0 50.5 -19.5
t20.5 -47.5t-20.5 -47.5t-50.5 -19.5q-31 0 -51.5 19.5z" />
    <glyph glyph-name="uni1E62" unicode="&#x1e62;" horiz-adv-x="703" 
d="M203.5 23q-84.5 33 -141.5 92q-13 12 -13 29q0 21 18 37q13 13 29 13q21 0 43 -21q45 -44 108.5 -67.5t136.5 -23.5q74 0 114.5 26t40.5 73q0 46 -42 74.5t-143 50.5q-149 32 -216 84.5t-67 135.5q0 54 34.5 96t97 65t144.5 23q92 0 165.5 -31t108.5 -86q10 -16 10 -31
q0 -22 -22 -37q-13 -8 -26 -8q-12 0 -24 6t-20 16q-29 38 -79.5 58.5t-112.5 20.5q-78 0 -119.5 -23.5t-41.5 -68.5q0 -42 40 -68.5t141 -49.5q153 -36 220 -89t67 -138q0 -57 -33.5 -100.5t-94.5 -67t-142 -23.5q-96 0 -180.5 33zM325.5 -182.5q-19.5 18.5 -19.5 47.5
q0 31 19.5 49t52.5 18q32 0 51.5 -18t19.5 -49q0 -29 -19.5 -47.5t-51.5 -18.5q-33 0 -52.5 18.5z" />
    <glyph glyph-name="uni1E63" unicode="&#x1e63;" horiz-adv-x="536" 
d="M146.5 15.5q-58.5 25.5 -94.5 69.5q-12 17 -12 32q0 24 23 38q14 8 26 8q19 0 38 -19q34 -34 69.5 -49.5t85.5 -15.5q46 0 75 13t29 35q0 17 -10.5 28.5t-36.5 22.5t-81 29q-106 34 -149.5 69.5t-43.5 90.5q0 62 53 97.5t144 35.5q69 0 126 -22t84 -58q11 -14 11 -30
q0 -20 -21 -34q-13 -9 -30 -9q-23 0 -46 21q-45 43 -125 43q-83 0 -83 -44q0 -17 11 -28t38.5 -21.5t89.5 -30.5q68 -21 107 -43t56 -49.5t17 -67.5q0 -62 -56 -99.5t-154 -37.5q-82 0 -140.5 25.5zM237.5 -182.5q-19.5 18.5 -19.5 47.5q0 31 19.5 49t52.5 18q32 0 51.5 -18
t19.5 -49q0 -29 -19.5 -47.5t-51.5 -18.5q-33 0 -52.5 18.5z" />
    <glyph glyph-name="uni1E6C" unicode="&#x1e6c;" horiz-adv-x="696" 
d="M306.5 4q-15.5 14 -15.5 39v568h-205q-26 0 -40 11.5t-14 32.5q0 22 14 33.5t40 11.5h524q26 0 40.5 -11.5t14.5 -33.5q0 -21 -14.5 -32.5t-40.5 -11.5h-205v-568q0 -24 -15.5 -38.5t-41.5 -14.5t-41.5 14zM296.5 -182.5q-19.5 18.5 -19.5 47.5q0 31 19.5 49t52.5 18
q32 0 51.5 -18t19.5 -49q0 -29 -19.5 -47.5t-51.5 -18.5q-33 0 -52.5 18.5z" />
    <glyph glyph-name="uni1E6D" unicode="&#x1e6d;" horiz-adv-x="481" 
d="M452 91q0 -17 -13 -34q-21 -31 -60 -49t-86 -18q-75 0 -118 42t-43 115v254h-45q-27 0 -42.5 12t-15.5 32q0 21 15.5 33t42.5 12h45v158q0 25 15 39t41 14t41 -14t15 -39v-158h109q26 0 41.5 -12t15.5 -33q0 -20 -15 -32t-42 -12h-109v-263q0 -27 15 -42.5t42 -15.5
q37 0 66 29q23 21 42 21q16 0 28 -11q15 -12 15 -28zM233.5 -182.5q-19.5 18.5 -19.5 47.5q0 31 19.5 49t52.5 18q32 0 51.5 -18t19.5 -49q0 -29 -19.5 -47.5t-51.5 -18.5q-33 0 -52.5 18.5z" />
    <glyph glyph-name="uni1E6E" unicode="&#x1e6e;" horiz-adv-x="696" 
d="M306.5 4q-15.5 14 -15.5 39v568h-205q-26 0 -40 11.5t-14 32.5q0 22 14 33.5t40 11.5h524q26 0 40.5 -11.5t14.5 -33.5q0 -21 -14.5 -32.5t-40.5 -11.5h-205v-568q0 -24 -15.5 -38.5t-41.5 -14.5t-41.5 14zM176 -121q0 20 11.5 28.5t35.5 8.5h252q24 0 35.5 -8.5
t11.5 -28.5q0 -35 -47 -35h-252q-47 0 -47 35z" />
    <glyph glyph-name="uni1E6F" unicode="&#x1e6f;" horiz-adv-x="481" 
d="M452 91q0 -17 -13 -34q-21 -31 -60 -49t-86 -18q-75 0 -118 42t-43 115v254h-45q-27 0 -42.5 12t-15.5 32q0 21 15.5 33t42.5 12h45v158q0 25 15 39t41 14t41 -14t15 -39v-158h109q26 0 41.5 -12t15.5 -33q0 -20 -15 -32t-42 -12h-109v-263q0 -27 15 -42.5t42 -15.5
q37 0 66 29q23 21 42 21q16 0 28 -11q15 -12 15 -28zM113 -121q0 20 11.5 28.5t35.5 8.5h252q24 0 35.5 -8.5t11.5 -28.5q0 -35 -47 -35h-252q-47 0 -47 35z" />
    <glyph glyph-name="Wgrave" unicode="&#x1e80;" horiz-adv-x="962" 
d="M197 22.5q-31 32.5 -44 101.5l-102 526q-2 12 -2 16q0 21 13.5 32.5t38.5 11.5q27 0 41.5 -11.5t19.5 -35.5l99 -547q4 -20 8.5 -27.5t13.5 -7.5q18 0 22 34l68 491q7 49 35.5 76.5t72.5 27.5q45 0 73 -27.5t35 -76.5l69 -491q2 -18 7 -26t15 -8q8 0 12.5 7.5t9.5 27.5
l98 547q5 24 19.5 35.5t41.5 11.5q25 0 39 -11.5t14 -32.5q0 -4 -2 -16l-103 -526q-13 -68 -43.5 -101t-82.5 -33t-81 32t-38 99l-66 467q-2 17 -6 24t-11 7t-11 -7t-6 -24l-65 -467q-10 -67 -38.5 -99t-80.5 -32t-83 32.5zM471.5 779q-10.5 6 -16.5 16l-80 139q-8 13 -8 25
q0 24 32 41q14 7 28 7q30 0 45 -36l58 -145q3 -7 3 -15q0 -15 -10.5 -26.5t-29.5 -11.5q-11 0 -21.5 6z" />
    <glyph glyph-name="wgrave" unicode="&#x1e81;" horiz-adv-x="822" 
d="M158.5 20q-32.5 30 -45.5 88l-72 334q-1 4 -1 12q0 21 15 33.5t41 12.5q58 0 65 -45l60 -349q5 -26 20 -26q16 0 20 25l43 297q7 46 35.5 72t71.5 26t71.5 -26t35.5 -72l43 -297q4 -25 21 -25q14 0 19 26l60 349q8 45 65 45q27 0 41.5 -12t14.5 -33q0 -9 -1 -13l-72 -334
q-13 -58 -45.5 -88t-81.5 -30q-50 0 -78.5 30.5t-37.5 93.5l-39 274q-2 12 -5.5 17t-10.5 5t-10.5 -5t-5.5 -17l-39 -274q-9 -63 -37.5 -93.5t-77.5 -30.5q-50 0 -82.5 30zM401.5 569q-10.5 6 -16.5 16l-80 139q-8 13 -8 25q0 24 32 41q14 7 28 7q30 0 45 -36l58 -145
q3 -7 3 -15q0 -15 -10.5 -26.5t-29.5 -11.5q-11 0 -21.5 6z" />
    <glyph glyph-name="Wacute" unicode="&#x1e82;" horiz-adv-x="962" 
d="M197 22.5q-31 32.5 -44 101.5l-102 526q-2 12 -2 16q0 21 13.5 32.5t38.5 11.5q27 0 41.5 -11.5t19.5 -35.5l99 -547q4 -20 8.5 -27.5t13.5 -7.5q18 0 22 34l68 491q7 49 35.5 76.5t72.5 27.5q45 0 73 -27.5t35 -76.5l69 -491q2 -18 7 -26t15 -8q8 0 12.5 7.5t9.5 27.5
l98 547q5 24 19.5 35.5t41.5 11.5q25 0 39 -11.5t14 -32.5q0 -4 -2 -16l-103 -526q-13 -68 -43.5 -101t-82.5 -33t-81 32t-38 99l-66 467q-2 17 -6 24t-11 7t-11 -7t-6 -24l-65 -467q-10 -67 -38.5 -99t-80.5 -32t-83 32.5zM454.5 792q-5.5 9 -5.5 19q0 8 3 15l59 145
q15 36 44 36q14 0 28 -7q32 -17 32 -41q0 -11 -8 -25l-80 -139q-6 -10 -16.5 -16t-21.5 -6q-9 0 -19 5t-15.5 14z" />
    <glyph glyph-name="wacute" unicode="&#x1e83;" horiz-adv-x="822" 
d="M158.5 20q-32.5 30 -45.5 88l-72 334q-1 4 -1 12q0 21 15 33.5t41 12.5q58 0 65 -45l60 -349q5 -26 20 -26q16 0 20 25l43 297q7 46 35.5 72t71.5 26t71.5 -26t35.5 -72l43 -297q4 -25 21 -25q14 0 19 26l60 349q8 45 65 45q27 0 41.5 -12t14.5 -33q0 -9 -1 -13l-72 -334
q-13 -58 -45.5 -88t-81.5 -30q-50 0 -78.5 30.5t-37.5 93.5l-39 274q-2 12 -5.5 17t-10.5 5t-10.5 -5t-5.5 -17l-39 -274q-9 -63 -37.5 -93.5t-77.5 -30.5q-50 0 -82.5 30zM384.5 582q-5.5 9 -5.5 19q0 8 3 15l59 145q15 36 44 36q14 0 28 -7q32 -17 32 -41q0 -11 -8 -25
l-80 -139q-6 -10 -16.5 -16t-21.5 -6q-9 0 -19 5t-15.5 14z" />
    <glyph glyph-name="Wdieresis" unicode="&#x1e84;" horiz-adv-x="962" 
d="M197 22.5q-31 32.5 -44 101.5l-102 526q-2 12 -2 16q0 21 13.5 32.5t38.5 11.5q27 0 41.5 -11.5t19.5 -35.5l99 -547q4 -20 8.5 -27.5t13.5 -7.5q18 0 22 34l68 491q7 49 35.5 76.5t72.5 27.5q45 0 73 -27.5t35 -76.5l69 -491q2 -18 7 -26t15 -8q8 0 12.5 7.5t9.5 27.5
l98 547q5 24 19.5 35.5t41.5 11.5q25 0 39 -11.5t14 -32.5q0 -4 -2 -16l-103 -526q-13 -68 -43.5 -101t-82.5 -33t-81 32t-38 99l-66 467q-2 17 -6 24t-11 7t-11 -7t-6 -24l-65 -467q-10 -67 -38.5 -99t-80.5 -32t-83 32.5zM323.5 810q-18.5 18 -18.5 44t18 44.5t46 18.5
q27 0 45 -18t18 -45q0 -25 -18 -43.5t-45 -18.5t-45.5 18zM549.5 810q-18.5 18 -18.5 44t18 44.5t46 18.5t46 -18t18 -45q0 -25 -18.5 -43.5t-45.5 -18.5t-45.5 18z" />
    <glyph glyph-name="wdieresis" unicode="&#x1e85;" horiz-adv-x="822" 
d="M158.5 20q-32.5 30 -45.5 88l-72 334q-1 4 -1 12q0 21 15 33.5t41 12.5q58 0 65 -45l60 -349q5 -26 20 -26q16 0 20 25l43 297q7 46 35.5 72t71.5 26t71.5 -26t35.5 -72l43 -297q4 -25 21 -25q14 0 19 26l60 349q8 45 65 45q27 0 41.5 -12t14.5 -33q0 -9 -1 -13l-72 -334
q-13 -58 -45.5 -88t-81.5 -30q-50 0 -78.5 30.5t-37.5 93.5l-39 274q-2 12 -5.5 17t-10.5 5t-10.5 -5t-5.5 -17l-39 -274q-9 -63 -37.5 -93.5t-77.5 -30.5q-50 0 -82.5 30zM253.5 600q-18.5 18 -18.5 44t18 44.5t46 18.5q27 0 45 -18t18 -45q0 -25 -18 -43.5t-45 -18.5
t-45.5 18zM479.5 600q-18.5 18 -18.5 44t18 44.5t46 18.5t46 -18t18 -45q0 -25 -18.5 -43.5t-45.5 -18.5t-45.5 18z" />
    <glyph glyph-name="uni1E8E" unicode="&#x1e8e;" horiz-adv-x="721" 
d="M657 696q15 -14 15 -39v-112q0 -132 -67.5 -216t-186.5 -101v-185q0 -24 -15.5 -38.5t-41.5 -14.5t-41.5 14t-15.5 39v185q-120 17 -187.5 100t-67.5 217v112q0 25 15.5 39t41.5 14t41.5 -14.5t15.5 -38.5v-115q0 -109 51.5 -168t146.5 -59q94 0 145.5 59.5t51.5 167.5
v115q0 24 16 38.5t42 14.5t41 -14zM309.5 804.5q-20.5 19.5 -20.5 47.5t20.5 47.5t51.5 19.5q30 0 50.5 -19.5t20.5 -47.5t-20.5 -47.5t-50.5 -19.5q-31 0 -51.5 19.5z" />
    <glyph glyph-name="uni1E8F" unicode="&#x1e8f;" horiz-adv-x="613" 
d="M161.5 -227.5q-59.5 22.5 -89.5 61.5q-11 16 -11 30q0 22 21 39q13 9 28 9q25 0 45 -23q22 -24 57.5 -37t78.5 -13q77 0 119 43t42 122v51q-26 -29 -67 -46t-84 -17q-124 0 -193.5 67.5t-69.5 188.5v202q0 21 16 35.5t41 14.5q23 0 39 -14.5t16 -35.5v-202
q0 -80 40 -124.5t111 -44.5q69 0 107.5 43.5t38.5 122.5v195q0 28 15 44t42 16t42 -16t15 -44v-423q0 -124 -71.5 -195.5t-195.5 -71.5q-73 0 -132.5 22.5zM242.5 594.5q-20.5 19.5 -20.5 47.5t20.5 47.5t51.5 19.5q30 0 50.5 -19.5t20.5 -47.5t-20.5 -47.5t-50.5 -19.5
q-31 0 -51.5 19.5z" />
    <glyph glyph-name="uni1E92" unicode="&#x1e92;" horiz-adv-x="717" 
d="M83.5 28.5q-34.5 28.5 -34.5 77.5q0 37 14.5 64.5t54.5 58.5l400 310q15 12 21.5 21.5t6.5 23.5q0 27 -38 27h-380q-26 0 -43 11.5t-17 32.5q0 22 17 33.5t43 11.5h404q60 0 94 -27.5t34 -78.5q0 -40 -14 -65.5t-55 -56.5l-400 -311q-15 -11 -21.5 -21.5t-6.5 -24.5
q0 -26 47 -26h398q26 0 43 -11.5t17 -32.5q0 -22 -17 -33.5t-43 -11.5h-431q-59 0 -93.5 28.5zM316.5 -182.5q-19.5 18.5 -19.5 47.5q0 31 19.5 49t52.5 18q32 0 51.5 -18t19.5 -49q0 -29 -19.5 -47.5t-51.5 -18.5q-33 0 -52.5 18.5z" />
    <glyph glyph-name="uni1E93" unicode="&#x1e93;" horiz-adv-x="569" 
d="M75.5 28.5q-36.5 28.5 -36.5 80.5q0 37 19.5 64.5t54.5 43.5l270 122q16 7 22.5 15t6.5 21q0 12 -9 18.5t-24 6.5h-266q-31 0 -47.5 11.5t-16.5 33.5q0 45 64 45h272q64 0 100 -29t36 -79q0 -40 -19 -69t-54 -44l-271 -121q-30 -14 -30 -35q0 -11 8 -17t21 -6h291
q63 0 63 -44q0 -46 -63 -46h-288q-67 0 -103.5 28.5zM226.5 -182.5q-19.5 18.5 -19.5 47.5q0 31 19.5 49t52.5 18q32 0 51.5 -18t19.5 -49q0 -29 -19.5 -47.5t-51.5 -18.5q-33 0 -52.5 18.5z" />
    </font>
</defs>
</svg>
