<?xml version="1.0" standalone="no"?>
<!DOCTYPE svg PUBLIC "-//W3C//DTD SVG 1.1//EN" "http://www.w3.org/Graphics/SVG/1.1/DTD/svg11.dtd" >
<svg xmlns="http://www.w3.org/2000/svg" xmlns:xlink="http://www.w3.org/1999/xlink" version="1.1">
<metadata>
Created by FontForge 20201107 at Fri Sep  7 16:58:00 2018
 By 
Copyright 2018 The Kodchasan Project Authors (https://github.com/cadsondemak/Kodchasan)
</metadata>
<defs>
<font id="Kodchasan-Light" horiz-adv-x="634" >
  <font-face 
    font-family="Kodchasan Light"
    font-weight="300"
    font-stretch="normal"
    units-per-em="1000"
    panose-1="0 0 4 0 0 0 0 0 0 0"
    ascent="800"
    descent="-200"
    x-height="490"
    cap-height="710"
    bbox="-411 -433 1179 1183"
    underline-thickness="50"
    underline-position="-100"
    unicode-range="U+000D-2215"
  />
<missing-glyph horiz-adv-x="729" 
d="M96 848h536v-848h-536v848zM583 50v748h-439v-748h439z" />
    <glyph glyph-name="fi" unicode="fi" horiz-adv-x="626" 
d="M538 489.5q8 -9.5 8 -26.5v-437q0 -17 -8 -26.5t-23 -9.5t-23 9.5t-8 26.5v420h-301v-420q0 -36 -30 -36q-15 0 -23.5 9.5t-8.5 26.5v420h-52q-36 0 -36 26q0 27 36 27h52v54q0 87 54 136.5t148 49.5q61 0 112 -20.5t81 -55.5q8 -10 8 -19q0 -12 -11 -21q-7 -7 -17 -7
q-11 0 -27 14q-25 25 -64.5 39.5t-81.5 14.5q-66 0 -103 -33.5t-37 -93.5v-58h332q15 0 23 -9.5z" />
    <glyph glyph-name="fl" unicode="fl" horiz-adv-x="642" 
d="M129.5 -0.5q-8.5 9.5 -8.5 26.5v420h-52q-36 0 -36 26q0 27 36 27h52v54q0 87 54 136.5t148 49.5q120 0 192 -58q31 -23 31 -55v-600q0 -17 -8 -26.5t-23 -9.5t-23 9.5t-8 26.5v420h-301v-420q0 -36 -30 -36q-15 0 -23.5 9.5zM484 499v133q-55 52 -161 52
q-66 0 -103 -33.5t-37 -93.5v-58h301z" />
    <glyph glyph-name=".notdef" horiz-adv-x="729" 
d="M96 848h536v-848h-536v848zM583 50v748h-439v-748h439z" />
    <glyph glyph-name=".null" horiz-adv-x="0" 
 />
    <glyph glyph-name="nonmarkingreturn" unicode="&#xd;" horiz-adv-x="268" 
 />
    <glyph glyph-name="NULL" horiz-adv-x="0" 
 />
    <glyph glyph-name="NULL" horiz-adv-x="0" 
 />
    <glyph glyph-name="space" unicode=" " horiz-adv-x="268" 
 />
    <glyph glyph-name="exclam" unicode="!" horiz-adv-x="271" 
d="M107 195l-6 479q0 17 9.5 26.5t25.5 9.5t25.5 -9.5t9.5 -26.5l-6 -479q0 -34 -29 -34t-29 34zM96 4.5q-16 14.5 -16 37.5t16 38.5t40 15.5q23 0 39.5 -15.5t16.5 -38.5t-16 -37.5t-40 -14.5t-40 14.5z" />
    <glyph glyph-name="quotedbl" unicode="&#x22;" horiz-adv-x="329" 
d="M54 514q0 7 1 11l40 156q3 15 10.5 23.5t18.5 8.5q3 0 11 -2q23 -6 23 -25q0 -7 -3 -15l-54 -158q-4 -12 -12.5 -17t-19.5 -3q-15 4 -15 21zM171 514q0 3 2 11l39 156q8 32 30 32q3 0 11 -2q22 -7 22 -24q0 -7 -3 -16l-54 -158q-4 -12 -12 -17t-19 -3q-16 4 -16 21z" />
    <glyph glyph-name="numbersign" unicode="#" horiz-adv-x="795" 
d="M743 475q0 -13 -9 -20t-26 -7h-104l-56 -187h103q35 0 35 -28q0 -13 -9 -20t-26 -7h-120l-59 -195q-8 -27 -37 -23q-20 4 -20 24q0 9 2 13l55 181h-242l-59 -195q-8 -27 -37 -23q-20 4 -20 24q0 5 2 13l55 181h-83q-17 0 -26 7t-9 20q0 28 35 28h100l57 187h-100
q-17 0 -26 7t-9 20q0 28 35 28h117l56 185q2 10 9.5 16.5t18.5 6.5q5 0 8 -1q21 -3 21 -23q0 -3 -2 -13l-52 -171h241l56 185q7 23 29 23q14 0 21 -6.5t7 -17.5q0 -8 -2 -13l-52 -171h87q35 0 35 -28zM545 448h-241l-57 -187h242z" />
    <glyph glyph-name="dollar" unicode="$" horiz-adv-x="677" 
d="M550.5 47q-68.5 -45 -181.5 -47v-78q0 -32 -27 -32q-25 0 -25 32v80q-80 7 -147.5 38.5t-104.5 81.5q-6 8 -6 17q0 15 13 25q8 5 14 5q15 0 29 -17q35 -41 87.5 -64t114.5 -28v272q-77 18 -128.5 40t-82.5 59.5t-31 94.5q0 77 62 124t180 50v97q0 16 5.5 24t19.5 8
q27 0 27 -32v-98q80 -7 141.5 -38t88.5 -79q5 -10 5 -16q0 -13 -15 -25q-6 -3 -14 -3q-19 0 -31 16q-23 37 -67.5 59.5t-107.5 28.5v-258q115 -27 182.5 -72.5t67.5 -131.5q0 -88 -68.5 -133zM162.5 461q22.5 -25 59.5 -39t95 -27v248q-90 -2 -133.5 -29.5t-43.5 -87.5
q0 -40 22.5 -65zM554 180q0 58 -47.5 88.5t-137.5 51.5v-262q185 3 185 122z" />
    <glyph glyph-name="percent" unicode="%" horiz-adv-x="739" 
d="M105 17q0 11 7 19l455 662q9 14 23 14q10 0 19 -6q14 -7 14 -22q0 -8 -6 -19l-455 -663q-9 -14 -26 -14q-9 0 -18 6q-13 9 -13 23zM128 433.5q-35 20.5 -55.5 55t-20.5 74.5q0 41 20.5 75t55.5 54t76 20q42 0 76.5 -20t54.5 -54t20 -75t-20 -75t-54.5 -54.5t-76.5 -20.5
q-41 0 -76 20.5zM269 496.5q27 27.5 27 66.5q0 40 -27 67.5t-65 27.5q-40 0 -67 -27.5t-27 -67.5q0 -39 27 -66.5t67 -27.5q38 0 65 27.5zM460 10.5q-35 20.5 -55.5 55t-20.5 74.5q0 41 20.5 75.5t55.5 54.5t76 20t76 -20t55 -54.5t20 -75.5q0 -40 -20 -74.5t-55 -55
t-76 -20.5t-76 20.5zM601 74q27 27 27 66q0 40 -27 67.5t-65 27.5q-40 0 -67.5 -27t-27.5 -68q0 -39 27.5 -66t67.5 -27q38 0 65 27z" />
    <glyph glyph-name="ampersand" unicode="&#x26;" horiz-adv-x="760" 
d="M174.5 15.5q-58.5 25.5 -90.5 71.5t-32 106q0 76 46.5 128.5t135.5 89.5q-43 33 -67 69t-24 80q0 70 43.5 110t120.5 40q73 0 116 -40t43 -111q0 -101 -128 -166l209 -206q27 41 39 80.5t18 93.5q2 15 12 22.5t25 5.5q13 -2 20 -12.5t5 -23.5q-17 -131 -72 -211l103 -100
q10 -9 10 -21q0 -11 -9 -20t-21 -9q-9 0 -17 6l-102 100q-2 -2 -54 -55t-193 -53q-78 0 -136.5 25.5zM403 560q0 44 -26.5 68.5t-71.5 24.5q-46 0 -72 -25t-26 -67q0 -37 20 -62t68 -63q108 45 108 124zM428.5 71q53.5 24 85.5 70l-230 226q-86 -28 -127 -68t-41 -106
q0 -42 24.5 -75.5t68.5 -52t102 -18.5q64 0 117.5 24z" />
    <glyph glyph-name="quotesingle" unicode="'" horiz-adv-x="209" 
d="M52 514q0 3 2 11l39 156q8 32 30 32q3 0 11 -2q23 -7 23 -25q0 -7 -3 -15l-54 -158q-4 -12 -12.5 -17t-19.5 -3q-16 4 -16 21z" />
    <glyph glyph-name="parenleft" unicode="(" horiz-adv-x="287" 
d="M205 -133q-19 0 -32 20q-57 81 -88.5 190.5t-31.5 227.5t31.5 227.5t88.5 190.5q13 20 32 20q8 0 15 -4q15 -7 15 -23q0 -8 -6 -17q-52 -75 -81.5 -178.5t-29.5 -215.5q0 -116 29.5 -220t81.5 -174q6 -8 6 -17q0 -14 -15 -23q-7 -4 -15 -4z" />
    <glyph glyph-name="parenright" unicode=")" horiz-adv-x="287" 
d="M53 -106q0 9 6 17q52 70 81.5 174t29.5 220q0 112 -29.5 215.5t-81.5 178.5q-6 8 -6 17q0 16 15 23q7 4 15 4q17 0 32 -20q57 -82 88.5 -191t31.5 -227t-31.5 -227t-88.5 -191q-15 -20 -32 -20q-8 0 -15 4q-15 7 -15 23z" />
    <glyph glyph-name="asterisk" unicode="*" horiz-adv-x="452" 
d="M207 333.5q-8 7.5 -8 18.5v114l-104 -77q-7 -5 -15 -5q-14 0 -22 11q-6 8 -6 18q0 13 10 19l123 85l-123 83q-10 7 -10 21q0 11 5 17q9 12 24 12q9 0 14 -4l104 -78v115q0 11 8 17.5t20 6.5t19.5 -6.5t7.5 -17.5v-115l104 78q7 5 15 5q14 0 23 -13q5 -6 5 -17
q0 -14 -10 -21l-123 -83l123 -85q10 -6 10 -19q0 -9 -6 -18q-9 -11 -22 -11q-7 0 -14 5l-105 77v-114q0 -11 -7.5 -18.5t-19.5 -7.5t-20 7.5z" />
    <glyph glyph-name="plus" unicode="+" horiz-adv-x="507" 
d="M482 251q0 -13 -9 -20t-25 -7h-165v-150q0 -34 -29 -34q-28 0 -28 34v150h-166q-17 0 -26 7t-9 20q0 28 35 28h166v153q0 34 28 34q29 0 29 -34v-153h165q34 0 34 -28z" />
    <glyph glyph-name="comma" unicode="," horiz-adv-x="235" 
d="M52 -109q0 10 15 22q59 49 62 88q-7 -3 -16 -3q-21 0 -37 15t-16 36q0 28 16 43t45 15t46 -20t17 -56t-22 -73t-62 -70q-19 -16 -30 -16q-7 0 -13 7q-5 5 -5 12z" />
    <glyph glyph-name="hyphen" unicode="-" horiz-adv-x="470" 
d="M61 223q-9 7 -9 20q0 28 35 28h296q35 0 35 -28q0 -13 -9 -20t-26 -7h-296q-17 0 -26 7z" />
    <glyph glyph-name="period" unicode="." horiz-adv-x="208" 
d="M68 16q-15 15 -15 35q0 21 15.5 36t36.5 15q20 0 35.5 -15.5t15.5 -35.5t-15.5 -35t-35.5 -15q-22 0 -37 15z" />
    <glyph glyph-name="slash" unicode="/" horiz-adv-x="547" 
d="M52 -79q0 7 3 15l382 844q10 19 27 19q16 0 24 -8t8 -19q0 -5 -4 -15l-382 -845q-5 -9 -12.5 -14.5t-16.5 -5.5q-6 0 -12 3q-17 9 -17 26z" />
    <glyph glyph-name="zero" unicode="0" horiz-adv-x="668" 
d="M184.5 33.5q-63.5 43.5 -97.5 124.5t-34 192q0 112 34 193t97 124t150 43t150.5 -43t97 -124t33.5 -193q0 -111 -33.5 -192t-97 -124.5t-150.5 -43.5q-86 0 -149.5 43.5zM494.5 126q56.5 79 56.5 224q0 146 -56.5 225t-160.5 79t-160.5 -79t-56.5 -225q0 -145 56.5 -224
t160.5 -79t160.5 79z" />
    <glyph glyph-name="one" unicode="1" horiz-adv-x="369" 
d="M232.5 -0.5q-8.5 9.5 -8.5 26.5v609l-133 -51q-9 -3 -16 -3q-22 0 -30 18q-3 6 -3 13q0 10 6.5 17.5t17.5 11.5l177 66q9 3 16 3q14 0 22 -9.5t8 -25.5v-649q0 -17 -9 -26.5t-24 -9.5t-23.5 9.5z" />
    <glyph glyph-name="two" unicode="2" horiz-adv-x="626" 
d="M62.5 8.5q-9.5 8.5 -9.5 21.5q0 17 14 28l371 318q35 31 50.5 62t15.5 77q0 66 -45.5 102.5t-127.5 36.5q-66 0 -122 -25t-89 -69q-10 -13 -26 -13q-10 0 -20 7q-11 8 -11 21q0 12 9 22q43 54 111.5 83.5t147.5 29.5q71 0 125 -24t83.5 -68t29.5 -103q0 -55 -24 -98.5
t-80 -91.5l-313 -270h388q17 0 25.5 -6.5t8.5 -21.5q0 -27 -34 -27h-452q-16 0 -25.5 8.5z" />
    <glyph glyph-name="three" unicode="3" horiz-adv-x="641" 
d="M174.5 19.5q-68.5 29.5 -113.5 85.5q-9 11 -9 22q0 14 12 21q9 6 19 6q17 0 26 -13q34 -45 91 -69.5t121 -24.5q95 0 149.5 38t54.5 106q0 72 -38.5 110t-111.5 38h-113q-17 0 -26 7t-9 20q0 28 35 28h113q59 0 96 33.5t37 87.5q0 68 -47 103.5t-135 35.5q-60 0 -111 -21
t-88 -63q-11 -12 -25 -12q-11 0 -20 6q-12 8 -12 22q0 12 9 21q48 51 111.5 77t135.5 26q119 0 182.5 -53t63.5 -142q0 -45 -27 -82.5t-78 -62.5v-2q122 -45 122 -177q0 -61 -34 -106.5t-95 -70t-139 -24.5t-146.5 29.5z" />
    <glyph glyph-name="four" unicode="4" horiz-adv-x="643" 
d="M428 0q-8 10 -8 27v139h-346q-15 0 -23.5 7.5t-8.5 18.5q0 10 8 21l378 484q11 13 28 13q12 0 20 -7.5t8 -20.5v-461h77q34 0 34 -28q0 -13 -9 -20t-25 -7h-77v-139q0 -17 -8.5 -27t-23.5 -10q-16 0 -24 10zM421 221v374l-291 -374h291z" />
    <glyph glyph-name="five" unicode="5" horiz-adv-x="640" 
d="M172.5 19.5q-66.5 29.5 -111.5 85.5q-8 11 -8 22q0 14 12 21q9 6 19 6q17 0 26 -13q35 -46 88.5 -70t117.5 -24q97 0 152 52.5t55 151.5q0 89 -54 137t-141 48q-50 0 -94.5 -19t-71.5 -50q-13 -15 -23 -21t-21 -6q-18 0 -28 10.5t-7 26.5l39 262q4 28 24 44.5t54 16.5
h321q34 0 34 -28q0 -26 -34 -26h-306q-19 0 -27 -7.5t-11 -27.5l-27 -185q38 33 86 50t101 17q71 0 128 -29t89.5 -83.5t32.5 -128.5q0 -78 -32.5 -137.5t-93.5 -92t-144 -32.5q-78 0 -144.5 29.5z" />
    <glyph glyph-name="six" unicode="6" horiz-adv-x="646" 
d="M127 85q-75 95 -75 266q0 111 34.5 192t99.5 124t155 43q138 0 228 -80q10 -10 10 -22t-11 -22q-10 -8 -19 -8q-12 0 -26 11q-43 35 -83.5 50t-98.5 15q-111 0 -168 -82t-57 -229l2 -1q33 60 89 96.5t135 36.5q80 0 137 -31.5t86 -86t29 -121.5q0 -71 -31 -126.5
t-89 -87.5t-135 -32q-137 0 -212 95zM478.5 97q51.5 50 51.5 135q0 86 -51.5 136t-139.5 50q-55 0 -101.5 -25.5t-74 -69.5t-27.5 -96q0 -53 27.5 -94t74 -63.5t101.5 -22.5q88 0 139.5 50z" />
    <glyph glyph-name="seven" unicode="7" horiz-adv-x="579" 
d="M139 18q0 9 7 23l324 605h-393q-34 0 -34 26q0 28 34 28h425q35 0 35 -33q0 -19 -11 -38l-328 -621q-9 -18 -27 -18q-9 0 -17 4q-15 8 -15 24z" />
    <glyph glyph-name="eight" unicode="8" horiz-adv-x="650" 
d="M185.5 14.5q-61.5 24.5 -97 70t-35.5 107.5q0 63 40 108t110 68v1q-60 21 -92 61t-32 93q0 83 63 135t183 52t183.5 -52t63.5 -135q0 -53 -32.5 -93t-92.5 -61v-1q70 -23 110.5 -68t40.5 -108q0 -62 -35.5 -107.5t-97.5 -70t-140 -24.5t-139.5 24.5zM458 429q50 36 50 94
q0 61 -47.5 96t-135.5 35q-87 0 -134.5 -35t-47.5 -96q0 -58 49.5 -94t132.5 -36t133 36zM478 85q56 38 56 107q0 70 -56.5 109t-152.5 39t-152 -39t-56 -109q0 -69 56 -107t152 -38q97 0 153 38z" />
    <glyph glyph-name="nine" unicode="9" horiz-adv-x="646" 
d="M199 12q-58 22 -104 66q-10 12 -10 22q0 13 11 22q8 7 18 7q13 0 27 -12q41 -35 84 -52.5t96 -17.5q211 0 211 309l-2 1q-30 -64 -85.5 -99.5t-133.5 -35.5q-79 0 -138 32.5t-90 87.5t-31 121q0 72 31.5 128t91 87.5t140.5 31.5q141 0 210 -92t69 -269q0 -174 -71 -266.5
t-202 -92.5q-64 0 -122 22zM416 302.5q45 24.5 69.5 68.5t24.5 101q0 84 -53.5 133t-141.5 49q-91 0 -145 -51t-54 -136t54.5 -137t143.5 -52q57 0 102 24.5z" />
    <glyph glyph-name="colon" unicode=":" horiz-adv-x="215" 
d="M69 370q-15 15 -15 38t15 38.5t38 15.5t39.5 -16t16.5 -38t-16.5 -37.5t-39.5 -15.5t-38 15zM68 24.5q-16 15.5 -16 38.5q0 22 16 37.5t39 15.5t39.5 -15.5t16.5 -37.5q0 -23 -16.5 -38.5t-39.5 -15.5t-39 15.5z" />
    <glyph glyph-name="semicolon" unicode=";" horiz-adv-x="227" 
d="M81 370q-15 15 -15 38t15 38.5t38 15.5t39.5 -16t16.5 -38t-16.5 -37.5t-39.5 -15.5t-38 15zM52 -101q0 8 14 20q55 45 58 81q-5 -2 -15 -2q-19 0 -34 13.5t-15 33.5q0 25 15 39t42 14q26 0 41.5 -18.5t15.5 -51.5q0 -34 -20 -67.5t-57 -64.5q-9 -7 -16 -11.5t-12 -4.5
q-6 0 -12 8q-5 7 -5 11z" />
    <glyph glyph-name="less" unicode="&#x3c;" horiz-adv-x="598" 
d="M74 219q-21 11 -21 33t21 34l419 234q11 6 21 6q18 0 27 -15q5 -10 5 -17q0 -17 -19 -27l-396 -215l396 -214q19 -11 19 -28q0 -7 -5 -17q-10 -15 -27 -15q-10 0 -21 6z" />
    <glyph glyph-name="equal" unicode="=" horiz-adv-x="518" 
d="M61 300q-9 7 -9 20q0 28 35 28h345q35 0 35 -28q0 -13 -9 -20t-26 -7h-345q-17 0 -26 7zM61 150q-9 7 -9 20q0 28 35 28h345q35 0 35 -28q0 -13 -9 -20t-26 -7h-345q-17 0 -26 7z" />
    <glyph glyph-name="greater" unicode="&#x3e;" horiz-adv-x="598" 
d="M84 -22q-16 0 -27 15q-5 10 -5 17q0 17 19 28l396 214l-396 215q-9 4 -14 12t-5 16t5 16q11 15 27 15q11 0 21 -6l420 -234q20 -11 20 -34q0 -22 -20 -33l-420 -235q-10 -6 -21 -6z" />
    <glyph glyph-name="question" unicode="?" horiz-adv-x="568" 
d="M255 170.5q-8 9.5 -8 26.5v19q0 41 15.5 72t37.5 53t58 50q47 36 70 64.5t23 69.5q0 60 -41.5 94t-117.5 34q-57 0 -103.5 -20.5t-75.5 -57.5q-13 -16 -31 -16q-8 0 -15 4q-15 10 -15 24q0 7 6 16q38 50 99.5 78.5t134.5 28.5q106 0 165.5 -49.5t59.5 -135.5
q0 -38 -14.5 -67.5t-36 -50t-56.5 -46.5q-34 -27 -53 -45t-32.5 -43t-13.5 -57v-19q0 -17 -8.5 -26.5t-24.5 -9.5q-15 0 -23 9.5zM240 4.5q-16 14.5 -16 37.5t16.5 38.5t39.5 15.5q24 0 40 -15.5t16 -38.5t-16 -37.5t-40 -14.5t-40 14.5z" />
    <glyph glyph-name="at" unicode="@" horiz-adv-x="924" 
d="M233.5 -23.5q-87.5 45.5 -134.5 130.5t-47 201q0 126 50.5 216.5t146 138.5t227.5 48q116 0 205.5 -42t140 -120.5t50.5 -184.5q0 -86 -22.5 -147t-61.5 -91.5t-88 -30.5q-36 0 -58.5 17t-30.5 49q-30 -35 -76.5 -53t-103.5 -18q-97 0 -144.5 43.5t-47.5 111.5
q0 70 51 113t144 43q57 0 98.5 -16t65.5 -42v53q0 50 -29 81t-109 31q-45 0 -80.5 -11t-70.5 -32q-12 -7 -22 -7q-9 0 -16 5q-8 5 -8 18q0 14 8 20q31 25 80 41.5t107 16.5q101 0 149 -45t48 -121v-203q0 -24 12 -35t33 -11q48 0 79 55.5t31 165.5q0 89 -43 155t-118.5 101
t-171.5 35q-113 0 -195 -41.5t-125 -121t-43 -189.5q0 -98 40.5 -169.5t114.5 -110t173 -38.5q89 0 136 19q3 1 11.5 4t14.5 3q10 0 17 -9q6 -9 6 -19q0 -14 -15 -23q-56 -30 -173 -30q-118 0 -205.5 45.5zM551.5 169q47.5 29 47.5 82q0 46 -42 73t-123 27q-68 0 -103 -29.5
t-35 -76.5q0 -51 35 -78t101 -27q72 0 119.5 29z" />
    <glyph glyph-name="A" unicode="A" horiz-adv-x="729" 
d="M89 -0.5q-8 9.5 -8 26.5v399q0 134 75 209.5t209 75.5q133 0 208.5 -76t75.5 -209v-399q0 -17 -8.5 -26.5t-23.5 -9.5t-24 9.5t-9 26.5v237h-439v-237q0 -17 -8.5 -26.5t-24.5 -9.5q-15 0 -23 9.5zM584 317v111q0 108 -57 167t-162 59q-107 0 -163.5 -58.5t-56.5 -167.5
v-111h439z" />
    <glyph glyph-name="B" unicode="B" horiz-adv-x="721" 
d="M115.5 31q-32.5 31 -32.5 85v469q0 54 32 84.5t90 30.5h238q99 0 153.5 -49.5t54.5 -139.5q0 -51 -26.5 -88.5t-75.5 -58.5v-2q53 -19 83.5 -61t30.5 -99q0 -94 -55.5 -148t-152.5 -54h-249q-58 0 -90.5 31zM453 388q60 0 96.5 34t36.5 89q0 66 -36.5 100.5t-106.5 34.5
h-241q-24 0 -39.5 -16.5t-15.5 -42.5v-199h306zM453 55q71 0 108 38t37 109q0 61 -39 96.5t-107 35.5h-305v-220q0 -26 15.5 -42.5t39.5 -16.5h251z" />
    <glyph glyph-name="C" unicode="C" horiz-adv-x="745" 
d="M221 34.5q-78 44.5 -120.5 126t-42.5 188.5t42.5 189t120.5 127t180 45q85 0 156 -28.5t112 -79.5q8 -10 8 -20q0 -14 -12 -22q-7 -6 -18 -6q-8 0 -15.5 3.5t-11.5 9.5q-32 41 -89 64t-130 23q-85 0 -148 -37t-96.5 -106t-33.5 -162t33.5 -161t96.5 -104.5t148 -36.5
q79 0 138 22.5t92 64.5q12 13 27 13q11 0 18 -6q11 -10 11 -23q0 -12 -7 -20q-41 -50 -116 -79t-163 -29q-102 0 -180 44.5z" />
    <glyph glyph-name="D" unicode="D" horiz-adv-x="741" 
d="M115.5 31q-32.5 31 -32.5 85v469q0 54 32 84.5t90 30.5h140q102 0 178.5 -43.5t118 -122.5t41.5 -185q0 -105 -41.5 -184t-118 -122t-178.5 -43h-139q-58 0 -90.5 31zM335 55q134 0 208.5 77.5t74.5 216.5t-75 218t-208 79h-133q-25 0 -40 -16.5t-15 -42.5v-473
q0 -27 15 -43t40 -16h133z" />
    <glyph glyph-name="E" unicode="E" horiz-adv-x="629" 
d="M115.5 30.5q-32.5 30.5 -32.5 85.5v469q0 54 32 84.5t90 30.5h310q34 0 34 -28q0 -26 -34 -26h-313q-25 0 -40 -16.5t-15 -42.5v-202h292q34 0 34 -28q0 -13 -9 -20t-25 -7h-292v-216q0 -27 15 -43t40 -16h335q34 0 34 -28q0 -13 -9 -20t-25 -7h-331q-58 0 -90.5 30.5z
" />
    <glyph glyph-name="F" unicode="F" horiz-adv-x="607" 
d="M91.5 -0.5q-8.5 9.5 -8.5 26.5v559q0 54 32 84.5t90 30.5h310q34 0 34 -28q0 -26 -34 -26h-313q-25 0 -40 -16.5t-15 -42.5v-212h292q34 0 34 -28q0 -13 -9 -20t-25 -7h-292v-294q0 -17 -8.5 -26.5t-23.5 -9.5t-23.5 9.5z" />
    <glyph glyph-name="G" unicode="G" horiz-adv-x="764" 
d="M221.5 34.5q-78.5 44.5 -121 125.5t-42.5 189t43 190t121.5 126.5t182.5 44.5q84 0 156 -28.5t112 -79.5q7 -8 7 -21q0 -14 -11 -21q-7 -6 -18 -6q-17 0 -28 13q-30 41 -87.5 64t-130.5 23q-87 0 -150.5 -37t-97.5 -105.5t-34 -162.5q0 -93 33.5 -161t97 -104.5
t150.5 -36.5q68 0 122.5 22.5t85 62.5t30.5 91v36q0 29 -11.5 41t-40.5 12h-156q-34 0 -34 27q0 14 8 21t26 7h159q57 0 85 -25t28 -77v-38q0 -66 -40 -120t-109 -85.5t-153 -31.5q-104 0 -182.5 44.5z" />
    <glyph glyph-name="H" unicode="H" horiz-adv-x="752" 
d="M93.5 -0.5q-8.5 9.5 -8.5 26.5v648q0 17 8.5 26.5t23.5 9.5t23.5 -9.5t8.5 -26.5v-287h454v287q0 18 9 27t24 9t23 -9.5t8 -26.5v-648q0 -17 -8 -26.5t-23 -9.5t-24 9.5t-9 26.5v306h-454v-306q0 -17 -8.5 -26.5t-23.5 -9.5t-23.5 9.5z" />
    <glyph glyph-name="I" unicode="I" horiz-adv-x="296" 
d="M124.5 -0.5q-8.5 9.5 -8.5 26.5v648q0 36 32 36q15 0 23.5 -9.5t8.5 -26.5v-648q0 -17 -8.5 -26.5t-23.5 -9.5t-23.5 9.5z" />
    <glyph glyph-name="J" unicode="J" horiz-adv-x="597" 
d="M157.5 18q-58.5 28 -101.5 86q-8 11 -8 20q0 11 11 22q8 7 20 7q17 0 26 -14q36 -49 80 -70t110 -21q74 0 115.5 43.5t41.5 122.5v460q0 36 32 36q15 0 24 -9.5t9 -26.5v-456q0 -66 -28.5 -118t-79 -81t-114.5 -29q-79 0 -137.5 28z" />
    <glyph glyph-name="K" unicode="K" horiz-adv-x="683" 
d="M579.5 -4q-9.5 7 -12.5 21q-29 119 -97.5 205.5t-187.5 155.5l-132 -109v-243q0 -17 -8.5 -26.5t-23.5 -9.5t-23.5 9.5t-8.5 26.5v648q0 17 8.5 26.5t23.5 9.5t23.5 -9.5t8.5 -26.5v-330l412 354q7 7 18 7q12 0 21 -9t9 -21t-10 -21l-274 -239q130 -77 203.5 -172
t95.5 -215q2 -14 -4 -25t-19 -12q-13 -2 -22.5 5z" />
    <glyph glyph-name="L" unicode="L" horiz-adv-x="624" 
d="M119 31q-32 31 -32 85v558q0 17 8 26.5t23 9.5q16 0 24.5 -9.5t8.5 -26.5v-560q0 -27 15 -43t40 -16h335q35 0 35 -28q0 -13 -9 -20t-26 -7h-332q-58 0 -90 31z" />
    <glyph glyph-name="M" unicode="M" horiz-adv-x="982" 
d="M89 -0.5q-8 9.5 -8 26.5v460q0 105 58.5 164.5t161.5 59.5q62 0 114.5 -32t75.5 -85q23 54 74.5 85.5t115.5 31.5q103 0 161.5 -59.5t58.5 -164.5v-460q0 -17 -8.5 -26.5t-23.5 -9.5q-32 0 -32 36v460q0 83 -37.5 125t-119.5 42q-74 0 -116 -44.5t-42 -122.5v-460
q0 -17 -8 -26.5t-23 -9.5t-23 9.5t-8 26.5v460q0 76 -43.5 121.5t-114.5 45.5q-82 0 -119.5 -42t-37.5 -125v-460q0 -17 -8.5 -26.5t-24.5 -9.5q-15 0 -23 9.5z" />
    <glyph glyph-name="N" unicode="N" horiz-adv-x="737" 
d="M88.5 -0.5q-8.5 9.5 -8.5 26.5v414q0 126 77 198t212 72q134 0 211 -72t77 -198v-414q0 -36 -32 -36q-15 0 -23.5 9.5t-8.5 26.5v417q0 100 -58.5 155.5t-165.5 55.5q-106 0 -165.5 -56t-59.5 -155v-417q0 -17 -8.5 -26.5t-23.5 -9.5t-23.5 9.5z" />
    <glyph glyph-name="O" unicode="O" horiz-adv-x="820" 
d="M232 34.5q-80 44.5 -127 126t-47 189.5t46.5 190t127 126t178.5 44t178.5 -44t127.5 -126t47 -190t-47 -189.5t-127.5 -126t-178.5 -44.5t-178 44.5zM557.5 82.5q65.5 35.5 103.5 104t38 163.5q0 96 -38.5 164.5t-104 103.5t-146.5 36q-82 0 -147 -35.5t-103 -104.5
t-38 -164t38 -163.5t103 -104t147 -35.5t147.5 35.5z" />
    <glyph glyph-name="P" unicode="P" horiz-adv-x="713" 
d="M91.5 -0.5q-8.5 9.5 -8.5 26.5v559q0 54 32 84.5t90 30.5h170q280 0 280 -237q0 -108 -71.5 -166t-205.5 -58h-231v-213q0 -17 -8.5 -26.5t-23.5 -9.5t-23.5 9.5zM590 463q0 96 -52.5 139.5t-157.5 43.5h-178q-25 0 -40 -16.5t-15 -42.5v-293h232q211 0 211 169z" />
    <glyph glyph-name="Q" unicode="Q" horiz-adv-x="820" 
d="M664 -40q-16 0 -22 13q-27 52 -39 73q-89 -56 -193 -56q-98 0 -178 44.5t-127 126t-47 189.5t46.5 190t127 126t178.5 44t178.5 -44t127.5 -126t47 -190q0 -84 -30 -153.5t-83 -116.5q12 -25 20 -38l18 -36q5 -10 5 -21q0 -14 -12 -21q-7 -4 -17 -4zM295 207
q55 31 121 31q128 0 202 -108q38 39 59.5 95t21.5 125q0 96 -38.5 164.5t-104 103.5t-146.5 36q-82 0 -147 -35.5t-103 -104.5t-38 -164q0 -71 22 -128t62 -96q34 50 89 81zM574 94q-58 88 -156 88q-58 0 -100.5 -25t-67.5 -66q68 -44 160 -44q93 0 164 47z" />
    <glyph glyph-name="R" unicode="R" horiz-adv-x="713" 
d="M81 583q0 52 31.5 84.5t92.5 32.5h179q273 0 273 -224q0 -106 -68 -160.5t-206 -54.5l206 -218q10 -10 10 -22q0 -14 -12 -23q-10 -8 -19 -8q-16 0 -33 19l-237 252h-148v-233q0 -18 -9 -28t-26 -10q-16 0 -25 10t-9 28v555zM388 319q92 0 145.5 35.5t53.5 121.5
q0 90 -49.5 128t-148.5 38h-185q-25 0 -39.5 -16t-14.5 -42v-265h238z" />
    <glyph glyph-name="S" unicode="S" horiz-adv-x="677" 
d="M185.5 23q-79.5 33 -120.5 89q-6 8 -6 18q0 14 13 24q7 5 14 5q14 0 29 -17q39 -45 102 -69.5t143 -24.5q93 0 143.5 34t50.5 98q0 54 -47.5 87.5t-162.5 58.5q-144 31 -206.5 79t-62.5 126q0 83 69 131t188 48q92 0 165 -32t102 -86q5 -10 5 -17q0 -15 -15 -24
q-6 -3 -14 -3q-21 0 -31 16q-27 43 -81.5 66t-130.5 23q-97 0 -144.5 -30.5t-47.5 -91.5q0 -36 19 -61t63.5 -44t122.5 -37q145 -34 209.5 -83t64.5 -126q0 -88 -69.5 -139t-189.5 -51q-95 0 -174.5 33z" />
    <glyph glyph-name="T" unicode="T" horiz-adv-x="700" 
d="M318 26v620h-236q-34 0 -34 26q0 15 8.5 21.5t25.5 6.5h537q34 0 34 -28q0 -26 -34 -26h-236v-620q0 -17 -9 -26.5t-24 -9.5q-32 0 -32 36z" />
    <glyph glyph-name="U" unicode="U" horiz-adv-x="741" 
d="M156.5 67q-76.5 77 -76.5 212v395q0 17 8.5 26.5t23.5 9.5t23.5 -9.5t8.5 -26.5v-398q0 -110 58.5 -169.5t166.5 -59.5q107 0 167 60.5t60 168.5v398q0 17 9 26.5t24 9.5t23 -9.5t8 -26.5v-395q0 -87 -35.5 -152.5t-102 -101t-156.5 -35.5q-133 0 -209.5 77z" />
    <glyph glyph-name="V" unicode="V" horiz-adv-x="727" 
d="M271 37q-36 47 -67 153l-143 480q-3 9 -3 16q0 24 30 24q16 0 23.5 -7t12.5 -26l142 -481q24 -81 46.5 -115.5t51.5 -34.5q28 0 50.5 34.5t47.5 115.5l141 482q6 19 13.5 25.5t23.5 6.5q29 0 29 -23q0 -8 -3 -17l-143 -480q-32 -109 -68.5 -154.5t-90.5 -45.5
q-57 0 -93 47z" />
    <glyph glyph-name="W" unicode="W" horiz-adv-x="947" 
d="M206 17q-25 27 -36 83l-110 571q-2 10 -2 14q0 25 28 25q19 0 26.5 -7.5t10.5 -25.5l108 -578q6 -30 14.5 -41.5t25.5 -11.5q18 0 27 12.5t13 40.5l82 521q15 90 81 90q65 0 80 -90l82 -521q4 -29 13 -41t27 -12q16 0 25 12t15 41l108 578q3 18 11 25.5t26 7.5
q28 0 28 -25q0 -4 -2 -14l-110 -571q-11 -54 -35 -82t-66 -28q-79 0 -95 109l-82 517q-4 21 -9.5 29.5t-15.5 8.5q-11 0 -16.5 -8.5t-9.5 -29.5l-82 -517q-16 -109 -95 -109q-40 0 -65 27z" />
    <glyph glyph-name="X" unicode="X" horiz-adv-x="712" 
d="M655 18q0 -14 -12 -22q-9 -6 -17 -6q-14 0 -28 18l-242 304l-242 -304q-13 -18 -28 -18q-8 0 -17 6q-11 8 -11 22q0 10 8 21l254 319l-242 303q-7 8 -7 21q0 15 11 22q9 6 16 6q13 0 28 -18l230 -289l230 289q14 18 28 18q9 0 16 -6q12 -7 12 -22q0 -10 -8 -21l-241 -303
l254 -319q8 -11 8 -21z" />
    <glyph glyph-name="Y" unicode="Y" horiz-adv-x="690" 
d="M632 674v-129q0 -85 -32 -153.5t-90 -110.5t-132 -50v-205q0 -17 -8.5 -26.5t-24.5 -9.5q-15 0 -23 9.5t-8 26.5v204q-77 7 -135 48t-89 109.5t-31 157.5v129q0 17 8 26.5t23 9.5q16 0 24.5 -9.5t8.5 -26.5v-132q0 -121 59 -188.5t163 -67.5t163.5 68.5t59.5 187.5v132
q0 17 8.5 26.5t23.5 9.5q32 0 32 -36z" />
    <glyph glyph-name="Z" unicode="Z" horiz-adv-x="703" 
d="M85.5 22q-27.5 22 -27.5 67q0 36 13.5 59t47.5 51l417 344q21 16 29 31t8 36q0 36 -43 36h-417q-17 0 -26.5 6.5t-9.5 19.5q0 28 36 28h422q103 0 103 -89q0 -35 -13 -57.5t-48 -51.5l-418 -344q-20 -16 -28 -31t-8 -36q0 -36 45 -36h442q17 0 26.5 -7t9.5 -20
q0 -28 -36 -28h-449q-48 0 -75.5 22z" />
    <glyph glyph-name="bracketleft" unicode="[" horiz-adv-x="324" 
d="M81 -137v859q0 60 67 60h95q35 0 35 -28q0 -26 -35 -26h-98v-871h98q35 0 35 -26q0 -28 -35 -28h-95q-67 0 -67 60z" />
    <glyph glyph-name="backslash" unicode="\" horiz-adv-x="547" 
d="M466 -108q-9 0 -16.5 5.5t-12.5 14.5l-382 845q-3 8 -3 15q0 18 17 24q8 3 14 3q18 0 27 -19l382 -845q3 -8 3 -14q0 -18 -17 -26q-6 -3 -12 -3z" />
    <glyph glyph-name="bracketright" unicode="]" horiz-adv-x="324" 
d="M46 -169q0 26 35 26h98v871h-98q-35 0 -35 26q0 28 35 28h95q67 0 67 -60v-859q0 -60 -67 -60h-95q-35 0 -35 28z" />
    <glyph glyph-name="asciicircum" unicode="^" horiz-adv-x="590" 
d="M53 375q0 9 4 14l213 301q11 16 25 16q15 0 26 -16l213 -301q4 -4 4 -13q0 -15 -13 -25q-10 -7 -21 -7q-16 0 -25 13l-184 270l-183 -270q-11 -13 -26 -13q-10 0 -20 7q-13 10 -13 24z" />
    <glyph glyph-name="underscore" unicode="_" horiz-adv-x="573" 
d="M62 -116q-9 7 -9 20q0 28 35 28h397q36 0 36 -28q0 -13 -9.5 -20t-26.5 -7h-397q-17 0 -26 7z" />
    <glyph glyph-name="grave" unicode="`" horiz-adv-x="223" 
d="M154 559q-14 0 -23 15l-78 138q-6 9 -6 18q0 15 18 24q8 4 16 4q18 0 29 -26l63 -140q3 -6 3 -13q0 -13 -12 -18q-6 -2 -10 -2z" />
    <glyph glyph-name="a" unicode="a" horiz-adv-x="578" 
d="M103.5 33q-55.5 43 -55.5 120q0 76 57.5 120t158.5 44q61 0 109 -16.5t72 -45.5v69q0 59 -39 90t-115 31q-94 0 -165 -46q-14 -8 -24 -8q-8 0 -17 6q-10 8 -10 21t10 21q37 28 91.5 44.5t112.5 16.5q104 0 161 -47t57 -133v-294q0 -36 -30 -36q-14 0 -22.5 9.5t-8.5 25.5
v41q-31 -37 -79 -56.5t-110 -19.5q-98 0 -153.5 43zM395 76.5q51 31.5 51 82.5q0 49 -48 76.5t-134 27.5q-74 0 -113.5 -28.5t-39.5 -81.5t38.5 -80.5t112.5 -27.5q82 0 133 31.5z" />
    <glyph glyph-name="b" unicode="b" horiz-adv-x="672" 
d="M83 -0.5q-8 9.5 -8 26.5v697q0 36 31 36t31 -36l1 -329q85 106 220 106q81 0 141.5 -31t93 -88.5t32.5 -135.5q0 -122 -70 -188.5t-197 -66.5q-72 0 -128 27.5t-93 81.5v-73q0 -17 -8 -26.5t-23 -9.5t-23 9.5zM562 245q0 94 -55.5 147t-151.5 53q-62 0 -112 -26
t-78 -71.5t-28 -102.5q0 -93 58.5 -146t159.5 -53q207 0 207 199z" />
    <glyph glyph-name="c" unicode="c" horiz-adv-x="585" 
d="M174 22q-60 32 -93 90t-33 134t33 133.5t93 89t139 31.5q149 0 215 -81q8 -10 8 -19q0 -13 -13 -23q-6 -6 -16 -6q-7 0 -14.5 3.5t-12.5 9.5q-28 31 -69 46t-98 15q-97 0 -149.5 -51.5t-52.5 -147.5q0 -95 53 -147.5t149 -52.5q54 0 97.5 15.5t71.5 45.5q14 14 28 14
q10 0 17 -7q11 -11 11 -23q0 -10 -9 -19q-47 -42 -99.5 -62t-116.5 -20q-79 0 -139 32z" />
    <glyph glyph-name="d" unicode="d" horiz-adv-x="672" 
d="M118 57.5q-71 67.5 -71 184.5q0 74 31 132.5t92 92t146 33.5q74 0 126 -28t92 -78l1 329q0 36 31 36t31 -36v-697q0 -17 -8 -26.5t-23 -9.5t-23 9.5t-8 26.5v73q-36 -54 -92 -81.5t-129 -27.5q-125 0 -196 67.5zM477 99.5q58 53.5 58 145.5q0 62 -30 107t-79.5 69
t-106.5 24q-99 0 -154 -56t-55 -147q0 -98 54 -147t153 -49q102 0 160 53.5z" />
    <glyph glyph-name="e" unicode="e" horiz-adv-x="623" 
d="M117 57.5q-70 67.5 -70 191.5q0 116 71.5 183.5t195.5 67.5q77 0 136.5 -24.5t92.5 -68.5t33 -101q0 -40 -22 -63t-61 -23h-381q0 -82 53.5 -128t150.5 -46q60 0 102 13.5t79 44.5q15 14 27 14q8 0 15 -6q12 -10 12 -22q0 -10 -9 -19q-79 -81 -226 -81q-129 0 -199 67.5z
M475 272q20 0 29 8.5t9 28.5q0 39 -25.5 70t-71 48.5t-102.5 17.5q-95 0 -148 -45.5t-53 -127.5h362z" />
    <glyph glyph-name="f" unicode="f" horiz-adv-x="433" 
d="M400 679q0 -11 -9 -20q-8 -8 -18 -8q-11 0 -28 10q-19 12 -38 17t-44 5q-80 0 -80 -84v-109h147q34 0 34 -27q0 -26 -34 -26h-147v-411q0 -36 -30 -36q-15 0 -23.5 9.5t-8.5 26.5v411h-53q-35 0 -35 26q0 27 35 27h53v105q0 65 38.5 104.5t101.5 39.5q79 0 129 -41
q10 -7 10 -19z" />
    <glyph glyph-name="g" unicode="g" horiz-adv-x="669" 
d="M204.5 -230.5q-57.5 20.5 -92.5 60.5q-7 7 -7 16q0 14 14 23q7 6 17 6q13 0 25 -13q23 -27 64.5 -43.5t99.5 -16.5q102 0 155.5 47t53.5 137v105q-34 -46 -91.5 -76.5t-130.5 -30.5q-128 0 -196.5 68t-68.5 181q0 77 30 137t91.5 95t150.5 35q69 0 123.5 -28t91.5 -81v76
q0 14 9 23.5t23 9.5q13 0 21.5 -9.5t8.5 -23.5v-481q0 -112 -72.5 -174.5t-191.5 -62.5q-70 0 -127.5 20.5zM420 63q50 22 81.5 67t31.5 112q0 57 -25 103.5t-72.5 73t-113.5 26.5q-103 0 -157.5 -55t-54.5 -157q0 -88 52.5 -140t153.5 -52q54 0 104 22z" />
    <glyph glyph-name="h" unicode="h" horiz-adv-x="611" 
d="M84 -0.5q-8 9.5 -8 26.5v697q0 36 31 36t31 -36v-324q37 49 90 75t116 26q96 0 146.5 -51.5t50.5 -149.5v-273q0 -17 -8.5 -26.5t-23.5 -9.5q-30 0 -30 36v273q0 74 -34 110t-105 36q-91 0 -146.5 -53.5t-55.5 -140.5v-225q0 -17 -8 -26.5t-23 -9.5t-23 9.5z" />
    <glyph glyph-name="i" unicode="i" horiz-adv-x="249" 
d="M90 624.5q-14 13.5 -14 32.5t14.5 33t33.5 14t34 -14.5t15 -32.5t-15 -32t-34 -14q-20 0 -34 13.5zM101 -0.5q-8 9.5 -8 26.5v438q0 36 31 36q15 0 23 -9.5t8 -26.5v-438q0 -17 -8 -26.5t-23 -9.5t-23 9.5z" />
    <glyph glyph-name="j" unicode="j" horiz-adv-x="326" 
d="M166 632q-14 14 -14 32t14 32t34 14q19 0 34 -14t15 -32t-15 -32t-34 -14q-20 0 -34 14zM40.5 -284q-8.5 8 -8.5 21t8.5 20t22.5 7q42 0 64.5 10t31.5 34.5t9 71.5l1 584q0 36 31 36t31 -36l-1 -584q0 -85 -37 -128.5t-130 -43.5q-14 0 -22.5 8z" />
    <glyph glyph-name="k" unicode="k" horiz-adv-x="574" 
d="M85 -0.5q-8 9.5 -8 26.5v697q0 36 31 36t31 -36v-454l331 227q8 6 17 6q14 0 22 -13q5 -8 5 -15q0 -16 -15 -25l-178 -122q86 -57 135.5 -131t68.5 -171q2 -15 -5 -25t-22 -10q-28 0 -34 25q-22 101 -64 161.5t-131 116.5l-130 -90v-177q0 -17 -8 -26.5t-23 -9.5t-23 9.5
z" />
    <glyph glyph-name="l" unicode="l" horiz-adv-x="254" 
d="M104 -0.5q-8 9.5 -8 26.5v697q0 36 31 36t31 -36v-697q0 -17 -8 -26.5t-23 -9.5t-23 9.5z" />
    <glyph glyph-name="m" unicode="m" horiz-adv-x="832" 
d="M83 -0.5q-8 9.5 -8 26.5v438q0 36 31 36q15 0 23 -9.5t8 -26.5v-64q28 47 71.5 73.5t92.5 26.5q48 0 84 -26t54 -73q35 48 77.5 73.5t88.5 25.5q157 0 157 -188v-286q0 -17 -8 -26.5t-23 -9.5q-31 0 -31 36v287q0 69 -22.5 100.5t-76.5 31.5q-47 0 -84.5 -28.5
t-59.5 -81.5v-309q0 -17 -8 -26.5t-23 -9.5q-31 0 -31 36v273q0 71 -25.5 108.5t-73.5 37.5q-45 0 -81.5 -24.5t-57 -67.5t-20.5 -97v-230q0 -17 -8 -26.5t-23 -9.5t-23 9.5z" />
    <glyph glyph-name="n" unicode="n" horiz-adv-x="611" 
d="M84 -0.5q-8 9.5 -8 26.5v438q0 36 31 36q15 0 23 -9.5t8 -26.5v-65q37 49 90 75t116 26q96 0 146.5 -51.5t50.5 -149.5v-273q0 -17 -8.5 -26.5t-23.5 -9.5q-30 0 -30 36v273q0 74 -34 110t-105 36q-91 0 -146.5 -53.5t-55.5 -140.5v-225q0 -17 -8 -26.5t-23 -9.5t-23 9.5
z" />
    <glyph glyph-name="o" unicode="o" 
d="M169 25.5q-61 35.5 -91 94t-30 125.5t30 125.5t91 94t148 35.5t148 -35.5t91 -94t30 -125.5t-30 -125.5t-91 -94t-148 -35.5t-148 35.5zM466.5 98.5q56.5 52.5 56.5 146.5t-56.5 147t-149.5 53t-149.5 -53t-56.5 -147t56.5 -146.5t149.5 -52.5t149.5 52.5z" />
    <glyph glyph-name="p" unicode="p" horiz-adv-x="672" 
d="M75 -263v727q0 36 31 36q15 0 23 -9.5t8 -26.5v-72q76 108 227 108q122 0 191.5 -66.5t69.5 -183.5q0 -79 -32 -138t-91.5 -90.5t-139.5 -31.5q-71 0 -125.5 26t-98.5 81v-360q0 -17 -8.5 -26.5t-23.5 -9.5q-31 0 -31 36zM508.5 100.5q53.5 54.5 53.5 151.5
q0 94 -52 143.5t-151 49.5q-103 0 -162.5 -52t-59.5 -143q0 -60 28 -106.5t78.5 -72t116.5 -25.5q95 0 148.5 54.5z" />
    <glyph glyph-name="q" unicode="q" horiz-adv-x="672" 
d="M542.5 -289.5q-8.5 9.5 -8.5 26.5v360q-41 -53 -98 -80t-127 -27q-122 0 -192 67.5t-70 184.5q0 122 70 190t197 68q148 0 221 -108v72q0 17 8 26.5t23 9.5q31 0 31 -36v-727q0 -36 -31 -36q-15 0 -23.5 9.5zM426.5 72q50.5 26 79.5 71.5t29 101.5q0 93 -58.5 146.5
t-159.5 53.5q-103 0 -155 -51t-52 -152q0 -93 53.5 -144.5t149.5 -51.5q63 0 113.5 26z" />
    <glyph glyph-name="r" unicode="r" horiz-adv-x="430" 
d="M84 -0.5q-8 9.5 -8 26.5v438q0 36 31 36q15 0 23 -9.5t8 -26.5v-65q35 46 82.5 68.5t110.5 22.5h25q17 0 26.5 -7.5t9.5 -20.5q0 -27 -36 -27h-27q-89 0 -140 -49.5t-51 -134.5v-225q0 -17 -8 -26.5t-23 -9.5t-23 9.5z" />
    <glyph glyph-name="s" unicode="s" horiz-adv-x="514" 
d="M150 17.5q-61 27.5 -95 74.5q-6 9 -6 18q0 8 5.5 15t13.5 10q8 2 11 2q7 0 13 -4.5t15 -15.5q63 -70 172 -70q55 0 90 18.5t35 55.5q0 26 -14.5 41.5t-43.5 27.5t-99 36q-61 21 -96 38t-55 43.5t-20 66.5q0 56 50 91t132 35q59 0 111.5 -21.5t78.5 -56.5q7 -8 7 -19
q0 -14 -14 -21q-10 -5 -18 -5q-14 0 -26 13q-27 28 -58 41t-82 13q-57 0 -86.5 -18.5t-29.5 -53.5q0 -26 13.5 -41t37 -24.5t86.5 -29.5q71 -24 111 -44.5t58.5 -46.5t18.5 -65q0 -61 -52.5 -96t-134.5 -35q-68 0 -129 27.5z" />
    <glyph glyph-name="t" unicode="t" horiz-adv-x="434" 
d="M400 75q0 -10 -8 -21q-20 -29 -56 -46.5t-75 -17.5q-63 0 -99.5 39t-36.5 104v304h-56q-35 0 -35 27q0 26 35 26h56v175q0 17 8 26.5t23 9.5t23 -9.5t8 -26.5v-175h143q35 0 35 -26q0 -27 -35 -27h-143v-309q0 -82 76 -82q26 0 45.5 9t38.5 31q14 14 26 14q9 0 17 -7
q10 -7 10 -18z" />
    <glyph glyph-name="u" unicode="u" horiz-adv-x="611" 
d="M126 46q-55 56 -55 154v264q0 17 8.5 26.5t23.5 9.5q30 0 30 -36v-264q0 -74 39 -114t110 -40q56 0 99.5 24.5t68 68.5t24.5 100v225q0 17 8 26.5t23 9.5q31 0 31 -36v-438q0 -36 -31 -36q-15 0 -23 9.5t-8 26.5v65q-37 -49 -87.5 -75t-108.5 -26q-97 0 -152 56z" />
    <glyph glyph-name="v" unicode="v" horiz-adv-x="615" 
d="M229.5 18q-31.5 28 -53.5 89l-126 350q-2 8 -2 11q0 10 5.5 18t15.5 12q8 2 11 2q22 0 30 -21l127 -352q17 -48 32 -65.5t39 -17.5q23 0 38.5 17.5t31.5 63.5l127 354q3 9 11 14.5t19 5.5q6 0 10 -1q10 -4 16.5 -12t6.5 -18q0 -3 -2 -11l-128 -353q-22 -60 -52.5 -87
t-77.5 -27t-78.5 28z" />
    <glyph glyph-name="w" unicode="w" horiz-adv-x="776" 
d="M160.5 13q-26.5 23 -33.5 59l-77 397q-3 13 5.5 22t22.5 9q18 0 25 -5t10 -20l75 -392q8 -37 33 -37q17 0 24.5 8t10.5 29l57 349q5 29 26 48.5t49 19.5t49.5 -19t25.5 -49l57 -349q3 -20 11 -28.5t24 -8.5q26 0 33 37l74 392q3 15 10.5 20t25.5 5q15 0 23 -9.5t5 -21.5
l-78 -397q-7 -37 -33.5 -59.5t-59.5 -22.5q-76 0 -90 83l-57 345q-5 27 -20 27t-20 -27l-57 -345q-14 -83 -90 -83q-34 0 -60.5 23z" />
    <glyph glyph-name="x" unicode="x" horiz-adv-x="558" 
d="M510 20q0 -13 -11 -23q-6 -6 -15 -6q-13 0 -27 15l-178 202l-178 -202q-13 -15 -27 -15q-8 0 -16 6q-10 10 -10 22q0 14 10 25l183 208l-172 195q-10 12 -10 25q0 12 10 21q11 7 18 7q14 0 25 -14l167 -190l167 190q12 13 25 13q10 0 17 -6q11 -8 11 -21q0 -15 -10 -25
l-172 -195l183 -208q10 -11 10 -24z" />
    <glyph glyph-name="y" unicode="y" 
d="M166 -228.5q-58 21.5 -84 59.5q-5 7 -5 17q0 15 13 25q7 4 16 4q17 0 28 -14q22 -27 66 -43t95 -16q94 0 149 57t55 154v73q-32 -44 -81.5 -67.5t-112.5 -23.5q-121 0 -189.5 70.5t-68.5 195.5v204q0 14 9 23t23 9t23 -9t9 -23v-204q0 -101 51 -157t143 -56q91 0 140 53
t49 151v203q0 20 9.5 31.5t25.5 11.5q34 0 34 -43v-440q0 -78 -33.5 -138.5t-93.5 -94.5t-138 -34q-74 0 -132 21.5z" />
    <glyph glyph-name="z" unicode="z" horiz-adv-x="544" 
d="M77.5 23.5q-29.5 23.5 -29.5 68.5q0 31 14.5 52.5t47.5 40.5l280 159q23 13 31.5 24.5t8.5 27.5q0 38 -55 38h-281q-44 0 -44 28q0 15 10.5 21.5t33.5 6.5h275q58 0 89.5 -24.5t31.5 -68.5q0 -33 -14.5 -55t-46.5 -40l-280 -156q-21 -12 -32 -26t-11 -27q0 -36 52 -36
h295q22 0 32.5 -6.5t10.5 -21.5q0 -29 -43 -29h-289q-57 0 -86.5 23.5z" />
    <glyph glyph-name="braceleft" unicode="{" horiz-adv-x="400" 
d="M174 -165.5q-30 31.5 -30 82.5v205q0 52 -16.5 77t-45.5 44q-15 11 -22.5 19t-7.5 21q0 11 7 19t22 18q29 19 46 44.5t17 78.5v225q0 50 30.5 82t89.5 32h50q17 0 26 -7t9 -20q0 -27 -35 -27h-51q-25 0 -40 -15.5t-15 -41.5v-228q0 -59 -20 -96t-64 -64q44 -28 64 -65
t20 -96v-208q0 -26 15 -41.5t40 -15.5h51q35 0 35 -27q0 -13 -9 -20t-26 -7h-50q-60 0 -90 31.5z" />
    <glyph glyph-name="bar" unicode="|" horiz-adv-x="224" 
d="M88.5 -187.5q-8.5 9.5 -8.5 26.5v907q0 17 8.5 26.5t23.5 9.5t23.5 -9.5t8.5 -26.5v-907q0 -17 -8.5 -26.5t-23.5 -9.5t-23.5 9.5z" />
    <glyph glyph-name="braceright" unicode="}" horiz-adv-x="400" 
d="M61 -190q-9 7 -9 20q0 27 34 27h52q25 0 39.5 15.5t14.5 41.5v208q0 59 20.5 96t64.5 65q-44 27 -64.5 64t-20.5 96v228q0 26 -14.5 41.5t-39.5 15.5h-52q-34 0 -34 27q0 13 9 20t25 7h50q60 0 90.5 -32t30.5 -82v-225q0 -53 17 -78.5t46 -44.5q15 -10 22 -18t7 -19
q0 -13 -7.5 -21t-22.5 -19q-29 -19 -45.5 -44t-16.5 -77v-205q0 -51 -30.5 -82.5t-90.5 -31.5h-50q-16 0 -25 7z" />
    <glyph glyph-name="asciitilde" unicode="~" horiz-adv-x="564" 
d="M52 276q0 8 4 16q38 81 120 81q28 0 53.5 -8t62.5 -23q28 -13 48.5 -19.5t39.5 -6.5q32 0 49.5 10t25.5 33q9 25 27 25q6 0 14 -3q15 -7 15 -24q0 -7 -3 -15q-36 -82 -119 -82q-29 0 -54 8t-61 23q-33 13 -53 19.5t-41 6.5q-29 0 -45.5 -10.5t-25.5 -33.5
q-11 -24 -28 -24q-7 0 -14 4q-15 8 -15 23z" />
    <glyph glyph-name="uni00A0" unicode="&#xa0;" horiz-adv-x="268" 
 />
    <glyph glyph-name="exclamdown" unicode="&#xa1;" horiz-adv-x="271" 
d="M96 410q-16 15 -16 39q0 23 16 37t40 14t40 -14t16 -37q0 -24 -16 -39t-40 -15t-40 15zM109.5 -210.5q-9.5 9.5 -9.5 26.5l6 479q0 35 29 35t29 -35l6 -479q0 -17 -9.5 -26.5t-25.5 -9.5t-25.5 9.5z" />
    <glyph glyph-name="cent" unicode="&#xa2;" horiz-adv-x="590" 
d="M543 92q0 -11 -9 -20q-81 -76 -200 -82v-68q0 -32 -27 -32q-14 0 -20 8t-6 24v70q-71 6 -124 40t-81 89.5t-28 124.5q0 62 25 116.5t77.5 92t130.5 44.5v68q0 16 6 24t20 8q27 0 27 -32v-67q137 -6 199 -81q8 -10 8 -20q0 -13 -12 -22q-7 -6 -17 -6q-14 0 -27 13
q-49 55 -151 61v-399q103 6 153 61q14 14 29 14q9 0 16 -7q11 -11 11 -22zM154 111q43 -54 127 -63v395q-84 -9 -127 -60.5t-43 -136.5q0 -81 43 -135z" />
    <glyph glyph-name="sterling" unicode="&#xa3;" horiz-adv-x="612" 
d="M374 -4q-23 6 -52 18q-28 11 -47.5 16t-41.5 5q-35 0 -58 -9t-47 -25q-11 -8 -23 -8q-19 0 -33 18q-9 11 -9 24q0 17 17 32q58 48 86 87t28 89q0 22 -5.5 43t-14.5 35h-88q-33 0 -33 27q0 28 33 28h58q-24 30 -37 67t-13 74q0 91 56.5 142t157.5 51q73 0 131 -32.5
t89 -89.5q4 -7 4 -16q0 -15 -15 -23q-7 -4 -16 -4q-18 0 -30 17q-28 44 -67.5 67.5t-95.5 23.5q-71 0 -111 -36.5t-40 -100.5q0 -32 15 -69t43 -71h173q32 0 32 -28q0 -27 -32 -27h-149q18 -34 18 -78q0 -51 -27 -92.5t-73 -80.5l1 -2q23 12 41.5 18t38.5 6q23 0 41 -5
t51 -16q27 -11 49.5 -17t49.5 -6q22 0 40.5 7.5t40.5 27.5q10 10 22 10q8 0 17 -6q10 -7 10 -20q0 -12 -9 -23q-51 -54 -126 -54q-27 0 -50 6z" />
    <glyph glyph-name="currency" unicode="&#xa4;" horiz-adv-x="605" 
d="M53 99q0 15 15 30l40 41q-54 67 -54 154q0 88 54 155l-40 41q-14 14 -14 28q0 13 11 26q11 10 25 10q18 0 31 -15l40 -42q66 45 142 45q37 0 73.5 -12t67.5 -33l41 42q14 15 31 15q13 0 24 -10q12 -10 12 -24t-14 -30l-40 -41q53 -66 53 -155q0 -88 -53 -154l40 -42
q14 -14 14 -29q0 -13 -12 -24q-13 -11 -24 -11q-15 0 -31 16l-41 42q-31 -22 -67.5 -33.5t-73.5 -11.5q-78 0 -142 45l-40 -42q-14 -16 -31 -16q-13 0 -24 10q-13 12 -13 25zM438.5 184q49.5 51 49.5 140q0 90 -49.5 140.5t-135.5 50.5q-87 0 -136.5 -50.5t-49.5 -140.5
q0 -89 49.5 -140t136.5 -51q86 0 135.5 51z" />
    <glyph glyph-name="yen" unicode="&#xa5;" horiz-adv-x="678" 
d="M626 674v-129q0 -85 -32 -153.5t-90 -110.5t-132 -50v-8h107q16 0 24.5 -5t8.5 -20q0 -24 -33 -24h-107v-44h107q16 0 24.5 -5.5t8.5 -19.5q0 -24 -33 -24h-107v-55q0 -17 -8.5 -26.5t-24.5 -9.5q-15 0 -23 9.5t-8 26.5v55h-104q-33 0 -33 24q0 14 8.5 19.5t24.5 5.5h104
v44h-104q-33 0 -33 24q0 14 8.5 19.5t24.5 5.5h104v7q-77 7 -135 48t-89 109.5t-31 157.5v129q0 17 8 26.5t23 9.5q16 0 24.5 -9.5t8.5 -26.5v-132q0 -121 59 -188.5t163 -67.5t163.5 68.5t59.5 187.5v132q0 17 8.5 26.5t23.5 9.5q32 0 32 -36z" />
    <glyph glyph-name="brokenbar" unicode="&#xa6;" horiz-adv-x="224" 
d="M88.5 378q-8.5 10 -8.5 26v342q0 17 8.5 26.5t23.5 9.5t23.5 -9.5t8.5 -26.5v-342q0 -17 -8.5 -26.5t-23.5 -9.5t-23.5 10zM88.5 -187.5q-8.5 9.5 -8.5 26.5v342q0 17 8.5 26.5t23.5 9.5t23.5 -9.5t8.5 -26.5v-342q0 -17 -8.5 -26.5t-23.5 -9.5t-23.5 9.5z" />
    <glyph glyph-name="section" unicode="&#xa7;" horiz-adv-x="548" 
d="M173.5 -52.5q-41.5 22.5 -64.5 61.5t-23 88q0 33 35 33q13 0 21.5 -9.5t8.5 -24.5q0 -54 31.5 -85t87.5 -31q52 0 81.5 22.5t29.5 62.5q0 51 -51 80l-205 118q-35 21 -54 52t-19 71q0 39 24.5 72t68.5 52q-39 35 -39 88q0 62 46.5 98t122.5 36q82 0 128 -40.5t46 -111.5
q0 -14 -8 -22.5t-21 -8.5q-14 0 -22 8.5t-8 22.5q0 97 -117 97q-49 0 -77.5 -21t-28.5 -58q0 -21 10 -38t28 -27l236 -139q55 -32 55 -107q0 -39 -27 -73.5t-71 -53.5q21 -18 33 -43t12 -50q0 -64 -48 -103t-125 -39q-55 0 -96.5 22.5zM414.5 232q23.5 25 23.5 55
q0 28 -11 45.5t-38 33.5l-199 113q-79 -29 -79 -93q0 -29 13.5 -49t40.5 -35l189 -108q37 13 60.5 38z" />
    <glyph glyph-name="dieresis" unicode="&#xa8;" horiz-adv-x="390" 
d="M62 592.5q-14 13.5 -14 31.5q0 19 14 33t33 14t32.5 -14t13.5 -33q0 -18 -13.5 -31.5t-32.5 -13.5t-33 13.5zM264 592.5q-14 13.5 -14 31.5q0 19 14 33t33 14q18 0 32 -14t14 -33q0 -18 -14 -31.5t-32 -13.5q-19 0 -33 13.5z" />
    <glyph glyph-name="copyright" unicode="&#xa9;" horiz-adv-x="849" 
d="M238 34q-85 48 -135 131.5t-50 184.5t50 184.5t135 131.5t187 48t187 -48t135 -131.5t50 -184.5t-50 -184.5t-135 -131.5t-187 -48t-187 48zM583.5 83q71.5 40 113 110.5t41.5 156.5q0 87 -41.5 158t-113 111.5t-158.5 40.5t-159 -40.5t-113.5 -111.5t-41.5 -158
q0 -86 41.5 -156.5t113.5 -110.5t159 -40t158.5 40zM255.5 171.5q-66.5 63.5 -66.5 172.5t66.5 172t178.5 63q61 0 113.5 -23.5t88.5 -67.5q7 -8 7 -17q0 -12 -11 -23q-7 -6 -16 -6q-14 0 -26 12q-64 70 -156 70q-85 0 -135 -46.5t-50 -133.5t50 -134t135 -47q94 0 155 69
q11 12 24 12q11 0 19 -7q10 -7 10 -20q0 -11 -9 -19q-47 -44 -98 -67t-101 -23q-112 0 -178.5 63.5z" />
    <glyph glyph-name="ordfeminine" unicode="&#xaa;" horiz-adv-x="425" 
d="M84 416q-33 32 -33 79q0 49 37 79.5t101 30.5q37 0 67 -11.5t47 -29.5v30q0 33 -24.5 52t-73.5 19q-60 0 -105 -28q-7 -5 -14 -5q-9 0 -15 8t-6 15q0 10 8 15q23 18 59.5 29t71.5 11q69 0 108 -30.5t39 -83.5v-190q0 -10 -7 -16t-17 -6q-9 0 -16 6t-7 16v26
q-41 -48 -121 -48q-66 0 -99 32zM271 445.5q32 17.5 32 50.5q0 29 -31 47t-83 18q-45 0 -67 -18t-22 -48q0 -32 22.5 -49.5t64.5 -17.5q52 0 84 17.5z" />
    <glyph glyph-name="guillemotleft" unicode="&#xab;" horiz-adv-x="467" 
d="M237 51q-13 0 -24 12l-152 186q-7 9 -7 17q0 10 7 20l152 186q11 13 25 13q7 0 14 -4q14 -8 14 -25q0 -10 -6 -16l-144 -173l144 -172q6 -7 6 -16q0 -15 -14 -24q-7 -4 -15 -4zM384 50q-13 0 -24 13l-152 186q-7 8 -7 17q0 11 7 20l152 186q11 13 25 13q7 0 14 -4
q14 -8 14 -25q0 -10 -6 -16l-144 -173l144 -172q6 -7 6 -15q0 -16 -14 -25q-8 -5 -15 -5z" />
    <glyph glyph-name="logicalnot" unicode="&#xac;" horiz-adv-x="501" 
d="M398.5 118q-7.5 9 -7.5 25v103h-304q-17 0 -26 7t-9 20q0 28 35 28h326q36 0 36 -28v-130q0 -34 -29 -34q-14 0 -21.5 9z" />
    <glyph glyph-name="uni00AD" unicode="&#xad;" horiz-adv-x="470" 
d="M61 223q-9 7 -9 20q0 28 35 28h296q35 0 35 -28q0 -13 -9 -20t-26 -7h-296q-17 0 -26 7z" />
    <glyph glyph-name="registered" unicode="&#xae;" horiz-adv-x="849" 
d="M236 32.5q-86 48.5 -136 132t-50 185.5q0 101 50 185t136 132.5t189 48.5t188.5 -48.5t135.5 -132.5t50 -185q0 -102 -50 -185.5t-135.5 -132t-188.5 -48.5t-189 48.5zM583 84.5q71 39.5 112 109.5t41 156q0 87 -41 157.5t-112 110.5t-158 40q-88 0 -159.5 -40
t-112.5 -110.5t-41 -157.5q0 -86 41 -156t112.5 -109.5t159.5 -39.5q87 0 158 39.5zM256 480q0 40 25 65.5t72 25.5h102q89 0 137 -34t48 -105q0 -66 -46.5 -100t-129.5 -34l124 -134q8 -10 8 -18q0 -10 -9 -18q-8 -8 -19 -8q-12 0 -23 12l-150 165l-84 -1v-143
q0 -14 -7 -22t-20 -8q-14 0 -21 8t-7 22v327zM469 347q51 0 83 20t32 65q0 50 -32 71t-94 21h-107q-18 0 -29 -11.5t-11 -29.5v-135z" />
    <glyph glyph-name="macron" unicode="&#xaf;" horiz-adv-x="402" 
d="M47 584q0 14 8.5 19t24.5 5h243q17 0 25 -5t8 -19q0 -23 -33 -23h-243q-33 0 -33 23z" />
    <glyph glyph-name="degree" unicode="&#xb0;" horiz-adv-x="349" 
d="M87.5 621.5q-35.5 32.5 -35.5 83.5q0 52 35.5 84t87.5 32t87.5 -32t34.5 -84q1 -51 -34.5 -83.5t-87.5 -32.5t-87.5 32.5zM225 655.5q19 19.5 19 49.5q0 31 -19 50t-50 19t-50.5 -19.5t-18.5 -49.5q-1 -30 18.5 -49.5t50.5 -19.5t50 19.5z" />
    <glyph glyph-name="plusminus" unicode="&#xb1;" horiz-adv-x="507" 
d="M34 261q-9 7 -9 20q0 28 35 28h166v123q0 34 28 34q29 0 29 -34v-123h165q34 0 34 -28q0 -13 -9 -20t-25 -7h-165v-120q0 -34 -29 -34q-28 0 -28 34v120h-166q-17 0 -26 7zM482 27q0 -13 -9 -20t-25 -7h-388q-17 0 -26 7t-9 20q0 28 35 28h388q34 0 34 -28z" />
    <glyph glyph-name="uni00B2" unicode="&#xb2;" horiz-adv-x="448" 
d="M60.5 408q-7.5 8 -7.5 19q0 15 12 25l221 183q25 21 35.5 39t10.5 47q0 36 -25 57t-73 21q-39 0 -71 -15t-54 -42q-9 -11 -25 -11q-10 0 -15 4q-10 7 -10 20q0 11 7 21q27 35 71 53t97 18q75 0 117 -34.5t42 -91.5q0 -36 -19 -66t-58 -62l-175 -146h225q30 0 30 -22
q0 -13 -7.5 -19t-22.5 -6h-285q-13 0 -20.5 8z" />
    <glyph glyph-name="uni00B3" unicode="&#xb3;" horiz-adv-x="458" 
d="M131 413q-46 19 -71 55q-8 10 -8 21q0 12 12 19q7 4 16 4q15 0 24 -12q21 -27 54 -42t72 -15q55 0 85 21.5t30 59.5q0 42 -21 61.5t-62 19.5h-68q-13 0 -20.5 7t-7.5 18q0 26 28 26h68q33 0 53 18t20 50q0 36 -26 55.5t-78 19.5q-31 0 -61 -13t-54 -37q-11 -11 -25 -11
q-8 0 -15 5q-10 7 -10 21q0 11 7 18q31 31 71.5 48t87.5 17q78 0 120.5 -34t42.5 -88q0 -29 -16 -53t-49 -39v-1q76 -29 76 -110q0 -59 -48.5 -93.5t-127.5 -34.5q-53 0 -99 19z" />
    <glyph glyph-name="acute" unicode="&#xb4;" horiz-adv-x="223" 
d="M47 580q0 6 3 12l63 140q13 27 30 27q6 0 16 -5q17 -8 17 -23q0 -8 -6 -19l-77 -138q-9 -15 -23 -15q-4 0 -10 2q-13 6 -13 19z" />
    <glyph glyph-name="uni00B5" unicode="&#xb5;" horiz-adv-x="624" 
d="M80 -214v678q0 36 32 36q30 0 30 -36v-264q0 -74 39 -114t110 -40q52 0 96 22.5t70 66.5t26 104v225q0 36 31 36t31 -36v-438q0 -17 -8 -26.5t-23 -9.5t-23 9.5t-8 26.5v65q-34 -45 -84 -73t-110 -28q-94 0 -147 64v-268q0 -36 -30 -36q-32 0 -32 36z" />
    <glyph glyph-name="paragraph" unicode="&#xb6;" horiz-adv-x="650" 
d="M259 -254.5q-8 9.5 -8 26.5v579q-94 0 -146 47.5t-52 128.5q0 86 52.5 131.5t150.5 45.5h308q34 0 34 -28q0 -13 -9 -20t-25 -7h-34v-877q0 -17 -8.5 -26.5t-24.5 -9.5q-15 0 -23 9.5t-8 26.5v877h-151v-877q0 -17 -8.5 -26.5t-24.5 -9.5q-15 0 -23 9.5z" />
    <glyph glyph-name="periodcentered" unicode="&#xb7;" horiz-adv-x="208" 
d="M68.5 305q-15.5 15 -15.5 35q0 21 15 36.5t37 15.5q20 0 35.5 -15.5t15.5 -36.5q0 -20 -15.5 -35t-35.5 -15q-21 0 -36.5 15z" />
    <glyph glyph-name="cedilla" unicode="&#xb8;" horiz-adv-x="294" 
d="M93.5 -196q-26.5 14 -40.5 35q-6 7 -6 15t10 17q8 5 14 5q10 0 17 -11q22 -30 63 -30q22 0 33.5 10.5t11.5 28.5q0 17 -9 27t-28 10q-8 0 -13 -1q-14 -2 -23.5 5t-9.5 18q0 6 3 12l24 51q5 12 10 17.5t13 5.5q2 0 10 -2q20 -6 20 -19q0 -6 -3 -10l-24 -47q41 1 61 -18.5
t20 -50.5q0 -36 -25 -59t-70 -23q-32 0 -58.5 14z" />
    <glyph glyph-name="uni00B9" unicode="&#xb9;" horiz-adv-x="295" 
d="M162.5 402.5q-8.5 8.5 -8.5 21.5v358l-69 -26q-7 -3 -16 -3q-17 0 -23 13q-4 10 -4 15q0 16 18 22l116 42q4 2 12 2q11 0 19 -7.5t8 -22.5v-393q0 -30 -31 -30q-13 0 -21.5 8.5z" />
    <glyph glyph-name="ordmasculine" unicode="&#xba;" horiz-adv-x="445" 
d="M98.5 429q-47.5 45 -47.5 118t47.5 118t124.5 45q76 0 123.5 -45t47.5 -118t-47.5 -118t-123.5 -45q-77 0 -124.5 45zM311 461q33 32 33 86t-32.5 86t-88.5 32t-88.5 -31.5t-32.5 -86.5t32.5 -86.5t88.5 -31.5q55 0 88 32z" />
    <glyph glyph-name="guillemotright" unicode="&#xbb;" horiz-adv-x="467" 
d="M54 80q0 8 6 15l144 172l-144 173q-6 8 -6 16q0 16 14 25q7 4 14 4q14 0 25 -13l152 -186q7 -10 7 -20q0 -9 -7 -17l-152 -186q-11 -13 -24 -13q-7 0 -15 5q-14 9 -14 25zM201 79q0 9 6 16l144 172l-144 173q-6 8 -6 16q0 16 14 25q7 4 14 4q14 0 25 -13l152 -186
q7 -10 7 -20q0 -9 -7 -17l-152 -186q-10 -13 -24 -13q-7 0 -15 5q-14 9 -14 24z" />
    <glyph glyph-name="onequarter" unicode="&#xbc;" horiz-adv-x="757" 
d="M118 16q0 10 7 20l454 662q9 14 24 14q10 0 19 -6q14 -8 14 -21q0 -10 -7 -20l-455 -663q-9 -14 -25 -14q-9 0 -18 6q-13 8 -13 22zM176.5 264.5q-8.5 8.5 -8.5 21.5v358l-69 -26q-7 -3 -16 -3q-17 0 -23 13q-4 10 -4 15q0 16 18 22l116 42q4 2 12 2q11 0 19 -7.5
t8 -22.5v-393q0 -30 -31 -30q-13 0 -21.5 8.5zM581 -2q-7 8 -7 23v71h-213q-13 0 -20.5 7.5t-7.5 17.5t6 17l241 300q8 9 23 9q28 0 28 -26v-273h40q15 0 22.5 -7t7.5 -19q0 -11 -8 -18.5t-22 -7.5h-40v-71q0 -31 -31 -31q-12 0 -19 8zM575 144v206l-166 -206h166z" />
    <glyph glyph-name="onehalf" unicode="&#xbd;" horiz-adv-x="864" 
d="M118 16q0 10 6 20l455 662q9 14 24 14q8 0 19 -6q13 -7 13 -21q0 -9 -6 -20l-455 -663q-9 -14 -25 -14q-10 0 -19 6q-12 8 -12 22zM176.5 264.5q-8.5 8.5 -8.5 21.5v358l-69 -26q-9 -3 -16 -3q-18 0 -24 13q-4 10 -4 14q0 17 19 23l115 42q4 2 12 2q11 0 19 -7.5t8 -22.5
v-393q0 -30 -31 -30q-12 0 -20.5 8.5zM472.5 8q-7.5 8 -7.5 19q0 15 13 25l221 183q24 20 34.5 38.5t10.5 47.5q0 36 -25 57t-73 21q-39 0 -71 -14.5t-53 -41.5q-9 -12 -25 -12q-10 0 -15 4q-11 7 -11 21q0 11 7 20q27 35 71.5 53t96.5 18q75 0 117 -34.5t42 -91.5
q0 -37 -19 -67t-57 -61l-175 -146h225q29 0 29 -22q0 -25 -29 -25h-286q-13 0 -20.5 8z" />
    <glyph glyph-name="threequarters" unicode="&#xbe;" horiz-adv-x="884" 
d="M246 17q0 9 6 18l455 663q9 14 23 14q10 0 19 -6q14 -7 14 -22q0 -8 -6 -19l-455 -663q-9 -14 -26 -14q-9 0 -18 6q-12 8 -12 23zM135.5 275q-45.5 19 -71.5 55q-8 12 -8 21q0 12 12 19q7 4 16 4q15 0 23 -11q22 -28 54.5 -43t72.5 -15q55 0 85 21.5t30 59.5
q0 42 -21 61.5t-62 19.5h-68q-13 0 -20.5 7t-7.5 18q0 26 28 26h68q33 0 53 18t20 50q0 36 -26 55.5t-78 19.5q-65 0 -115 -50q-11 -11 -25 -11q-7 0 -15 5q-10 7 -10 21q0 11 7 18q31 31 71.5 48t87.5 17q78 0 120.5 -33.5t42.5 -88.5q0 -28 -16 -52.5t-49 -39.5v-1
q76 -29 76 -110q0 -59 -48.5 -93.5t-127.5 -34.5q-53 0 -98.5 19zM708 -2q-7 8 -7 23v71h-212q-13 0 -21 7.5t-8 18.5q0 9 6 16l242 300q8 9 23 9q27 0 27 -26v-273h41q14 0 21.5 -7t7.5 -19q0 -11 -7.5 -18.5t-21.5 -7.5h-41v-71q0 -15 -8 -23t-22 -8q-13 0 -20 8zM703 144
v206l-167 -206h167z" />
    <glyph glyph-name="questiondown" unicode="&#xbf;" horiz-adv-x="568" 
d="M248 410q-16 15 -16 39q0 23 16 37t40 14t40 -14t16 -37q0 -24 -16 -39t-40 -15t-40 15zM111.5 -171q-59.5 49 -59.5 136q0 39 15 68t36 49.5t56 47.5q33 26 52.5 44t32.5 43t13 57v20q0 17 8.5 26.5t24.5 9.5q15 0 23 -9.5t8 -26.5v-20q0 -41 -15.5 -72t-37 -52.5
t-58.5 -49.5q-47 -36 -70 -64.5t-23 -70.5q0 -60 42 -94t117 -34q56 0 103 20.5t76 57.5q13 16 31 16q8 0 15 -4q15 -10 15 -24q0 -7 -6 -16q-37 -51 -99 -79t-135 -28q-105 0 -164.5 49z" />
    <glyph glyph-name="Agrave" unicode="&#xc0;" horiz-adv-x="729" 
d="M89 -0.5q-8 9.5 -8 26.5v399q0 134 75 209.5t209 75.5q133 0 208.5 -76t75.5 -209v-399q0 -17 -8.5 -26.5t-23.5 -9.5t-24 9.5t-9 26.5v237h-439v-237q0 -17 -8.5 -26.5t-24.5 -9.5q-15 0 -23 9.5zM584 317v111q0 108 -57 167t-162 59q-107 0 -163.5 -58.5t-56.5 -167.5
v-111h439zM366 789q-14 0 -23 15l-78 138q-6 9 -6 18q0 15 18 24q8 4 16 4q18 0 29 -26l63 -140q3 -6 3 -13q0 -13 -12 -18q-6 -2 -10 -2z" />
    <glyph glyph-name="Aacute" unicode="&#xc1;" horiz-adv-x="729" 
d="M89 -0.5q-8 9.5 -8 26.5v399q0 134 75 209.5t209 75.5q133 0 208.5 -76t75.5 -209v-399q0 -17 -8.5 -26.5t-23.5 -9.5t-24 9.5t-9 26.5v237h-439v-237q0 -17 -8.5 -26.5t-24.5 -9.5q-15 0 -23 9.5zM584 317v111q0 108 -57 167t-162 59q-107 0 -163.5 -58.5t-56.5 -167.5
v-111h439zM342 810q0 6 3 12l63 140q13 27 30 27q6 0 16 -5q17 -8 17 -23q0 -8 -6 -19l-77 -138q-9 -15 -23 -15q-4 0 -10 2q-13 6 -13 19z" />
    <glyph glyph-name="Acircumflex" unicode="&#xc2;" horiz-adv-x="729" 
d="M89 -0.5q-8 9.5 -8 26.5v399q0 134 75 209.5t209 75.5q133 0 208.5 -76t75.5 -209v-399q0 -17 -8.5 -26.5t-23.5 -9.5t-24 9.5t-9 26.5v237h-439v-237q0 -17 -8.5 -26.5t-24.5 -9.5q-15 0 -23 9.5zM584 317v111q0 108 -57 167t-162 59q-107 0 -163.5 -58.5t-56.5 -167.5
v-111h439zM222 816q0 10 8 21l106 126q13 16 29 16q15 0 29 -16l106 -126q8 -11 8 -21q0 -11 -12 -22q-9 -6 -17 -6q-15 0 -28 18l-86 114l-86 -114q-16 -19 -29 -19q-8 0 -15 6q-13 10 -13 23z" />
    <glyph glyph-name="Atilde" unicode="&#xc3;" horiz-adv-x="729" 
d="M89 -0.5q-8 9.5 -8 26.5v399q0 134 75 209.5t209 75.5q133 0 208.5 -76t75.5 -209v-399q0 -17 -8.5 -26.5t-23.5 -9.5t-24 9.5t-9 26.5v237h-439v-237q0 -17 -8.5 -26.5t-24.5 -9.5q-15 0 -23 9.5zM584 317v111q0 108 -57 167t-162 59q-107 0 -163.5 -58.5t-56.5 -167.5
v-111h439zM203 832q0 8 1 13q8 33 32.5 54.5t58.5 21.5q24 0 42.5 -8.5t40.5 -24.5q16 -12 28.5 -18t25.5 -6q36 0 47 44q5 20 22 20q7 0 10 -1q15 -4 15 -21q0 -8 -1 -12q-8 -34 -32.5 -55.5t-58.5 -21.5q-21 0 -38 8t-38 23q-22 14 -34 20t-27 6q-35 0 -46 -43
q-6 -20 -22 -20q-26 0 -26 21z" />
    <glyph glyph-name="Adieresis" unicode="&#xc4;" horiz-adv-x="729" 
d="M89 -0.5q-8 9.5 -8 26.5v399q0 134 75 209.5t209 75.5q133 0 208.5 -76t75.5 -209v-399q0 -17 -8.5 -26.5t-23.5 -9.5t-24 9.5t-9 26.5v237h-439v-237q0 -17 -8.5 -26.5t-24.5 -9.5q-15 0 -23 9.5zM584 317v111q0 108 -57 167t-162 59q-107 0 -163.5 -58.5t-56.5 -167.5
v-111h439zM232 822.5q-14 13.5 -14 31.5q0 19 14 33t33 14t32.5 -14t13.5 -33q0 -18 -13.5 -31.5t-32.5 -13.5t-33 13.5zM434 822.5q-14 13.5 -14 31.5q0 19 14 33t33 14t32.5 -14t13.5 -33q0 -18 -13.5 -31.5t-32.5 -13.5t-33 13.5z" />
    <glyph glyph-name="Aring" unicode="&#xc5;" horiz-adv-x="729" 
d="M89 -0.5q-8 9.5 -8 26.5v399q0 134 75 209.5t209 75.5q133 0 208.5 -76t75.5 -209v-399q0 -17 -8.5 -26.5t-23.5 -9.5t-24 9.5t-9 26.5v237h-439v-237q0 -17 -8.5 -26.5t-24.5 -9.5q-15 0 -23 9.5zM584 317v111q0 108 -57 167t-162 59q-107 0 -163.5 -58.5t-56.5 -167.5
v-111h439zM284 784.5q-31 28.5 -31 72.5q0 43 31 71.5t81 28.5t80 -28.5t30 -71.5q0 -44 -30 -72.5t-80 -28.5t-81 28.5zM411.5 813q17.5 16 17.5 44t-17.5 44t-46.5 16t-46.5 -16t-17.5 -44t17.5 -44t46.5 -16t46.5 16z" />
    <glyph glyph-name="AE" unicode="&#xc6;" horiz-adv-x="1125" 
d="M89 -0.5q-8 9.5 -8 26.5v399q0 134 75 209.5t209 75.5q150 0 224 -106q6 47 36 71.5t79 24.5h307q18 0 26 -7t8 -21q0 -26 -34 -26h-310q-25 0 -39.5 -16.5t-14.5 -42.5v-202h288q18 0 26 -7t8 -21q0 -27 -34 -27h-288v-216q0 -27 14.5 -43t39.5 -16h332q34 0 34 -28
q0 -13 -9 -20t-25 -7h-329q-57 0 -88.5 30.5t-31.5 85.5v147h-439v-237q0 -17 -8.5 -26.5t-24.5 -9.5q-15 0 -23 9.5zM584 317v111q0 108 -57 167t-162 59q-107 0 -163.5 -58.5t-56.5 -167.5v-111h439z" />
    <glyph glyph-name="Ccedilla" unicode="&#xc7;" horiz-adv-x="745" 
d="M687 118q0 -12 -7 -20q-37 -46 -105.5 -74.5t-150.5 -32.5l-1 -3l-25 -47q41 1 61.5 -18.5t20.5 -50.5q0 -36 -25 -59t-70 -23q-32 0 -58.5 14.5t-40.5 34.5q-6 7 -6 14q0 9 10 18q5 5 13 5q10 0 18 -11q23 -30 62 -30q23 0 34.5 10.5t11.5 28.5q0 37 -37 37q-8 0 -13 -1
q-14 -2 -23.5 5t-9.5 18q0 6 3 12l22 46q-94 6 -164.5 52.5t-109.5 125.5t-39 180q0 107 42.5 189t120.5 127t180 45q85 0 156 -28.5t112 -79.5q8 -10 8 -20q0 -14 -12 -22q-7 -6 -18 -6q-8 0 -15.5 3.5t-11.5 9.5q-32 41 -89 64t-130 23q-85 0 -148 -37t-96.5 -106
t-33.5 -162t33.5 -161t96.5 -104.5t148 -36.5q79 0 138 22.5t92 64.5q12 13 27 13q11 0 18 -6q11 -10 11 -23z" />
    <glyph glyph-name="Egrave" unicode="&#xc8;" horiz-adv-x="629" 
d="M115.5 30.5q-32.5 30.5 -32.5 85.5v469q0 54 32 84.5t90 30.5h310q34 0 34 -28q0 -26 -34 -26h-313q-25 0 -40 -16.5t-15 -42.5v-202h292q34 0 34 -28q0 -13 -9 -20t-25 -7h-292v-216q0 -27 15 -43t40 -16h335q34 0 34 -28q0 -13 -9 -20t-25 -7h-331q-58 0 -90.5 30.5z
M340 789q-14 0 -23 15l-78 138q-6 9 -6 18q0 15 18 24q8 4 16 4q18 0 29 -26l63 -140q3 -6 3 -13q0 -13 -12 -18q-6 -2 -10 -2z" />
    <glyph glyph-name="Eacute" unicode="&#xc9;" horiz-adv-x="629" 
d="M115.5 30.5q-32.5 30.5 -32.5 85.5v469q0 54 32 84.5t90 30.5h310q34 0 34 -28q0 -26 -34 -26h-313q-25 0 -40 -16.5t-15 -42.5v-202h292q34 0 34 -28q0 -13 -9 -20t-25 -7h-292v-216q0 -27 15 -43t40 -16h335q34 0 34 -28q0 -13 -9 -20t-25 -7h-331q-58 0 -90.5 30.5z
M313 810q0 6 3 12l63 140q13 27 30 27q6 0 16 -5q17 -8 17 -23q0 -8 -6 -19l-77 -138q-9 -15 -23 -15q-4 0 -10 2q-13 6 -13 19z" />
    <glyph glyph-name="Ecircumflex" unicode="&#xca;" horiz-adv-x="629" 
d="M115.5 30.5q-32.5 30.5 -32.5 85.5v469q0 54 32 84.5t90 30.5h310q34 0 34 -28q0 -26 -34 -26h-313q-25 0 -40 -16.5t-15 -42.5v-202h292q34 0 34 -28q0 -13 -9 -20t-25 -7h-292v-216q0 -27 15 -43t40 -16h335q34 0 34 -28q0 -13 -9 -20t-25 -7h-331q-58 0 -90.5 30.5z
M193 816q0 10 8 21l106 126q13 16 29 16t29 -16l105 -126q9 -10 9 -21q0 -12 -13 -22q-9 -6 -16 -6q-14 0 -28 18l-86 114l-86 -114q-14 -19 -29 -19q-7 0 -15 6q-13 10 -13 23z" />
    <glyph glyph-name="Edieresis" unicode="&#xcb;" horiz-adv-x="629" 
d="M115.5 30.5q-32.5 30.5 -32.5 85.5v469q0 54 32 84.5t90 30.5h310q34 0 34 -28q0 -26 -34 -26h-313q-25 0 -40 -16.5t-15 -42.5v-202h292q34 0 34 -28q0 -13 -9 -20t-25 -7h-292v-216q0 -27 15 -43t40 -16h335q34 0 34 -28q0 -13 -9 -20t-25 -7h-331q-58 0 -90.5 30.5z
M203 822.5q-14 13.5 -14 31.5q0 19 14 33t33 14t32.5 -14t13.5 -33q0 -18 -13.5 -31.5t-32.5 -13.5t-33 13.5zM405 822.5q-14 13.5 -14 31.5q0 19 14 33t33 14q18 0 32 -14t14 -33q0 -18 -14 -31.5t-32 -13.5q-19 0 -33 13.5z" />
    <glyph glyph-name="Igrave" unicode="&#xcc;" horiz-adv-x="296" 
d="M124.5 -0.5q-8.5 9.5 -8.5 26.5v648q0 36 32 36q15 0 23.5 -9.5t8.5 -26.5v-648q0 -17 -8.5 -26.5t-23.5 -9.5t-23.5 9.5zM152 789q-14 0 -23 15l-78 138q-6 9 -6 18q0 15 18 24q8 4 16 4q18 0 29 -26l63 -140q3 -6 3 -13q0 -13 -12 -18q-6 -2 -10 -2z" />
    <glyph glyph-name="Iacute" unicode="&#xcd;" horiz-adv-x="296" 
d="M124.5 -0.5q-8.5 9.5 -8.5 26.5v648q0 36 32 36q15 0 23.5 -9.5t8.5 -26.5v-648q0 -17 -8.5 -26.5t-23.5 -9.5t-23.5 9.5zM125 810q0 6 3 12l63 140q13 27 30 27q6 0 16 -5q17 -8 17 -23q0 -8 -6 -19l-77 -138q-9 -15 -23 -15q-4 0 -10 2q-13 6 -13 19z" />
    <glyph glyph-name="Icircumflex" unicode="&#xce;" horiz-adv-x="296" 
d="M124.5 -0.5q-8.5 9.5 -8.5 26.5v648q0 36 32 36q15 0 23.5 -9.5t8.5 -26.5v-648q0 -17 -8.5 -26.5t-23.5 -9.5t-23.5 9.5zM5 816q0 10 8 21l106 126q13 16 29 16t29 -16l105 -126q9 -10 9 -21q0 -12 -13 -22q-9 -6 -16 -6q-14 0 -28 18l-86 114l-86 -114q-14 -19 -29 -19
q-7 0 -15 6q-13 10 -13 23z" />
    <glyph glyph-name="Idieresis" unicode="&#xcf;" horiz-adv-x="296" 
d="M124.5 -0.5q-8.5 9.5 -8.5 26.5v648q0 36 32 36q15 0 23.5 -9.5t8.5 -26.5v-648q0 -17 -8.5 -26.5t-23.5 -9.5t-23.5 9.5zM15 822.5q-14 13.5 -14 31.5q0 19 14 33t33 14t32.5 -14t13.5 -33q0 -18 -13.5 -31.5t-32.5 -13.5t-33 13.5zM217 822.5q-14 13.5 -14 31.5
q0 19 14 33t33 14q18 0 32 -14t14 -33q0 -18 -14 -31.5t-32 -13.5q-19 0 -33 13.5z" />
    <glyph glyph-name="Eth" unicode="&#xd0;" horiz-adv-x="787" 
d="M166.5 30.5q-32.5 30.5 -32.5 85.5v209h-62q-17 0 -26 6.5t-9 19.5q0 27 35 27h62v207q0 54 32.5 84.5t89.5 30.5h141q101 0 177.5 -43.5t118 -123t41.5 -184.5t-41.5 -184t-117.5 -122t-178 -43h-140q-58 0 -90.5 30.5zM387 55q133 0 207.5 77.5t74.5 216.5t-75 218
t-207 79h-133q-25 0 -40 -16t-15 -43v-209h168q18 0 26.5 -6t8.5 -21q0 -26 -35 -26h-168v-211q0 -27 15 -43t40 -16h133z" />
    <glyph glyph-name="Ntilde" unicode="&#xd1;" horiz-adv-x="737" 
d="M88.5 -0.5q-8.5 9.5 -8.5 26.5v414q0 126 77 198t212 72q134 0 211 -72t77 -198v-414q0 -36 -32 -36q-15 0 -23.5 9.5t-8.5 26.5v417q0 100 -58.5 155.5t-165.5 55.5q-106 0 -165.5 -56t-59.5 -155v-417q0 -17 -8.5 -26.5t-23.5 -9.5t-23.5 9.5zM204 826q0 7 1 12
q8 34 32.5 55.5t58.5 21.5q24 0 42.5 -8.5t40.5 -24.5q16 -12 28.5 -18t25.5 -6q36 0 47 43q5 20 22 20q26 0 26 -21q0 -4 -2 -12q-8 -35 -32.5 -56t-58.5 -21q-21 0 -38 8t-38 23q-22 14 -34 20t-27 6q-34 0 -46 -43q-6 -21 -23 -21q-25 0 -25 22z" />
    <glyph glyph-name="Ograve" unicode="&#xd2;" horiz-adv-x="820" 
d="M232 34.5q-80 44.5 -127 126t-47 189.5t46.5 190t127 126t178.5 44t178.5 -44t127.5 -126t47 -190t-47 -189.5t-127.5 -126t-178.5 -44.5t-178 44.5zM557.5 82.5q65.5 35.5 103.5 104t38 163.5q0 96 -38.5 164.5t-104 103.5t-146.5 36q-82 0 -147 -35.5t-103 -104.5
t-38 -164t38 -163.5t103 -104t147 -35.5t147.5 35.5zM414 789q-14 0 -23 15l-78 138q-6 9 -6 18q0 15 18 24q8 4 16 4q18 0 29 -26l63 -140q3 -6 3 -13q0 -13 -12 -18q-6 -2 -10 -2z" />
    <glyph glyph-name="Oacute" unicode="&#xd3;" horiz-adv-x="820" 
d="M232 34.5q-80 44.5 -127 126t-47 189.5t46.5 190t127 126t178.5 44t178.5 -44t127.5 -126t47 -190t-47 -189.5t-127.5 -126t-178.5 -44.5t-178 44.5zM557.5 82.5q65.5 35.5 103.5 104t38 163.5q0 96 -38.5 164.5t-104 103.5t-146.5 36q-82 0 -147 -35.5t-103 -104.5
t-38 -164t38 -163.5t103 -104t147 -35.5t147.5 35.5zM387 810q0 6 3 12l63 140q13 27 30 27q6 0 16 -5q17 -8 17 -23q0 -8 -6 -19l-77 -138q-9 -15 -23 -15q-4 0 -10 2q-13 6 -13 19z" />
    <glyph glyph-name="Ocircumflex" unicode="&#xd4;" horiz-adv-x="820" 
d="M232 34.5q-80 44.5 -127 126t-47 189.5t46.5 190t127 126t178.5 44t178.5 -44t127.5 -126t47 -190t-47 -189.5t-127.5 -126t-178.5 -44.5t-178 44.5zM557.5 82.5q65.5 35.5 103.5 104t38 163.5q0 96 -38.5 164.5t-104 103.5t-146.5 36q-82 0 -147 -35.5t-103 -104.5
t-38 -164t38 -163.5t103 -104t147 -35.5t147.5 35.5zM268 816q0 10 8 21l106 126q13 16 29 16t29 -16l105 -126q9 -10 9 -21q0 -12 -13 -22q-9 -6 -16 -6q-14 0 -28 18l-86 114l-86 -114q-14 -19 -29 -19q-7 0 -15 6q-13 10 -13 23z" />
    <glyph glyph-name="Otilde" unicode="&#xd5;" horiz-adv-x="820" 
d="M232 34.5q-80 44.5 -127 126t-47 189.5t46.5 190t127 126t178.5 44t178.5 -44t127.5 -126t47 -190t-47 -189.5t-127.5 -126t-178.5 -44.5t-178 44.5zM557.5 82.5q65.5 35.5 103.5 104t38 163.5q0 96 -38.5 164.5t-104 103.5t-146.5 36q-82 0 -147 -35.5t-103 -104.5
t-38 -164t38 -163.5t103 -104t147 -35.5t147.5 35.5zM248 826q0 7 1 12q8 34 32.5 55.5t58.5 21.5q24 0 42.5 -8.5t40.5 -24.5q16 -12 28.5 -18t25.5 -6q36 0 47 43q5 20 22 20q26 0 26 -21q0 -4 -2 -12q-8 -35 -32.5 -56t-58.5 -21q-21 0 -38 8t-38 23q-22 14 -34 20t-27 6
q-34 0 -46 -43q-6 -21 -23 -21q-25 0 -25 22z" />
    <glyph glyph-name="Odieresis" unicode="&#xd6;" horiz-adv-x="820" 
d="M232 34.5q-80 44.5 -127 126t-47 189.5t46.5 190t127 126t178.5 44t178.5 -44t127.5 -126t47 -190t-47 -189.5t-127.5 -126t-178.5 -44.5t-178 44.5zM557.5 82.5q65.5 35.5 103.5 104t38 163.5q0 96 -38.5 164.5t-104 103.5t-146.5 36q-82 0 -147 -35.5t-103 -104.5
t-38 -164t38 -163.5t103 -104t147 -35.5t147.5 35.5zM277 822.5q-14 13.5 -14 31.5q0 19 14 33t33 14t32.5 -14t13.5 -33q0 -18 -13.5 -31.5t-32.5 -13.5t-33 13.5zM479 822.5q-14 13.5 -14 31.5q0 19 14 33t33 14q18 0 32 -14t14 -33q0 -18 -14 -31.5t-32 -13.5
q-19 0 -33 13.5z" />
    <glyph glyph-name="multiply" unicode="&#xd7;" horiz-adv-x="507" 
d="M438 93q13 -13 13 -25q0 -10 -9 -19q-8 -8 -18 -8q-14 0 -27 13l-144 146l-144 -146q-13 -13 -25 -13q-9 0 -20 9q-9 9 -9 18q0 12 13 25l145 147l-143 145q-13 13 -13 25q0 10 9 19q10 9 20 9q11 0 25 -14l142 -144l144 145q13 13 27 13q10 0 18 -8q9 -8 9 -19
q0 -12 -13 -25l-145 -146z" />
    <glyph glyph-name="Oslash" unicode="&#xd8;" horiz-adv-x="808" 
d="M710.5 541q47.5 -84 47.5 -191q0 -104 -45 -186t-125.5 -128t-183.5 -46q-68 0 -127 21l-29 -63q-3 -7 -11 -12t-16 -5q-7 0 -13 3q-18 6 -18 25q0 7 3 13l29 64q-80 45 -126 127t-46 187q0 104 45.5 186t126 128t182.5 46q65 0 119 -18l28 60q4 8 11.5 13t16.5 5
q6 0 12 -3q18 -7 18 -25q0 -7 -2 -11l-28 -62q84 -44 131.5 -128zM151.5 195q33.5 -67 95.5 -105l251 547q-45 14 -96 14q-85 0 -149 -37.5t-99.5 -105.5t-35.5 -158q0 -88 33.5 -155zM554.5 86.5q64.5 37.5 100 105.5t35.5 158q0 91 -36 159.5t-101 104.5l-251 -549
q45 -16 102 -16q86 0 150.5 37.5z" />
    <glyph glyph-name="Ugrave" unicode="&#xd9;" horiz-adv-x="741" 
d="M156.5 67q-76.5 77 -76.5 212v395q0 17 8.5 26.5t23.5 9.5t23.5 -9.5t8.5 -26.5v-398q0 -110 58.5 -169.5t166.5 -59.5q107 0 167 60.5t60 168.5v398q0 17 9 26.5t24 9.5t23 -9.5t8 -26.5v-395q0 -87 -35.5 -152.5t-102 -101t-156.5 -35.5q-133 0 -209.5 77zM374 789
q-14 0 -23 15l-78 138q-6 9 -6 18q0 15 18 24q8 4 16 4q18 0 29 -26l63 -140q3 -6 3 -13q0 -13 -12 -18q-6 -2 -10 -2z" />
    <glyph glyph-name="Uacute" unicode="&#xda;" horiz-adv-x="741" 
d="M156.5 67q-76.5 77 -76.5 212v395q0 17 8.5 26.5t23.5 9.5t23.5 -9.5t8.5 -26.5v-398q0 -110 58.5 -169.5t166.5 -59.5q107 0 167 60.5t60 168.5v398q0 17 9 26.5t24 9.5t23 -9.5t8 -26.5v-395q0 -87 -35.5 -152.5t-102 -101t-156.5 -35.5q-133 0 -209.5 77zM347 810
q0 6 3 12l63 140q13 27 30 27q6 0 16 -5q17 -8 17 -23q0 -8 -6 -19l-77 -138q-9 -15 -23 -15q-4 0 -10 2q-13 6 -13 19z" />
    <glyph glyph-name="Ucircumflex" unicode="&#xdb;" horiz-adv-x="741" 
d="M156.5 67q-76.5 77 -76.5 212v395q0 17 8.5 26.5t23.5 9.5t23.5 -9.5t8.5 -26.5v-398q0 -110 58.5 -169.5t166.5 -59.5q107 0 167 60.5t60 168.5v398q0 17 9 26.5t24 9.5t23 -9.5t8 -26.5v-395q0 -87 -35.5 -152.5t-102 -101t-156.5 -35.5q-133 0 -209.5 77zM228 816
q0 10 8 21l106 126q13 16 29 16t29 -16l105 -126q9 -10 9 -21q0 -12 -13 -22q-9 -6 -16 -6q-14 0 -28 18l-86 114l-86 -114q-14 -19 -29 -19q-7 0 -15 6q-13 10 -13 23z" />
    <glyph glyph-name="Udieresis" unicode="&#xdc;" horiz-adv-x="741" 
d="M156.5 67q-76.5 77 -76.5 212v395q0 17 8.5 26.5t23.5 9.5t23.5 -9.5t8.5 -26.5v-398q0 -110 58.5 -169.5t166.5 -59.5q107 0 167 60.5t60 168.5v398q0 17 9 26.5t24 9.5t23 -9.5t8 -26.5v-395q0 -87 -35.5 -152.5t-102 -101t-156.5 -35.5q-133 0 -209.5 77zM237 822.5
q-14 13.5 -14 31.5q0 19 14 33t33 14t32.5 -14t13.5 -33q0 -18 -13.5 -31.5t-32.5 -13.5t-33 13.5zM439 822.5q-14 13.5 -14 31.5q0 19 14 33t33 14q18 0 32 -14t14 -33q0 -18 -14 -31.5t-32 -13.5q-19 0 -33 13.5z" />
    <glyph glyph-name="Yacute" unicode="&#xdd;" horiz-adv-x="690" 
d="M632 674v-129q0 -85 -32 -153.5t-90 -110.5t-132 -50v-205q0 -17 -8.5 -26.5t-24.5 -9.5q-15 0 -23 9.5t-8 26.5v204q-77 7 -135 48t-89 109.5t-31 157.5v129q0 17 8 26.5t23 9.5q16 0 24.5 -9.5t8.5 -26.5v-132q0 -121 59 -188.5t163 -67.5t163.5 68.5t59.5 187.5v132
q0 17 8.5 26.5t23.5 9.5q32 0 32 -36zM322 810q0 6 3 12l63 140q13 27 30 27q6 0 16 -5q17 -8 17 -23q0 -8 -6 -19l-77 -138q-9 -15 -23 -15q-4 0 -10 2q-13 6 -13 19z" />
    <glyph glyph-name="Thorn" unicode="&#xde;" horiz-adv-x="618" 
d="M87 0q-9 10 -9 28v646q0 37 34 37q17 0 26 -9.5t9 -27.5v-94h198q102 0 162.5 -57.5t60.5 -154.5t-60.5 -154.5t-162.5 -57.5h-198v-128q0 -18 -9 -28t-26 -10q-16 0 -25 10zM345 214q72 0 112.5 40.5t40.5 113.5t-40.5 113.5t-112.5 40.5h-198v-308h198z" />
    <glyph glyph-name="germandbls" unicode="&#xdf;" horiz-adv-x="635" 
d="M275.5 6q-43.5 17 -65.5 43q-9 10 -9 21q0 12 12 21q10 8 18 8q13 0 30 -14q19 -17 46 -27t58 -10q73 0 112.5 43.5t39.5 123.5q0 158 -192 158h-47q-37 0 -37 27q0 29 37 29h60q122 0 122 131q0 54 -44.5 87t-116.5 33q-73 0 -116 -42t-43 -114v-498q0 -11 -10 -19
t-23 -8t-23.5 8.5t-10.5 18.5v505q0 58 29.5 105.5t81 75t115.5 27.5q67 0 119 -22.5t81 -63t29 -93.5q0 -62 -24 -99t-76 -55v-2q74 -16 115.5 -64t41.5 -119q0 -108 -58.5 -170t-161.5 -62q-46 0 -89.5 17z" />
    <glyph glyph-name="agrave" unicode="&#xe0;" horiz-adv-x="585" 
d="M103.5 33q-55.5 43 -55.5 120q0 76 57.5 120t158.5 44q61 0 109 -16.5t72 -45.5v69q0 59 -39 90t-115 31q-94 0 -165 -46q-14 -8 -24 -8q-8 0 -17 6q-10 8 -10 21t10 21q37 28 91.5 44.5t112.5 16.5q104 0 161 -47t57 -133v-294q0 -36 -30 -36q-14 0 -22.5 9.5t-8.5 25.5
v41q-31 -37 -79 -56.5t-110 -19.5q-98 0 -153.5 43zM395 76.5q51 31.5 51 82.5q0 49 -48 76.5t-134 27.5q-74 0 -113.5 -28.5t-39.5 -81.5t38.5 -80.5t112.5 -27.5q82 0 133 31.5zM306 569q-14 0 -23 15l-78 138q-6 9 -6 18q0 15 18 24q8 4 16 4q18 0 29 -26l63 -140
q3 -6 3 -13q0 -13 -12 -18q-6 -2 -10 -2z" />
    <glyph glyph-name="aacute" unicode="&#xe1;" horiz-adv-x="585" 
d="M103.5 33q-55.5 43 -55.5 120q0 76 57.5 120t158.5 44q61 0 109 -16.5t72 -45.5v69q0 59 -39 90t-115 31q-94 0 -165 -46q-14 -8 -24 -8q-8 0 -17 6q-10 8 -10 21t10 21q37 28 91.5 44.5t112.5 16.5q104 0 161 -47t57 -133v-294q0 -36 -30 -36q-14 0 -22.5 9.5t-8.5 25.5
v41q-31 -37 -79 -56.5t-110 -19.5q-98 0 -153.5 43zM395 76.5q51 31.5 51 82.5q0 49 -48 76.5t-134 27.5q-74 0 -113.5 -28.5t-39.5 -81.5t38.5 -80.5t112.5 -27.5q82 0 133 31.5zM280 590q0 6 3 12l63 140q13 27 30 27q6 0 16 -5q17 -8 17 -23q0 -8 -6 -19l-77 -138
q-9 -15 -23 -15q-4 0 -10 2q-13 6 -13 19z" />
    <glyph glyph-name="acircumflex" unicode="&#xe2;" horiz-adv-x="585" 
d="M103.5 33q-55.5 43 -55.5 120q0 76 57.5 120t158.5 44q61 0 109 -16.5t72 -45.5v69q0 59 -39 90t-115 31q-94 0 -165 -46q-14 -8 -24 -8q-8 0 -17 6q-10 8 -10 21t10 21q37 28 91.5 44.5t112.5 16.5q104 0 161 -47t57 -133v-294q0 -36 -30 -36q-14 0 -22.5 9.5t-8.5 25.5
v41q-31 -37 -79 -56.5t-110 -19.5q-98 0 -153.5 43zM395 76.5q51 31.5 51 82.5q0 49 -48 76.5t-134 27.5q-74 0 -113.5 -28.5t-39.5 -81.5t38.5 -80.5t112.5 -27.5q82 0 133 31.5zM159 596q0 10 8 21l106 126q13 16 29 16t29 -16l105 -126q9 -10 9 -21q0 -12 -13 -22
q-9 -6 -16 -6q-14 0 -28 18l-86 114l-86 -114q-14 -19 -29 -19q-7 0 -15 6q-13 10 -13 23z" />
    <glyph glyph-name="atilde" unicode="&#xe3;" horiz-adv-x="585" 
d="M103.5 33q-55.5 43 -55.5 120q0 76 57.5 120t158.5 44q61 0 109 -16.5t72 -45.5v69q0 59 -39 90t-115 31q-94 0 -165 -46q-14 -8 -24 -8q-8 0 -17 6q-10 8 -10 21t10 21q37 28 91.5 44.5t112.5 16.5q104 0 161 -47t57 -133v-294q0 -36 -30 -36q-14 0 -22.5 9.5t-8.5 25.5
v41q-31 -37 -79 -56.5t-110 -19.5q-98 0 -153.5 43zM395 76.5q51 31.5 51 82.5q0 49 -48 76.5t-134 27.5q-74 0 -113.5 -28.5t-39.5 -81.5t38.5 -80.5t112.5 -27.5q82 0 133 31.5zM140 606q0 7 1 12q8 34 32.5 55.5t58.5 21.5q24 0 42.5 -8.5t40.5 -24.5q16 -12 28.5 -18
t25.5 -6q36 0 47 43q5 20 22 20q26 0 26 -21q0 -4 -2 -12q-8 -35 -32.5 -56t-58.5 -21q-21 0 -38 8t-38 23q-22 14 -34 20t-27 6q-34 0 -46 -43q-6 -21 -23 -21q-25 0 -25 22z" />
    <glyph glyph-name="adieresis" unicode="&#xe4;" horiz-adv-x="585" 
d="M103.5 33q-55.5 43 -55.5 120q0 76 57.5 120t158.5 44q61 0 109 -16.5t72 -45.5v69q0 59 -39 90t-115 31q-94 0 -165 -46q-14 -8 -24 -8q-8 0 -17 6q-10 8 -10 21t10 21q37 28 91.5 44.5t112.5 16.5q104 0 161 -47t57 -133v-294q0 -36 -30 -36q-14 0 -22.5 9.5t-8.5 25.5
v41q-31 -37 -79 -56.5t-110 -19.5q-98 0 -153.5 43zM395 76.5q51 31.5 51 82.5q0 49 -48 76.5t-134 27.5q-74 0 -113.5 -28.5t-39.5 -81.5t38.5 -80.5t112.5 -27.5q82 0 133 31.5zM169 602.5q-14 13.5 -14 31.5q0 19 14 33t33 14t32.5 -14t13.5 -33q0 -18 -13.5 -31.5
t-32.5 -13.5t-33 13.5zM371 602.5q-14 13.5 -14 31.5q0 19 14 33t33 14q18 0 32 -14t14 -33q0 -18 -14 -31.5t-32 -13.5q-19 0 -33 13.5z" />
    <glyph glyph-name="aring" unicode="&#xe5;" horiz-adv-x="585" 
d="M103.5 33q-55.5 43 -55.5 120q0 76 57.5 120t158.5 44q61 0 109 -16.5t72 -45.5v69q0 59 -39 90t-115 31q-94 0 -165 -46q-14 -8 -24 -8q-8 0 -17 6q-10 8 -10 21t10 21q37 28 91.5 44.5t112.5 16.5q104 0 161 -47t57 -133v-294q0 -36 -30 -36q-14 0 -22.5 9.5t-8.5 25.5
v41q-31 -37 -79 -56.5t-110 -19.5q-98 0 -153.5 43zM395 76.5q51 31.5 51 82.5q0 49 -48 76.5t-134 27.5q-74 0 -113.5 -28.5t-39.5 -81.5t38.5 -80.5t112.5 -27.5q82 0 133 31.5zM221 564.5q-31 28.5 -31 72.5q0 43 31 71.5t81 28.5t80.5 -28.5t30.5 -71.5
q0 -44 -30.5 -72.5t-80.5 -28.5t-81 28.5zM348.5 593q17.5 16 17.5 44t-17.5 44t-46.5 16t-46 -16t-17 -44t17 -44t46 -16t46.5 16z" />
    <glyph glyph-name="ae" unicode="&#xe6;" horiz-adv-x="1007" 
d="M103.5 35q-55.5 45 -55.5 124q0 77 58.5 123t156.5 46q60 0 106.5 -16t72.5 -46v46q0 61 -41.5 97t-111.5 36q-48 0 -87 -11t-78 -35q-14 -9 -23 -9q-10 0 -18 7q-9 8 -9 21t9 20q38 29 92 45.5t112 16.5q150 0 194 -113q29 53 86.5 83t131.5 30q77 0 136.5 -24.5t92 -69
t32.5 -102.5q0 -40 -21.5 -62t-61.5 -22h-372q0 -83 52.5 -128t148.5 -45q59 0 102 14.5t80 47.5q17 15 27 15q7 0 16 -7q12 -9 12 -21q0 -10 -9 -19q-83 -86 -228 -86q-150 0 -224 103q-80 -104 -225 -104q-98 0 -153.5 45zM859 272q21 0 29.5 8t8.5 28q0 40 -25 71
t-70 48.5t-103 17.5q-89 0 -140.5 -46.5t-51.5 -126.5h352zM393 77.5q50 32.5 50 87.5q0 52 -47.5 80.5t-133.5 28.5q-70 0 -110.5 -31t-40.5 -84q0 -56 38 -85t111 -29q83 0 133 32.5z" />
    <glyph glyph-name="ccedilla" unicode="&#xe7;" horiz-adv-x="591" 
d="M538 91q0 -10 -9 -19q-44 -39 -92.5 -59t-106.5 -23l-1 -2l-24 -47q41 1 61 -18.5t20 -50.5q0 -36 -25 -59t-70 -23q-32 0 -58.5 14t-40.5 35q-6 7 -6 15t10 17q8 5 14 5q10 0 17 -11q22 -30 63 -30q22 0 33.5 10.5t11.5 28.5q0 17 -9 27t-28 10q-8 0 -13 -1
q-14 -2 -23.5 5t-9.5 18q0 6 3 12l22 47q-105 11 -167 79.5t-62 174.5q0 76 33 133.5t93 89t139 31.5q149 0 215 -81q8 -10 8 -19q0 -13 -13 -23q-6 -6 -16 -6q-7 0 -14.5 3.5t-12.5 9.5q-28 31 -69 46t-98 15q-97 0 -149.5 -51.5t-52.5 -147.5q0 -95 53 -147.5t149 -52.5
q54 0 97.5 15.5t71.5 45.5q14 14 28 14q10 0 17 -7q11 -11 11 -23z" />
    <glyph glyph-name="egrave" unicode="&#xe8;" horiz-adv-x="630" 
d="M117 57.5q-70 67.5 -70 191.5q0 116 71.5 183.5t195.5 67.5q77 0 136.5 -24.5t92.5 -68.5t33 -101q0 -40 -22 -63t-61 -23h-381q0 -82 53.5 -128t150.5 -46q60 0 102 13.5t79 44.5q15 14 27 14q8 0 15 -6q12 -10 12 -22q0 -10 -9 -19q-79 -81 -226 -81q-129 0 -199 67.5z
M475 272q20 0 29 8.5t9 28.5q0 39 -25.5 70t-71 48.5t-102.5 17.5q-95 0 -148 -45.5t-53 -127.5h362zM322 569q-14 0 -23 15l-78 138q-6 9 -6 18q0 15 18 24q8 4 16 4q18 0 29 -26l63 -140q3 -6 3 -13q0 -13 -12 -18q-6 -2 -10 -2z" />
    <glyph glyph-name="eacute" unicode="&#xe9;" horiz-adv-x="630" 
d="M117 57.5q-70 67.5 -70 191.5q0 116 71.5 183.5t195.5 67.5q77 0 136.5 -24.5t92.5 -68.5t33 -101q0 -40 -22 -63t-61 -23h-381q0 -82 53.5 -128t150.5 -46q60 0 102 13.5t79 44.5q15 14 27 14q8 0 15 -6q12 -10 12 -22q0 -10 -9 -19q-79 -81 -226 -81q-129 0 -199 67.5z
M475 272q20 0 29 8.5t9 28.5q0 39 -25.5 70t-71 48.5t-102.5 17.5q-95 0 -148 -45.5t-53 -127.5h362zM295 590q0 6 3 12l63 140q13 27 30 27q6 0 16 -5q17 -8 17 -23q0 -8 -6 -19l-77 -138q-9 -15 -23 -15q-4 0 -10 2q-13 6 -13 19z" />
    <glyph glyph-name="ecircumflex" unicode="&#xea;" horiz-adv-x="630" 
d="M117 57.5q-70 67.5 -70 191.5q0 116 71.5 183.5t195.5 67.5q77 0 136.5 -24.5t92.5 -68.5t33 -101q0 -40 -22 -63t-61 -23h-381q0 -82 53.5 -128t150.5 -46q60 0 102 13.5t79 44.5q15 14 27 14q8 0 15 -6q12 -10 12 -22q0 -10 -9 -19q-79 -81 -226 -81q-129 0 -199 67.5z
M475 272q20 0 29 8.5t9 28.5q0 39 -25.5 70t-71 48.5t-102.5 17.5q-95 0 -148 -45.5t-53 -127.5h362zM175 596q0 10 8 21l106 126q13 16 29 16t29 -16l105 -126q9 -10 9 -21q0 -12 -13 -22q-9 -6 -16 -6q-14 0 -28 18l-86 114l-86 -114q-14 -19 -29 -19q-7 0 -15 6
q-13 10 -13 23z" />
    <glyph glyph-name="edieresis" unicode="&#xeb;" horiz-adv-x="630" 
d="M117 57.5q-70 67.5 -70 191.5q0 116 71.5 183.5t195.5 67.5q77 0 136.5 -24.5t92.5 -68.5t33 -101q0 -40 -22 -63t-61 -23h-381q0 -82 53.5 -128t150.5 -46q60 0 102 13.5t79 44.5q15 14 27 14q8 0 15 -6q12 -10 12 -22q0 -10 -9 -19q-79 -81 -226 -81q-129 0 -199 67.5z
M475 272q20 0 29 8.5t9 28.5q0 39 -25.5 70t-71 48.5t-102.5 17.5q-95 0 -148 -45.5t-53 -127.5h362zM184 602.5q-14 13.5 -14 31.5q0 19 14 33t33 14t32.5 -14t13.5 -33q0 -18 -13.5 -31.5t-32.5 -13.5t-33 13.5zM386 602.5q-14 13.5 -14 31.5q0 19 14 33t33 14
q18 0 32 -14t14 -33q0 -18 -14 -31.5t-32 -13.5q-19 0 -33 13.5z" />
    <glyph glyph-name="igrave" unicode="&#xec;" horiz-adv-x="249" 
d="M102 -0.5q-8 9.5 -8 26.5v438q0 36 31 36q15 0 23 -9.5t8 -26.5v-438q0 -17 -8 -26.5t-23 -9.5t-23 9.5zM127 559q-14 0 -23 15l-78 138q-6 9 -6 18q0 15 18 24q8 4 16 4q18 0 29 -26l63 -140q3 -6 3 -13q0 -13 -12 -18q-6 -2 -10 -2z" />
    <glyph glyph-name="iacute" unicode="&#xed;" horiz-adv-x="249" 
d="M102 -0.5q-8 9.5 -8 26.5v438q0 36 31 36q15 0 23 -9.5t8 -26.5v-438q0 -17 -8 -26.5t-23 -9.5t-23 9.5zM103 580q0 6 3 12l63 140q13 27 30 27q6 0 16 -5q17 -8 17 -23q0 -8 -6 -19l-77 -138q-9 -15 -23 -15q-4 0 -10 2q-13 6 -13 19z" />
    <glyph glyph-name="icircumflex" unicode="&#xee;" horiz-adv-x="249" 
d="M102 -0.5q-8 9.5 -8 26.5v438q0 36 31 36q15 0 23 -9.5t8 -26.5v-438q0 -17 -8 -26.5t-23 -9.5t-23 9.5zM-17 586q0 10 8 21l106 126q13 16 29 16q15 0 29 -16l106 -126q8 -11 8 -21q0 -11 -12 -22q-9 -6 -17 -6q-15 0 -28 18l-86 114l-86 -114q-16 -19 -29 -19
q-8 0 -15 6q-13 10 -13 23z" />
    <glyph glyph-name="idieresis" unicode="&#xef;" horiz-adv-x="249" 
d="M102 -0.5q-8 9.5 -8 26.5v438q0 36 31 36q15 0 23 -9.5t8 -26.5v-438q0 -17 -8 -26.5t-23 -9.5t-23 9.5zM-7 592.5q-14 13.5 -14 31.5q0 19 14 33t33 14t32.5 -14t13.5 -33q0 -18 -13.5 -31.5t-32.5 -13.5t-33 13.5zM195 592.5q-14 13.5 -14 31.5q0 19 14 33t33 14
t32.5 -14t13.5 -33q0 -18 -13.5 -31.5t-32.5 -13.5t-33 13.5z" />
    <glyph glyph-name="eth" unicode="&#xf0;" horiz-adv-x="644" 
d="M592 347q0 -169 -75 -263t-212 -94q-77 0 -134.5 31t-88 86.5t-30.5 125.5q0 67 29 120.5t86 84.5t137 31t139 -37.5t93 -99.5l2 1q-2 84 -22 142.5t-67 100.5l-52 -53q-9 -9 -20 -9q-9 0 -17 6q-7 7 -7 17t8 20l48 50q-45 30 -118 56q-16 6 -16 21q0 9 5 17q7 14 22 14
q8 0 23 -5q78 -30 123 -63l66 68q9 9 20 9q8 0 17 -7q8 -8 8 -18t-9 -18l-63 -65q105 -99 105 -269zM407.5 70q46.5 23 73.5 64.5t27 94.5q0 52 -27 94t-73.5 65.5t-102.5 23.5q-88 0 -138.5 -48.5t-50.5 -133.5t50.5 -134t138.5 -49q56 0 102.5 23z" />
    <glyph glyph-name="ntilde" unicode="&#xf1;" horiz-adv-x="611" 
d="M84 -0.5q-8 9.5 -8 26.5v438q0 36 31 36q15 0 23 -9.5t8 -26.5v-65q37 49 90 75t116 26q96 0 146.5 -51.5t50.5 -149.5v-273q0 -17 -8.5 -26.5t-23.5 -9.5q-30 0 -30 36v273q0 74 -34 110t-105 36q-91 0 -146.5 -53.5t-55.5 -140.5v-225q0 -17 -8 -26.5t-23 -9.5t-23 9.5
zM145 616q0 7 1 12q8 34 32.5 55.5t58.5 21.5q24 0 42.5 -8.5t40.5 -24.5q16 -12 28.5 -18t25.5 -6q36 0 47 43q5 20 22 20q26 0 26 -21q0 -4 -2 -12q-8 -35 -32.5 -56t-58.5 -21q-21 0 -38 8t-38 23q-22 14 -34 20t-27 6q-34 0 -46 -43q-6 -21 -23 -21q-25 0 -25 22z" />
    <glyph glyph-name="ograve" unicode="&#xf2;" 
d="M169 25.5q-61 35.5 -91 94t-30 125.5t30 125.5t91 94t148 35.5t148 -35.5t91 -94t30 -125.5t-30 -125.5t-91 -94t-148 -35.5t-148 35.5zM466.5 98.5q56.5 52.5 56.5 146.5t-56.5 147t-149.5 53t-149.5 -53t-56.5 -147t56.5 -146.5t149.5 -52.5t149.5 52.5zM321 579
q-14 0 -23 15l-78 138q-6 9 -6 18q0 15 18 24q8 4 16 4q18 0 29 -26l63 -140q3 -6 3 -13q0 -13 -12 -18q-6 -2 -10 -2z" />
    <glyph glyph-name="oacute" unicode="&#xf3;" 
d="M169 25.5q-61 35.5 -91 94t-30 125.5t30 125.5t91 94t148 35.5t148 -35.5t91 -94t30 -125.5t-30 -125.5t-91 -94t-148 -35.5t-148 35.5zM466.5 98.5q56.5 52.5 56.5 146.5t-56.5 147t-149.5 53t-149.5 -53t-56.5 -147t56.5 -146.5t149.5 -52.5t149.5 52.5zM294 600
q0 6 3 12l63 140q13 27 30 27q6 0 16 -5q17 -8 17 -23q0 -8 -6 -19l-77 -138q-9 -15 -23 -15q-4 0 -10 2q-13 6 -13 19z" />
    <glyph glyph-name="ocircumflex" unicode="&#xf4;" 
d="M169 25.5q-61 35.5 -91 94t-30 125.5t30 125.5t91 94t148 35.5t148 -35.5t91 -94t30 -125.5t-30 -125.5t-91 -94t-148 -35.5t-148 35.5zM466.5 98.5q56.5 52.5 56.5 146.5t-56.5 147t-149.5 53t-149.5 -53t-56.5 -147t56.5 -146.5t149.5 -52.5t149.5 52.5zM175 606
q0 10 8 21l106 126q13 16 29 16t29 -16l105 -126q9 -10 9 -21q0 -12 -13 -22q-9 -6 -16 -6q-14 0 -28 18l-86 114l-86 -114q-14 -19 -29 -19q-7 0 -15 6q-13 10 -13 23z" />
    <glyph glyph-name="otilde" unicode="&#xf5;" 
d="M169 25.5q-61 35.5 -91 94t-30 125.5t30 125.5t91 94t148 35.5t148 -35.5t91 -94t30 -125.5t-30 -125.5t-91 -94t-148 -35.5t-148 35.5zM466.5 98.5q56.5 52.5 56.5 146.5t-56.5 147t-149.5 53t-149.5 -53t-56.5 -147t56.5 -146.5t149.5 -52.5t149.5 52.5zM155 616
q0 7 1 12q8 34 32.5 55.5t58.5 21.5q24 0 42.5 -8.5t40.5 -24.5q16 -12 28.5 -18t25.5 -6q36 0 47 43q5 20 22 20q26 0 26 -21q0 -4 -2 -12q-8 -35 -32.5 -56t-58.5 -21q-21 0 -38 8t-38 23q-22 14 -34 20t-27 6q-34 0 -46 -43q-6 -21 -23 -21q-25 0 -25 22z" />
    <glyph glyph-name="odieresis" unicode="&#xf6;" 
d="M169 25.5q-61 35.5 -91 94t-30 125.5t30 125.5t91 94t148 35.5t148 -35.5t91 -94t30 -125.5t-30 -125.5t-91 -94t-148 -35.5t-148 35.5zM466.5 98.5q56.5 52.5 56.5 146.5t-56.5 147t-149.5 53t-149.5 -53t-56.5 -147t56.5 -146.5t149.5 -52.5t149.5 52.5zM184 612.5
q-14 13.5 -14 31.5q0 19 14 33t33 14t32.5 -14t13.5 -33q0 -18 -13.5 -31.5t-32.5 -13.5t-33 13.5zM386 612.5q-14 13.5 -14 31.5q0 19 14 33t33 14q18 0 32 -14t14 -33q0 -18 -14 -31.5t-32 -13.5q-19 0 -33 13.5z" />
    <glyph glyph-name="divide" unicode="&#xf7;" horiz-adv-x="497" 
d="M216 364.5q-13 13.5 -13 30.5q0 18 13 31.5t31 13.5q19 0 32 -13t13 -32q0 -17 -13 -30.5t-32 -13.5q-18 0 -31 13.5zM67 223q-9 7 -9 20q0 28 35 28h312q35 0 35 -28q0 -13 -9 -20t-26 -7h-312q-17 0 -26 7zM216 60.5q-13 13.5 -13 30.5q0 18 13 31.5t31 13.5
q19 0 32 -13.5t13 -31.5q0 -17 -13.5 -30.5t-31.5 -13.5t-31 13.5z" />
    <glyph glyph-name="oslash" unicode="&#xf8;" horiz-adv-x="642" 
d="M554 381q36 -62 36 -136q0 -67 -30 -125.5t-91 -94t-148 -35.5q-49 0 -90 12l-25 -54q-3 -8 -10 -13t-15 -5q-6 0 -12 3q-17 6 -17 23q0 6 3 12l25 54q-63 32 -95.5 92.5t-32.5 130.5q0 67 30 125.5t91 94t148 35.5q38 0 75 -8l24 51q3 8 10 12.5t15 4.5q5 0 11 -3
q17 -6 17 -23q0 -8 -2 -12l-22 -48q69 -31 105 -93zM138 141.5q23 -43.5 66 -67.5l169 366q-28 5 -52 5q-94 0 -150 -52.5t-56 -147.5q0 -60 23 -103.5zM471 98q56 52 56 147q0 64 -27 109.5t-75 68.5l-170 -369q32 -8 66 -8q94 0 150 52z" />
    <glyph glyph-name="ugrave" unicode="&#xf9;" horiz-adv-x="611" 
d="M126 46q-55 56 -55 154v264q0 17 8.5 26.5t23.5 9.5q30 0 30 -36v-264q0 -74 39 -114t110 -40q56 0 99.5 24.5t68 68.5t24.5 100v225q0 17 8 26.5t23 9.5q31 0 31 -36v-438q0 -36 -31 -36q-15 0 -23 9.5t-8 26.5v65q-37 -49 -87.5 -75t-108.5 -26q-97 0 -152 56zM309 579
q-14 0 -23 15l-78 138q-6 9 -6 18q0 15 18 24q8 4 16 4q18 0 29 -26l63 -140q3 -6 3 -13q0 -13 -12 -18q-6 -2 -10 -2z" />
    <glyph glyph-name="uacute" unicode="&#xfa;" horiz-adv-x="611" 
d="M126 46q-55 56 -55 154v264q0 17 8.5 26.5t23.5 9.5q30 0 30 -36v-264q0 -74 39 -114t110 -40q56 0 99.5 24.5t68 68.5t24.5 100v225q0 17 8 26.5t23 9.5q31 0 31 -36v-438q0 -36 -31 -36q-15 0 -23 9.5t-8 26.5v65q-37 -49 -87.5 -75t-108.5 -26q-97 0 -152 56zM282 600
q0 6 3 12l63 140q13 27 30 27q6 0 16 -5q17 -8 17 -23q0 -8 -6 -19l-77 -138q-9 -15 -23 -15q-4 0 -10 2q-13 6 -13 19z" />
    <glyph glyph-name="ucircumflex" unicode="&#xfb;" horiz-adv-x="611" 
d="M126 46q-55 56 -55 154v264q0 17 8.5 26.5t23.5 9.5q30 0 30 -36v-264q0 -74 39 -114t110 -40q56 0 99.5 24.5t68 68.5t24.5 100v225q0 17 8 26.5t23 9.5q31 0 31 -36v-438q0 -36 -31 -36q-15 0 -23 9.5t-8 26.5v65q-37 -49 -87.5 -75t-108.5 -26q-97 0 -152 56zM163 606
q0 10 8 21l106 126q13 16 29 16t29 -16l105 -126q9 -10 9 -21q0 -12 -13 -22q-9 -6 -16 -6q-14 0 -28 18l-86 114l-86 -114q-14 -19 -29 -19q-7 0 -15 6q-13 10 -13 23z" />
    <glyph glyph-name="udieresis" unicode="&#xfc;" horiz-adv-x="611" 
d="M126 46q-55 56 -55 154v264q0 17 8.5 26.5t23.5 9.5q30 0 30 -36v-264q0 -74 39 -114t110 -40q56 0 99.5 24.5t68 68.5t24.5 100v225q0 17 8 26.5t23 9.5q31 0 31 -36v-438q0 -36 -31 -36q-15 0 -23 9.5t-8 26.5v65q-37 -49 -87.5 -75t-108.5 -26q-97 0 -152 56z
M172 612.5q-14 13.5 -14 31.5q0 19 14 33t33 14t32.5 -14t13.5 -33q0 -18 -13.5 -31.5t-32.5 -13.5t-33 13.5zM374 612.5q-14 13.5 -14 31.5q0 19 14 33t33 14q18 0 32 -14t14 -33q0 -18 -14 -31.5t-32 -13.5q-19 0 -33 13.5z" />
    <glyph glyph-name="yacute" unicode="&#xfd;" 
d="M166 -228.5q-58 21.5 -84 59.5q-5 7 -5 17q0 15 13 25q7 4 16 4q17 0 28 -14q22 -27 66 -43t95 -16q94 0 149 57t55 154v73q-32 -44 -81.5 -67.5t-112.5 -23.5q-121 0 -189.5 70.5t-68.5 195.5v204q0 14 9 23t23 9t23 -9t9 -23v-204q0 -101 51 -157t143 -56q91 0 140 53
t49 151v203q0 20 9.5 31.5t25.5 11.5q34 0 34 -43v-440q0 -78 -33.5 -138.5t-93.5 -94.5t-138 -34q-74 0 -132 21.5zM274 600q0 6 3 12l63 140q13 27 30 27q6 0 16 -5q17 -8 17 -23q0 -8 -6 -19l-77 -138q-9 -15 -23 -15q-4 0 -10 2q-13 6 -13 19z" />
    <glyph glyph-name="thorn" unicode="&#xfe;" horiz-adv-x="680" 
d="M79 -263v1016q0 36 31 36q15 0 23.5 -9.5t8.5 -26.5v-359q85 106 219 106q128 0 198 -66.5t70 -188.5q0 -77 -32.5 -135t-93 -89t-142.5 -31q-134 0 -219 107v-360q0 -17 -8.5 -26.5t-23.5 -9.5q-31 0 -31 36zM510.5 99q55.5 53 55.5 146q0 200 -207 200
q-101 0 -159.5 -53.5t-58.5 -146.5q0 -57 28 -102.5t78 -71t112 -25.5q96 0 151.5 53z" />
    <glyph glyph-name="ydieresis" unicode="&#xff;" 
d="M166 -228.5q-58 21.5 -84 59.5q-5 7 -5 17q0 15 13 25q7 4 16 4q17 0 28 -14q22 -27 66 -43t95 -16q94 0 149 57t55 154v73q-32 -44 -81.5 -67.5t-112.5 -23.5q-121 0 -189.5 70.5t-68.5 195.5v204q0 14 9 23t23 9t23 -9t9 -23v-204q0 -101 51 -157t143 -56q91 0 140 53
t49 151v203q0 20 9.5 31.5t25.5 11.5q34 0 34 -43v-440q0 -78 -33.5 -138.5t-93.5 -94.5t-138 -34q-74 0 -132 21.5zM164 612.5q-14 13.5 -14 31.5q0 19 14 33t33 14t32.5 -14t13.5 -33q0 -18 -13.5 -31.5t-32.5 -13.5t-33 13.5zM366 612.5q-14 13.5 -14 31.5q0 19 14 33
t33 14q18 0 32 -14t14 -33q0 -18 -14 -31.5t-32 -13.5q-19 0 -33 13.5z" />
    <glyph glyph-name="Amacron" unicode="&#x100;" horiz-adv-x="729" 
d="M89 -0.5q-8 9.5 -8 26.5v399q0 134 75 209.5t209 75.5q133 0 208.5 -76t75.5 -209v-399q0 -17 -8.5 -26.5t-23.5 -9.5t-24 9.5t-9 26.5v237h-439v-237q0 -17 -8.5 -26.5t-24.5 -9.5q-15 0 -23 9.5zM584 317v111q0 108 -57 167t-162 59q-107 0 -163.5 -58.5t-56.5 -167.5
v-111h439zM211 797q0 14 8 19t25 5h243q16 0 24.5 -5t8.5 -19q0 -23 -33 -23h-243q-33 0 -33 23z" />
    <glyph glyph-name="amacron" unicode="&#x101;" horiz-adv-x="585" 
d="M103.5 33q-55.5 43 -55.5 120q0 76 57.5 120t158.5 44q61 0 109 -16.5t72 -45.5v69q0 59 -39 90t-115 31q-94 0 -165 -46q-14 -8 -24 -8q-8 0 -17 6q-10 8 -10 21t10 21q37 28 91.5 44.5t112.5 16.5q104 0 161 -47t57 -133v-294q0 -36 -30 -36q-14 0 -22.5 9.5t-8.5 25.5
v41q-31 -37 -79 -56.5t-110 -19.5q-98 0 -153.5 43zM395 76.5q51 31.5 51 82.5q0 49 -48 76.5t-134 27.5q-74 0 -113.5 -28.5t-39.5 -81.5t38.5 -80.5t112.5 -27.5q82 0 133 31.5zM147 594q0 14 8.5 19t24.5 5h243q17 0 25 -5t8 -19q0 -23 -33 -23h-243q-33 0 -33 23z" />
    <glyph glyph-name="Abreve" unicode="&#x102;" horiz-adv-x="729" 
d="M89 -0.5q-8 9.5 -8 26.5v399q0 134 75 209.5t209 75.5q133 0 208.5 -76t75.5 -209v-399q0 -17 -8.5 -26.5t-23.5 -9.5t-24 9.5t-9 26.5v237h-439v-237q0 -17 -8.5 -26.5t-24.5 -9.5q-15 0 -23 9.5zM584 317v111q0 108 -57 167t-162 59q-107 0 -163.5 -58.5t-56.5 -167.5
v-111h439zM257 830.5q-40 41.5 -40 101.5q0 35 29 35t29 -35q0 -44 22.5 -69.5t67.5 -25.5t67 25.5t22 69.5q0 35 29 35t29 -35q0 -60 -39.5 -101.5t-107.5 -41.5t-108 41.5z" />
    <glyph glyph-name="abreve" unicode="&#x103;" horiz-adv-x="585" 
d="M103.5 33q-55.5 43 -55.5 120q0 76 57.5 120t158.5 44q61 0 109 -16.5t72 -45.5v69q0 59 -39 90t-115 31q-94 0 -165 -46q-14 -8 -24 -8q-8 0 -17 6q-10 8 -10 21t10 21q37 28 91.5 44.5t112.5 16.5q104 0 161 -47t57 -133v-294q0 -36 -30 -36q-14 0 -22.5 9.5t-8.5 25.5
v41q-31 -37 -79 -56.5t-110 -19.5q-98 0 -153.5 43zM395 76.5q51 31.5 51 82.5q0 49 -48 76.5t-134 27.5q-74 0 -113.5 -28.5t-39.5 -81.5t38.5 -80.5t112.5 -27.5q82 0 133 31.5zM192 610.5q-40 41.5 -40 101.5q0 35 30 35q28 0 28 -35q0 -44 22.5 -69.5t67.5 -25.5
t67 25.5t22 69.5q0 35 29 35t29 -35q0 -60 -40 -101.5t-107 -41.5q-68 0 -108 41.5z" />
    <glyph glyph-name="Aogonek" unicode="&#x104;" horiz-adv-x="729" 
d="M696 -155q0 -9 -9 -18q-19 -19 -39 -27t-47 -8q-47 0 -75.5 24.5t-28.5 62.5q0 37 22 68.5t66 67.5q-1 3 -1 11v237h-439v-237q0 -17 -8.5 -26.5t-24.5 -9.5q-15 0 -23 9.5t-8 26.5v399q0 134 75 209.5t209 75.5q133 0 208.5 -76t75.5 -209v-399q0 -28 -21 -34
q-43 -35 -60.5 -57.5t-17.5 -53.5q0 -19 14 -31t39 -12q32 0 55 21q10 8 16 8t15 -7q7 -7 7 -15zM584 428q0 108 -57 167t-162 59q-107 0 -163.5 -58.5t-56.5 -167.5v-111h439v111z" />
    <glyph glyph-name="aogonek" unicode="&#x105;" horiz-adv-x="585" 
d="M557 -155q0 -9 -9 -18q-19 -19 -39 -27t-47 -8q-47 0 -75.5 24.5t-28.5 62.5q0 37 22 68.5t67 68.5q-1 3 -1 9v41q-31 -37 -79 -56.5t-110 -19.5q-98 0 -153.5 43t-55.5 120q0 76 57.5 120t158.5 44q61 0 109 -16.5t72 -45.5v69q0 59 -39 90t-115 31q-94 0 -165 -46
q-14 -8 -24 -8q-8 0 -17 6q-10 8 -10 21t10 21q37 28 91.5 44.5t112.5 16.5q104 0 161 -47t57 -133v-294q0 -7 -1 -10q2 -5 -2 -10q-4 -9 -14 -14q-43 -35 -61 -57.5t-18 -53.5q0 -19 14 -31t39 -12q32 0 55 21q10 8 16 8t15 -7q7 -7 7 -15zM395 76.5q51 31.5 51 82.5
q0 49 -48 76.5t-134 27.5q-74 0 -113.5 -28.5t-39.5 -81.5t38.5 -80.5t112.5 -27.5q82 0 133 31.5z" />
    <glyph glyph-name="Cacute" unicode="&#x106;" horiz-adv-x="745" 
d="M221 34.5q-78 44.5 -120.5 126t-42.5 188.5t42.5 189t120.5 127t180 45q85 0 156 -28.5t112 -79.5q8 -10 8 -20q0 -14 -12 -22q-7 -6 -18 -6q-8 0 -15.5 3.5t-11.5 9.5q-32 41 -89 64t-130 23q-85 0 -148 -37t-96.5 -106t-33.5 -162t33.5 -161t96.5 -104.5t148 -36.5
q79 0 138 22.5t92 64.5q12 13 27 13q11 0 18 -6q11 -10 11 -23q0 -12 -7 -20q-41 -50 -116 -79t-163 -29q-102 0 -180 44.5zM382 810q0 6 3 12l63 140q13 27 30 27q6 0 16 -5q17 -8 17 -23q0 -8 -6 -19l-77 -138q-9 -15 -23 -15q-4 0 -10 2q-13 6 -13 19z" />
    <glyph glyph-name="cacute" unicode="&#x107;" horiz-adv-x="591" 
d="M174 22q-60 32 -93 90t-33 134t33 133.5t93 89t139 31.5q149 0 215 -81q8 -10 8 -19q0 -13 -13 -23q-6 -6 -16 -6q-7 0 -14.5 3.5t-12.5 9.5q-28 31 -69 46t-98 15q-97 0 -149.5 -51.5t-52.5 -147.5q0 -95 53 -147.5t149 -52.5q54 0 97.5 15.5t71.5 45.5q14 14 28 14
q10 0 17 -7q11 -11 11 -23q0 -10 -9 -19q-47 -42 -99.5 -62t-116.5 -20q-79 0 -139 32zM280 590q0 6 3 12l63 140q13 27 30 27q6 0 16 -5q17 -8 17 -23q0 -8 -6 -19l-77 -138q-9 -15 -23 -15q-4 0 -10 2q-13 6 -13 19z" />
    <glyph glyph-name="Ccircumflex" unicode="&#x108;" horiz-adv-x="745" 
d="M221 34.5q-78 44.5 -120.5 126t-42.5 188.5t42.5 189t120.5 127t180 45q85 0 156 -28.5t112 -79.5q8 -10 8 -20q0 -14 -12 -22q-7 -6 -18 -6q-8 0 -15.5 3.5t-11.5 9.5q-32 41 -89 64t-130 23q-85 0 -148 -37t-96.5 -106t-33.5 -162t33.5 -161t96.5 -104.5t148 -36.5
q79 0 138 22.5t92 64.5q12 13 27 13q11 0 18 -6q11 -10 11 -23q0 -12 -7 -20q-41 -50 -116 -79t-163 -29q-102 0 -180 44.5zM262 816q0 10 8 21l106 126q13 16 29 16q15 0 29 -16l106 -126q8 -11 8 -21q0 -11 -12 -22q-9 -6 -17 -6q-15 0 -28 18l-86 114l-86 -114
q-16 -19 -29 -19q-8 0 -15 6q-13 10 -13 23z" />
    <glyph glyph-name="ccircumflex" unicode="&#x109;" horiz-adv-x="591" 
d="M174 22q-60 32 -93 90t-33 134t33 133.5t93 89t139 31.5q149 0 215 -81q8 -10 8 -19q0 -13 -13 -23q-6 -6 -16 -6q-7 0 -14.5 3.5t-12.5 9.5q-28 31 -69 46t-98 15q-97 0 -149.5 -51.5t-52.5 -147.5q0 -95 53 -147.5t149 -52.5q54 0 97.5 15.5t71.5 45.5q14 14 28 14
q10 0 17 -7q11 -11 11 -23q0 -10 -9 -19q-47 -42 -99.5 -62t-116.5 -20q-79 0 -139 32zM159 596q0 10 8 21l106 126q13 16 29 16t29 -16l105 -126q9 -10 9 -21q0 -12 -13 -22q-9 -6 -16 -6q-14 0 -28 18l-86 114l-86 -114q-14 -19 -29 -19q-7 0 -15 6q-13 10 -13 23z" />
    <glyph glyph-name="Cdotaccent" unicode="&#x10a;" horiz-adv-x="745" 
d="M221 34.5q-78 44.5 -120.5 126t-42.5 188.5t42.5 189t120.5 127t180 45q85 0 156 -28.5t112 -79.5q8 -10 8 -20q0 -14 -12 -22q-7 -6 -18 -6q-8 0 -15.5 3.5t-11.5 9.5q-32 41 -89 64t-130 23q-85 0 -148 -37t-96.5 -106t-33.5 -162t33.5 -161t96.5 -104.5t148 -36.5
q79 0 138 22.5t92 64.5q12 13 27 13q11 0 18 -6q11 -10 11 -23q0 -12 -7 -20q-41 -50 -116 -79t-163 -29q-102 0 -180 44.5zM371.5 821q-14.5 14 -14.5 33t14.5 33t33.5 14t33 -14t14 -33t-14 -33t-33 -14t-33.5 14z" />
    <glyph glyph-name="cdotaccent" unicode="&#x10b;" horiz-adv-x="591" 
d="M174 22q-60 32 -93 90t-33 134t33 133.5t93 89t139 31.5q149 0 215 -81q8 -10 8 -19q0 -13 -13 -23q-6 -6 -16 -6q-7 0 -14.5 3.5t-12.5 9.5q-28 31 -69 46t-98 15q-97 0 -149.5 -51.5t-52.5 -147.5q0 -95 53 -147.5t149 -52.5q54 0 97.5 15.5t71.5 45.5q14 14 28 14
q10 0 17 -7q11 -11 11 -23q0 -10 -9 -19q-47 -42 -99.5 -62t-116.5 -20q-79 0 -139 32zM267.5 601q-14.5 14 -14.5 33t14.5 33t34.5 14q19 0 33 -14t14 -33t-14 -33t-33 -14q-20 0 -34.5 14z" />
    <glyph glyph-name="Ccaron" unicode="&#x10c;" horiz-adv-x="745" 
d="M221 34.5q-78 44.5 -120.5 126t-42.5 188.5t42.5 189t120.5 127t180 45q85 0 156 -28.5t112 -79.5q8 -10 8 -20q0 -14 -12 -22q-7 -6 -18 -6q-8 0 -15.5 3.5t-11.5 9.5q-32 41 -89 64t-130 23q-85 0 -148 -37t-96.5 -106t-33.5 -162t33.5 -161t96.5 -104.5t148 -36.5
q79 0 138 22.5t92 64.5q12 13 27 13q11 0 18 -6q11 -10 11 -23q0 -12 -7 -20q-41 -50 -116 -79t-163 -29q-102 0 -180 44.5zM376 803l-106 127q-8 11 -8 20q0 12 13 22q7 6 16 6q14 0 28 -18l86 -114l86 114q14 19 28 19q8 0 16 -6q13 -9 13 -22q0 -11 -9 -22l-105 -126
q-13 -16 -29 -16q-15 0 -29 16z" />
    <glyph glyph-name="ccaron" unicode="&#x10d;" horiz-adv-x="591" 
d="M174 22q-60 32 -93 90t-33 134t33 133.5t93 89t139 31.5q149 0 215 -81q8 -10 8 -19q0 -13 -13 -23q-6 -6 -16 -6q-7 0 -14.5 3.5t-12.5 9.5q-28 31 -69 46t-98 15q-97 0 -149.5 -51.5t-52.5 -147.5q0 -95 53 -147.5t149 -52.5q54 0 97.5 15.5t71.5 45.5q14 14 28 14
q10 0 17 -7q11 -11 11 -23q0 -10 -9 -19q-47 -42 -99.5 -62t-116.5 -20q-79 0 -139 32zM273 583l-106 127q-8 11 -8 20q0 12 13 22q8 6 16 6q14 0 28 -18l86 -114l86 114q14 19 28 19q9 0 16 -6q13 -9 13 -22q0 -11 -9 -22l-105 -126q-13 -16 -29 -16q-15 0 -29 16z" />
    <glyph glyph-name="Dcaron" unicode="&#x10e;" horiz-adv-x="741" 
d="M115.5 31q-32.5 31 -32.5 85v469q0 54 32 84.5t90 30.5h140q102 0 178.5 -43.5t118 -122.5t41.5 -185q0 -105 -41.5 -184t-118 -122t-178.5 -43h-139q-58 0 -90.5 31zM335 55q134 0 208.5 77.5t74.5 216.5t-75 218t-208 79h-133q-25 0 -40 -16.5t-15 -42.5v-473
q0 -27 15 -43t40 -16h133zM313 803l-106 127q-8 11 -8 20q0 12 13 22q7 6 16 6q14 0 28 -18l86 -114l86 114q14 19 28 19q8 0 16 -6q13 -9 13 -22q0 -11 -9 -22l-105 -126q-13 -16 -29 -16q-15 0 -29 16z" />
    <glyph glyph-name="dcaron" unicode="&#x10f;" horiz-adv-x="785" 
d="M123 57.5q-71 67.5 -71 184.5q0 74 31 132.5t92 92t146 33.5q74 0 126 -28t92 -78l1 329q0 36 31 36t31 -36v-697q0 -17 -8 -26.5t-23 -9.5t-23 9.5t-8 26.5v73q-36 -54 -92 -81.5t-129 -27.5q-125 0 -196 67.5zM482 99.5q58 53.5 58 145.5q0 62 -30 107t-79.5 69
t-106.5 24q-99 0 -154 -56t-55 -147q0 -98 54 -147t153 -49q102 0 160 53.5zM673 549q0 10 15 22q56 47 57 81q-5 -2 -15 -2q-19 0 -34 13.5t-15 33.5q0 26 16 40.5t43 14.5t43 -19t16 -53q0 -67 -78 -133q-20 -17 -30 -17q-7 0 -13 7q-5 6 -5 12z" />
    <glyph glyph-name="Dcroat" unicode="&#x110;" horiz-adv-x="787" 
d="M166.5 30.5q-32.5 30.5 -32.5 85.5v209h-62q-17 0 -26 6.5t-9 19.5q0 27 35 27h62v207q0 54 32.5 84.5t89.5 30.5h141q101 0 177.5 -43.5t118 -123t41.5 -184.5t-41.5 -184t-117.5 -122t-178 -43h-140q-58 0 -90.5 30.5zM387 55q133 0 207.5 77.5t74.5 216.5t-75 218
t-207 79h-133q-25 0 -40 -16t-15 -43v-209h168q18 0 26.5 -6t8.5 -21q0 -26 -35 -26h-168v-211q0 -27 15 -43t40 -16h133z" />
    <glyph glyph-name="dcroat" unicode="&#x111;" horiz-adv-x="733" 
d="M697 603q0 -26 -34 -26h-65v-551q0 -17 -8 -26.5t-23 -9.5t-23 9.5t-8 26.5v73q-36 -54 -92 -81.5t-129 -27.5q-125 0 -196 67.5t-71 184.5q0 74 31 132.5t92 92t146 33.5q74 0 126 -28t92 -78l1 183h-125q-16 0 -25 6.5t-9 19.5q0 27 34 27h125v93q0 36 31 36t31 -36
v-93h65q34 0 34 -27zM478 99.5q58 53.5 58 145.5q0 62 -30 107t-79.5 69t-106.5 24q-99 0 -154 -56t-55 -147q0 -98 54 -147t153 -49q102 0 160 53.5z" />
    <glyph glyph-name="Emacron" unicode="&#x112;" horiz-adv-x="629" 
d="M115.5 30.5q-32.5 30.5 -32.5 85.5v469q0 54 32 84.5t90 30.5h310q34 0 34 -28q0 -26 -34 -26h-313q-25 0 -40 -16.5t-15 -42.5v-202h292q34 0 34 -28q0 -13 -9 -20t-25 -7h-292v-216q0 -27 15 -43t40 -16h335q34 0 34 -28q0 -13 -9 -20t-25 -7h-331q-58 0 -90.5 30.5z
M181 814q0 14 8.5 19t24.5 5h243q17 0 25 -5t8 -19q0 -23 -33 -23h-243q-33 0 -33 23z" />
    <glyph glyph-name="emacron" unicode="&#x113;" horiz-adv-x="630" 
d="M117 57.5q-70 67.5 -70 191.5q0 116 71.5 183.5t195.5 67.5q77 0 136.5 -24.5t92.5 -68.5t33 -101q0 -40 -22 -63t-61 -23h-381q0 -82 53.5 -128t150.5 -46q60 0 102 13.5t79 44.5q15 14 27 14q8 0 15 -6q12 -10 12 -22q0 -10 -9 -19q-79 -81 -226 -81q-129 0 -199 67.5z
M475 272q20 0 29 8.5t9 28.5q0 39 -25.5 70t-71 48.5t-102.5 17.5q-95 0 -148 -45.5t-53 -127.5h362zM163 594q0 14 8.5 19t24.5 5h243q17 0 25 -5t8 -19q0 -23 -33 -23h-243q-33 0 -33 23z" />
    <glyph glyph-name="Ebreve" unicode="&#x114;" horiz-adv-x="629" 
d="M115.5 30.5q-32.5 30.5 -32.5 85.5v469q0 54 32 84.5t90 30.5h310q34 0 34 -28q0 -26 -34 -26h-313q-25 0 -40 -16.5t-15 -42.5v-202h292q34 0 34 -28q0 -13 -9 -20t-25 -7h-292v-216q0 -27 15 -43t40 -16h335q34 0 34 -28q0 -13 -9 -20t-25 -7h-331q-58 0 -90.5 30.5z
M227 830.5q-40 41.5 -40 101.5q0 35 30 35q28 0 28 -35q0 -44 22.5 -69.5t67.5 -25.5t67 25.5t22 69.5q0 35 29 35t29 -35q0 -60 -40 -101.5t-107 -41.5q-68 0 -108 41.5z" />
    <glyph glyph-name="ebreve" unicode="&#x115;" horiz-adv-x="630" 
d="M117 57.5q-70 67.5 -70 191.5q0 116 71.5 183.5t195.5 67.5q77 0 136.5 -24.5t92.5 -68.5t33 -101q0 -40 -22 -63t-61 -23h-381q0 -82 53.5 -128t150.5 -46q60 0 102 13.5t79 44.5q15 14 27 14q8 0 15 -6q12 -10 12 -22q0 -10 -9 -19q-79 -81 -226 -81q-129 0 -199 67.5z
M475 272q20 0 29 8.5t9 28.5q0 39 -25.5 70t-71 48.5t-102.5 17.5q-95 0 -148 -45.5t-53 -127.5h362zM208 610.5q-40 41.5 -40 101.5q0 35 30 35q28 0 28 -35q0 -44 22.5 -69.5t67.5 -25.5t67 25.5t22 69.5q0 35 29 35t29 -35q0 -60 -40 -101.5t-107 -41.5q-68 0 -108 41.5z
" />
    <glyph glyph-name="Edotaccent" unicode="&#x116;" horiz-adv-x="629" 
d="M115.5 30.5q-32.5 30.5 -32.5 85.5v469q0 54 32 84.5t90 30.5h310q34 0 34 -28q0 -26 -34 -26h-313q-25 0 -40 -16.5t-15 -42.5v-202h292q34 0 34 -28q0 -13 -9 -20t-25 -7h-292v-216q0 -27 15 -43t40 -16h335q34 0 34 -28q0 -13 -9 -20t-25 -7h-331q-58 0 -90.5 30.5z
M301.5 821q-14.5 14 -14.5 33t14.5 33t34.5 14q19 0 33 -14t14 -33t-14 -33t-33 -14q-20 0 -34.5 14z" />
    <glyph glyph-name="edotaccent" unicode="&#x117;" horiz-adv-x="630" 
d="M117 57.5q-70 67.5 -70 191.5q0 116 71.5 183.5t195.5 67.5q77 0 136.5 -24.5t92.5 -68.5t33 -101q0 -40 -22 -63t-61 -23h-381q0 -82 53.5 -128t150.5 -46q60 0 102 13.5t79 44.5q15 14 27 14q8 0 15 -6q12 -10 12 -22q0 -10 -9 -19q-79 -81 -226 -81q-129 0 -199 67.5z
M475 272q20 0 29 8.5t9 28.5q0 39 -25.5 70t-71 48.5t-102.5 17.5q-95 0 -148 -45.5t-53 -127.5h362zM283.5 601q-14.5 14 -14.5 33t14.5 33t34.5 14q19 0 33 -14t14 -33t-14 -33t-33 -14q-20 0 -34.5 14z" />
    <glyph glyph-name="Eogonek" unicode="&#x118;" horiz-adv-x="629" 
d="M577 -155q0 -8 -10 -18q-18 -19 -38 -27t-48 -8q-47 0 -75.5 24.5t-28.5 62.5q0 33 18 61.5t53 59.5h-242q-58 0 -90.5 30.5t-32.5 85.5v469q0 54 32 84.5t90 30.5h310q34 0 34 -28q0 -26 -34 -26h-313q-25 0 -40 -16.5t-15 -42.5v-202h292q34 0 34 -28q0 -13 -9 -20
t-25 -7h-292v-216q0 -27 15 -43t40 -16h335q34 0 34 -28q0 -13 -9 -20t-25 -7h-19l-6 -6q-45 -36 -63 -58.5t-18 -54.5q0 -19 13.5 -31t38.5 -12q32 0 56 21q10 8 16 8q7 0 14 -7q8 -8 8 -15z" />
    <glyph glyph-name="eogonek" unicode="&#x119;" horiz-adv-x="630" 
d="M554 243q-22 -23 -61 -23h-381q0 -82 53.5 -128t150.5 -46q60 0 102 13.5t79 44.5q15 14 27 14q8 0 15 -6q12 -10 12 -22q0 -10 -9 -19q-69 -70 -185 -79q-42 -33 -59.5 -56t-17.5 -54q0 -19 13.5 -31t38.5 -12q32 0 56 21q10 8 16 8q7 0 14 -7q8 -8 8 -15q0 -8 -10 -18
q-18 -19 -38 -27t-48 -8q-47 0 -75.5 24.5t-28.5 62.5q0 30 15 56.5t45 54.5q-115 8 -177 75t-62 183t71.5 183.5t195.5 67.5q77 0 136.5 -24.5t92.5 -68.5t33 -101q0 -40 -22 -63zM475 272q20 0 29 8.5t9 28.5q0 39 -25.5 70t-71 48.5t-102.5 17.5q-95 0 -148 -45.5
t-53 -127.5h362z" />
    <glyph glyph-name="Ecaron" unicode="&#x11a;" horiz-adv-x="629" 
d="M115.5 30.5q-32.5 30.5 -32.5 85.5v469q0 54 32 84.5t90 30.5h310q34 0 34 -28q0 -26 -34 -26h-313q-25 0 -40 -16.5t-15 -42.5v-202h292q34 0 34 -28q0 -13 -9 -20t-25 -7h-292v-216q0 -27 15 -43t40 -16h335q34 0 34 -28q0 -13 -9 -20t-25 -7h-331q-58 0 -90.5 30.5z
M307 803l-106 127q-8 11 -8 20q0 12 13 22q8 6 16 6q14 0 28 -18l86 -114l86 114q14 19 28 19q9 0 16 -6q13 -9 13 -22q0 -11 -9 -22l-105 -126q-13 -16 -29 -16q-15 0 -29 16z" />
    <glyph glyph-name="ecaron" unicode="&#x11b;" horiz-adv-x="630" 
d="M117 57.5q-70 67.5 -70 191.5q0 116 71.5 183.5t195.5 67.5q77 0 136.5 -24.5t92.5 -68.5t33 -101q0 -40 -22 -63t-61 -23h-381q0 -82 53.5 -128t150.5 -46q60 0 102 13.5t79 44.5q15 14 27 14q8 0 15 -6q12 -10 12 -22q0 -10 -9 -19q-79 -81 -226 -81q-129 0 -199 67.5z
M475 272q20 0 29 8.5t9 28.5q0 39 -25.5 70t-71 48.5t-102.5 17.5q-95 0 -148 -45.5t-53 -127.5h362zM289 583l-106 127q-8 11 -8 20q0 12 13 22q8 6 16 6q14 0 28 -18l86 -114l86 114q14 19 28 19q9 0 16 -6q13 -9 13 -22q0 -11 -9 -22l-105 -126q-13 -16 -29 -16
q-15 0 -29 16z" />
    <glyph glyph-name="Gcircumflex" unicode="&#x11c;" horiz-adv-x="764" 
d="M221.5 34.5q-78.5 44.5 -121 125.5t-42.5 189t43 190t121.5 126.5t182.5 44.5q84 0 156 -28.5t112 -79.5q7 -8 7 -21q0 -14 -11 -21q-7 -6 -18 -6q-17 0 -28 13q-30 41 -87.5 64t-130.5 23q-87 0 -150.5 -37t-97.5 -105.5t-34 -162.5q0 -93 33.5 -161t97 -104.5
t150.5 -36.5q68 0 122.5 22.5t85 62.5t30.5 91v36q0 29 -11.5 41t-40.5 12h-156q-34 0 -34 27q0 14 8 21t26 7h159q57 0 85 -25t28 -77v-38q0 -66 -40 -120t-109 -85.5t-153 -31.5q-104 0 -182.5 44.5zM243 816q0 10 8 21l106 126q13 16 29 16t29 -16l105 -126q9 -10 9 -21
q0 -12 -13 -22q-9 -6 -16 -6q-14 0 -28 18l-86 114l-86 -114q-14 -19 -29 -19q-7 0 -15 6q-13 10 -13 23z" />
    <glyph glyph-name="gcircumflex" unicode="&#x11d;" horiz-adv-x="669" 
d="M204.5 -230.5q-57.5 20.5 -92.5 60.5q-7 7 -7 16q0 14 14 23q7 6 17 6q13 0 25 -13q23 -27 64.5 -43.5t99.5 -16.5q102 0 155.5 47t53.5 137v105q-34 -46 -91.5 -76.5t-130.5 -30.5q-128 0 -196.5 68t-68.5 181q0 77 30 137t91.5 95t150.5 35q69 0 123.5 -28t91.5 -81v76
q0 14 9 23.5t23 9.5q13 0 21.5 -9.5t8.5 -23.5v-481q0 -112 -72.5 -174.5t-191.5 -62.5q-70 0 -127.5 20.5zM420 63q50 22 81.5 67t31.5 112q0 57 -25 103.5t-72.5 73t-113.5 26.5q-103 0 -157.5 -55t-54.5 -157q0 -88 52.5 -140t153.5 -52q54 0 104 22zM171 606q0 10 8 21
l106 126q13 16 29 16t29 -16l105 -126q9 -10 9 -21q0 -12 -13 -22q-9 -6 -16 -6q-14 0 -28 18l-86 114l-86 -114q-14 -19 -29 -19q-7 0 -15 6q-13 10 -13 23z" />
    <glyph glyph-name="Gbreve" unicode="&#x11e;" horiz-adv-x="764" 
d="M221.5 34.5q-78.5 44.5 -121 125.5t-42.5 189t43 190t121.5 126.5t182.5 44.5q84 0 156 -28.5t112 -79.5q7 -8 7 -21q0 -14 -11 -21q-7 -6 -18 -6q-17 0 -28 13q-30 41 -87.5 64t-130.5 23q-87 0 -150.5 -37t-97.5 -105.5t-34 -162.5q0 -93 33.5 -161t97 -104.5
t150.5 -36.5q68 0 122.5 22.5t85 62.5t30.5 91v36q0 29 -11.5 41t-40.5 12h-156q-34 0 -34 27q0 14 8 21t26 7h159q57 0 85 -25t28 -77v-38q0 -66 -40 -120t-109 -85.5t-153 -31.5q-104 0 -182.5 44.5zM276 830.5q-40 41.5 -40 101.5q0 35 30 35q28 0 28 -35
q0 -44 22.5 -69.5t67.5 -25.5t67 25.5t22 69.5q0 35 29 35t29 -35q0 -60 -40 -101.5t-107 -41.5q-68 0 -108 41.5z" />
    <glyph glyph-name="gbreve" unicode="&#x11f;" horiz-adv-x="669" 
d="M204.5 -230.5q-57.5 20.5 -92.5 60.5q-7 7 -7 16q0 14 14 23q7 6 17 6q13 0 25 -13q23 -27 64.5 -43.5t99.5 -16.5q102 0 155.5 47t53.5 137v105q-34 -46 -91.5 -76.5t-130.5 -30.5q-128 0 -196.5 68t-68.5 181q0 77 30 137t91.5 95t150.5 35q69 0 123.5 -28t91.5 -81v76
q0 14 9 23.5t23 9.5q13 0 21.5 -9.5t8.5 -23.5v-481q0 -112 -72.5 -174.5t-191.5 -62.5q-70 0 -127.5 20.5zM420 63q50 22 81.5 67t31.5 112q0 57 -25 103.5t-72.5 73t-113.5 26.5q-103 0 -157.5 -55t-54.5 -157q0 -88 52.5 -140t153.5 -52q54 0 104 22zM205 620.5
q-40 41.5 -40 101.5q0 35 30 35q28 0 28 -35q0 -44 22.5 -69.5t67.5 -25.5t67 25.5t22 69.5q0 35 29 35t29 -35q0 -60 -40 -101.5t-107 -41.5q-68 0 -108 41.5z" />
    <glyph glyph-name="Gdotaccent" unicode="&#x120;" horiz-adv-x="764" 
d="M221.5 34.5q-78.5 44.5 -121 125.5t-42.5 189t43 190t121.5 126.5t182.5 44.5q84 0 156 -28.5t112 -79.5q7 -8 7 -21q0 -14 -11 -21q-7 -6 -18 -6q-17 0 -28 13q-30 41 -87.5 64t-130.5 23q-87 0 -150.5 -37t-97.5 -105.5t-34 -162.5q0 -93 33.5 -161t97 -104.5
t150.5 -36.5q68 0 122.5 22.5t85 62.5t30.5 91v36q0 29 -11.5 41t-40.5 12h-156q-34 0 -34 27q0 14 8 21t26 7h159q57 0 85 -25t28 -77v-38q0 -66 -40 -120t-109 -85.5t-153 -31.5q-104 0 -182.5 44.5zM351.5 821q-14.5 14 -14.5 33t14.5 33t34.5 14q19 0 33 -14t14 -33
t-14 -33t-33 -14q-20 0 -34.5 14z" />
    <glyph glyph-name="gdotaccent" unicode="&#x121;" horiz-adv-x="669" 
d="M204.5 -230.5q-57.5 20.5 -92.5 60.5q-7 7 -7 16q0 14 14 23q7 6 17 6q13 0 25 -13q23 -27 64.5 -43.5t99.5 -16.5q102 0 155.5 47t53.5 137v105q-34 -46 -91.5 -76.5t-130.5 -30.5q-128 0 -196.5 68t-68.5 181q0 77 30 137t91.5 95t150.5 35q69 0 123.5 -28t91.5 -81v76
q0 14 9 23.5t23 9.5q13 0 21.5 -9.5t8.5 -23.5v-481q0 -112 -72.5 -174.5t-191.5 -62.5q-70 0 -127.5 20.5zM420 63q50 22 81.5 67t31.5 112q0 57 -25 103.5t-72.5 73t-113.5 26.5q-103 0 -157.5 -55t-54.5 -157q0 -88 52.5 -140t153.5 -52q54 0 104 22zM279.5 611
q-14.5 14 -14.5 33t14.5 33t34.5 14q19 0 33 -14t14 -33t-14 -33t-33 -14q-20 0 -34.5 14z" />
    <glyph glyph-name="uni0122" unicode="&#x122;" horiz-adv-x="764" 
d="M221.5 34.5q-78.5 44.5 -121 125.5t-42.5 189t43 190t121.5 126.5t182.5 44.5q84 0 156 -28.5t112 -79.5q7 -8 7 -21q0 -14 -11 -21q-7 -6 -18 -6q-17 0 -28 13q-30 41 -87.5 64t-130.5 23q-87 0 -150.5 -37t-97.5 -105.5t-34 -162.5q0 -93 33.5 -161t97 -104.5
t150.5 -36.5q68 0 122.5 22.5t85 62.5t30.5 91v36q0 29 -11.5 41t-40.5 12h-156q-34 0 -34 27q0 14 8 21t26 7h159q57 0 85 -25t28 -77v-38q0 -66 -40 -120t-109 -85.5t-153 -31.5q-104 0 -182.5 44.5zM314 -279q0 9 15 21q28 24 42.5 43.5t15.5 39.5q-5 -2 -15 -2
q-20 0 -35 13.5t-15 33.5q0 26 15.5 41t43.5 15q27 0 43.5 -19t16.5 -54q0 -36 -20.5 -71.5t-58.5 -64.5q-20 -17 -30 -17q-5 0 -12 7q-6 7 -6 14z" />
    <glyph glyph-name="uni0123" unicode="&#x123;" horiz-adv-x="669" 
d="M204.5 -230.5q-57.5 20.5 -92.5 60.5q-7 7 -7 16q0 14 14 23q7 6 17 6q13 0 25 -13q23 -27 64.5 -43.5t99.5 -16.5q102 0 155.5 47t53.5 137v105q-34 -46 -91.5 -76.5t-130.5 -30.5q-128 0 -196.5 68t-68.5 181q0 77 30 137t91.5 95t150.5 35q69 0 123.5 -28t91.5 -81v76
q0 14 9 23.5t23 9.5q13 0 21.5 -9.5t8.5 -23.5v-481q0 -112 -72.5 -174.5t-191.5 -62.5q-70 0 -127.5 20.5zM420 63q50 22 81.5 67t31.5 112q0 57 -25 103.5t-72.5 73t-113.5 26.5q-103 0 -157.5 -55t-54.5 -157q0 -88 52.5 -140t153.5 -52q54 0 104 22zM264 583
q-16 19 -16 53t20 68t56 64q21 18 32 18q7 0 13 -7q5 -7 5 -12t-4.5 -10.5t-10.5 -11.5q-55 -46 -58 -81q5 2 15 2q19 0 34 -13.5t15 -33.5q0 -26 -15.5 -40.5t-42.5 -14.5t-43 19z" />
    <glyph glyph-name="Hcircumflex" unicode="&#x124;" horiz-adv-x="752" 
d="M93.5 -0.5q-8.5 9.5 -8.5 26.5v648q0 17 8.5 26.5t23.5 9.5t23.5 -9.5t8.5 -26.5v-287h454v287q0 18 9 27t24 9t23 -9.5t8 -26.5v-648q0 -17 -8 -26.5t-23 -9.5t-24 9.5t-9 26.5v306h-454v-306q0 -17 -8.5 -26.5t-23.5 -9.5t-23.5 9.5zM233 816q0 10 8 21l106 126
q13 16 29 16t29 -16l105 -126q9 -10 9 -21q0 -12 -13 -22q-9 -6 -16 -6q-14 0 -28 18l-86 114l-86 -114q-14 -19 -29 -19q-7 0 -15 6q-13 10 -13 23z" />
    <glyph glyph-name="hcircumflex" unicode="&#x125;" horiz-adv-x="611" 
d="M84 -0.5q-8 9.5 -8 26.5v697q0 36 31 36t31 -36v-324q37 49 90 75t116 26q96 0 146.5 -51.5t50.5 -149.5v-273q0 -17 -8.5 -26.5t-23.5 -9.5q-30 0 -30 36v273q0 74 -34 110t-105 36q-91 0 -146.5 -53.5t-55.5 -140.5v-225q0 -17 -8 -26.5t-23 -9.5t-23 9.5zM74 866
q0 10 8 21l106 126q13 16 29 16t29 -16l105 -126q9 -10 9 -21q0 -12 -13 -22q-9 -6 -16 -6q-14 0 -28 18l-86 114l-86 -114q-14 -19 -29 -19q-7 0 -15 6q-13 10 -13 23z" />
    <glyph glyph-name="Hbar" unicode="&#x126;" horiz-adv-x="796" 
d="M760 554q9 -6 9 -21q0 -26 -34 -26h-46v-481q0 -17 -8 -26.5t-23 -9.5t-24 9.5t-9 26.5v306h-454v-306q0 -17 -8.5 -26.5t-23.5 -9.5t-23.5 9.5t-8.5 26.5v481h-46q-34 0 -34 26q0 27 34 27h46v114q0 17 8.5 26.5t23.5 9.5t23.5 -9.5t8.5 -26.5v-114h454v114q0 18 9 27
t24 9t23 -9.5t8 -26.5v-114h46q16 0 25 -6zM625 507h-454v-120h454v120z" />
    <glyph glyph-name="hbar" unicode="&#x127;" horiz-adv-x="665" 
d="M544.5 448.5q50.5 -51.5 50.5 -149.5v-273q0 -17 -8 -26.5t-23 -9.5q-31 0 -31 36v273q0 74 -34 110t-105 36q-91 0 -146 -53.5t-55 -140.5v-225q0 -17 -8.5 -26.5t-23.5 -9.5q-30 0 -30 36v555h-61q-34 0 -34 26q0 27 34 27h61v89q0 36 30 36q32 0 32 -36v-89h113
q17 0 25.5 -6t8.5 -21q0 -26 -34 -26h-113v-182q37 49 90 75t116 26q95 0 145.5 -51.5z" />
    <glyph glyph-name="Itilde" unicode="&#x128;" horiz-adv-x="296" 
d="M124.5 -0.5q-8.5 9.5 -8.5 26.5v648q0 36 32 36q15 0 23.5 -9.5t8.5 -26.5v-648q0 -17 -8.5 -26.5t-23.5 -9.5t-23.5 9.5zM-14 826q0 7 1 12q8 34 32.5 55.5t58.5 21.5q24 0 42.5 -8.5t40.5 -24.5q16 -12 28.5 -18t25.5 -6q36 0 47 43q5 20 22 20q26 0 26 -21
q0 -4 -2 -12q-8 -35 -32.5 -56t-58.5 -21q-21 0 -38 8t-38 23q-22 14 -34 20t-27 6q-34 0 -46 -43q-6 -21 -23 -21q-25 0 -25 22z" />
    <glyph glyph-name="itilde" unicode="&#x129;" horiz-adv-x="249" 
d="M102 -0.5q-8 9.5 -8 26.5v438q0 36 31 36q15 0 23 -9.5t8 -26.5v-438q0 -17 -8 -26.5t-23 -9.5t-23 9.5zM-36 602q0 8 1 13q8 33 32.5 54.5t58.5 21.5q24 0 42.5 -8.5t40.5 -24.5q16 -12 28.5 -18t25.5 -6q36 0 47 44q5 20 22 20q7 0 10 -1q15 -4 15 -21q0 -8 -1 -12
q-8 -34 -32.5 -55.5t-58.5 -21.5q-21 0 -38 8t-38 23q-22 14 -34 20t-27 6q-35 0 -46 -43q-6 -20 -22 -20q-26 0 -26 21z" />
    <glyph glyph-name="Imacron" unicode="&#x12a;" horiz-adv-x="296" 
d="M124.5 -0.5q-8.5 9.5 -8.5 26.5v648q0 36 32 36q15 0 23.5 -9.5t8.5 -26.5v-648q0 -17 -8.5 -26.5t-23.5 -9.5t-23.5 9.5zM-7 814q0 14 8.5 19t24.5 5h243q17 0 25 -5t8 -19q0 -23 -33 -23h-243q-33 0 -33 23z" />
    <glyph glyph-name="imacron" unicode="&#x12b;" horiz-adv-x="249" 
d="M102 -0.5q-8 9.5 -8 26.5v438q0 36 31 36q15 0 23 -9.5t8 -26.5v-438q0 -17 -8 -26.5t-23 -9.5t-23 9.5zM-28 567q0 14 8 19t25 5h243q16 0 24.5 -5t8.5 -19q0 -23 -33 -23h-243q-33 0 -33 23z" />
    <glyph glyph-name="Ibreve" unicode="&#x12c;" horiz-adv-x="296" 
d="M124.5 -0.5q-8.5 9.5 -8.5 26.5v648q0 36 32 36q15 0 23.5 -9.5t8.5 -26.5v-648q0 -17 -8.5 -26.5t-23.5 -9.5t-23.5 9.5zM39 830.5q-40 41.5 -40 101.5q0 35 30 35q28 0 28 -35q0 -44 22.5 -69.5t67.5 -25.5t67 25.5t22 69.5q0 35 29 35t29 -35q0 -60 -40 -101.5
t-107 -41.5q-68 0 -108 41.5z" />
    <glyph glyph-name="ibreve" unicode="&#x12d;" horiz-adv-x="249" 
d="M102 -0.5q-8 9.5 -8 26.5v438q0 36 31 36q15 0 23 -9.5t8 -26.5v-438q0 -17 -8 -26.5t-23 -9.5t-23 9.5zM18 600.5q-40 41.5 -40 101.5q0 35 29 35t29 -35q0 -44 22.5 -69.5t67.5 -25.5t67 25.5t22 69.5q0 35 29 35t29 -35q0 -60 -39.5 -101.5t-107.5 -41.5t-108 41.5z
" />
    <glyph glyph-name="Iogonek" unicode="&#x12e;" horiz-adv-x="296" 
d="M229 -155q0 -9 -9 -18q-19 -19 -39 -27t-47 -8q-47 0 -75.5 24.5t-28.5 62.5q0 37 22 68.5t65 66.5q-1 4 -1 12v648q0 36 32 36q15 0 23.5 -9.5t8.5 -26.5v-648q0 -25 -17 -33q-45 -36 -62.5 -58t-17.5 -54q0 -19 14 -31t39 -12q32 0 55 21q10 8 16 8t15 -7q7 -7 7 -15z
" />
    <glyph glyph-name="iogonek" unicode="&#x12f;" horiz-adv-x="249" 
d="M90 624.5q-14 13.5 -14 32.5t14.5 33t33.5 14t34 -14.5t15 -32.5t-15 -32t-34 -14q-20 0 -34 13.5zM205 -153q0 -9 -9 -18q-19 -19 -39 -27t-47 -8q-47 0 -75.5 24.5t-28.5 62.5q0 37 22 68.5t66 67.5q-1 3 -1 9v438q0 36 31 36q15 0 23 -9.5t8 -26.5v-438q0 -6 -1 -9
q0 -5 -1 -7q-4 -14 -19 -19q-41 -33 -58 -55.5t-17 -52.5q0 -19 14 -31t39 -12q32 0 55 21q10 8 16 8t15 -7q7 -7 7 -15z" />
    <glyph glyph-name="Idotaccent" unicode="&#x130;" horiz-adv-x="296" 
d="M124.5 -0.5q-8.5 9.5 -8.5 26.5v648q0 36 32 36q15 0 23.5 -9.5t8.5 -26.5v-648q0 -17 -8.5 -26.5t-23.5 -9.5t-23.5 9.5zM114.5 821q-14.5 14 -14.5 33t14.5 33t34.5 14q19 0 33 -14t14 -33t-14 -33t-33 -14q-20 0 -34.5 14z" />
    <glyph glyph-name="dotlessi" unicode="&#x131;" horiz-adv-x="249" 
d="M102 -0.5q-8 9.5 -8 26.5v438q0 36 31 36q15 0 23 -9.5t8 -26.5v-438q0 -17 -8 -26.5t-23 -9.5t-23 9.5z" />
    <glyph glyph-name="IJ" unicode="&#x132;" horiz-adv-x="794" 
d="M124.5 -0.5q-8.5 9.5 -8.5 26.5v648q0 17 8.5 26.5t23.5 9.5t23.5 -9.5t8.5 -26.5v-648q0 -17 -8.5 -26.5t-23.5 -9.5t-23.5 9.5zM353 18q-59 28 -101 86q-8 11 -8 20q0 12 11 21q10 8 21 8q17 0 26 -14q35 -49 78.5 -70t110.5 -21q75 0 116.5 43.5t41.5 122.5v460
q0 36 32 36t32 -36v-456q0 -66 -28 -118t-78.5 -81t-115.5 -29q-79 0 -138 28z" />
    <glyph glyph-name="ij" unicode="&#x133;" horiz-adv-x="473" 
d="M90.5 595q-14.5 14 -14.5 33t14 32.5t34 13.5q19 0 34 -14t15 -32t-15 -32.5t-34 -14.5t-33.5 14zM313 595q-14 14 -14 33t14 32.5t33 13.5q20 0 35 -14t15 -32q0 -19 -15 -33t-35 -14q-19 0 -33 14zM101 -0.5q-8 9.5 -8 26.5v438q0 36 31 36q15 0 23 -9.5t8 -26.5v-438
q0 -17 -8 -26.5t-23 -9.5t-23 9.5zM187.5 -284q-8.5 8 -8.5 21q0 12 8.5 19.5t22.5 7.5q43 0 65.5 11t31 35t8.5 70l1 584q0 36 31 36q15 0 23 -9.5t8 -26.5l-1 -584q0 -90 -39.5 -131t-127.5 -41q-14 0 -22.5 8z" />
    <glyph glyph-name="Jcircumflex" unicode="&#x134;" horiz-adv-x="597" 
d="M157.5 18q-58.5 28 -101.5 86q-8 11 -8 20q0 11 11 22q8 7 20 7q17 0 26 -14q36 -49 80 -70t110 -21q74 0 115.5 43.5t41.5 122.5v460q0 36 32 36q15 0 24 -9.5t9 -26.5v-456q0 -66 -28.5 -118t-79 -81t-114.5 -29q-79 0 -137.5 28zM341 816q0 10 8 21l106 126
q13 16 29 16t29 -16l105 -126q9 -10 9 -21q0 -12 -13 -22q-9 -6 -16 -6q-14 0 -28 18l-86 114l-86 -114q-14 -19 -29 -19q-7 0 -15 6q-13 10 -13 23z" />
    <glyph glyph-name="jcircumflex" unicode="&#x135;" horiz-adv-x="317" 
d="M45.5 -284q-8.5 8 -8.5 21t8.5 20t22.5 7q42 0 64.5 10t31.5 34.5t9 71.5l1 584q0 36 30 36q32 0 32 -36l-1 -584q0 -85 -37 -128.5t-130 -43.5q-14 0 -22.5 8zM60 586q0 10 8 21l106 126q13 16 29 16q15 0 29 -16l106 -126q8 -11 8 -21q0 -11 -12 -22q-9 -6 -17 -6
q-15 0 -28 18l-86 114l-86 -114q-16 -19 -29 -19q-8 0 -15 6q-13 10 -13 23z" />
    <glyph glyph-name="uni0136" unicode="&#x136;" horiz-adv-x="683" 
d="M579.5 -4q-9.5 7 -12.5 21q-29 119 -97.5 205.5t-187.5 155.5l-132 -109v-243q0 -17 -8.5 -26.5t-23.5 -9.5t-23.5 9.5t-8.5 26.5v648q0 17 8.5 26.5t23.5 9.5t23.5 -9.5t8.5 -26.5v-330l412 354q7 7 18 7q12 0 21 -9t9 -21t-10 -21l-274 -239q130 -77 203.5 -172
t95.5 -215q2 -14 -4 -25t-19 -12q-13 -2 -22.5 5zM272 -279q0 9 15 21q28 24 42.5 43.5t15.5 39.5q-5 -2 -15 -2q-20 0 -35 13.5t-15 33.5q0 26 15.5 41t43.5 15q27 0 43.5 -19t16.5 -54q0 -36 -20.5 -71.5t-58.5 -64.5q-20 -17 -30 -17q-5 0 -12 7q-6 7 -6 14z" />
    <glyph glyph-name="uni0137" unicode="&#x137;" horiz-adv-x="587" 
d="M85 -0.5q-8 9.5 -8 26.5v697q0 36 31 36t31 -36v-454l331 227q8 6 17 6q14 0 22 -13q5 -8 5 -15q0 -16 -15 -25l-178 -122q86 -57 135.5 -131t68.5 -171q2 -15 -5 -25t-22 -10q-28 0 -34 25q-22 101 -64 161.5t-131 116.5l-130 -90v-177q0 -17 -8 -26.5t-23 -9.5t-23 9.5
zM237 -244q0 9 15 21q28 24 42.5 43.5t15.5 39.5q-5 -2 -15 -2q-20 0 -35 13.5t-15 33.5q0 26 15.5 41t43.5 15q27 0 43.5 -19t16.5 -54q0 -36 -20.5 -71.5t-58.5 -64.5q-20 -17 -30 -17q-5 0 -12 7q-6 7 -6 14z" />
    <glyph glyph-name="kgreenlandic" unicode="&#x138;" horiz-adv-x="578" 
d="M85 -0.5q-8 9.5 -8 26.5v438q0 36 31 36q15 0 23 -9.5t8 -26.5v-202l340 234q7 5 14 5q17 0 24 -15q5 -10 5 -17q0 -13 -13 -22l-198 -137q184 -110 217 -284q1 -3 1 -9q0 -13 -7.5 -20t-19.5 -7q-29 0 -33 24q-20 90 -66.5 148t-145.5 114l-118 -80v-170q0 -17 -8 -26.5
t-23 -9.5t-23 9.5z" />
    <glyph glyph-name="Lacute" unicode="&#x139;" horiz-adv-x="612" 
d="M119 31q-32 31 -32 85v558q0 17 8 26.5t23 9.5q16 0 24.5 -9.5t8.5 -26.5v-560q0 -27 15 -43t40 -16h335q35 0 35 -28q0 -13 -9 -20t-26 -7h-332q-58 0 -90 31zM103 810q0 6 3 12l63 140q13 27 30 27q6 0 16 -5q17 -8 17 -23q0 -8 -6 -19l-77 -138q-9 -15 -23 -15
q-4 0 -10 2q-13 6 -13 19z" />
    <glyph glyph-name="lacute" unicode="&#x13a;" horiz-adv-x="254" 
d="M104 -0.5q-8 9.5 -8 26.5v697q0 36 31 36t31 -36v-697q0 -17 -8 -26.5t-23 -9.5t-23 9.5zM105 860q0 6 3 12l63 140q13 27 30 27q6 0 16 -5q17 -8 17 -23q0 -8 -6 -19l-77 -138q-9 -15 -23 -15q-4 0 -10 2q-13 6 -13 19z" />
    <glyph glyph-name="uni013B" unicode="&#x13b;" horiz-adv-x="624" 
d="M119 31q-32 31 -32 85v558q0 17 8 26.5t23 9.5q16 0 24.5 -9.5t8.5 -26.5v-560q0 -27 15 -43t40 -16h335q35 0 35 -28q0 -13 -9 -20t-26 -7h-332q-58 0 -90 31zM240 -279q0 9 15 21q28 24 42.5 43.5t15.5 39.5q-5 -2 -15 -2q-20 0 -35 13.5t-15 33.5q0 26 15.5 41
t43.5 15q27 0 43.5 -19t16.5 -54q0 -36 -20.5 -71.5t-58.5 -64.5q-20 -17 -30 -17q-5 0 -12 7q-6 7 -6 14z" />
    <glyph glyph-name="uni013C" unicode="&#x13c;" horiz-adv-x="254" 
d="M104 -0.5q-8 9.5 -8 26.5v697q0 36 31 36t31 -36v-697q0 -17 -8 -26.5t-23 -9.5t-23 9.5zM57 -279q0 9 15 21q28 24 42.5 43.5t15.5 39.5q-5 -2 -15 -2q-20 0 -35 13.5t-15 33.5q0 26 15.5 41t43.5 15q27 0 43.5 -19t16.5 -54q0 -36 -20.5 -71.5t-58.5 -64.5
q-20 -17 -30 -17q-5 0 -12 7q-6 7 -6 14z" />
    <glyph glyph-name="Lcaron" unicode="&#x13d;" horiz-adv-x="612" 
d="M119 31q-32 31 -32 85v558q0 17 8 26.5t23 9.5q16 0 24.5 -9.5t8.5 -26.5v-560q0 -27 15 -43t40 -16h335q35 0 35 -28q0 -13 -9 -20t-26 -7h-332q-58 0 -90 31zM370 506q0 10 15 22q56 47 57 81q-5 -2 -15 -2q-19 0 -34 13.5t-15 33.5q0 26 16 40.5t43 14.5t43 -19
t16 -53q0 -67 -78 -133q-20 -17 -30 -17q-7 0 -13 7q-5 6 -5 12z" />
    <glyph glyph-name="lcaron" unicode="&#x13e;" horiz-adv-x="346" 
d="M104 -0.5q-8 9.5 -8 26.5v697q0 36 31 36t31 -36v-697q0 -17 -8 -26.5t-23 -9.5t-23 9.5zM234 556q0 10 15 22q56 47 57 81q-5 -2 -15 -2q-19 0 -34 13.5t-15 33.5q0 26 16 40.5t43 14.5t43 -19t16 -53q0 -67 -78 -133q-20 -17 -30 -17q-7 0 -13 7q-5 6 -5 12z" />
    <glyph glyph-name="Ldot" unicode="&#x13f;" horiz-adv-x="624" 
d="M119 31q-32 31 -32 85v558q0 17 8 26.5t23 9.5q16 0 24.5 -9.5t8.5 -26.5v-560q0 -27 15 -43t40 -16h335q35 0 35 -28q0 -13 -9 -20t-26 -7h-332q-58 0 -90 31zM318.5 305q-15.5 15 -15.5 35q0 21 15 36.5t37 15.5q20 0 35.5 -15.5t15.5 -36.5q0 -20 -15.5 -35t-35.5 -15
q-21 0 -36.5 15z" />
    <glyph glyph-name="ldot" unicode="&#x140;" horiz-adv-x="421" 
d="M104 -0.5q-8 9.5 -8 26.5v697q0 36 31 36t31 -36v-697q0 -17 -8 -26.5t-23 -9.5t-23 9.5zM246.5 305q-15.5 15 -15.5 35q0 21 15 36.5t37 15.5q20 0 35.5 -15.5t15.5 -36.5q0 -20 -15.5 -35t-35.5 -15q-21 0 -36.5 15z" />
    <glyph glyph-name="Lslash" unicode="&#x141;" horiz-adv-x="674" 
d="M626 27q0 -13 -9 -20t-26 -7h-332q-58 0 -90 31t-32 85v236l-57 -40q-7 -6 -17 -6q-14 0 -22 12q-6 9 -6 18q0 16 12 23l90 64v251q0 17 8 26.5t23 9.5q16 0 24.5 -9.5t8.5 -26.5v-206l62 44q8 5 16 5q14 0 23 -13q6 -7 6 -17q0 -14 -12 -22l-95 -67v-284q0 -27 15 -43
t40 -16h335q35 0 35 -28z" />
    <glyph glyph-name="lslash" unicode="&#x142;" horiz-adv-x="337" 
d="M301 492q0 -14 -11 -22l-66 -47v-397q0 -17 -8.5 -26.5t-23.5 -9.5q-30 0 -30 36v353l-85 -60q-7 -5 -15 -5q-13 0 -21 11q-5 8 -5 17q0 14 11 22l115 82v277q0 36 30 36q32 0 32 -36v-234l36 26q5 4 14 4q13 0 22 -12q5 -6 5 -15z" />
    <glyph glyph-name="Nacute" unicode="&#x143;" horiz-adv-x="737" 
d="M88.5 -0.5q-8.5 9.5 -8.5 26.5v414q0 126 77 198t212 72q134 0 211 -72t77 -198v-414q0 -36 -32 -36q-15 0 -23.5 9.5t-8.5 26.5v417q0 100 -58.5 155.5t-165.5 55.5q-106 0 -165.5 -56t-59.5 -155v-417q0 -17 -8.5 -26.5t-23.5 -9.5t-23.5 9.5zM343 810q0 6 3 12l63 140
q13 27 30 27q6 0 16 -5q17 -8 17 -23q0 -8 -6 -19l-77 -138q-9 -15 -23 -15q-4 0 -10 2q-13 6 -13 19z" />
    <glyph glyph-name="nacute" unicode="&#x144;" horiz-adv-x="611" 
d="M84 -0.5q-8 9.5 -8 26.5v438q0 36 31 36q15 0 23 -9.5t8 -26.5v-65q37 49 90 75t116 26q96 0 146.5 -51.5t50.5 -149.5v-273q0 -17 -8.5 -26.5t-23.5 -9.5q-30 0 -30 36v273q0 74 -34 110t-105 36q-91 0 -146.5 -53.5t-55.5 -140.5v-225q0 -17 -8 -26.5t-23 -9.5t-23 9.5
zM284 600q0 6 3 12l63 140q13 27 30 27q6 0 16 -5q17 -8 17 -23q0 -8 -6 -19l-77 -138q-9 -15 -23 -15q-4 0 -10 2q-13 6 -13 19z" />
    <glyph glyph-name="uni0145" unicode="&#x145;" horiz-adv-x="737" 
d="M88.5 -0.5q-8.5 9.5 -8.5 26.5v414q0 126 77 198t212 72q134 0 211 -72t77 -198v-414q0 -36 -32 -36q-15 0 -23.5 9.5t-8.5 26.5v417q0 100 -58.5 155.5t-165.5 55.5q-106 0 -165.5 -56t-59.5 -155v-417q0 -17 -8.5 -26.5t-23.5 -9.5t-23.5 9.5zM295 -279q0 9 15 21
q28 24 42.5 43.5t15.5 39.5q-5 -2 -15 -2q-20 0 -35 13.5t-15 33.5q0 26 15.5 41t43.5 15q27 0 43.5 -19t16.5 -54q0 -36 -20.5 -71.5t-58.5 -64.5q-20 -17 -30 -17q-5 0 -12 7q-6 7 -6 14z" />
    <glyph glyph-name="uni0146" unicode="&#x146;" horiz-adv-x="611" 
d="M84 -0.5q-8 9.5 -8 26.5v438q0 36 31 36q15 0 23 -9.5t8 -26.5v-65q37 49 90 75t116 26q96 0 146.5 -51.5t50.5 -149.5v-273q0 -17 -8.5 -26.5t-23.5 -9.5q-30 0 -30 36v273q0 74 -34 110t-105 36q-91 0 -146.5 -53.5t-55.5 -140.5v-225q0 -17 -8 -26.5t-23 -9.5t-23 9.5
zM236 -279q0 9 15 21q28 24 42.5 43.5t15.5 39.5q-5 -2 -15 -2q-20 0 -35 13.5t-15 33.5q0 26 15.5 41t43.5 15q27 0 43.5 -19t16.5 -54q0 -36 -20.5 -71.5t-58.5 -64.5q-20 -17 -30 -17q-5 0 -12 7q-6 7 -6 14z" />
    <glyph glyph-name="Ncaron" unicode="&#x147;" horiz-adv-x="737" 
d="M88.5 -0.5q-8.5 9.5 -8.5 26.5v414q0 126 77 198t212 72q134 0 211 -72t77 -198v-414q0 -36 -32 -36q-15 0 -23.5 9.5t-8.5 26.5v417q0 100 -58.5 155.5t-165.5 55.5q-106 0 -165.5 -56t-59.5 -155v-417q0 -17 -8.5 -26.5t-23.5 -9.5t-23.5 9.5zM338 803l-106 127
q-8 11 -8 20q0 12 13 22q8 6 16 6q14 0 28 -18l86 -114l86 114q14 19 28 19q9 0 16 -6q13 -9 13 -22q0 -11 -9 -22l-105 -126q-13 -16 -29 -16q-15 0 -29 16z" />
    <glyph glyph-name="ncaron" unicode="&#x148;" horiz-adv-x="611" 
d="M84 -0.5q-8 9.5 -8 26.5v438q0 36 31 36q15 0 23 -9.5t8 -26.5v-65q37 49 90 75t116 26q96 0 146.5 -51.5t50.5 -149.5v-273q0 -17 -8.5 -26.5t-23.5 -9.5q-30 0 -30 36v273q0 74 -34 110t-105 36q-91 0 -146.5 -53.5t-55.5 -140.5v-225q0 -17 -8 -26.5t-23 -9.5t-23 9.5
zM278 593l-106 127q-8 11 -8 20q0 12 13 22q8 6 16 6q14 0 28 -18l86 -114l86 114q14 19 28 19q9 0 16 -6q13 -9 13 -22q0 -11 -9 -22l-105 -126q-13 -16 -29 -16q-15 0 -29 16z" />
    <glyph glyph-name="napostrophe" unicode="&#x149;" horiz-adv-x="698" 
d="M171 -0.5q-8 9.5 -8 26.5v438q0 36 31 36q15 0 23 -9.5t8 -26.5v-65q37 49 90 75t116 26q96 0 146.5 -51.5t50.5 -149.5v-273q0 -17 -8.5 -26.5t-23.5 -9.5q-30 0 -30 36v273q0 74 -34 110t-105 36q-91 0 -146.5 -53.5t-55.5 -140.5v-225q0 -17 -8 -26.5t-23 -9.5
t-23 9.5zM27 442q0 10 15 22q56 47 57 81q-5 -2 -15 -2q-19 0 -34 13.5t-15 33.5q0 26 16 40.5t43 14.5t43 -19t16 -53q0 -67 -78 -133q-20 -17 -30 -17q-7 0 -13 7q-5 6 -5 12z" />
    <glyph glyph-name="Eng" unicode="&#x14a;" horiz-adv-x="727" 
d="M290.5 -238.5q-58.5 27.5 -99.5 83.5q-8 9 -8 21q0 14 11 22q8 7 20 7q17 0 26 -14q35 -49 78 -69.5t110 -20.5q75 0 116.5 44t41.5 123v485q0 100 -58.5 155.5t-165.5 55.5q-106 0 -165 -56t-59 -155v-417q0 -17 -8.5 -26.5t-24.5 -9.5q-15 0 -23 9.5t-8 26.5v414
q0 126 77 198t211 72t211 -72t77 -198v-478q0 -66 -28 -118t-78.5 -81t-115.5 -29q-79 0 -137.5 27.5z" />
    <glyph glyph-name="eng" unicode="&#x14b;" horiz-adv-x="611" 
d="M350.5 -284q-8.5 8 -8.5 21q0 12 8.5 19.5t21.5 7.5q44 0 66.5 11t31 35t8.5 70v419q0 74 -34 110t-104 36q-91 0 -146.5 -53.5t-55.5 -140.5v-225q0 -17 -8 -26.5t-23 -9.5t-23 9.5t-8 26.5v438q0 36 31 36q15 0 23 -9.5t8 -26.5v-65q37 49 90 75t116 26
q96 0 146.5 -51.5t50.5 -149.5l-1 -419q0 -90 -40 -131t-128 -41q-13 0 -21.5 8z" />
    <glyph glyph-name="Omacron" unicode="&#x14c;" horiz-adv-x="820" 
d="M232 34.5q-80 44.5 -127 126t-47 189.5t46.5 190t127 126t178.5 44t178.5 -44t127.5 -126t47 -190t-47 -189.5t-127.5 -126t-178.5 -44.5t-178 44.5zM557.5 82.5q65.5 35.5 103.5 104t38 163.5q0 96 -38.5 164.5t-104 103.5t-146.5 36q-82 0 -147 -35.5t-103 -104.5
t-38 -164t38 -163.5t103 -104t147 -35.5t147.5 35.5zM256 814q0 14 8.5 19t24.5 5h243q17 0 25 -5t8 -19q0 -23 -33 -23h-243q-33 0 -33 23z" />
    <glyph glyph-name="omacron" unicode="&#x14d;" 
d="M169 25.5q-61 35.5 -91 94t-30 125.5t30 125.5t91 94t148 35.5t148 -35.5t91 -94t30 -125.5t-30 -125.5t-91 -94t-148 -35.5t-148 35.5zM466.5 98.5q56.5 52.5 56.5 146.5t-56.5 147t-149.5 53t-149.5 -53t-56.5 -147t56.5 -146.5t149.5 -52.5t149.5 52.5zM163 604
q0 14 8.5 19t24.5 5h243q17 0 25 -5t8 -19q0 -23 -33 -23h-243q-33 0 -33 23z" />
    <glyph glyph-name="Obreve" unicode="&#x14e;" horiz-adv-x="820" 
d="M232 34.5q-80 44.5 -127 126t-47 189.5t46.5 190t127 126t178.5 44t178.5 -44t127.5 -126t47 -190t-47 -189.5t-127.5 -126t-178.5 -44.5t-178 44.5zM557.5 82.5q65.5 35.5 103.5 104t38 163.5q0 96 -38.5 164.5t-104 103.5t-146.5 36q-82 0 -147 -35.5t-103 -104.5
t-38 -164t38 -163.5t103 -104t147 -35.5t147.5 35.5zM301 830.5q-40 41.5 -40 101.5q0 35 30 35q28 0 28 -35q0 -44 22.5 -69.5t67.5 -25.5t67 25.5t22 69.5q0 35 29 35t29 -35q0 -60 -40 -101.5t-107 -41.5q-68 0 -108 41.5z" />
    <glyph glyph-name="obreve" unicode="&#x14f;" 
d="M169 25.5q-61 35.5 -91 94t-30 125.5t30 125.5t91 94t148 35.5t148 -35.5t91 -94t30 -125.5t-30 -125.5t-91 -94t-148 -35.5t-148 35.5zM466.5 98.5q56.5 52.5 56.5 146.5t-56.5 147t-149.5 53t-149.5 -53t-56.5 -147t56.5 -146.5t149.5 -52.5t149.5 52.5zM208 620.5
q-40 41.5 -40 101.5q0 35 30 35q28 0 28 -35q0 -44 22.5 -69.5t67.5 -25.5t67 25.5t22 69.5q0 35 29 35t29 -35q0 -60 -40 -101.5t-107 -41.5q-68 0 -108 41.5z" />
    <glyph glyph-name="Ohungarumlaut" unicode="&#x150;" horiz-adv-x="820" 
d="M232 34.5q-80 44.5 -127 126t-47 189.5t46.5 190t127 126t178.5 44t178.5 -44t127.5 -126t47 -190t-47 -189.5t-127.5 -126t-178.5 -44.5t-178 44.5zM557.5 82.5q65.5 35.5 103.5 104t38 163.5q0 96 -38.5 164.5t-104 103.5t-146.5 36q-82 0 -147 -35.5t-103 -104.5
t-38 -164t38 -163.5t103 -104t147 -35.5t147.5 35.5zM469 803q0 8 5 16l91 146q7 12 13.5 18t15.5 6q7 0 17 -5q19 -10 19 -25q0 -10 -7 -18l-105 -145q-11 -15 -26 -15q-7 0 -10 2q-13 6 -13 20zM299 803q0 8 5 16l89 147q13 22 29 22q9 0 17 -4q19 -10 19 -25q0 -7 -7 -18
l-103 -145q-10 -15 -26 -15q-7 0 -10 2q-13 6 -13 20z" />
    <glyph glyph-name="ohungarumlaut" unicode="&#x151;" 
d="M169 25.5q-61 35.5 -91 94t-30 125.5t30 125.5t91 94t148 35.5t148 -35.5t91 -94t30 -125.5t-30 -125.5t-91 -94t-148 -35.5t-148 35.5zM466.5 98.5q56.5 52.5 56.5 146.5t-56.5 147t-149.5 53t-149.5 -53t-56.5 -147t56.5 -146.5t149.5 -52.5t149.5 52.5zM376 593
q0 8 5 16l91 146q7 12 13.5 18t15.5 6q7 0 17 -5q19 -10 19 -25q0 -10 -7 -18l-105 -145q-11 -15 -26 -15q-7 0 -10 2q-13 6 -13 20zM206 593q0 8 5 16l89 147q13 22 29 22q9 0 17 -4q19 -10 19 -25q0 -7 -7 -18l-103 -145q-10 -15 -26 -15q-7 0 -10 2q-13 6 -13 20z" />
    <glyph glyph-name="OE" unicode="&#x152;" horiz-adv-x="1237" 
d="M228.5 36q-80.5 46 -125.5 128t-45 186t45 186t125.5 128t183.5 46q86 0 158.5 -40t121.5 -116v38q0 50 31.5 79t86.5 29h310q37 0 37 -29t-37 -29h-308q-25 0 -39.5 -16t-14.5 -42v-197h286q37 0 37 -30q0 -28 -37 -28h-286v-213q0 -26 14.5 -42t39.5 -16h330
q37 0 37 -29t-37 -29h-331q-55 0 -87 29.5t-32 79.5v37q-49 -76 -120.5 -116t-159.5 -40q-103 0 -183.5 46zM558 87q63 37 97 105t34 158t-34.5 158t-98 105t-146.5 37q-85 0 -149 -37t-99 -105t-35 -158t35 -158t99.5 -105t150.5 -37q83 0 146 37z" />
    <glyph glyph-name="oe" unicode="&#x153;" horiz-adv-x="1110" 
d="M178 22q-61 32 -94.5 90t-33.5 133t33.5 133t94.5 90t141 32q78 0 139.5 -34t95.5 -97q31 62 94.5 96.5t145.5 34.5q78 0 138.5 -25t94 -69.5t33.5 -101.5q0 -40 -22 -62t-61 -22h-389q0 -82 54.5 -127.5t152.5 -45.5q60 0 102 14.5t80 47.5q18 15 28 15q6 0 15 -7
q13 -11 13 -22q0 -9 -9 -18q-41 -42 -99 -64t-130 -22q-86 0 -148 33.5t-93 96.5q-34 -63 -95.5 -97t-139.5 -34q-80 0 -141 32zM469.5 99.5q55.5 53.5 55.5 145.5t-55.5 146t-150.5 54t-150.5 -54t-55.5 -146t55.5 -145.5t150.5 -53.5t150.5 53.5zM959 272q21 0 29.5 8
t8.5 28q0 40 -26 71t-72 48.5t-105 17.5q-60 0 -106.5 -21.5t-72 -61t-25.5 -90.5h369z" />
    <glyph glyph-name="Racute" unicode="&#x154;" horiz-adv-x="713" 
d="M81 583q0 52 31.5 84.5t92.5 32.5h179q273 0 273 -224q0 -106 -68 -160.5t-206 -54.5l206 -218q10 -10 10 -22q0 -14 -12 -23q-10 -8 -19 -8q-16 0 -33 19l-237 252h-148v-233q0 -18 -9 -28t-26 -10q-16 0 -25 10t-9 28v555zM388 319q92 0 145.5 35.5t53.5 121.5
q0 90 -49.5 128t-148.5 38h-185q-25 0 -39.5 -16t-14.5 -42v-265h238zM329 810q0 6 3 12l63 140q13 27 30 27q6 0 16 -5q17 -8 17 -23q0 -8 -6 -19l-77 -138q-9 -15 -23 -15q-4 0 -10 2q-13 6 -13 19z" />
    <glyph glyph-name="racute" unicode="&#x155;" horiz-adv-x="430" 
d="M84 -0.5q-8 9.5 -8 26.5v438q0 36 31 36q15 0 23 -9.5t8 -26.5v-65q35 46 82.5 68.5t110.5 22.5h25q17 0 26.5 -7.5t9.5 -20.5q0 -27 -36 -27h-27q-89 0 -140 -49.5t-51 -134.5v-225q0 -17 -8 -26.5t-23 -9.5t-23 9.5zM210 600q0 6 3 12l63 140q13 27 30 27q6 0 16 -5
q17 -8 17 -23q0 -8 -6 -19l-77 -138q-9 -15 -23 -15q-4 0 -10 2q-13 6 -13 19z" />
    <glyph glyph-name="uni0156" unicode="&#x156;" horiz-adv-x="713" 
d="M81 583q0 52 31.5 84.5t92.5 32.5h179q273 0 273 -224q0 -106 -68 -160.5t-206 -54.5l206 -218q10 -10 10 -22q0 -14 -12 -23q-10 -8 -19 -8q-16 0 -33 19l-237 252h-148v-233q0 -18 -9 -28t-26 -10q-16 0 -25 10t-9 28v555zM388 319q92 0 145.5 35.5t53.5 121.5
q0 90 -49.5 128t-148.5 38h-185q-25 0 -39.5 -16t-14.5 -42v-265h238zM281 -279q0 9 15 21q28 24 42.5 43.5t15.5 39.5q-5 -2 -15 -2q-20 0 -35 13.5t-15 33.5q0 26 15.5 41t43.5 15q27 0 43.5 -19t16.5 -54q0 -36 -20.5 -71.5t-58.5 -64.5q-20 -17 -30 -17q-5 0 -12 7
q-6 7 -6 14z" />
    <glyph glyph-name="uni0157" unicode="&#x157;" horiz-adv-x="435" 
d="M84 -0.5q-8 9.5 -8 26.5v438q0 36 31 36q15 0 23 -9.5t8 -26.5v-65q35 46 82.5 68.5t110.5 22.5h25q17 0 26.5 -7.5t9.5 -20.5q0 -27 -36 -27h-27q-89 0 -140 -49.5t-51 -134.5v-225q0 -17 -8 -26.5t-23 -9.5t-23 9.5zM43 -279q0 9 15 21q28 24 42.5 43.5t15.5 39.5
q-5 -2 -15 -2q-20 0 -35 13.5t-15 33.5q0 26 15.5 41t43.5 15q27 0 43.5 -19t16.5 -54q0 -36 -20.5 -71.5t-58.5 -64.5q-20 -17 -30 -17q-5 0 -12 7q-6 7 -6 14z" />
    <glyph glyph-name="Rcaron" unicode="&#x158;" horiz-adv-x="713" 
d="M81 583q0 52 31.5 84.5t92.5 32.5h179q273 0 273 -224q0 -106 -68 -160.5t-206 -54.5l206 -218q10 -10 10 -22q0 -14 -12 -23q-10 -8 -19 -8q-16 0 -33 19l-237 252h-148v-233q0 -18 -9 -28t-26 -10q-16 0 -25 10t-9 28v555zM388 319q92 0 145.5 35.5t53.5 121.5
q0 90 -49.5 128t-148.5 38h-185q-25 0 -39.5 -16t-14.5 -42v-265h238zM324 803l-106 127q-8 11 -8 20q0 12 13 22q8 6 16 6q14 0 28 -18l86 -114l86 114q14 19 28 19q9 0 16 -6q13 -9 13 -22q0 -11 -9 -22l-105 -126q-13 -16 -29 -16q-15 0 -29 16z" />
    <glyph glyph-name="rcaron" unicode="&#x159;" horiz-adv-x="430" 
d="M84 -0.5q-8 9.5 -8 26.5v438q0 36 31 36q15 0 23 -9.5t8 -26.5v-65q35 46 82.5 68.5t110.5 22.5h25q17 0 26.5 -7.5t9.5 -20.5q0 -27 -36 -27h-27q-89 0 -140 -49.5t-51 -134.5v-225q0 -17 -8 -26.5t-23 -9.5t-23 9.5zM204 593l-106 127q-8 11 -8 20q0 12 13 22q8 6 16 6
q14 0 28 -18l86 -114l86 114q14 19 28 19q9 0 16 -6q13 -9 13 -22q0 -11 -9 -22l-105 -126q-13 -16 -29 -16q-15 0 -29 16z" />
    <glyph glyph-name="Sacute" unicode="&#x15a;" horiz-adv-x="677" 
d="M185.5 23q-79.5 33 -120.5 89q-6 8 -6 18q0 14 13 24q7 5 14 5q14 0 29 -17q39 -45 102 -69.5t143 -24.5q93 0 143.5 34t50.5 98q0 54 -47.5 87.5t-162.5 58.5q-144 31 -206.5 79t-62.5 126q0 83 69 131t188 48q92 0 165 -32t102 -86q5 -10 5 -17q0 -15 -15 -24
q-6 -3 -14 -3q-21 0 -31 16q-27 43 -81.5 66t-130.5 23q-97 0 -144.5 -30.5t-47.5 -91.5q0 -36 19 -61t63.5 -44t122.5 -37q145 -34 209.5 -83t64.5 -126q0 -88 -69.5 -139t-189.5 -51q-95 0 -174.5 33zM317 810q0 6 3 12l63 140q13 27 30 27q6 0 16 -5q17 -8 17 -23
q0 -8 -6 -19l-77 -138q-9 -15 -23 -15q-4 0 -10 2q-13 6 -13 19z" />
    <glyph glyph-name="sacute" unicode="&#x15b;" horiz-adv-x="514" 
d="M150 17.5q-61 27.5 -95 74.5q-6 9 -6 18q0 8 5.5 15t13.5 10q8 2 11 2q7 0 13 -4.5t15 -15.5q63 -70 172 -70q55 0 90 18.5t35 55.5q0 26 -14.5 41.5t-43.5 27.5t-99 36q-61 21 -96 38t-55 43.5t-20 66.5q0 56 50 91t132 35q59 0 111.5 -21.5t78.5 -56.5q7 -8 7 -19
q0 -14 -14 -21q-10 -5 -18 -5q-14 0 -26 13q-27 28 -58 41t-82 13q-57 0 -86.5 -18.5t-29.5 -53.5q0 -26 13.5 -41t37 -24.5t86.5 -29.5q71 -24 111 -44.5t58.5 -46.5t18.5 -65q0 -61 -52.5 -96t-134.5 -35q-68 0 -129 27.5zM236 600q0 6 3 12l63 140q13 27 30 27q6 0 16 -5
q17 -8 17 -23q0 -8 -6 -19l-77 -138q-9 -15 -23 -15q-4 0 -10 2q-13 6 -13 19z" />
    <glyph glyph-name="Scircumflex" unicode="&#x15c;" horiz-adv-x="677" 
d="M185.5 23q-79.5 33 -120.5 89q-6 8 -6 18q0 14 13 24q7 5 14 5q14 0 29 -17q39 -45 102 -69.5t143 -24.5q93 0 143.5 34t50.5 98q0 54 -47.5 87.5t-162.5 58.5q-144 31 -206.5 79t-62.5 126q0 83 69 131t188 48q92 0 165 -32t102 -86q5 -10 5 -17q0 -15 -15 -24
q-6 -3 -14 -3q-21 0 -31 16q-27 43 -81.5 66t-130.5 23q-97 0 -144.5 -30.5t-47.5 -91.5q0 -36 19 -61t63.5 -44t122.5 -37q145 -34 209.5 -83t64.5 -126q0 -88 -69.5 -139t-189.5 -51q-95 0 -174.5 33zM197 816q0 10 8 21l106 126q13 16 29 16t29 -16l105 -126q9 -10 9 -21
q0 -12 -13 -22q-9 -6 -16 -6q-14 0 -28 18l-86 114l-86 -114q-14 -19 -29 -19q-7 0 -15 6q-13 10 -13 23z" />
    <glyph glyph-name="scircumflex" unicode="&#x15d;" horiz-adv-x="514" 
d="M150 17.5q-61 27.5 -95 74.5q-6 9 -6 18q0 8 5.5 15t13.5 10q8 2 11 2q7 0 13 -4.5t15 -15.5q63 -70 172 -70q55 0 90 18.5t35 55.5q0 26 -14.5 41.5t-43.5 27.5t-99 36q-61 21 -96 38t-55 43.5t-20 66.5q0 56 50 91t132 35q59 0 111.5 -21.5t78.5 -56.5q7 -8 7 -19
q0 -14 -14 -21q-10 -5 -18 -5q-14 0 -26 13q-27 28 -58 41t-82 13q-57 0 -86.5 -18.5t-29.5 -53.5q0 -26 13.5 -41t37 -24.5t86.5 -29.5q71 -24 111 -44.5t58.5 -46.5t18.5 -65q0 -61 -52.5 -96t-134.5 -35q-68 0 -129 27.5zM117 606q0 10 8 21l106 126q13 16 29 16t29 -16
l105 -126q9 -10 9 -21q0 -12 -13 -22q-9 -6 -16 -6q-14 0 -28 18l-86 114l-86 -114q-14 -19 -29 -19q-7 0 -15 6q-13 10 -13 23z" />
    <glyph glyph-name="Scedilla" unicode="&#x15e;" horiz-adv-x="677" 
d="M372 -12l-24 -47q41 1 61 -18.5t20 -50.5q0 -36 -25 -59t-70 -23q-32 0 -58.5 14t-40.5 35q-6 7 -6 15t10 17q8 5 14 5q10 0 17 -11q22 -30 63 -30q22 0 33.5 10.5t11.5 28.5q0 17 -9 27t-28 10q-8 0 -13 -1q-14 -2 -23.5 5t-9.5 18q0 6 3 12l22 47q-83 7 -150.5 39
t-104.5 81q-6 8 -6 18q0 14 13 24q7 5 14 5q14 0 29 -17q39 -45 102 -69.5t143 -24.5q93 0 143.5 34t50.5 98q0 54 -47.5 87.5t-162.5 58.5q-144 31 -206.5 79t-62.5 126q0 83 69 131t188 48q92 0 165 -32t102 -86q5 -10 5 -17q0 -15 -15 -24q-6 -3 -14 -3q-21 0 -31 16
q-27 43 -81.5 66t-130.5 23q-97 0 -144.5 -30.5t-47.5 -91.5q0 -36 19 -61t63.5 -44t122.5 -37q145 -34 209.5 -83t64.5 -126q0 -85 -66 -136t-180 -54z" />
    <glyph glyph-name="scedilla" unicode="&#x15f;" horiz-adv-x="514" 
d="M303 -12l-24 -47q41 1 61.5 -18.5t20.5 -50.5q0 -36 -25 -59t-70 -23q-32 0 -58.5 14t-40.5 35q-6 7 -6 15t10 17q7 5 13 5q11 0 18 -11q20 -30 62 -30q22 0 34 10.5t12 28.5q0 17 -9.5 27t-28.5 10q-8 0 -13 -1q-13 -2 -22.5 5t-9.5 18q0 6 3 12l22 46q-61 5 -114 31.5
t-83 69.5q-6 9 -6 18q0 8 5.5 15t13.5 10q8 2 11 2q7 0 13 -4.5t15 -15.5q63 -70 172 -70q55 0 90 18.5t35 55.5q0 26 -14.5 41.5t-43.5 27.5t-99 36q-61 21 -96 38t-55 43.5t-20 66.5q0 56 50 91t132 35q59 0 111.5 -21.5t78.5 -56.5q7 -8 7 -19q0 -14 -14 -21
q-10 -5 -18 -5q-14 0 -26 13q-27 28 -58 41t-82 13q-57 0 -86.5 -18.5t-29.5 -53.5q0 -26 13.5 -41t37 -24.5t86.5 -29.5q71 -24 111 -44.5t58.5 -46.5t18.5 -65q0 -56 -45 -90.5t-117 -39.5z" />
    <glyph glyph-name="Scaron" unicode="&#x160;" horiz-adv-x="677" 
d="M185.5 23q-79.5 33 -120.5 89q-6 8 -6 18q0 14 13 24q7 5 14 5q14 0 29 -17q39 -45 102 -69.5t143 -24.5q93 0 143.5 34t50.5 98q0 54 -47.5 87.5t-162.5 58.5q-144 31 -206.5 79t-62.5 126q0 83 69 131t188 48q92 0 165 -32t102 -86q5 -10 5 -17q0 -15 -15 -24
q-6 -3 -14 -3q-21 0 -31 16q-27 43 -81.5 66t-130.5 23q-97 0 -144.5 -30.5t-47.5 -91.5q0 -36 19 -61t63.5 -44t122.5 -37q145 -34 209.5 -83t64.5 -126q0 -88 -69.5 -139t-189.5 -51q-95 0 -174.5 33zM311 803l-106 127q-8 11 -8 20q0 12 13 22q8 6 16 6q14 0 28 -18
l86 -114l86 114q14 19 28 19q9 0 16 -6q13 -9 13 -22q0 -11 -9 -22l-105 -126q-13 -16 -29 -16q-15 0 -29 16z" />
    <glyph glyph-name="scaron" unicode="&#x161;" horiz-adv-x="514" 
d="M150 17.5q-61 27.5 -95 74.5q-6 9 -6 18q0 8 5.5 15t13.5 10q8 2 11 2q7 0 13 -4.5t15 -15.5q63 -70 172 -70q55 0 90 18.5t35 55.5q0 26 -14.5 41.5t-43.5 27.5t-99 36q-61 21 -96 38t-55 43.5t-20 66.5q0 56 50 91t132 35q59 0 111.5 -21.5t78.5 -56.5q7 -8 7 -19
q0 -14 -14 -21q-10 -5 -18 -5q-14 0 -26 13q-27 28 -58 41t-82 13q-57 0 -86.5 -18.5t-29.5 -53.5q0 -26 13.5 -41t37 -24.5t86.5 -29.5q71 -24 111 -44.5t58.5 -46.5t18.5 -65q0 -61 -52.5 -96t-134.5 -35q-68 0 -129 27.5zM231 593l-106 127q-8 11 -8 20q0 12 13 22
q8 6 16 6q14 0 28 -18l86 -114l86 114q14 19 28 19q9 0 16 -6q13 -9 13 -22q0 -11 -9 -22l-105 -126q-13 -16 -29 -16q-15 0 -29 16z" />
    <glyph glyph-name="uni0162" unicode="&#x162;" horiz-adv-x="700" 
d="M653 672q0 -26 -34 -26h-236v-620q0 -17 -10 -27v-3q0 -2 -2 -8l-25 -47q41 1 61.5 -18.5t20.5 -50.5q0 -36 -25 -59t-70 -23q-32 0 -58.5 14.5t-40.5 34.5q-6 7 -6 14q0 9 10 18q5 5 13 5q10 0 18 -11q23 -30 62 -30q23 0 34.5 10.5t11.5 28.5q0 37 -37 37q-8 0 -13 -1
q-14 -2 -23.5 5t-9.5 18q0 6 3 12l24 51l3 6q-6 9 -6 24v620h-236q-34 0 -34 26q0 15 8.5 21.5t25.5 6.5h537q34 0 34 -28z" />
    <glyph glyph-name="uni0163" unicode="&#x163;" horiz-adv-x="434" 
d="M400 75q0 -10 -8 -21q-17 -25 -47 -41.5t-64 -21.5q0 -2 -1 -3l-25 -47q41 1 61.5 -18.5t20.5 -50.5q0 -36 -25 -59t-70 -23q-32 0 -58.5 14.5t-40.5 34.5q-6 7 -6 14q0 9 10 18q5 5 13 5q10 0 18 -11q23 -30 62 -30q23 0 34.5 10.5t11.5 28.5q0 37 -37 37q-8 0 -13 -1
q-14 -2 -23.5 5t-9.5 18q0 6 3 12l23 48q-49 10 -76.5 47t-27.5 93v304h-56q-35 0 -35 27q0 26 35 26h56v175q0 17 8 26.5t23 9.5t23 -9.5t8 -26.5v-175h143q35 0 35 -26q0 -27 -35 -27h-143v-309q0 -82 76 -82q26 0 45.5 9t38.5 31q14 14 26 14q9 0 17 -7q10 -7 10 -18z
" />
    <glyph glyph-name="Tcaron" unicode="&#x164;" horiz-adv-x="700" 
d="M318 26v620h-236q-34 0 -34 26q0 15 8.5 21.5t25.5 6.5h537q34 0 34 -28q0 -26 -34 -26h-236v-620q0 -17 -9 -26.5t-24 -9.5q-32 0 -32 36zM322 803l-106 127q-8 11 -8 20q0 12 13 22q8 6 16 6q14 0 28 -18l86 -114l86 114q14 19 28 19q9 0 16 -6q13 -9 13 -22
q0 -11 -9 -22l-105 -126q-13 -16 -29 -16q-15 0 -29 16z" />
    <glyph glyph-name="tcaron" unicode="&#x165;" horiz-adv-x="446" 
d="M400 75q0 -10 -8 -21q-20 -29 -56 -46.5t-75 -17.5q-63 0 -99.5 39t-36.5 104v304h-56q-35 0 -35 27q0 26 35 26h56v175q0 17 8 26.5t23 9.5t23 -9.5t8 -26.5v-175h143q35 0 35 -26q0 -27 -35 -27h-143v-309q0 -82 76 -82q26 0 45.5 9t38.5 31q14 14 26 14q9 0 17 -7
q10 -7 10 -18zM302 565q0 10 15 22q56 47 57 81q-5 -2 -15 -2q-19 0 -34 13.5t-15 33.5q0 26 16 40.5t43 14.5t43 -19t16 -53q0 -67 -78 -133q-20 -17 -30 -17q-7 0 -13 7q-5 6 -5 12z" />
    <glyph glyph-name="Tbar" unicode="&#x166;" horiz-adv-x="700" 
d="M653 672q0 -26 -34 -26h-236v-268h117q34 0 34 -27q0 -26 -34 -26h-117v-299q0 -17 -9 -26.5t-24 -9.5q-32 0 -32 36v299h-110q-34 0 -34 26q0 27 34 27h110v268h-236q-34 0 -34 26q0 15 8.5 21.5t25.5 6.5h537q34 0 34 -28z" />
    <glyph glyph-name="tbar" unicode="&#x167;" horiz-adv-x="443" 
d="M411 75q0 -10 -8 -21q-20 -29 -56 -46.5t-75 -17.5q-63 0 -99.5 39t-36.5 104v105h-47q-36 0 -36 28t36 28h47v143h-56q-35 0 -35 27q0 26 35 26h56v175q0 17 8 26.5t23 9.5t23 -9.5t8 -26.5v-175h143q35 0 35 -26q0 -27 -35 -27h-143v-143h137q36 0 36 -28
q0 -15 -9 -21.5t-27 -6.5h-137v-110q0 -82 76 -82q26 0 45.5 9t38.5 31q14 14 26 14q9 0 17 -7q10 -7 10 -18z" />
    <glyph glyph-name="Utilde" unicode="&#x168;" horiz-adv-x="741" 
d="M156.5 67q-76.5 77 -76.5 212v395q0 17 8.5 26.5t23.5 9.5t23.5 -9.5t8.5 -26.5v-398q0 -110 58.5 -169.5t166.5 -59.5q107 0 167 60.5t60 168.5v398q0 17 9 26.5t24 9.5t23 -9.5t8 -26.5v-395q0 -87 -35.5 -152.5t-102 -101t-156.5 -35.5q-133 0 -209.5 77zM208 826
q0 7 1 12q8 34 32.5 55.5t58.5 21.5q24 0 42.5 -8.5t40.5 -24.5q16 -12 28.5 -18t25.5 -6q36 0 47 43q5 20 22 20q26 0 26 -21q0 -4 -2 -12q-8 -35 -32.5 -56t-58.5 -21q-21 0 -38 8t-38 23q-22 14 -34 20t-27 6q-34 0 -46 -43q-6 -21 -23 -21q-25 0 -25 22z" />
    <glyph glyph-name="utilde" unicode="&#x169;" horiz-adv-x="611" 
d="M126 46q-55 56 -55 154v264q0 17 8.5 26.5t23.5 9.5q30 0 30 -36v-264q0 -74 39 -114t110 -40q56 0 99.5 24.5t68 68.5t24.5 100v225q0 17 8 26.5t23 9.5q31 0 31 -36v-438q0 -36 -31 -36q-15 0 -23 9.5t-8 26.5v65q-37 -49 -87.5 -75t-108.5 -26q-97 0 -152 56zM143 616
q0 7 1 12q8 34 32.5 55.5t58.5 21.5q24 0 42.5 -8.5t40.5 -24.5q16 -12 28.5 -18t25.5 -6q36 0 47 43q5 20 22 20q26 0 26 -21q0 -4 -2 -12q-8 -35 -32.5 -56t-58.5 -21q-21 0 -38 8t-38 23q-22 14 -34 20t-27 6q-34 0 -46 -43q-6 -21 -23 -21q-25 0 -25 22z" />
    <glyph glyph-name="Umacron" unicode="&#x16a;" horiz-adv-x="741" 
d="M156.5 67q-76.5 77 -76.5 212v395q0 17 8.5 26.5t23.5 9.5t23.5 -9.5t8.5 -26.5v-398q0 -110 58.5 -169.5t166.5 -59.5q107 0 167 60.5t60 168.5v398q0 17 9 26.5t24 9.5t23 -9.5t8 -26.5v-395q0 -87 -35.5 -152.5t-102 -101t-156.5 -35.5q-133 0 -209.5 77zM216 814
q0 14 8.5 19t24.5 5h243q17 0 25 -5t8 -19q0 -23 -33 -23h-243q-33 0 -33 23z" />
    <glyph glyph-name="umacron" unicode="&#x16b;" horiz-adv-x="611" 
d="M126 46q-55 56 -55 154v264q0 17 8.5 26.5t23.5 9.5q30 0 30 -36v-264q0 -74 39 -114t110 -40q56 0 99.5 24.5t68 68.5t24.5 100v225q0 17 8 26.5t23 9.5q31 0 31 -36v-438q0 -36 -31 -36q-15 0 -23 9.5t-8 26.5v65q-37 -49 -87.5 -75t-108.5 -26q-97 0 -152 56zM151 604
q0 14 8.5 19t24.5 5h243q17 0 25 -5t8 -19q0 -23 -33 -23h-243q-33 0 -33 23z" />
    <glyph glyph-name="Ubreve" unicode="&#x16c;" horiz-adv-x="741" 
d="M156.5 67q-76.5 77 -76.5 212v395q0 17 8.5 26.5t23.5 9.5t23.5 -9.5t8.5 -26.5v-398q0 -110 58.5 -169.5t166.5 -59.5q107 0 167 60.5t60 168.5v398q0 17 9 26.5t24 9.5t23 -9.5t8 -26.5v-395q0 -87 -35.5 -152.5t-102 -101t-156.5 -35.5q-133 0 -209.5 77zM261 830.5
q-40 41.5 -40 101.5q0 35 30 35q28 0 28 -35q0 -44 22.5 -69.5t67.5 -25.5t67 25.5t22 69.5q0 35 29 35t29 -35q0 -60 -40 -101.5t-107 -41.5q-68 0 -108 41.5z" />
    <glyph glyph-name="ubreve" unicode="&#x16d;" horiz-adv-x="611" 
d="M126 46q-55 56 -55 154v264q0 17 8.5 26.5t23.5 9.5q30 0 30 -36v-264q0 -74 39 -114t110 -40q56 0 99.5 24.5t68 68.5t24.5 100v225q0 17 8 26.5t23 9.5q31 0 31 -36v-438q0 -36 -31 -36q-15 0 -23 9.5t-8 26.5v65q-37 -49 -87.5 -75t-108.5 -26q-97 0 -152 56z
M196 620.5q-40 41.5 -40 101.5q0 35 30 35q28 0 28 -35q0 -44 22.5 -69.5t67.5 -25.5t67 25.5t22 69.5q0 35 29 35t29 -35q0 -60 -40 -101.5t-107 -41.5q-68 0 -108 41.5z" />
    <glyph glyph-name="Uring" unicode="&#x16e;" horiz-adv-x="741" 
d="M156.5 67q-76.5 77 -76.5 212v395q0 17 8.5 26.5t23.5 9.5t23.5 -9.5t8.5 -26.5v-398q0 -110 58.5 -169.5t166.5 -59.5q107 0 167 60.5t60 168.5v398q0 17 9 26.5t24 9.5t23 -9.5t8 -26.5v-395q0 -87 -35.5 -152.5t-102 -101t-156.5 -35.5q-133 0 -209.5 77zM290 784.5
q-31 28.5 -31 72.5q0 43 31 71.5t81 28.5t80.5 -28.5t30.5 -71.5q0 -44 -30.5 -72.5t-80.5 -28.5t-81 28.5zM417.5 813q17.5 16 17.5 44t-17.5 44t-46.5 16t-46 -16t-17 -44t17 -44t46 -16t46.5 16z" />
    <glyph glyph-name="uring" unicode="&#x16f;" horiz-adv-x="611" 
d="M126 46q-55 56 -55 154v264q0 17 8.5 26.5t23.5 9.5q30 0 30 -36v-264q0 -74 39 -114t110 -40q56 0 99.5 24.5t68 68.5t24.5 100v225q0 17 8 26.5t23 9.5q31 0 31 -36v-438q0 -36 -31 -36q-15 0 -23 9.5t-8 26.5v65q-37 -49 -87.5 -75t-108.5 -26q-97 0 -152 56z
M225 574.5q-31 28.5 -31 72.5q0 43 31 71.5t81 28.5t80.5 -28.5t30.5 -71.5q0 -44 -30.5 -72.5t-80.5 -28.5t-81 28.5zM352.5 603q17.5 16 17.5 44t-17.5 44t-46.5 16t-46 -16t-17 -44t17 -44t46 -16t46.5 16z" />
    <glyph glyph-name="Uhungarumlaut" unicode="&#x170;" horiz-adv-x="741" 
d="M156.5 67q-76.5 77 -76.5 212v395q0 17 8.5 26.5t23.5 9.5t23.5 -9.5t8.5 -26.5v-398q0 -110 58.5 -169.5t166.5 -59.5q107 0 167 60.5t60 168.5v398q0 17 9 26.5t24 9.5t23 -9.5t8 -26.5v-395q0 -87 -35.5 -152.5t-102 -101t-156.5 -35.5q-133 0 -209.5 77zM429 803
q0 8 5 16l91 146q7 12 13.5 18t15.5 6q7 0 17 -5q19 -10 19 -25q0 -10 -7 -18l-105 -145q-11 -15 -26 -15q-7 0 -10 2q-13 6 -13 20zM259 803q0 8 5 16l89 147q13 22 29 22q9 0 17 -4q19 -10 19 -25q0 -7 -7 -18l-103 -145q-10 -15 -26 -15q-7 0 -10 2q-13 6 -13 20z" />
    <glyph glyph-name="uhungarumlaut" unicode="&#x171;" horiz-adv-x="611" 
d="M126 46q-55 56 -55 154v264q0 17 8.5 26.5t23.5 9.5q30 0 30 -36v-264q0 -74 39 -114t110 -40q56 0 99.5 24.5t68 68.5t24.5 100v225q0 17 8 26.5t23 9.5q31 0 31 -36v-438q0 -36 -31 -36q-15 0 -23 9.5t-8 26.5v65q-37 -49 -87.5 -75t-108.5 -26q-97 0 -152 56zM364 593
q0 8 5 16l91 146q7 12 13.5 18t15.5 6q7 0 17 -5q19 -10 19 -25q0 -10 -7 -18l-105 -145q-11 -15 -26 -15q-7 0 -10 2q-13 6 -13 20zM194 593q0 8 5 16l89 147q13 22 29 22q9 0 17 -4q19 -10 19 -25q0 -7 -7 -18l-103 -145q-10 -15 -26 -15q-7 0 -10 2q-13 6 -13 20z" />
    <glyph glyph-name="Uogonek" unicode="&#x172;" horiz-adv-x="741" 
d="M652 700.5q8 -9.5 8 -26.5v-395q0 -122 -67.5 -198.5t-186.5 -88.5q-43 -35 -60.5 -57.5t-17.5 -53.5q0 -19 14 -31t39 -12q32 0 55 21q10 8 16 8t15 -7q7 -7 7 -15q0 -9 -9 -18q-19 -19 -39 -27t-47 -8q-47 0 -75.5 24.5t-28.5 62.5q0 30 15.5 57t44.5 55
q-119 9 -187 85t-68 203v395q0 17 8.5 26.5t23.5 9.5t23.5 -9.5t8.5 -26.5v-398q0 -110 58.5 -169.5t166.5 -59.5q107 0 167 60.5t60 168.5v398q0 17 9 26.5t24 9.5t23 -9.5z" />
    <glyph glyph-name="uogonek" unicode="&#x173;" horiz-adv-x="611" 
d="M585 -155q0 -9 -9 -18q-19 -19 -39 -27t-47 -8q-47 0 -75.5 24.5t-28.5 62.5q0 37 22.5 69t66.5 68q-1 3 -1 10v65q-37 -49 -87.5 -75t-108.5 -26q-97 0 -152 56t-55 154v264q0 17 8.5 26.5t23.5 9.5q30 0 30 -36v-264q0 -74 39 -114t110 -40q56 0 99.5 24.5t68 68.5
t24.5 100v225q0 17 8 26.5t23 9.5q31 0 31 -36v-438q0 -28 -19 -34q-43 -35 -60.5 -57.5t-17.5 -53.5q0 -19 14 -31t39 -12q32 0 55 21q10 8 16 8t15 -7q7 -7 7 -15z" />
    <glyph glyph-name="Wcircumflex" unicode="&#x174;" horiz-adv-x="947" 
d="M206 17q-25 27 -36 83l-110 571q-2 10 -2 14q0 25 28 25q19 0 26.5 -7.5t10.5 -25.5l108 -578q6 -30 14.5 -41.5t25.5 -11.5q18 0 27 12.5t13 40.5l82 521q15 90 81 90q65 0 80 -90l82 -521q4 -29 13 -41t27 -12q16 0 25 12t15 41l108 578q3 18 11 25.5t26 7.5
q28 0 28 -25q0 -4 -2 -14l-110 -571q-11 -54 -35 -82t-66 -28q-79 0 -95 109l-82 517q-4 21 -9.5 29.5t-15.5 8.5q-11 0 -16.5 -8.5t-9.5 -29.5l-82 -517q-16 -109 -95 -109q-40 0 -65 27zM331 816q0 10 8 21l106 126q13 16 29 16t29 -16l105 -126q9 -10 9 -21
q0 -12 -13 -22q-9 -6 -16 -6q-14 0 -28 18l-86 114l-86 -114q-14 -19 -29 -19q-7 0 -15 6q-13 10 -13 23z" />
    <glyph glyph-name="wcircumflex" unicode="&#x175;" horiz-adv-x="776" 
d="M160.5 13q-26.5 23 -33.5 59l-77 397q-3 13 5.5 22t22.5 9q18 0 25 -5t10 -20l75 -392q8 -37 33 -37q17 0 24.5 8t10.5 29l57 349q5 29 26 48.5t49 19.5t49.5 -19t25.5 -49l57 -349q3 -20 11 -28.5t24 -8.5q26 0 33 37l74 392q3 15 10.5 20t25.5 5q15 0 23 -9.5t5 -21.5
l-78 -397q-7 -37 -33.5 -59.5t-59.5 -22.5q-76 0 -90 83l-57 345q-5 27 -20 27t-20 -27l-57 -345q-14 -83 -90 -83q-34 0 -60.5 23zM245 606q0 10 8 21l106 126q13 16 29 16t29 -16l105 -126q9 -10 9 -21q0 -12 -13 -22q-9 -6 -16 -6q-14 0 -28 18l-86 114l-86 -114
q-14 -19 -29 -19q-7 0 -15 6q-13 10 -13 23z" />
    <glyph glyph-name="Ycircumflex" unicode="&#x176;" horiz-adv-x="690" 
d="M632 674v-129q0 -85 -32 -153.5t-90 -110.5t-132 -50v-205q0 -17 -8.5 -26.5t-24.5 -9.5q-15 0 -23 9.5t-8 26.5v204q-77 7 -135 48t-89 109.5t-31 157.5v129q0 17 8 26.5t23 9.5q16 0 24.5 -9.5t8.5 -26.5v-132q0 -121 59 -188.5t163 -67.5t163.5 68.5t59.5 187.5v132
q0 17 8.5 26.5t23.5 9.5q32 0 32 -36zM203 816q0 10 8 21l106 126q13 16 29 16t29 -16l105 -126q9 -10 9 -21q0 -12 -13 -22q-9 -6 -16 -6q-14 0 -28 18l-86 114l-86 -114q-14 -19 -29 -19q-7 0 -15 6q-13 10 -13 23z" />
    <glyph glyph-name="ycircumflex" unicode="&#x177;" 
d="M166 -228.5q-58 21.5 -84 59.5q-5 7 -5 17q0 15 13 25q7 4 16 4q17 0 28 -14q22 -27 66 -43t95 -16q94 0 149 57t55 154v73q-32 -44 -81.5 -67.5t-112.5 -23.5q-121 0 -189.5 70.5t-68.5 195.5v204q0 14 9 23t23 9t23 -9t9 -23v-204q0 -101 51 -157t143 -56q91 0 140 53
t49 151v203q0 20 9.5 31.5t25.5 11.5q34 0 34 -43v-440q0 -78 -33.5 -138.5t-93.5 -94.5t-138 -34q-74 0 -132 21.5zM155 606q0 10 8 21l106 126q13 16 29 16t29 -16l105 -126q9 -10 9 -21q0 -12 -13 -22q-9 -6 -16 -6q-14 0 -28 18l-86 114l-86 -114q-14 -19 -29 -19
q-7 0 -15 6q-13 10 -13 23z" />
    <glyph glyph-name="Ydieresis" unicode="&#x178;" horiz-adv-x="690" 
d="M632 674v-129q0 -85 -32 -153.5t-90 -110.5t-132 -50v-205q0 -17 -8.5 -26.5t-24.5 -9.5q-15 0 -23 9.5t-8 26.5v204q-77 7 -135 48t-89 109.5t-31 157.5v129q0 17 8 26.5t23 9.5q16 0 24.5 -9.5t8.5 -26.5v-132q0 -121 59 -188.5t163 -67.5t163.5 68.5t59.5 187.5v132
q0 17 8.5 26.5t23.5 9.5q32 0 32 -36zM212 822.5q-14 13.5 -14 31.5q0 19 14 33t33 14t32.5 -14t13.5 -33q0 -18 -13.5 -31.5t-32.5 -13.5t-33 13.5zM414 822.5q-14 13.5 -14 31.5q0 19 14 33t33 14q18 0 32 -14t14 -33q0 -18 -14 -31.5t-32 -13.5q-19 0 -33 13.5z" />
    <glyph glyph-name="Zacute" unicode="&#x179;" horiz-adv-x="703" 
d="M85.5 22q-27.5 22 -27.5 67q0 36 13.5 59t47.5 51l417 344q21 16 29 31t8 36q0 36 -43 36h-417q-17 0 -26.5 6.5t-9.5 19.5q0 28 36 28h422q103 0 103 -89q0 -35 -13 -57.5t-48 -51.5l-418 -344q-20 -16 -28 -31t-8 -36q0 -36 45 -36h442q17 0 26.5 -7t9.5 -20
q0 -28 -36 -28h-449q-48 0 -75.5 22zM331 810q0 6 3 12l63 140q13 27 30 27q6 0 16 -5q17 -8 17 -23q0 -8 -6 -19l-77 -138q-9 -15 -23 -15q-4 0 -10 2q-13 6 -13 19z" />
    <glyph glyph-name="zacute" unicode="&#x17a;" horiz-adv-x="544" 
d="M77.5 23.5q-29.5 23.5 -29.5 68.5q0 31 14.5 52.5t47.5 40.5l280 159q23 13 31.5 24.5t8.5 27.5q0 38 -55 38h-281q-44 0 -44 28q0 15 10.5 21.5t33.5 6.5h275q58 0 89.5 -24.5t31.5 -68.5q0 -33 -14.5 -55t-46.5 -40l-280 -156q-21 -12 -32 -26t-11 -27q0 -36 52 -36
h295q22 0 32.5 -6.5t10.5 -21.5q0 -29 -43 -29h-289q-57 0 -86.5 23.5zM248 600q0 6 3 12l63 140q13 27 30 27q6 0 16 -5q17 -8 17 -23q0 -8 -6 -19l-77 -138q-9 -15 -23 -15q-4 0 -10 2q-13 6 -13 19z" />
    <glyph glyph-name="Zdotaccent" unicode="&#x17b;" horiz-adv-x="703" 
d="M85.5 22q-27.5 22 -27.5 67q0 36 13.5 59t47.5 51l417 344q21 16 29 31t8 36q0 36 -43 36h-417q-17 0 -26.5 6.5t-9.5 19.5q0 28 36 28h422q103 0 103 -89q0 -35 -13 -57.5t-48 -51.5l-418 -344q-20 -16 -28 -31t-8 -36q0 -36 45 -36h442q17 0 26.5 -7t9.5 -20
q0 -28 -36 -28h-449q-48 0 -75.5 22zM320.5 821q-14.5 14 -14.5 33t14.5 33t34.5 14q19 0 33 -14t14 -33t-14 -33t-33 -14q-20 0 -34.5 14z" />
    <glyph glyph-name="zdotaccent" unicode="&#x17c;" horiz-adv-x="544" 
d="M77.5 23.5q-29.5 23.5 -29.5 68.5q0 31 14.5 52.5t47.5 40.5l280 159q23 13 31.5 24.5t8.5 27.5q0 38 -55 38h-281q-44 0 -44 28q0 15 10.5 21.5t33.5 6.5h275q58 0 89.5 -24.5t31.5 -68.5q0 -33 -14.5 -55t-46.5 -40l-280 -156q-21 -12 -32 -26t-11 -27q0 -36 52 -36
h295q22 0 32.5 -6.5t10.5 -21.5q0 -29 -43 -29h-289q-57 0 -86.5 23.5zM237.5 611q-14.5 14 -14.5 33t14.5 33t34.5 14q19 0 33 -14t14 -33t-14 -33t-33 -14q-20 0 -34.5 14z" />
    <glyph glyph-name="Zcaron" unicode="&#x17d;" horiz-adv-x="703" 
d="M85.5 22q-27.5 22 -27.5 67q0 36 13.5 59t47.5 51l417 344q21 16 29 31t8 36q0 36 -43 36h-417q-17 0 -26.5 6.5t-9.5 19.5q0 28 36 28h422q103 0 103 -89q0 -35 -13 -57.5t-48 -51.5l-418 -344q-20 -16 -28 -31t-8 -36q0 -36 45 -36h442q17 0 26.5 -7t9.5 -20
q0 -28 -36 -28h-449q-48 0 -75.5 22zM326 803l-106 127q-8 11 -8 20q0 12 13 22q8 6 16 6q14 0 28 -18l86 -114l86 114q14 19 28 19q9 0 16 -6q13 -9 13 -22q0 -11 -9 -22l-105 -126q-13 -16 -29 -16q-15 0 -29 16z" />
    <glyph glyph-name="zcaron" unicode="&#x17e;" horiz-adv-x="544" 
d="M77.5 23.5q-29.5 23.5 -29.5 68.5q0 31 14.5 52.5t47.5 40.5l280 159q23 13 31.5 24.5t8.5 27.5q0 38 -55 38h-281q-44 0 -44 28q0 15 10.5 21.5t33.5 6.5h275q58 0 89.5 -24.5t31.5 -68.5q0 -33 -14.5 -55t-46.5 -40l-280 -156q-21 -12 -32 -26t-11 -27q0 -36 52 -36
h295q22 0 32.5 -6.5t10.5 -21.5q0 -29 -43 -29h-289q-57 0 -86.5 23.5zM243 593l-106 127q-8 11 -8 20q0 12 13 22q8 6 16 6q14 0 28 -18l86 -114l86 114q14 19 28 19q9 0 16 -6q13 -9 13 -22q0 -11 -9 -22l-105 -126q-13 -16 -29 -16q-15 0 -29 16z" />
    <glyph glyph-name="uni018F" unicode="&#x18f;" horiz-adv-x="801" 
d="M217.5 26q-79.5 36 -122.5 102.5t-43 155.5q0 45 24.5 70.5t68.5 25.5h540q0 128 -75 201t-206 73q-89 0 -152 -20t-107 -61q-17 -16 -33 -16q-9 0 -17 6q-10 9 -10 20q0 12 10 23q45 49 126.5 76.5t182.5 27.5q164 0 255 -95.5t91 -269.5q0 -110 -41 -190t-119 -122.5
t-186 -42.5q-107 0 -186.5 36zM611 120.5q74 73.5 74 204.5h-527q-19 0 -30 -11t-11 -31q0 -111 76 -173.5t211 -62.5q133 0 207 73.5z" />
    <glyph glyph-name="florin" unicode="&#x192;" horiz-adv-x="523" 
d="M486 666q0 -12 -14 -23q-10 -7 -19 -7q-12 0 -25 15q-28 33 -79 33q-74 0 -89 -85l-33 -185h138q31 0 31 -20q0 -33 -39 -33h-139l-71 -396q-25 -143 -162 -143q-44 0 -76 16.5t-47 40.5q-6 9 -6 16q0 12 15 23q10 7 19 7q13 0 25 -15q14 -16 31.5 -24.5t47.5 -8.5
q36 0 58.5 19.5t31.5 65.5l71 399h-81q-35 0 -30 27q3 15 12 20.5t26 5.5h83l32 182q13 72 56 107.5t105 35.5q43 0 74.5 -16.5t48.5 -41.5q5 -8 5 -15z" />
    <glyph glyph-name="Ohorn" unicode="&#x1a0;" horiz-adv-x="820" 
d="M780.5 628q-35.5 -39 -95.5 -43q38 -46 58 -105.5t20 -129.5q0 -108 -47 -189.5t-127.5 -126t-178.5 -44.5t-178 44.5t-127 126t-47 189.5t46.5 190t127 126t178.5 44q66 0 125.5 -20.5t105.5 -59.5l4 1l37 4q76 9 76 91q0 35 29 35t29 -35q0 -59 -35.5 -98zM557.5 82.5
q65.5 35.5 103.5 104t38 163.5q0 96 -38.5 164.5t-104 103.5t-146.5 36q-82 0 -147 -35.5t-103 -104.5t-38 -164t38 -163.5t103 -104t147 -35.5t147.5 35.5z" />
    <glyph glyph-name="ohorn" unicode="&#x1a1;" 
d="M653.5 402q-34.5 -39 -91.5 -44q24 -52 24 -113q0 -67 -30 -125.5t-91 -94t-148 -35.5t-148 35.5t-91 94t-30 125.5t30 125.5t91 94t148 35.5q73 0 127.5 -25t88.5 -70l21 3q37 4 56 27.5t19 63.5q0 35 29 35q30 0 30 -35q0 -58 -34.5 -97zM466.5 98.5
q56.5 52.5 56.5 146.5t-56.5 147t-149.5 53t-149.5 -53t-56.5 -147t56.5 -146.5t149.5 -52.5t149.5 52.5z" />
    <glyph glyph-name="Uhorn" unicode="&#x1af;" horiz-adv-x="765" 
d="M805 745q0 -61 -36.5 -100t-97.5 -42h-11v-324q0 -87 -35.5 -152.5t-102 -101t-156.5 -35.5q-133 0 -209.5 77t-76.5 212v395q0 17 8.5 26.5t23.5 9.5t23.5 -9.5t8.5 -26.5v-398q0 -110 58.5 -169.5t166.5 -59.5q107 0 167 60.5t60 168.5v398q0 17 9 26.5t24 9.5t23 -9.5
t8 -26.5v-21l11 1q76 9 76 91q0 35 29 35t29 -35z" />
    <glyph glyph-name="uhorn" unicode="&#x1b0;" horiz-adv-x="670" 
d="M682 545q0 -60 -36.5 -99t-97.5 -42l-12 -1v-377q0 -36 -31 -36q-15 0 -23 9.5t-8 26.5v65q-37 -49 -87.5 -75t-108.5 -26q-97 0 -152 56t-55 154v264q0 17 8.5 26.5t23.5 9.5q30 0 30 -36v-264q0 -74 39 -114t110 -40q56 0 99.5 24.5t68 68.5t24.5 100v225q0 17 8 26.5
t23 9.5q31 0 31 -36v-11l12 1q37 4 56 27.5t19 63.5q0 35 29 35q30 0 30 -35z" />
    <glyph glyph-name="uni01CD" unicode="&#x1cd;" horiz-adv-x="729" 
d="M89 -0.5q-8 9.5 -8 26.5v399q0 134 75 209.5t209 75.5q133 0 208.5 -76t75.5 -209v-399q0 -17 -8.5 -26.5t-23.5 -9.5t-24 9.5t-9 26.5v237h-439v-237q0 -17 -8.5 -26.5t-24.5 -9.5q-15 0 -23 9.5zM584 317v111q0 108 -57 167t-162 59q-107 0 -163.5 -58.5t-56.5 -167.5
v-111h439zM336 803l-106 127q-8 11 -8 20q0 12 13 22q7 6 16 6q14 0 28 -18l86 -114l86 114q14 19 28 19q8 0 16 -6q13 -9 13 -22q0 -11 -9 -22l-105 -126q-13 -16 -29 -16q-15 0 -29 16z" />
    <glyph glyph-name="uni01CE" unicode="&#x1ce;" horiz-adv-x="585" 
d="M103.5 33q-55.5 43 -55.5 120q0 76 57.5 120t158.5 44q61 0 109 -16.5t72 -45.5v69q0 59 -39 90t-115 31q-94 0 -165 -46q-14 -8 -24 -8q-8 0 -17 6q-10 8 -10 21t10 21q37 28 91.5 44.5t112.5 16.5q104 0 161 -47t57 -133v-294q0 -36 -30 -36q-14 0 -22.5 9.5t-8.5 25.5
v41q-31 -37 -79 -56.5t-110 -19.5q-98 0 -153.5 43zM395 76.5q51 31.5 51 82.5q0 49 -48 76.5t-134 27.5q-74 0 -113.5 -28.5t-39.5 -81.5t38.5 -80.5t112.5 -27.5q82 0 133 31.5zM273 583l-106 127q-8 11 -8 20q0 12 13 22q8 6 16 6q14 0 28 -18l86 -114l86 114
q14 19 28 19q9 0 16 -6q13 -9 13 -22q0 -11 -9 -22l-105 -126q-13 -16 -29 -16q-15 0 -29 16z" />
    <glyph glyph-name="uni01CF" unicode="&#x1cf;" horiz-adv-x="296" 
d="M124.5 -0.5q-8.5 9.5 -8.5 26.5v648q0 36 32 36q15 0 23.5 -9.5t8.5 -26.5v-648q0 -17 -8.5 -26.5t-23.5 -9.5t-23.5 9.5zM119 803l-106 127q-8 11 -8 20q0 12 13 22q8 6 16 6q14 0 28 -18l86 -114l86 114q14 19 28 19q9 0 16 -6q13 -9 13 -22q0 -11 -9 -22l-105 -126
q-13 -16 -29 -16q-15 0 -29 16z" />
    <glyph glyph-name="uni01D0" unicode="&#x1d0;" horiz-adv-x="249" 
d="M102 -0.5q-8 9.5 -8 26.5v438q0 36 31 36q15 0 23 -9.5t8 -26.5v-438q0 -17 -8 -26.5t-23 -9.5t-23 9.5zM97 573l-106 127q-8 11 -8 20q0 12 13 22q7 6 16 6q14 0 28 -18l86 -114l86 114q14 19 28 19q8 0 16 -6q13 -9 13 -22q0 -11 -9 -22l-105 -126q-13 -16 -29 -16
q-15 0 -29 16z" />
    <glyph glyph-name="uni01D1" unicode="&#x1d1;" horiz-adv-x="820" 
d="M232 34.5q-80 44.5 -127 126t-47 189.5t46.5 190t127 126t178.5 44t178.5 -44t127.5 -126t47 -190t-47 -189.5t-127.5 -126t-178.5 -44.5t-178 44.5zM557.5 82.5q65.5 35.5 103.5 104t38 163.5q0 96 -38.5 164.5t-104 103.5t-146.5 36q-82 0 -147 -35.5t-103 -104.5
t-38 -164t38 -163.5t103 -104t147 -35.5t147.5 35.5zM382 803l-106 127q-8 11 -8 20q0 12 13 22q8 6 16 6q14 0 28 -18l86 -114l86 114q14 19 28 19q9 0 16 -6q13 -9 13 -22q0 -11 -9 -22l-105 -126q-13 -16 -29 -16q-15 0 -29 16z" />
    <glyph glyph-name="uni01D2" unicode="&#x1d2;" 
d="M169 25.5q-61 35.5 -91 94t-30 125.5t30 125.5t91 94t148 35.5t148 -35.5t91 -94t30 -125.5t-30 -125.5t-91 -94t-148 -35.5t-148 35.5zM466.5 98.5q56.5 52.5 56.5 146.5t-56.5 147t-149.5 53t-149.5 -53t-56.5 -147t56.5 -146.5t149.5 -52.5t149.5 52.5zM289 593
l-106 127q-8 11 -8 20q0 12 13 22q8 6 16 6q14 0 28 -18l86 -114l86 114q14 19 28 19q9 0 16 -6q13 -9 13 -22q0 -11 -9 -22l-105 -126q-13 -16 -29 -16q-15 0 -29 16z" />
    <glyph glyph-name="uni01D3" unicode="&#x1d3;" horiz-adv-x="741" 
d="M156.5 67q-76.5 77 -76.5 212v395q0 17 8.5 26.5t23.5 9.5t23.5 -9.5t8.5 -26.5v-398q0 -110 58.5 -169.5t166.5 -59.5q107 0 167 60.5t60 168.5v398q0 17 9 26.5t24 9.5t23 -9.5t8 -26.5v-395q0 -87 -35.5 -152.5t-102 -101t-156.5 -35.5q-133 0 -209.5 77zM342 803
l-106 127q-8 11 -8 20q0 12 13 22q8 6 16 6q14 0 28 -18l86 -114l86 114q14 19 28 19q9 0 16 -6q13 -9 13 -22q0 -11 -9 -22l-105 -126q-13 -16 -29 -16q-15 0 -29 16z" />
    <glyph glyph-name="uni01D4" unicode="&#x1d4;" horiz-adv-x="611" 
d="M126 46q-55 56 -55 154v264q0 17 8.5 26.5t23.5 9.5q30 0 30 -36v-264q0 -74 39 -114t110 -40q56 0 99.5 24.5t68 68.5t24.5 100v225q0 17 8 26.5t23 9.5q31 0 31 -36v-438q0 -36 -31 -36q-15 0 -23 9.5t-8 26.5v65q-37 -49 -87.5 -75t-108.5 -26q-97 0 -152 56zM277 593
l-106 127q-8 11 -8 20q0 12 13 22q8 6 16 6q14 0 28 -18l86 -114l86 114q14 19 28 19q9 0 16 -6q13 -9 13 -22q0 -11 -9 -22l-105 -126q-13 -16 -29 -16q-15 0 -29 16z" />
    <glyph glyph-name="uni01D5" unicode="&#x1d5;" horiz-adv-x="741" 
d="M156.5 67q-76.5 77 -76.5 212v395q0 17 8.5 26.5t23.5 9.5t23.5 -9.5t8.5 -26.5v-398q0 -110 58.5 -169.5t166.5 -59.5q107 0 167 60.5t60 168.5v398q0 17 9 26.5t24 9.5t23 -9.5t8 -26.5v-395q0 -87 -35.5 -152.5t-102 -101t-156.5 -35.5q-133 0 -209.5 77zM236 822.5
q-14 13.5 -14 31.5q0 19 14 33t33 14t32.5 -14t13.5 -33q0 -18 -13.5 -31.5t-32.5 -13.5t-33 13.5zM438 822.5q-14 13.5 -14 31.5q0 19 14 33t33 14q18 0 32 -14t14 -33q0 -18 -14 -31.5t-32 -13.5q-19 0 -33 13.5zM213 993q0 14 8.5 19t24.5 5h243q17 0 25 -5t8 -19
q0 -23 -33 -23h-243q-33 0 -33 23z" />
    <glyph glyph-name="uni01D6" unicode="&#x1d6;" horiz-adv-x="611" 
d="M126 46q-55 56 -55 154v264q0 17 8.5 26.5t23.5 9.5q30 0 30 -36v-264q0 -74 39 -114t110 -40q56 0 99.5 24.5t68 68.5t24.5 100v225q0 17 8 26.5t23 9.5q31 0 31 -36v-438q0 -36 -31 -36q-15 0 -23 9.5t-8 26.5v65q-37 -49 -87.5 -75t-108.5 -26q-97 0 -152 56z
M171 612.5q-14 13.5 -14 31.5q0 19 14 33t33 14t32.5 -14t13.5 -33q0 -18 -13.5 -31.5t-32.5 -13.5t-33 13.5zM373 612.5q-14 13.5 -14 31.5q0 19 14 33t33 14q18 0 32 -14t14 -33q0 -18 -14 -31.5t-32 -13.5q-19 0 -33 13.5zM148 783q0 14 8.5 19t24.5 5h243q17 0 25 -5
t8 -19q0 -23 -33 -23h-243q-33 0 -33 23z" />
    <glyph glyph-name="uni01D7" unicode="&#x1d7;" horiz-adv-x="741" 
d="M156.5 67q-76.5 77 -76.5 212v395q0 17 8.5 26.5t23.5 9.5t23.5 -9.5t8.5 -26.5v-398q0 -110 58.5 -169.5t166.5 -59.5q107 0 167 60.5t60 168.5v398q0 17 9 26.5t24 9.5t23 -9.5t8 -26.5v-395q0 -87 -35.5 -152.5t-102 -101t-156.5 -35.5q-133 0 -209.5 77zM354 929
q0 7 3 13l49 118q11 26 30 26q8 0 16 -4q17 -9 17 -24q0 -9 -6 -18l-64 -116q-9 -15 -23 -15q-7 0 -10 2q-12 5 -12 18zM236 822.5q-14 13.5 -14 31.5q0 19 14 33t33 14t32.5 -14t13.5 -33q0 -18 -13.5 -31.5t-32.5 -13.5t-33 13.5zM438 822.5q-14 13.5 -14 31.5q0 19 14 33
t33 14q18 0 32 -14t14 -33q0 -18 -14 -31.5t-32 -13.5q-19 0 -33 13.5z" />
    <glyph glyph-name="uni01D8" unicode="&#x1d8;" horiz-adv-x="611" 
d="M126 46q-55 56 -55 154v264q0 17 8.5 26.5t23.5 9.5q30 0 30 -36v-264q0 -74 39 -114t110 -40q56 0 99.5 24.5t68 68.5t24.5 100v225q0 17 8 26.5t23 9.5q31 0 31 -36v-438q0 -36 -31 -36q-15 0 -23 9.5t-8 26.5v65q-37 -49 -87.5 -75t-108.5 -26q-97 0 -152 56zM289 719
q0 7 3 13l49 118q11 26 30 26q8 0 16 -4q17 -9 17 -24q0 -9 -6 -18l-64 -116q-9 -15 -23 -15q-7 0 -10 2q-12 5 -12 18zM171 612.5q-14 13.5 -14 31.5q0 19 14 33t33 14t32.5 -14t13.5 -33q0 -18 -13.5 -31.5t-32.5 -13.5t-33 13.5zM373 612.5q-14 13.5 -14 31.5q0 19 14 33
t33 14q18 0 32 -14t14 -33q0 -18 -14 -31.5t-32 -13.5q-19 0 -33 13.5z" />
    <glyph glyph-name="uni01D9" unicode="&#x1d9;" horiz-adv-x="741" 
d="M156.5 67q-76.5 77 -76.5 212v395q0 17 8.5 26.5t23.5 9.5t23.5 -9.5t8.5 -26.5v-398q0 -110 58.5 -169.5t166.5 -59.5q107 0 167 60.5t60 168.5v398q0 17 9 26.5t24 9.5t23 -9.5t8 -26.5v-395q0 -87 -35.5 -152.5t-102 -101t-156.5 -35.5q-133 0 -209.5 77zM357.5 915.5
q-5.5 3.5 -14.5 12.5l-104 109q-9 9 -9 19q0 12 13 22q8 6 16 6q12 0 27 -17l84 -98l85 98q15 18 28 18q7 0 16 -6q12 -9 12 -22q0 -11 -9 -20l-104 -109q-11 -16 -28 -16q-7 0 -12.5 3.5zM237.5 822.5q-13.5 13.5 -13.5 31.5q0 19 13.5 33t32.5 14t33 -14t14 -33
q0 -18 -14 -31.5t-33 -13.5t-32.5 13.5zM439.5 822.5q-13.5 13.5 -13.5 31.5q0 19 13.5 33t32.5 14t33 -14t14 -33q0 -18 -14 -31.5t-33 -13.5t-32.5 13.5z" />
    <glyph glyph-name="uni01DA" unicode="&#x1da;" horiz-adv-x="611" 
d="M126 46q-55 56 -55 154v264q0 17 8.5 26.5t23.5 9.5q30 0 30 -36v-264q0 -74 39 -114t110 -40q56 0 99.5 24.5t68 68.5t24.5 100v225q0 17 8 26.5t23 9.5q31 0 31 -36v-438q0 -36 -31 -36q-15 0 -23 9.5t-8 26.5v65q-37 -49 -87.5 -75t-108.5 -26q-97 0 -152 56z
M292.5 705.5q-5.5 3.5 -14.5 12.5l-104 109q-9 9 -9 19q0 12 13 22q8 6 16 6q12 0 27 -17l84 -98l85 98q15 18 28 18q7 0 16 -6q12 -9 12 -22q0 -11 -9 -20l-104 -109q-11 -16 -28 -16q-7 0 -12.5 3.5zM172.5 612.5q-13.5 13.5 -13.5 31.5q0 19 13.5 33t32.5 14t33 -14
t14 -33q0 -18 -14 -31.5t-33 -13.5t-32.5 13.5zM374.5 612.5q-13.5 13.5 -13.5 31.5q0 19 13.5 33t32.5 14t33 -14t14 -33q0 -18 -14 -31.5t-33 -13.5t-32.5 13.5z" />
    <glyph glyph-name="uni01DB" unicode="&#x1db;" horiz-adv-x="741" 
d="M156.5 67q-76.5 77 -76.5 212v395q0 17 8.5 26.5t23.5 9.5t23.5 -9.5t8.5 -26.5v-398q0 -110 58.5 -169.5t166.5 -59.5q107 0 167 60.5t60 168.5v398q0 17 9 26.5t24 9.5t23 -9.5t8 -26.5v-395q0 -87 -35.5 -152.5t-102 -101t-156.5 -35.5q-133 0 -209.5 77zM364 909
q-14 0 -23 15l-64 116q-6 11 -6 19q0 14 18 23q7 4 15 4q18 0 29 -26l50 -118q3 -7 3 -13q0 -12 -12 -18q-3 -2 -10 -2zM236.5 822.5q-13.5 13.5 -13.5 31.5q0 19 13.5 33t32.5 14t33 -14t14 -33q0 -18 -14 -31.5t-33 -13.5t-32.5 13.5zM438.5 822.5q-13.5 13.5 -13.5 31.5
q0 19 13.5 33t32.5 14t33 -14t14 -33q0 -18 -14 -31.5t-33 -13.5t-32.5 13.5z" />
    <glyph glyph-name="uni01DC" unicode="&#x1dc;" horiz-adv-x="611" 
d="M126 46q-55 56 -55 154v264q0 17 8.5 26.5t23.5 9.5q30 0 30 -36v-264q0 -74 39 -114t110 -40q56 0 99.5 24.5t68 68.5t24.5 100v225q0 17 8 26.5t23 9.5q31 0 31 -36v-438q0 -36 -31 -36q-15 0 -23 9.5t-8 26.5v65q-37 -49 -87.5 -75t-108.5 -26q-97 0 -152 56zM299 699
q-14 0 -23 15l-64 116q-6 11 -6 19q0 14 18 23q7 4 15 4q18 0 29 -26l50 -118q3 -7 3 -13q0 -12 -12 -18q-3 -2 -10 -2zM171.5 612.5q-13.5 13.5 -13.5 31.5q0 19 13.5 33t32.5 14t33 -14t14 -33q0 -18 -14 -31.5t-33 -13.5t-32.5 13.5zM373.5 612.5q-13.5 13.5 -13.5 31.5
q0 19 13.5 33t32.5 14t33 -14t14 -33q0 -18 -14 -31.5t-33 -13.5t-32.5 13.5z" />
    <glyph glyph-name="Gcaron" unicode="&#x1e6;" horiz-adv-x="764" 
d="M221.5 34.5q-78.5 44.5 -121 125.5t-42.5 189t43 190t121.5 126.5t182.5 44.5q84 0 156 -28.5t112 -79.5q7 -8 7 -21q0 -14 -11 -21q-7 -6 -18 -6q-17 0 -28 13q-30 41 -87.5 64t-130.5 23q-87 0 -150.5 -37t-97.5 -105.5t-34 -162.5q0 -93 33.5 -161t97 -104.5
t150.5 -36.5q68 0 122.5 22.5t85 62.5t30.5 91v36q0 29 -11.5 41t-40.5 12h-156q-34 0 -34 27q0 14 8 21t26 7h159q57 0 85 -25t28 -77v-38q0 -66 -40 -120t-109 -85.5t-153 -31.5q-104 0 -182.5 44.5zM357 803l-106 127q-8 11 -8 20q0 12 13 22q8 6 16 6q14 0 28 -18
l86 -114l86 114q14 19 28 19q9 0 16 -6q13 -9 13 -22q0 -11 -9 -22l-105 -126q-13 -16 -29 -16q-15 0 -29 16z" />
    <glyph glyph-name="gcaron" unicode="&#x1e7;" horiz-adv-x="669" 
d="M204.5 -230.5q-57.5 20.5 -92.5 60.5q-7 7 -7 16q0 14 14 23q7 6 17 6q13 0 25 -13q23 -27 64.5 -43.5t99.5 -16.5q102 0 155.5 47t53.5 137v105q-34 -46 -91.5 -76.5t-130.5 -30.5q-128 0 -196.5 68t-68.5 181q0 77 30 137t91.5 95t150.5 35q69 0 123.5 -28t91.5 -81v76
q0 14 9 23.5t23 9.5q13 0 21.5 -9.5t8.5 -23.5v-481q0 -112 -72.5 -174.5t-191.5 -62.5q-70 0 -127.5 20.5zM420 63q50 22 81.5 67t31.5 112q0 57 -25 103.5t-72.5 73t-113.5 26.5q-103 0 -157.5 -55t-54.5 -157q0 -88 52.5 -140t153.5 -52q54 0 104 22zM285 593l-106 127
q-8 11 -8 20q0 12 13 22q8 6 16 6q14 0 28 -18l86 -114l86 114q14 19 28 19q9 0 16 -6q13 -9 13 -22q0 -11 -9 -22l-105 -126q-13 -16 -29 -16q-15 0 -29 16z" />
    <glyph glyph-name="Aringacute" unicode="&#x1fa;" horiz-adv-x="729" 
d="M89 -0.5q-8 9.5 -8 26.5v399q0 134 75 209.5t209 75.5q133 0 208.5 -76t75.5 -209v-399q0 -17 -8.5 -26.5t-23.5 -9.5t-24 9.5t-9 26.5v237h-439v-237q0 -17 -8.5 -26.5t-24.5 -9.5q-15 0 -23 9.5zM584 317v111q0 108 -57 167t-162 59q-107 0 -163.5 -58.5t-56.5 -167.5
v-111h439zM284 784.5q-31 28.5 -31 72.5q0 43 31 71.5t81 28.5t80 -28.5t30 -71.5q0 -44 -30 -72.5t-80 -28.5t-81 28.5zM411.5 813q17.5 16 17.5 44t-17.5 44t-46.5 16t-46.5 -16t-17.5 -44t17.5 -44t46.5 -16t46.5 16zM342 1004q0 6 3 12l63 140q13 27 30 27q6 0 16 -5
q17 -8 17 -23q0 -8 -6 -19l-77 -138q-9 -15 -23 -15q-4 0 -10 2q-13 6 -13 19z" />
    <glyph glyph-name="aringacute" unicode="&#x1fb;" horiz-adv-x="585" 
d="M274 770q-5 5 -5 12q0 6 3 10l63 112q11 21 28 21q9 0 17 -4q18 -8 18 -18q0 -7 -6 -15l-78 -110q-10 -13 -24 -13q-11 0 -16 5zM221 564.5q-31 28.5 -31 72.5q0 43 31 71.5t81 28.5t80.5 -28.5t30.5 -71.5q0 -44 -30.5 -72.5t-80.5 -28.5t-81 28.5zM348.5 593
q17.5 16 17.5 44t-17.5 44t-46.5 16t-46 -16t-17 -44t17 -44t46 -16t46.5 16zM103.5 33q-55.5 43 -55.5 120q0 76 57.5 120t158.5 44q61 0 109 -16.5t72 -45.5v69q0 59 -39 90t-115 31q-94 0 -165 -46q-14 -8 -24 -8q-8 0 -17 6q-10 8 -10 21t10 21q37 28 91.5 44.5
t112.5 16.5q104 0 161 -47t57 -133v-294q0 -36 -30 -36q-14 0 -22.5 9.5t-8.5 25.5v41q-31 -37 -79 -56.5t-110 -19.5q-98 0 -153.5 43zM395 76.5q51 31.5 51 82.5q0 49 -48 76.5t-134 27.5q-74 0 -113.5 -28.5t-39.5 -81.5t38.5 -80.5t112.5 -27.5q82 0 133 31.5z" />
    <glyph glyph-name="AEacute" unicode="&#x1fc;" horiz-adv-x="1125" 
d="M89 -0.5q-8 9.5 -8 26.5v399q0 134 75 209.5t209 75.5q150 0 224 -106q6 47 36 71.5t79 24.5h307q18 0 26 -7t8 -21q0 -26 -34 -26h-310q-25 0 -39.5 -16.5t-14.5 -42.5v-202h288q18 0 26 -7t8 -21q0 -27 -34 -27h-288v-216q0 -27 14.5 -43t39.5 -16h332q34 0 34 -28
q0 -13 -9 -20t-25 -7h-329q-57 0 -88.5 30.5t-31.5 85.5v147h-439v-237q0 -17 -8.5 -26.5t-24.5 -9.5q-15 0 -23 9.5zM584 317v111q0 108 -57 167t-162 59q-107 0 -163.5 -58.5t-56.5 -167.5v-111h439zM556 810q0 6 3 12l63 140q13 27 30 27q6 0 16 -5q17 -8 17 -23
q0 -8 -6 -19l-77 -138q-9 -15 -23 -15q-4 0 -10 2q-13 6 -13 19z" />
    <glyph glyph-name="aeacute" unicode="&#x1fd;" horiz-adv-x="1007" 
d="M103.5 35q-55.5 45 -55.5 124q0 77 58.5 123t156.5 46q60 0 106.5 -16t72.5 -46v46q0 61 -41.5 97t-111.5 36q-48 0 -87 -11t-78 -35q-14 -9 -23 -9q-10 0 -18 7q-9 8 -9 21t9 20q38 29 92 45.5t112 16.5q150 0 194 -113q29 53 86.5 83t131.5 30q77 0 136.5 -24.5t92 -69
t32.5 -102.5q0 -40 -21.5 -62t-61.5 -22h-372q0 -83 52.5 -128t148.5 -45q59 0 102 14.5t80 47.5q17 15 27 15q7 0 16 -7q12 -9 12 -21q0 -10 -9 -19q-83 -86 -228 -86q-150 0 -224 103q-80 -104 -225 -104q-98 0 -153.5 45zM859 272q21 0 29.5 8t8.5 28q0 40 -25 71
t-70 48.5t-103 17.5q-89 0 -140.5 -46.5t-51.5 -126.5h352zM393 77.5q50 32.5 50 87.5q0 52 -47.5 80.5t-133.5 28.5q-70 0 -110.5 -31t-40.5 -84q0 -56 38 -85t111 -29q83 0 133 32.5zM459 600q0 6 3 12l63 140q13 27 30 27q6 0 16 -5q17 -8 17 -23q0 -8 -6 -19l-77 -138
q-9 -15 -23 -15q-4 0 -10 2q-13 6 -13 19z" />
    <glyph glyph-name="Oslashacute" unicode="&#x1fe;" horiz-adv-x="808" 
d="M710.5 541q47.5 -84 47.5 -191q0 -104 -45 -186t-125.5 -128t-183.5 -46q-68 0 -127 21l-29 -63q-3 -7 -11 -12t-16 -5q-7 0 -13 3q-18 6 -18 25q0 7 3 13l29 64q-80 45 -126 127t-46 187q0 104 45.5 186t126 128t182.5 46q65 0 119 -18l28 60q4 8 11.5 13t16.5 5
q6 0 12 -3q18 -7 18 -25q0 -7 -2 -11l-28 -62q84 -44 131.5 -128zM151.5 195q33.5 -67 95.5 -105l251 547q-45 14 -96 14q-85 0 -149 -37.5t-99.5 -105.5t-35.5 -158q0 -88 33.5 -155zM554.5 86.5q64.5 37.5 100 105.5t35.5 158q0 91 -36 159.5t-101 104.5l-251 -549
q45 -16 102 -16q86 0 150.5 37.5zM381 810q0 6 3 12l63 140q13 27 30 27q6 0 16 -5q17 -8 17 -23q0 -8 -6 -19l-77 -138q-9 -15 -23 -15q-4 0 -10 2q-13 6 -13 19z" />
    <glyph glyph-name="oslashacute" unicode="&#x1ff;" horiz-adv-x="642" 
d="M554 381q36 -62 36 -136q0 -67 -30 -125.5t-91 -94t-148 -35.5q-49 0 -90 12l-25 -54q-3 -8 -10 -13t-15 -5q-6 0 -12 3q-17 6 -17 23q0 6 3 12l25 54q-63 32 -95.5 92.5t-32.5 130.5q0 67 30 125.5t91 94t148 35.5q38 0 75 -8l24 51q3 8 10 12.5t15 4.5q5 0 11 -3
q17 -6 17 -23q0 -8 -2 -12l-22 -48q69 -31 105 -93zM138 141.5q23 -43.5 66 -67.5l169 366q-28 5 -52 5q-94 0 -150 -52.5t-56 -147.5q0 -60 23 -103.5zM471 98q56 52 56 147q0 64 -27 109.5t-75 68.5l-170 -369q32 -8 66 -8q94 0 150 52zM298 580q0 6 3 12l63 140
q13 27 30 27q6 0 16 -5q17 -8 17 -23q0 -8 -6 -19l-77 -138q-9 -15 -23 -15q-4 0 -10 2q-13 6 -13 19z" />
    <glyph glyph-name="uni0218" unicode="&#x218;" horiz-adv-x="677" 
d="M185.5 23q-79.5 33 -120.5 89q-6 8 -6 18q0 14 13 24q7 5 14 5q14 0 29 -17q39 -45 102 -69.5t143 -24.5q93 0 143.5 34t50.5 98q0 54 -47.5 87.5t-162.5 58.5q-144 31 -206.5 79t-62.5 126q0 83 69 131t188 48q92 0 165 -32t102 -86q5 -10 5 -17q0 -15 -15 -24
q-6 -3 -14 -3q-21 0 -31 16q-27 43 -81.5 66t-130.5 23q-97 0 -144.5 -30.5t-47.5 -91.5q0 -36 19 -61t63.5 -44t122.5 -37q145 -34 209.5 -83t64.5 -126q0 -88 -69.5 -139t-189.5 -51q-95 0 -174.5 33zM273 -279q0 9 15 21q28 24 42.5 43.5t15.5 39.5q-5 -2 -15 -2
q-20 0 -35 13.5t-15 33.5q0 26 15.5 41t43.5 15q27 0 43.5 -19t16.5 -54q0 -36 -20.5 -71.5t-58.5 -64.5q-20 -17 -30 -17q-5 0 -12 7q-6 7 -6 14z" />
    <glyph glyph-name="uni0219" unicode="&#x219;" horiz-adv-x="514" 
d="M150 17.5q-61 27.5 -95 74.5q-6 9 -6 18q0 8 5.5 15t13.5 10q8 2 11 2q7 0 13 -4.5t15 -15.5q63 -70 172 -70q55 0 90 18.5t35 55.5q0 26 -14.5 41.5t-43.5 27.5t-99 36q-61 21 -96 38t-55 43.5t-20 66.5q0 56 50 91t132 35q59 0 111.5 -21.5t78.5 -56.5q7 -8 7 -19
q0 -14 -14 -21q-10 -5 -18 -5q-14 0 -26 13q-27 28 -58 41t-82 13q-57 0 -86.5 -18.5t-29.5 -53.5q0 -26 13.5 -41t37 -24.5t86.5 -29.5q71 -24 111 -44.5t58.5 -46.5t18.5 -65q0 -61 -52.5 -96t-134.5 -35q-68 0 -129 27.5zM205 -279q0 9 15 21q28 24 42.5 43.5t15.5 39.5
q-5 -2 -15 -2q-20 0 -35 13.5t-15 33.5q0 26 15.5 41t43.5 15q27 0 43.5 -19t16.5 -54q0 -36 -20.5 -71.5t-58.5 -64.5q-20 -17 -30 -17q-5 0 -12 7q-6 7 -6 14z" />
    <glyph glyph-name="uni021A" unicode="&#x21a;" horiz-adv-x="700" 
d="M318 26v620h-236q-34 0 -34 26q0 15 8.5 21.5t25.5 6.5h537q34 0 34 -28q0 -26 -34 -26h-236v-620q0 -17 -9 -26.5t-24 -9.5q-32 0 -32 36zM280 -279q0 9 15 21q28 24 42.5 43.5t15.5 39.5q-5 -2 -15 -2q-20 0 -35 13.5t-15 33.5q0 26 15.5 41t43.5 15q27 0 43.5 -19
t16.5 -54q0 -36 -20.5 -71.5t-58.5 -64.5q-20 -17 -30 -17q-5 0 -12 7q-6 7 -6 14z" />
    <glyph glyph-name="uni021B" unicode="&#x21b;" horiz-adv-x="434" 
d="M400 75q0 -10 -8 -21q-20 -29 -56 -46.5t-75 -17.5q-63 0 -99.5 39t-36.5 104v304h-56q-35 0 -35 27q0 26 35 26h56v175q0 17 8 26.5t23 9.5t23 -9.5t8 -26.5v-175h143q35 0 35 -26q0 -27 -35 -27h-143v-309q0 -82 76 -82q26 0 45.5 9t38.5 31q14 14 26 14q9 0 17 -7
q10 -7 10 -18zM189 -279q0 9 15 21q28 24 42.5 43.5t15.5 39.5q-5 -2 -15 -2q-20 0 -35 13.5t-15 33.5q0 26 15.5 41t43.5 15q27 0 43.5 -19t16.5 -54q0 -36 -20.5 -71.5t-58.5 -64.5q-20 -17 -30 -17q-5 0 -12 7q-6 7 -6 14z" />
    <glyph glyph-name="uni0237" unicode="&#x237;" horiz-adv-x="317" 
d="M45.5 -284q-8.5 8 -8.5 21t8.5 20t22.5 7q42 0 64.5 10t31.5 34.5t9 71.5l1 584q0 36 30 36q32 0 32 -36l-1 -584q0 -85 -37 -128.5t-130 -43.5q-14 0 -22.5 8z" />
    <glyph glyph-name="uni0259" unicode="&#x259;" horiz-adv-x="638" 
d="M178.5 16q-60.5 25 -94 69.5t-33.5 101.5q0 40 21.5 62t61.5 22h389q0 82 -55 128t-152 46q-60 0 -102.5 -15t-80.5 -48q-17 -14 -27 -14q-7 0 -15 6q-12 11 -12 22q0 10 9 19q82 85 228 85q131 0 201.5 -66.5t70.5 -190.5q0 -77 -33 -134t-94.5 -87.5t-143.5 -30.5
q-78 0 -138.5 25zM423.5 68.5q46.5 21.5 72 60.5t25.5 90h-369q-20 0 -29 -8t-9 -28q0 -39 26 -70t72 -48.5t105 -17.5q60 0 106.5 21.5z" />
    <glyph glyph-name="uni02BB" unicode="&#x2bb;" horiz-adv-x="219" 
d="M63 553q-16 19 -16 53t20 68t56 64q21 18 32 18q7 0 13 -7q5 -7 5 -12t-4.5 -10.5t-10.5 -11.5q-55 -46 -58 -81q5 2 15 2q19 0 34 -13.5t15 -33.5q0 -26 -15.5 -40.5t-42.5 -14.5t-43 19z" />
    <glyph glyph-name="uni02BC" unicode="&#x2bc;" horiz-adv-x="219" 
d="M47 510q0 10 15 22q56 47 57 81q-5 -2 -15 -2q-19 0 -34 13.5t-15 33.5q0 26 16 40.5t43 14.5t43 -19t16 -53q0 -67 -78 -133q-20 -17 -30 -17q-7 0 -13 7q-5 6 -5 12z" />
    <glyph glyph-name="circumflex" unicode="&#x2c6;" horiz-adv-x="380" 
d="M47 586q0 10 8 21l106 126q13 16 29 16t29 -16l105 -126q9 -10 9 -21q0 -12 -13 -22q-9 -6 -16 -6q-14 0 -28 18l-86 114l-86 -114q-14 -19 -29 -19q-7 0 -15 6q-13 10 -13 23z" />
    <glyph glyph-name="caron" horiz-adv-x="380" 
d="M161 573l-106 127q-8 11 -8 20q0 12 13 22q8 6 16 6q14 0 28 -18l86 -114l86 114q14 19 28 19q9 0 16 -6q13 -9 13 -22q0 -11 -9 -22l-105 -126q-13 -16 -29 -16q-15 0 -29 16z" />
    <glyph glyph-name="breve" horiz-adv-x="391" 
d="M88 600.5q-40 41.5 -40 101.5q0 35 30 35q28 0 28 -35q0 -44 22.5 -69.5t67.5 -25.5t67 25.5t22 69.5q0 35 29 35t29 -35q0 -60 -40 -101.5t-107 -41.5q-68 0 -108 41.5z" />
    <glyph glyph-name="dotaccent" horiz-adv-x="190" 
d="M61.5 591q-14.5 14 -14.5 33t14.5 33t34.5 14q19 0 33 -14t14 -33t-14 -33t-33 -14q-20 0 -34.5 14z" />
    <glyph glyph-name="ring" unicode="&#x2da;" horiz-adv-x="315" 
d="M77 554.5q-31 28.5 -31 72.5q0 43 31 71.5t81 28.5t80.5 -28.5t30.5 -71.5q0 -44 -30.5 -72.5t-80.5 -28.5t-81 28.5zM204.5 583q17.5 16 17.5 44t-17.5 44t-46.5 16t-46 -16t-17 -44t17 -44t46 -16t46.5 16z" />
    <glyph glyph-name="tilde" unicode="&#x2dc;" horiz-adv-x="419" 
d="M48 596q0 7 1 12q8 34 32.5 55.5t58.5 21.5q24 0 42.5 -8.5t40.5 -24.5q16 -12 28.5 -18t25.5 -6q36 0 47 43q5 20 22 20q26 0 26 -21q0 -4 -2 -12q-8 -35 -32.5 -56t-58.5 -21q-21 0 -38 8t-38 23q-22 14 -34 20t-27 6q-34 0 -46 -43q-6 -21 -23 -21q-25 0 -25 22z" />
    <glyph glyph-name="hungarumlaut" horiz-adv-x="423" 
d="M216 573q0 8 5 16l91 146q7 12 13.5 18t15.5 6q7 0 17 -5q19 -10 19 -25q0 -10 -7 -18l-105 -145q-11 -15 -26 -15q-7 0 -10 2q-13 6 -13 20zM46 573q0 8 5 16l89 147q13 22 29 22q9 0 17 -4q19 -10 19 -25q0 -7 -7 -18l-103 -145q-10 -15 -26 -15q-7 0 -10 2
q-13 6 -13 20z" />
    <glyph glyph-name="gravecomb" horiz-adv-x="0" 
d="M-69 559q-14 0 -23 15l-78 138q-6 9 -6 18q0 15 18 24q8 4 16 4q18 0 29 -26l63 -140q3 -6 3 -13q0 -13 -12 -18q-6 -2 -10 -2z" />
    <glyph glyph-name="acutecomb" horiz-adv-x="0" 
d="M-176 580q0 6 3 12l63 140q13 27 30 27q6 0 16 -5q17 -8 17 -23q0 -8 -6 -19l-77 -138q-9 -15 -23 -15q-4 0 -10 2q-13 6 -13 19z" />
    <glyph glyph-name="uni0302" horiz-adv-x="0" 
d="M-143 586q0 10 8 21l106 126q13 16 29 16q15 0 29 -16l106 -126q8 -11 8 -21q0 -11 -12 -22q-9 -6 -17 -6q-15 0 -28 18l-86 114l-86 -114q-16 -19 -29 -19q-8 0 -15 6q-13 10 -13 23z" />
    <glyph glyph-name="tildecomb" horiz-adv-x="0" 
d="M-371 602q0 8 1 13q8 33 32.5 54.5t58.5 21.5q24 0 42.5 -8.5t40.5 -24.5q16 -12 28.5 -18t25.5 -6q36 0 47 44q5 20 22 20q7 0 10 -1q15 -4 15 -21q0 -8 -1 -12q-8 -34 -32.5 -55.5t-58.5 -21.5q-21 0 -38 8t-38 23q-22 14 -34 20t-27 6q-35 0 -46 -43q-6 -20 -22 -20
q-26 0 -26 21z" />
    <glyph glyph-name="uni0304" horiz-adv-x="0" 
d="M-154 567q0 14 8 19t25 5h243q16 0 24.5 -5t8.5 -19q0 -23 -33 -23h-243q-33 0 -33 23z" />
    <glyph glyph-name="uni0306" horiz-adv-x="0" 
d="M-108 600.5q-40 41.5 -40 101.5q0 35 29 35t29 -35q0 -44 22.5 -69.5t67.5 -25.5t67 25.5t22 69.5q0 35 29 35t29 -35q0 -60 -39.5 -101.5t-107.5 -41.5t-108 41.5z" />
    <glyph glyph-name="uni0307" horiz-adv-x="0" 
d="M-125.5 591q-14.5 14 -14.5 33t14.5 33t33.5 14t33 -14t14 -33t-14 -33t-33 -14t-33.5 14z" />
    <glyph glyph-name="uni0308" horiz-adv-x="0" 
d="M-134 592.5q-14 13.5 -14 31.5q0 19 14 33t33 14t32.5 -14t13.5 -33q0 -18 -13.5 -31.5t-32.5 -13.5t-33 13.5zM68 592.5q-14 13.5 -14 31.5q0 19 14 33t33 14t32.5 -14t13.5 -33q0 -18 -13.5 -31.5t-32.5 -13.5t-33 13.5z" />
    <glyph glyph-name="hookabovecomb" horiz-adv-x="0" 
d="M-173 556v8q0 17 10 29.5t29 26.5q16 12 24 21.5t8 20.5q0 16 -10.5 25t-30.5 9q-37 0 -56 -27q-9 -14 -20 -14q-6 0 -12 3q-14 8 -14 20q0 4 4 12q13 22 40 37t61 15q47 0 70 -22t23 -56q0 -21 -10.5 -34t-29.5 -27q-16 -13 -22.5 -20.5t-6.5 -18.5v-8q0 -27 -29 -27
q-28 0 -28 27z" />
    <glyph glyph-name="uni030A" horiz-adv-x="0" 
d="M-81 554.5q-31 28.5 -31 72.5q0 43 31 71.5t81 28.5t80 -28.5t30 -71.5q0 -44 -30 -72.5t-80 -28.5t-81 28.5zM46.5 583q17.5 16 17.5 44t-17.5 44t-46.5 16t-46.5 -16t-17.5 -44t17.5 -44t46.5 -16t46.5 16z" />
    <glyph glyph-name="uni030C" horiz-adv-x="0" 
d="M-219 573l-106 127q-8 11 -8 20q0 12 13 22q7 6 16 6q14 0 28 -18l86 -114l86 114q14 19 28 19q8 0 16 -6q13 -9 13 -22q0 -11 -9 -22l-105 -126q-13 -16 -29 -16q-15 0 -29 16z" />
    <glyph glyph-name="dotbelowcomb" horiz-adv-x="0" 
d="M-128.5 -154.5q-14.5 13.5 -14.5 32.5q0 20 14.5 34t34.5 14q19 0 33 -14t14 -34q0 -19 -14 -32.5t-33 -13.5q-20 0 -34.5 13.5z" />
    <glyph glyph-name="uni0326" horiz-adv-x="0" 
d="M-173 -279q0 9 15 21q28 24 42.5 43.5t15.5 39.5q-5 -2 -15 -2q-20 0 -35 13.5t-15 33.5q0 26 15.5 41t43.5 15q27 0 43.5 -19t16.5 -54q0 -36 -20.5 -71.5t-58.5 -64.5q-20 -17 -30 -17q-5 0 -12 7q-6 7 -6 14z" />
    <glyph glyph-name="uni032E" horiz-adv-x="0" 
d="M-107.5 -208.5q-39.5 40.5 -39.5 100.5q0 35 29 35q15 0 21.5 -9t6.5 -26q0 -43 22.5 -68.5t67.5 -25.5t67.5 25.5t22.5 68.5q0 17 6.5 26t21.5 9q28 0 28 -35q0 -60 -39 -100.5t-107 -40.5t-107.5 40.5z" />
    <glyph glyph-name="uni0331" horiz-adv-x="0" 
d="M-145.5 -132q-8.5 5 -8.5 18q0 14 8 19t25 5h243q17 0 25 -5t8 -19q0 -23 -33 -23h-243q-16 0 -24.5 5z" />
    <glyph glyph-name="uni03BC" horiz-adv-x="624" 
d="M80 -214v678q0 36 32 36q30 0 30 -36v-264q0 -74 39 -114t110 -40q52 0 96 22.5t70 66.5t26 104v225q0 36 31 36t31 -36v-438q0 -17 -8 -26.5t-23 -9.5t-23 9.5t-8 26.5v65q-34 -45 -84 -73t-110 -28q-94 0 -147 64v-268q0 -36 -30 -36q-32 0 -32 36z" />
    <glyph glyph-name="uni1E0C" unicode="&#x1e0c;" horiz-adv-x="741" 
d="M115.5 31q-32.5 31 -32.5 85v469q0 54 32 84.5t90 30.5h140q102 0 178.5 -43.5t118 -122.5t41.5 -185q0 -105 -41.5 -184t-118 -122t-178.5 -43h-139q-58 0 -90.5 31zM335 55q134 0 208.5 77.5t74.5 216.5t-75 218t-208 79h-133q-25 0 -40 -16.5t-15 -42.5v-473
q0 -27 15 -43t40 -16h133zM337.5 -154.5q-14.5 13.5 -14.5 32.5q0 20 14.5 34t34.5 14q19 0 33 -14t14 -34q0 -19 -14 -32.5t-33 -13.5q-20 0 -34.5 13.5z" />
    <glyph glyph-name="uni1E0D" unicode="&#x1e0d;" horiz-adv-x="672" 
d="M118 57.5q-71 67.5 -71 184.5q0 74 31 132.5t92 92t146 33.5q74 0 126 -28t92 -78l1 329q0 36 31 36t31 -36v-697q0 -17 -8 -26.5t-23 -9.5t-23 9.5t-8 26.5v73q-36 -54 -92 -81.5t-129 -27.5q-125 0 -196 67.5zM477 99.5q58 53.5 58 145.5q0 62 -30 107t-79.5 69
t-106.5 24q-99 0 -154 -56t-55 -147q0 -98 54 -147t153 -49q102 0 160 53.5zM298.5 -154.5q-14.5 13.5 -14.5 32.5q0 20 14.5 34t34.5 14q19 0 33 -14t14 -34q0 -19 -14 -32.5t-33 -13.5q-20 0 -34.5 13.5z" />
    <glyph glyph-name="uni1E0E" unicode="&#x1e0e;" horiz-adv-x="741" 
d="M115.5 31q-32.5 31 -32.5 85v469q0 54 32 84.5t90 30.5h140q102 0 178.5 -43.5t118 -122.5t41.5 -185q0 -105 -41.5 -184t-118 -122t-178.5 -43h-139q-58 0 -90.5 31zM335 55q134 0 208.5 77.5t74.5 216.5t-75 218t-208 79h-133q-25 0 -40 -16.5t-15 -42.5v-473
q0 -27 15 -43t40 -16h133zM226.5 -132q-8.5 5 -8.5 18q0 14 8 19t25 5h243q17 0 25 -5t8 -19q0 -23 -33 -23h-243q-16 0 -24.5 5z" />
    <glyph glyph-name="uni1E0F" unicode="&#x1e0f;" horiz-adv-x="672" 
d="M118 57.5q-71 67.5 -71 184.5q0 74 31 132.5t92 92t146 33.5q74 0 126 -28t92 -78l1 329q0 36 31 36t31 -36v-697q0 -17 -8 -26.5t-23 -9.5t-23 9.5t-8 26.5v73q-36 -54 -92 -81.5t-129 -27.5q-125 0 -196 67.5zM477 99.5q58 53.5 58 145.5q0 62 -30 107t-79.5 69
t-106.5 24q-99 0 -154 -56t-55 -147q0 -98 54 -147t153 -49q102 0 160 53.5zM187.5 -132q-8.5 5 -8.5 18q0 14 8 19t25 5h243q17 0 25 -5t8 -19q0 -23 -33 -23h-243q-16 0 -24.5 5z" />
    <glyph glyph-name="uni1E20" unicode="&#x1e20;" horiz-adv-x="764" 
d="M221.5 34.5q-78.5 44.5 -121 125.5t-42.5 189t43 190t121.5 126.5t182.5 44.5q84 0 156 -28.5t112 -79.5q7 -8 7 -21q0 -14 -11 -21q-7 -6 -18 -6q-17 0 -28 13q-30 41 -87.5 64t-130.5 23q-87 0 -150.5 -37t-97.5 -105.5t-34 -162.5q0 -93 33.5 -161t97 -104.5
t150.5 -36.5q68 0 122.5 22.5t85 62.5t30.5 91v36q0 29 -11.5 41t-40.5 12h-156q-34 0 -34 27q0 14 8 21t26 7h159q57 0 85 -25t28 -77v-38q0 -66 -40 -120t-109 -85.5t-153 -31.5q-104 0 -182.5 44.5zM231 814q0 14 8.5 19t24.5 5h243q17 0 25 -5t8 -19q0 -23 -33 -23h-243
q-33 0 -33 23z" />
    <glyph glyph-name="uni1E21" unicode="&#x1e21;" horiz-adv-x="669" 
d="M204.5 -230.5q-57.5 20.5 -92.5 60.5q-7 7 -7 16q0 14 14 23q7 6 17 6q13 0 25 -13q23 -27 64.5 -43.5t99.5 -16.5q102 0 155.5 47t53.5 137v105q-34 -46 -91.5 -76.5t-130.5 -30.5q-128 0 -196.5 68t-68.5 181q0 77 30 137t91.5 95t150.5 35q69 0 123.5 -28t91.5 -81v76
q0 14 9 23.5t23 9.5q13 0 21.5 -9.5t8.5 -23.5v-481q0 -112 -72.5 -174.5t-191.5 -62.5q-70 0 -127.5 20.5zM420 63q50 22 81.5 67t31.5 112q0 57 -25 103.5t-72.5 73t-113.5 26.5q-103 0 -157.5 -55t-54.5 -157q0 -88 52.5 -140t153.5 -52q54 0 104 22zM159 604
q0 14 8.5 19t24.5 5h243q17 0 25 -5t8 -19q0 -23 -33 -23h-243q-33 0 -33 23z" />
    <glyph glyph-name="uni1E24" unicode="&#x1e24;" horiz-adv-x="752" 
d="M93.5 -0.5q-8.5 9.5 -8.5 26.5v648q0 17 8.5 26.5t23.5 9.5t23.5 -9.5t8.5 -26.5v-287h454v287q0 18 9 27t24 9t23 -9.5t8 -26.5v-648q0 -17 -8 -26.5t-23 -9.5t-24 9.5t-9 26.5v306h-454v-306q0 -17 -8.5 -26.5t-23.5 -9.5t-23.5 9.5zM344.5 -154.5
q-14.5 13.5 -14.5 32.5q0 20 14.5 34t34.5 14q19 0 33 -14t14 -34q0 -19 -14 -32.5t-33 -13.5q-20 0 -34.5 13.5z" />
    <glyph glyph-name="uni1E25" unicode="&#x1e25;" horiz-adv-x="611" 
d="M84 -0.5q-8 9.5 -8 26.5v697q0 36 31 36t31 -36v-324q37 49 90 75t116 26q96 0 146.5 -51.5t50.5 -149.5v-273q0 -17 -8.5 -26.5t-23.5 -9.5q-30 0 -30 36v273q0 74 -34 110t-105 36q-91 0 -146.5 -53.5t-55.5 -140.5v-225q0 -17 -8 -26.5t-23 -9.5t-23 9.5z
M273.5 -154.5q-14.5 13.5 -14.5 32.5q0 20 14.5 34t34.5 14q19 0 33 -14t14 -34q0 -19 -14 -32.5t-33 -13.5q-20 0 -34.5 13.5z" />
    <glyph glyph-name="uni1E2A" unicode="&#x1e2a;" horiz-adv-x="752" 
d="M93.5 -0.5q-8.5 9.5 -8.5 26.5v648q0 17 8.5 26.5t23.5 9.5t23.5 -9.5t8.5 -26.5v-287h454v287q0 18 9 27t24 9t23 -9.5t8 -26.5v-648q0 -17 -8 -26.5t-23 -9.5t-24 9.5t-9 26.5v306h-454v-306q0 -17 -8.5 -26.5t-23.5 -9.5t-23.5 9.5zM272.5 -208.5
q-39.5 40.5 -39.5 100.5q0 35 29 35q15 0 21.5 -9t6.5 -26q0 -43 22.5 -68.5t67.5 -25.5t67.5 25.5t22.5 68.5q0 17 6.5 26t21.5 9q28 0 28 -35q0 -60 -39 -100.5t-107 -40.5t-107.5 40.5z" />
    <glyph glyph-name="uni1E2B" unicode="&#x1e2b;" horiz-adv-x="611" 
d="M84 -0.5q-8 9.5 -8 26.5v697q0 36 31 36t31 -36v-324q37 49 90 75t116 26q96 0 146.5 -51.5t50.5 -149.5v-273q0 -17 -8.5 -26.5t-23.5 -9.5q-30 0 -30 36v273q0 74 -34 110t-105 36q-91 0 -146.5 -53.5t-55.5 -140.5v-225q0 -17 -8 -26.5t-23 -9.5t-23 9.5z
M201.5 -208.5q-39.5 40.5 -39.5 100.5q0 35 29 35q15 0 21.5 -9t6.5 -26q0 -43 22.5 -68.5t67.5 -25.5t67.5 25.5t22.5 68.5q0 17 6.5 26t21.5 9q28 0 28 -35q0 -60 -39 -100.5t-107 -40.5t-107.5 40.5z" />
    <glyph glyph-name="uni1E36" unicode="&#x1e36;" horiz-adv-x="624" 
d="M119 31q-32 31 -32 85v558q0 17 8 26.5t23 9.5q16 0 24.5 -9.5t8.5 -26.5v-560q0 -27 15 -43t40 -16h335q35 0 35 -28q0 -13 -9 -20t-26 -7h-332q-58 0 -90 31zM276.5 -154.5q-14.5 13.5 -14.5 32.5q0 20 14.5 34t34.5 14q19 0 33 -14t14 -34q0 -19 -14 -32.5t-33 -13.5
q-20 0 -34.5 13.5z" />
    <glyph glyph-name="uni1E37" unicode="&#x1e37;" horiz-adv-x="254" 
d="M104 -0.5q-8 9.5 -8 26.5v697q0 36 31 36t31 -36v-697q0 -17 -8 -26.5t-23 -9.5t-23 9.5zM93.5 -154.5q-14.5 13.5 -14.5 32.5q0 20 14.5 34t34.5 14q19 0 33 -14t14 -34q0 -19 -14 -32.5t-33 -13.5q-20 0 -34.5 13.5z" />
    <glyph glyph-name="uni1E38" unicode="&#x1e38;" horiz-adv-x="612" 
d="M119 31q-32 31 -32 85v558q0 17 8 26.5t23 9.5q16 0 24.5 -9.5t8.5 -26.5v-560q0 -27 15 -43t40 -16h335q35 0 35 -28q0 -13 -9 -20t-26 -7h-332q-58 0 -90 31zM276.5 -154.5q-14.5 13.5 -14.5 32.5q0 20 14.5 34t34.5 14q19 0 33 -14t14 -34q0 -19 -14 -32.5t-33 -13.5
q-20 0 -34.5 13.5zM-39 814q0 14 8.5 19t24.5 5h243q17 0 25 -5t8 -19q0 -23 -33 -23h-243q-33 0 -33 23z" />
    <glyph glyph-name="uni1E39" unicode="&#x1e39;" horiz-adv-x="254" 
d="M104 -0.5q-8 9.5 -8 26.5v697q0 36 31 36t31 -36v-697q0 -17 -8 -26.5t-23 -9.5t-23 9.5zM93.5 -154.5q-14.5 13.5 -14.5 32.5q0 20 14.5 34t34.5 14q19 0 33 -14t14 -34q0 -19 -14 -32.5t-33 -13.5q-20 0 -34.5 13.5zM-27 864q0 14 8.5 19t24.5 5h243q17 0 25 -5t8 -19
q0 -23 -33 -23h-243q-33 0 -33 23z" />
    <glyph glyph-name="uni1E3A" unicode="&#x1e3a;" horiz-adv-x="624" 
d="M119 31q-32 31 -32 85v558q0 17 8 26.5t23 9.5q16 0 24.5 -9.5t8.5 -26.5v-560q0 -27 15 -43t40 -16h335q35 0 35 -28q0 -13 -9 -20t-26 -7h-332q-58 0 -90 31zM165.5 -132q-8.5 5 -8.5 18q0 14 8 19t25 5h243q17 0 25 -5t8 -19q0 -23 -33 -23h-243q-16 0 -24.5 5z" />
    <glyph glyph-name="uni1E3B" unicode="&#x1e3b;" horiz-adv-x="254" 
d="M104 -0.5q-8 9.5 -8 26.5v697q0 36 31 36t31 -36v-697q0 -17 -8 -26.5t-23 -9.5t-23 9.5zM-17.5 -132q-8.5 5 -8.5 18q0 14 8 19t25 5h243q17 0 25 -5t8 -19q0 -23 -33 -23h-243q-16 0 -24.5 5z" />
    <glyph glyph-name="uni1E42" unicode="&#x1e42;" horiz-adv-x="982" 
d="M89 -0.5q-8 9.5 -8 26.5v460q0 105 58.5 164.5t161.5 59.5q62 0 114.5 -32t75.5 -85q23 54 74.5 85.5t115.5 31.5q103 0 161.5 -59.5t58.5 -164.5v-460q0 -17 -8.5 -26.5t-23.5 -9.5q-32 0 -32 36v460q0 83 -37.5 125t-119.5 42q-74 0 -116 -44.5t-42 -122.5v-460
q0 -17 -8 -26.5t-23 -9.5t-23 9.5t-8 26.5v460q0 76 -43.5 121.5t-114.5 45.5q-82 0 -119.5 -42t-37.5 -125v-460q0 -17 -8.5 -26.5t-24.5 -9.5q-15 0 -23 9.5zM458.5 -154.5q-14.5 13.5 -14.5 32.5q0 20 14.5 34t34.5 14q19 0 33 -14t14 -34q0 -19 -14 -32.5t-33 -13.5
q-20 0 -34.5 13.5z" />
    <glyph glyph-name="uni1E43" unicode="&#x1e43;" horiz-adv-x="832" 
d="M83 -0.5q-8 9.5 -8 26.5v438q0 36 31 36q15 0 23 -9.5t8 -26.5v-64q28 47 71.5 73.5t92.5 26.5q48 0 84 -26t54 -73q35 48 77.5 73.5t88.5 25.5q157 0 157 -188v-286q0 -17 -8 -26.5t-23 -9.5q-31 0 -31 36v287q0 69 -22.5 100.5t-76.5 31.5q-47 0 -84.5 -28.5
t-59.5 -81.5v-309q0 -17 -8 -26.5t-23 -9.5q-31 0 -31 36v273q0 71 -25.5 108.5t-73.5 37.5q-45 0 -81.5 -24.5t-57 -67.5t-20.5 -97v-230q0 -17 -8 -26.5t-23 -9.5t-23 9.5zM391.5 -154.5q-14.5 13.5 -14.5 32.5q0 20 14.5 34t34.5 14q19 0 33 -14t14 -34q0 -19 -14 -32.5
t-33 -13.5q-20 0 -34.5 13.5z" />
    <glyph glyph-name="uni1E44" unicode="&#x1e44;" horiz-adv-x="737" 
d="M88.5 -0.5q-8.5 9.5 -8.5 26.5v414q0 126 77 198t212 72q134 0 211 -72t77 -198v-414q0 -36 -32 -36q-15 0 -23.5 9.5t-8.5 26.5v417q0 100 -58.5 155.5t-165.5 55.5q-106 0 -165.5 -56t-59.5 -155v-417q0 -17 -8.5 -26.5t-23.5 -9.5t-23.5 9.5zM332.5 821
q-14.5 14 -14.5 33t14.5 33t34.5 14q19 0 33 -14t14 -33t-14 -33t-33 -14q-20 0 -34.5 14z" />
    <glyph glyph-name="uni1E45" unicode="&#x1e45;" horiz-adv-x="611" 
d="M84 -0.5q-8 9.5 -8 26.5v438q0 36 31 36q15 0 23 -9.5t8 -26.5v-65q37 49 90 75t116 26q96 0 146.5 -51.5t50.5 -149.5v-273q0 -17 -8.5 -26.5t-23.5 -9.5q-30 0 -30 36v273q0 74 -34 110t-105 36q-91 0 -146.5 -53.5t-55.5 -140.5v-225q0 -17 -8 -26.5t-23 -9.5t-23 9.5
zM272.5 611q-14.5 14 -14.5 33t14.5 33t34.5 14q19 0 33 -14t14 -33t-14 -33t-33 -14q-20 0 -34.5 14z" />
    <glyph glyph-name="uni1E46" unicode="&#x1e46;" horiz-adv-x="737" 
d="M88.5 -0.5q-8.5 9.5 -8.5 26.5v414q0 126 77 198t212 72q134 0 211 -72t77 -198v-414q0 -36 -32 -36q-15 0 -23.5 9.5t-8.5 26.5v417q0 100 -58.5 155.5t-165.5 55.5q-106 0 -165.5 -56t-59.5 -155v-417q0 -17 -8.5 -26.5t-23.5 -9.5t-23.5 9.5zM332.5 -154.5
q-14.5 13.5 -14.5 32.5q0 20 14.5 34t34.5 14q19 0 33 -14t14 -34q0 -19 -14 -32.5t-33 -13.5q-20 0 -34.5 13.5z" />
    <glyph glyph-name="uni1E47" unicode="&#x1e47;" horiz-adv-x="611" 
d="M84 -0.5q-8 9.5 -8 26.5v438q0 36 31 36q15 0 23 -9.5t8 -26.5v-65q37 49 90 75t116 26q96 0 146.5 -51.5t50.5 -149.5v-273q0 -17 -8.5 -26.5t-23.5 -9.5q-30 0 -30 36v273q0 74 -34 110t-105 36q-91 0 -146.5 -53.5t-55.5 -140.5v-225q0 -17 -8 -26.5t-23 -9.5t-23 9.5
zM272.5 -154.5q-14.5 13.5 -14.5 32.5q0 20 14.5 34t34.5 14q19 0 33 -14t14 -34q0 -19 -14 -32.5t-33 -13.5q-20 0 -34.5 13.5z" />
    <glyph glyph-name="uni1E48" unicode="&#x1e48;" horiz-adv-x="737" 
d="M88.5 -0.5q-8.5 9.5 -8.5 26.5v414q0 126 77 198t212 72q134 0 211 -72t77 -198v-414q0 -36 -32 -36q-15 0 -23.5 9.5t-8.5 26.5v417q0 100 -58.5 155.5t-165.5 55.5q-106 0 -165.5 -56t-59.5 -155v-417q0 -17 -8.5 -26.5t-23.5 -9.5t-23.5 9.5zM220.5 -132
q-8.5 5 -8.5 18q0 14 8 19t25 5h243q17 0 25 -5t8 -19q0 -23 -33 -23h-243q-16 0 -24.5 5z" />
    <glyph glyph-name="uni1E49" unicode="&#x1e49;" horiz-adv-x="611" 
d="M84 -0.5q-8 9.5 -8 26.5v438q0 36 31 36q15 0 23 -9.5t8 -26.5v-65q37 49 90 75t116 26q96 0 146.5 -51.5t50.5 -149.5v-273q0 -17 -8.5 -26.5t-23.5 -9.5q-30 0 -30 36v273q0 74 -34 110t-105 36q-91 0 -146.5 -53.5t-55.5 -140.5v-225q0 -17 -8 -26.5t-23 -9.5t-23 9.5
zM161.5 -132q-8.5 5 -8.5 18q0 14 8 19t25 5h243q17 0 25 -5t8 -19q0 -23 -33 -23h-243q-16 0 -24.5 5z" />
    <glyph glyph-name="uni1E5A" unicode="&#x1e5a;" horiz-adv-x="713" 
d="M81 583q0 52 31.5 84.5t92.5 32.5h179q273 0 273 -224q0 -106 -68 -160.5t-206 -54.5l206 -218q10 -10 10 -22q0 -14 -12 -23q-10 -8 -19 -8q-16 0 -33 19l-237 252h-148v-233q0 -18 -9 -28t-26 -10q-16 0 -25 10t-9 28v555zM388 319q92 0 145.5 35.5t53.5 121.5
q0 90 -49.5 128t-148.5 38h-185q-25 0 -39.5 -16t-14.5 -42v-265h238zM318.5 -154.5q-14.5 13.5 -14.5 32.5q0 20 14.5 34t34.5 14q19 0 33 -14t14 -34q0 -19 -14 -32.5t-33 -13.5q-20 0 -34.5 13.5z" />
    <glyph glyph-name="uni1E5B" unicode="&#x1e5b;" horiz-adv-x="435" 
d="M84 -0.5q-8 9.5 -8 26.5v438q0 36 31 36q15 0 23 -9.5t8 -26.5v-65q35 46 82.5 68.5t110.5 22.5h25q17 0 26.5 -7.5t9.5 -20.5q0 -27 -36 -27h-27q-89 0 -140 -49.5t-51 -134.5v-225q0 -17 -8 -26.5t-23 -9.5t-23 9.5zM75.5 -154.5q-14.5 13.5 -14.5 32.5q0 20 14.5 34
t34.5 14q19 0 33 -14t14 -34q0 -19 -14 -32.5t-33 -13.5q-20 0 -34.5 13.5z" />
    <glyph glyph-name="uni1E5C" unicode="&#x1e5c;" horiz-adv-x="713" 
d="M81 583q0 52 31.5 84.5t92.5 32.5h179q273 0 273 -224q0 -106 -68 -160.5t-206 -54.5l206 -218q10 -10 10 -22q0 -14 -12 -23q-10 -8 -19 -8q-16 0 -33 19l-237 252h-148v-233q0 -18 -9 -28t-26 -10q-16 0 -25 10t-9 28v555zM388 319q92 0 145.5 35.5t53.5 121.5
q0 90 -49.5 128t-148.5 38h-185q-25 0 -39.5 -16t-14.5 -42v-265h238zM318.5 -154.5q-14.5 13.5 -14.5 32.5q0 20 14.5 34t34.5 14q19 0 33 -14t14 -34q0 -19 -14 -32.5t-33 -13.5q-20 0 -34.5 13.5zM198 814q0 14 8.5 19t24.5 5h243q17 0 25 -5t8 -19q0 -23 -33 -23h-243
q-33 0 -33 23z" />
    <glyph glyph-name="uni1E5D" unicode="&#x1e5d;" horiz-adv-x="435" 
d="M84 -0.5q-8 9.5 -8 26.5v438q0 36 31 36q15 0 23 -9.5t8 -26.5v-65q35 46 82.5 68.5t110.5 22.5h25q17 0 26.5 -7.5t9.5 -20.5q0 -27 -36 -27h-27q-89 0 -140 -49.5t-51 -134.5v-225q0 -17 -8 -26.5t-23 -9.5t-23 9.5zM74.5 -154.5q-14.5 13.5 -14.5 32.5q0 20 14.5 34
t34.5 14q19 0 33 -14t14 -34q0 -19 -14 -32.5t-33 -13.5q-20 0 -34.5 13.5zM78 604q0 14 8.5 19t24.5 5h243q17 0 25 -5t8 -19q0 -23 -33 -23h-243q-33 0 -33 23z" />
    <glyph glyph-name="uni1E5E" unicode="&#x1e5e;" horiz-adv-x="713" 
d="M81 583q0 52 31.5 84.5t92.5 32.5h179q273 0 273 -224q0 -106 -68 -160.5t-206 -54.5l206 -218q10 -10 10 -22q0 -14 -12 -23q-10 -8 -19 -8q-16 0 -33 19l-237 252h-148v-233q0 -18 -9 -28t-26 -10q-16 0 -25 10t-9 28v555zM388 319q92 0 145.5 35.5t53.5 121.5
q0 90 -49.5 128t-148.5 38h-185q-25 0 -39.5 -16t-14.5 -42v-265h238zM206.5 -132q-8.5 5 -8.5 18q0 14 8 19t25 5h243q17 0 25 -5t8 -19q0 -23 -33 -23h-243q-16 0 -24.5 5z" />
    <glyph glyph-name="uni1E5F" unicode="&#x1e5f;" horiz-adv-x="430" 
d="M84 -0.5q-8 9.5 -8 26.5v438q0 36 31 36q15 0 23 -9.5t8 -26.5v-65q35 46 82.5 68.5t110.5 22.5h25q17 0 26.5 -7.5t9.5 -20.5q0 -27 -36 -27h-27q-89 0 -140 -49.5t-51 -134.5v-225q0 -17 -8 -26.5t-23 -9.5t-23 9.5zM-36.5 -132q-8.5 5 -8.5 18q0 14 8 19t25 5h243
q17 0 25 -5t8 -19q0 -23 -33 -23h-243q-16 0 -24.5 5z" />
    <glyph glyph-name="uni1E60" unicode="&#x1e60;" horiz-adv-x="677" 
d="M185.5 23q-79.5 33 -120.5 89q-6 8 -6 18q0 14 13 24q7 5 14 5q14 0 29 -17q39 -45 102 -69.5t143 -24.5q93 0 143.5 34t50.5 98q0 54 -47.5 87.5t-162.5 58.5q-144 31 -206.5 79t-62.5 126q0 83 69 131t188 48q92 0 165 -32t102 -86q5 -10 5 -17q0 -15 -15 -24
q-6 -3 -14 -3q-21 0 -31 16q-27 43 -81.5 66t-130.5 23q-97 0 -144.5 -30.5t-47.5 -91.5q0 -36 19 -61t63.5 -44t122.5 -37q145 -34 209.5 -83t64.5 -126q0 -88 -69.5 -139t-189.5 -51q-95 0 -174.5 33zM305.5 821q-14.5 14 -14.5 33t14.5 33t34.5 14q19 0 33 -14t14 -33
t-14 -33t-33 -14q-20 0 -34.5 14z" />
    <glyph glyph-name="uni1E61" unicode="&#x1e61;" horiz-adv-x="514" 
d="M150 17.5q-61 27.5 -95 74.5q-6 9 -6 18q0 8 5.5 15t13.5 10q8 2 11 2q7 0 13 -4.5t15 -15.5q63 -70 172 -70q55 0 90 18.5t35 55.5q0 26 -14.5 41.5t-43.5 27.5t-99 36q-61 21 -96 38t-55 43.5t-20 66.5q0 56 50 91t132 35q59 0 111.5 -21.5t78.5 -56.5q7 -8 7 -19
q0 -14 -14 -21q-10 -5 -18 -5q-14 0 -26 13q-27 28 -58 41t-82 13q-57 0 -86.5 -18.5t-29.5 -53.5q0 -26 13.5 -41t37 -24.5t86.5 -29.5q71 -24 111 -44.5t58.5 -46.5t18.5 -65q0 -61 -52.5 -96t-134.5 -35q-68 0 -129 27.5zM225.5 611q-14.5 14 -14.5 33t14.5 33t34.5 14
q19 0 33 -14t14 -33t-14 -33t-33 -14q-20 0 -34.5 14z" />
    <glyph glyph-name="uni1E62" unicode="&#x1e62;" horiz-adv-x="677" 
d="M185.5 23q-79.5 33 -120.5 89q-6 8 -6 18q0 14 13 24q7 5 14 5q14 0 29 -17q39 -45 102 -69.5t143 -24.5q93 0 143.5 34t50.5 98q0 54 -47.5 87.5t-162.5 58.5q-144 31 -206.5 79t-62.5 126q0 83 69 131t188 48q92 0 165 -32t102 -86q5 -10 5 -17q0 -15 -15 -24
q-6 -3 -14 -3q-21 0 -31 16q-27 43 -81.5 66t-130.5 23q-97 0 -144.5 -30.5t-47.5 -91.5q0 -36 19 -61t63.5 -44t122.5 -37q145 -34 209.5 -83t64.5 -126q0 -88 -69.5 -139t-189.5 -51q-95 0 -174.5 33zM310.5 -154.5q-14.5 13.5 -14.5 32.5q0 20 14.5 34t34.5 14
q19 0 33 -14t14 -34q0 -19 -14 -32.5t-33 -13.5q-20 0 -34.5 13.5z" />
    <glyph glyph-name="uni1E63" unicode="&#x1e63;" horiz-adv-x="514" 
d="M150 17.5q-61 27.5 -95 74.5q-6 9 -6 18q0 8 5.5 15t13.5 10q8 2 11 2q7 0 13 -4.5t15 -15.5q63 -70 172 -70q55 0 90 18.5t35 55.5q0 26 -14.5 41.5t-43.5 27.5t-99 36q-61 21 -96 38t-55 43.5t-20 66.5q0 56 50 91t132 35q59 0 111.5 -21.5t78.5 -56.5q7 -8 7 -19
q0 -14 -14 -21q-10 -5 -18 -5q-14 0 -26 13q-27 28 -58 41t-82 13q-57 0 -86.5 -18.5t-29.5 -53.5q0 -26 13.5 -41t37 -24.5t86.5 -29.5q71 -24 111 -44.5t58.5 -46.5t18.5 -65q0 -61 -52.5 -96t-134.5 -35q-68 0 -129 27.5zM241.5 -154.5q-14.5 13.5 -14.5 32.5
q0 20 14.5 34t34.5 14q19 0 33 -14t14 -34q0 -19 -14 -32.5t-33 -13.5q-20 0 -34.5 13.5z" />
    <glyph glyph-name="uni1E6C" unicode="&#x1e6c;" horiz-adv-x="700" 
d="M318 26v620h-236q-34 0 -34 26q0 15 8.5 21.5t25.5 6.5h537q34 0 34 -28q0 -26 -34 -26h-236v-620q0 -17 -9 -26.5t-24 -9.5q-32 0 -32 36zM316.5 -154.5q-14.5 13.5 -14.5 32.5q0 20 14.5 34t34.5 14q19 0 33 -14t14 -34q0 -19 -14 -32.5t-33 -13.5q-20 0 -34.5 13.5z
" />
    <glyph glyph-name="uni1E6D" unicode="&#x1e6d;" horiz-adv-x="434" 
d="M400 75q0 -10 -8 -21q-20 -29 -56 -46.5t-75 -17.5q-63 0 -99.5 39t-36.5 104v304h-56q-35 0 -35 27q0 26 35 26h56v175q0 17 8 26.5t23 9.5t23 -9.5t8 -26.5v-175h143q35 0 35 -26q0 -27 -35 -27h-143v-309q0 -82 76 -82q26 0 45.5 9t38.5 31q14 14 26 14q9 0 17 -7
q10 -7 10 -18zM225.5 -154.5q-14.5 13.5 -14.5 32.5q0 20 14.5 34t34.5 14q19 0 33 -14t14 -34q0 -19 -14 -32.5t-33 -13.5q-20 0 -34.5 13.5z" />
    <glyph glyph-name="uni1E6E" unicode="&#x1e6e;" horiz-adv-x="700" 
d="M318 26v620h-236q-34 0 -34 26q0 15 8.5 21.5t25.5 6.5h537q34 0 34 -28q0 -26 -34 -26h-236v-620q0 -17 -9 -26.5t-24 -9.5q-32 0 -32 36zM205.5 -132q-8.5 5 -8.5 18q0 14 8 19t25 5h243q17 0 25 -5t8 -19q0 -23 -33 -23h-243q-16 0 -24.5 5z" />
    <glyph glyph-name="uni1E6F" unicode="&#x1e6f;" horiz-adv-x="434" 
d="M400 75q0 -10 -8 -21q-20 -29 -56 -46.5t-75 -17.5q-63 0 -99.5 39t-36.5 104v304h-56q-35 0 -35 27q0 26 35 26h56v175q0 17 8 26.5t23 9.5t23 -9.5t8 -26.5v-175h143q35 0 35 -26q0 -27 -35 -27h-143v-309q0 -82 76 -82q26 0 45.5 9t38.5 31q14 14 26 14q9 0 17 -7
q10 -7 10 -18zM114.5 -132q-8.5 5 -8.5 18q0 14 8 19t25 5h243q17 0 25 -5t8 -19q0 -23 -33 -23h-243q-16 0 -24.5 5z" />
    <glyph glyph-name="Wgrave" unicode="&#x1e80;" horiz-adv-x="947" 
d="M206 17q-25 27 -36 83l-110 571q-2 10 -2 14q0 25 28 25q19 0 26.5 -7.5t10.5 -25.5l108 -578q6 -30 14.5 -41.5t25.5 -11.5q18 0 27 12.5t13 40.5l82 521q15 90 81 90q65 0 80 -90l82 -521q4 -29 13 -41t27 -12q16 0 25 12t15 41l108 578q3 18 11 25.5t26 7.5
q28 0 28 -25q0 -4 -2 -14l-110 -571q-11 -54 -35 -82t-66 -28q-79 0 -95 109l-82 517q-4 21 -9.5 29.5t-15.5 8.5q-11 0 -16.5 -8.5t-9.5 -29.5l-82 -517q-16 -109 -95 -109q-40 0 -65 27zM478 789q-14 0 -23 15l-78 138q-6 9 -6 18q0 15 18 24q8 4 16 4q18 0 29 -26
l63 -140q3 -6 3 -13q0 -13 -12 -18q-6 -2 -10 -2z" />
    <glyph glyph-name="wgrave" unicode="&#x1e81;" horiz-adv-x="776" 
d="M160.5 13q-26.5 23 -33.5 59l-77 397q-3 13 5.5 22t22.5 9q18 0 25 -5t10 -20l75 -392q8 -37 33 -37q17 0 24.5 8t10.5 29l57 349q5 29 26 48.5t49 19.5t49.5 -19t25.5 -49l57 -349q3 -20 11 -28.5t24 -8.5q26 0 33 37l74 392q3 15 10.5 20t25.5 5q15 0 23 -9.5t5 -21.5
l-78 -397q-7 -37 -33.5 -59.5t-59.5 -22.5q-76 0 -90 83l-57 345q-5 27 -20 27t-20 -27l-57 -345q-14 -83 -90 -83q-34 0 -60.5 23zM392 579q-14 0 -23 15l-78 138q-6 9 -6 18q0 15 18 24q8 4 16 4q18 0 29 -26l63 -140q3 -6 3 -13q0 -13 -12 -18q-6 -2 -10 -2z" />
    <glyph glyph-name="Wacute" unicode="&#x1e82;" horiz-adv-x="947" 
d="M206 17q-25 27 -36 83l-110 571q-2 10 -2 14q0 25 28 25q19 0 26.5 -7.5t10.5 -25.5l108 -578q6 -30 14.5 -41.5t25.5 -11.5q18 0 27 12.5t13 40.5l82 521q15 90 81 90q65 0 80 -90l82 -521q4 -29 13 -41t27 -12q16 0 25 12t15 41l108 578q3 18 11 25.5t26 7.5
q28 0 28 -25q0 -4 -2 -14l-110 -571q-11 -54 -35 -82t-66 -28q-79 0 -95 109l-82 517q-4 21 -9.5 29.5t-15.5 8.5q-11 0 -16.5 -8.5t-9.5 -29.5l-82 -517q-16 -109 -95 -109q-40 0 -65 27zM451 810q0 6 3 12l63 140q13 27 30 27q6 0 16 -5q17 -8 17 -23q0 -8 -6 -19
l-77 -138q-9 -15 -23 -15q-4 0 -10 2q-13 6 -13 19z" />
    <glyph glyph-name="wacute" unicode="&#x1e83;" horiz-adv-x="776" 
d="M160.5 13q-26.5 23 -33.5 59l-77 397q-3 13 5.5 22t22.5 9q18 0 25 -5t10 -20l75 -392q8 -37 33 -37q17 0 24.5 8t10.5 29l57 349q5 29 26 48.5t49 19.5t49.5 -19t25.5 -49l57 -349q3 -20 11 -28.5t24 -8.5q26 0 33 37l74 392q3 15 10.5 20t25.5 5q15 0 23 -9.5t5 -21.5
l-78 -397q-7 -37 -33.5 -59.5t-59.5 -22.5q-76 0 -90 83l-57 345q-5 27 -20 27t-20 -27l-57 -345q-14 -83 -90 -83q-34 0 -60.5 23zM365 600q0 6 3 12l63 140q13 27 30 27q6 0 16 -5q17 -8 17 -23q0 -8 -6 -19l-77 -138q-9 -15 -23 -15q-4 0 -10 2q-13 6 -13 19z" />
    <glyph glyph-name="Wdieresis" unicode="&#x1e84;" horiz-adv-x="947" 
d="M206 17q-25 27 -36 83l-110 571q-2 10 -2 14q0 25 28 25q19 0 26.5 -7.5t10.5 -25.5l108 -578q6 -30 14.5 -41.5t25.5 -11.5q18 0 27 12.5t13 40.5l82 521q15 90 81 90q65 0 80 -90l82 -521q4 -29 13 -41t27 -12q16 0 25 12t15 41l108 578q3 18 11 25.5t26 7.5
q28 0 28 -25q0 -4 -2 -14l-110 -571q-11 -54 -35 -82t-66 -28q-79 0 -95 109l-82 517q-4 21 -9.5 29.5t-15.5 8.5q-11 0 -16.5 -8.5t-9.5 -29.5l-82 -517q-16 -109 -95 -109q-40 0 -65 27zM341 822.5q-14 13.5 -14 31.5q0 19 14 33t33 14t32.5 -14t13.5 -33
q0 -18 -13.5 -31.5t-32.5 -13.5t-33 13.5zM543 822.5q-14 13.5 -14 31.5q0 19 14 33t33 14q18 0 32 -14t14 -33q0 -18 -14 -31.5t-32 -13.5q-19 0 -33 13.5z" />
    <glyph glyph-name="wdieresis" unicode="&#x1e85;" horiz-adv-x="776" 
d="M160.5 13q-26.5 23 -33.5 59l-77 397q-3 13 5.5 22t22.5 9q18 0 25 -5t10 -20l75 -392q8 -37 33 -37q17 0 24.5 8t10.5 29l57 349q5 29 26 48.5t49 19.5t49.5 -19t25.5 -49l57 -349q3 -20 11 -28.5t24 -8.5q26 0 33 37l74 392q3 15 10.5 20t25.5 5q15 0 23 -9.5t5 -21.5
l-78 -397q-7 -37 -33.5 -59.5t-59.5 -22.5q-76 0 -90 83l-57 345q-5 27 -20 27t-20 -27l-57 -345q-14 -83 -90 -83q-34 0 -60.5 23zM255 612.5q-14 13.5 -14 31.5q0 19 14 33t33 14t32.5 -14t13.5 -33q0 -18 -13.5 -31.5t-32.5 -13.5t-33 13.5zM457 612.5q-14 13.5 -14 31.5
q0 19 14 33t33 14q18 0 32 -14t14 -33q0 -18 -14 -31.5t-32 -13.5q-19 0 -33 13.5z" />
    <glyph glyph-name="uni1E8E" unicode="&#x1e8e;" horiz-adv-x="690" 
d="M632 674v-129q0 -85 -32 -153.5t-90 -110.5t-132 -50v-205q0 -17 -8.5 -26.5t-24.5 -9.5q-15 0 -23 9.5t-8 26.5v204q-77 7 -135 48t-89 109.5t-31 157.5v129q0 17 8 26.5t23 9.5q16 0 24.5 -9.5t8.5 -26.5v-132q0 -121 59 -188.5t163 -67.5t163.5 68.5t59.5 187.5v132
q0 17 8.5 26.5t23.5 9.5q32 0 32 -36zM311.5 821q-14.5 14 -14.5 33t14.5 33t34.5 14q19 0 33 -14t14 -33t-14 -33t-33 -14q-20 0 -34.5 14z" />
    <glyph glyph-name="uni1E8F" unicode="&#x1e8f;" 
d="M166 -228.5q-58 21.5 -84 59.5q-5 7 -5 17q0 15 13 25q7 4 16 4q17 0 28 -14q22 -27 66 -43t95 -16q94 0 149 57t55 154v73q-32 -44 -81.5 -67.5t-112.5 -23.5q-121 0 -189.5 70.5t-68.5 195.5v204q0 14 9 23t23 9t23 -9t9 -23v-204q0 -101 51 -157t143 -56q91 0 140 53
t49 151v203q0 20 9.5 31.5t25.5 11.5q34 0 34 -43v-440q0 -78 -33.5 -138.5t-93.5 -94.5t-138 -34q-74 0 -132 21.5zM263.5 611q-14.5 14 -14.5 33t14.5 33t34.5 14q19 0 33 -14t14 -33t-14 -33t-33 -14q-20 0 -34.5 14z" />
    <glyph glyph-name="uni1E92" unicode="&#x1e92;" horiz-adv-x="703" 
d="M85.5 22q-27.5 22 -27.5 67q0 36 13.5 59t47.5 51l417 344q21 16 29 31t8 36q0 36 -43 36h-417q-17 0 -26.5 6.5t-9.5 19.5q0 28 36 28h422q103 0 103 -89q0 -35 -13 -57.5t-48 -51.5l-418 -344q-20 -16 -28 -31t-8 -36q0 -36 45 -36h442q17 0 26.5 -7t9.5 -20
q0 -28 -36 -28h-449q-48 0 -75.5 22zM320.5 -154.5q-14.5 13.5 -14.5 32.5q0 20 14.5 34t34.5 14q19 0 33 -14t14 -34q0 -19 -14 -32.5t-33 -13.5q-20 0 -34.5 13.5z" />
    <glyph glyph-name="uni1E93" unicode="&#x1e93;" horiz-adv-x="544" 
d="M77.5 23.5q-29.5 23.5 -29.5 68.5q0 31 14.5 52.5t47.5 40.5l280 159q23 13 31.5 24.5t8.5 27.5q0 38 -55 38h-281q-44 0 -44 28q0 15 10.5 21.5t33.5 6.5h275q58 0 89.5 -24.5t31.5 -68.5q0 -33 -14.5 -55t-46.5 -40l-280 -156q-21 -12 -32 -26t-11 -27q0 -36 52 -36
h295q22 0 32.5 -6.5t10.5 -21.5q0 -29 -43 -29h-289q-57 0 -86.5 23.5zM235.5 -154.5q-14.5 13.5 -14.5 32.5q0 20 14.5 34t34.5 14q19 0 33 -14t14 -34q0 -19 -14 -32.5t-33 -13.5q-20 0 -34.5 13.5z" />
    <glyph glyph-name="uni1E97" unicode="&#x1e97;" horiz-adv-x="434" 
d="M400 75q0 -10 -8 -21q-20 -29 -56 -46.5t-75 -17.5q-63 0 -99.5 39t-36.5 104v304h-56q-35 0 -35 27q0 26 35 26h56v175q0 17 8 26.5t23 9.5t23 -9.5t8 -26.5v-175h143q35 0 35 -26q0 -27 -35 -27h-143v-309q0 -82 76 -82q26 0 45.5 9t38.5 31q14 14 26 14q9 0 17 -7
q10 -7 10 -18zM23 812.5q-14 13.5 -14 31.5q0 19 14 33t33 14t32.5 -14t13.5 -33q0 -18 -13.5 -31.5t-32.5 -13.5t-33 13.5zM225 812.5q-14 13.5 -14 31.5q0 19 14 33t33 14q18 0 32 -14t14 -33q0 -18 -14 -31.5t-32 -13.5q-19 0 -33 13.5z" />
    <glyph glyph-name="uni1E9E" unicode="&#x1e9e;" horiz-adv-x="636" 
d="M277.5 6q-43.5 17 -66.5 44q-9 11 -9 20q0 11 11 20q8 7 17 7q13 0 27 -13q20 -18 48.5 -28.5t61.5 -10.5q154 0 154 140q0 78 -39 114t-117 36h-52q-35 0 -35 25q0 27 43 27l131 141q0 54 -40 85.5t-108 31.5q-80 0 -123 -42t-43 -119v-460q0 -10 -9 -17.5t-22 -7.5
q-12 0 -21.5 8t-9.5 17v467q0 61 29 108.5t80.5 74t118.5 26.5q63 0 111 -22t74.5 -63t26.5 -94l-133 -140q95 -3 148 -54.5t53 -141.5q0 -91 -58 -143.5t-159 -52.5q-46 0 -89.5 17z" />
    <glyph glyph-name="uni1EA0" unicode="&#x1ea0;" horiz-adv-x="729" 
d="M89 -0.5q-8 9.5 -8 26.5v399q0 134 75 209.5t209 75.5q133 0 208.5 -76t75.5 -209v-399q0 -17 -8.5 -26.5t-23.5 -9.5t-24 9.5t-9 26.5v237h-439v-237q0 -17 -8.5 -26.5t-24.5 -9.5q-15 0 -23 9.5zM584 317v111q0 108 -57 167t-162 59q-107 0 -163.5 -58.5t-56.5 -167.5
v-111h439zM330.5 -154.5q-14.5 13.5 -14.5 32.5q0 20 14.5 34t34.5 14q19 0 33 -14t14 -34q0 -19 -14 -32.5t-33 -13.5q-20 0 -34.5 13.5z" />
    <glyph glyph-name="uni1EA1" unicode="&#x1ea1;" horiz-adv-x="585" 
d="M103.5 33q-55.5 43 -55.5 120q0 76 57.5 120t158.5 44q61 0 109 -16.5t72 -45.5v69q0 59 -39 90t-115 31q-94 0 -165 -46q-14 -8 -24 -8q-8 0 -17 6q-10 8 -10 21t10 21q37 28 91.5 44.5t112.5 16.5q104 0 161 -47t57 -133v-294q0 -36 -30 -36q-14 0 -22.5 9.5t-8.5 25.5
v41q-31 -37 -79 -56.5t-110 -19.5q-98 0 -153.5 43zM395 76.5q51 31.5 51 82.5q0 49 -48 76.5t-134 27.5q-74 0 -113.5 -28.5t-39.5 -81.5t38.5 -80.5t112.5 -27.5q82 0 133 31.5zM267.5 -154.5q-14.5 13.5 -14.5 32.5q0 20 14.5 34t34.5 14q19 0 33 -14t14 -34
q0 -19 -14 -32.5t-33 -13.5q-20 0 -34.5 13.5z" />
    <glyph glyph-name="uni1EA2" unicode="&#x1ea2;" horiz-adv-x="729" 
d="M89 -0.5q-8 9.5 -8 26.5v399q0 134 75 209.5t209 75.5q133 0 208.5 -76t75.5 -209v-399q0 -17 -8.5 -26.5t-23.5 -9.5t-24 9.5t-9 26.5v237h-439v-237q0 -17 -8.5 -26.5t-24.5 -9.5q-15 0 -23 9.5zM584 317v111q0 108 -57 167t-162 59q-107 0 -163.5 -58.5t-56.5 -167.5
v-111h439zM337 786v8q0 17 10 29.5t29 26.5q16 12 24 21.5t8 20.5q0 16 -10.5 25t-30.5 9q-37 0 -56 -27q-9 -14 -20 -14q-6 0 -12 3q-14 8 -14 20q0 4 4 12q13 22 40 37t61 15q47 0 70 -22t23 -56q0 -21 -10.5 -34t-29.5 -27q-16 -13 -22.5 -20.5t-6.5 -18.5v-8
q0 -27 -29 -27q-28 0 -28 27z" />
    <glyph glyph-name="uni1EA3" unicode="&#x1ea3;" horiz-adv-x="585" 
d="M103.5 33q-55.5 43 -55.5 120q0 76 57.5 120t158.5 44q61 0 109 -16.5t72 -45.5v69q0 59 -39 90t-115 31q-94 0 -165 -46q-14 -8 -24 -8q-8 0 -17 6q-10 8 -10 21t10 21q37 28 91.5 44.5t112.5 16.5q104 0 161 -47t57 -133v-294q0 -36 -30 -36q-14 0 -22.5 9.5t-8.5 25.5
v41q-31 -37 -79 -56.5t-110 -19.5q-98 0 -153.5 43zM395 76.5q51 31.5 51 82.5q0 49 -48 76.5t-134 27.5q-74 0 -113.5 -28.5t-39.5 -81.5t38.5 -80.5t112.5 -27.5q82 0 133 31.5zM274 566v8q0 17 10 29.5t29 26.5q16 12 24 21.5t8 20.5q0 16 -10.5 25t-30.5 9
q-37 0 -56 -27q-9 -14 -20 -14q-6 0 -12 3q-14 8 -14 20q0 4 4 12q13 22 40 37t61 15q47 0 70 -22t23 -56q0 -21 -10.5 -34t-29.5 -27q-16 -13 -22.5 -20.5t-6.5 -18.5v-8q0 -27 -29 -27q-28 0 -28 27z" />
    <glyph glyph-name="uni1EA4" unicode="&#x1ea4;" horiz-adv-x="729" 
d="M89 -0.5q-8 9.5 -8 26.5v399q0 134 75 209.5t209 75.5q133 0 208.5 -76t75.5 -209v-399q0 -17 -8.5 -26.5t-23.5 -9.5t-24 9.5t-9 26.5v237h-439v-237q0 -17 -8.5 -26.5t-24.5 -9.5q-15 0 -23 9.5zM584 317v111q0 108 -57 167t-162 59q-107 0 -163.5 -58.5t-56.5 -167.5
v-111h439zM451 943q0 8 4 15l61 102q12 20 28 20q7 0 17 -5q14 -7 14 -22q0 -12 -7 -19l-75 -98q-10 -13 -20 -13q-7 0 -12 4q-10 6 -10 16zM221 817q0 10 9 19l106 111q10 9 15.5 12.5t13.5 3.5t13.5 -3.5t14.5 -12.5l106 -110q9 -9 9 -20q0 -14 -13 -23q-8 -6 -15 -6
q-14 0 -29 18l-86 98l-86 -99q-15 -17 -28 -17q-9 0 -16 6q-14 11 -14 23z" />
    <glyph glyph-name="uni1EA5" unicode="&#x1ea5;" horiz-adv-x="585" 
d="M103.5 33q-55.5 43 -55.5 120q0 76 57.5 120t158.5 44q61 0 109 -16.5t72 -45.5v69q0 59 -39 90t-115 31q-94 0 -165 -46q-14 -8 -24 -8q-8 0 -17 6q-10 8 -10 21t10 21q37 28 91.5 44.5t112.5 16.5q104 0 161 -47t57 -133v-294q0 -36 -30 -36q-14 0 -22.5 9.5t-8.5 25.5
v41q-31 -37 -79 -56.5t-110 -19.5q-98 0 -153.5 43zM395 76.5q51 31.5 51 82.5q0 49 -48 76.5t-134 27.5q-74 0 -113.5 -28.5t-39.5 -81.5t38.5 -80.5t112.5 -27.5q82 0 133 31.5zM388 723q0 8 4 15l61 102q12 20 28 20q7 0 17 -5q14 -7 14 -22q0 -12 -7 -19l-75 -98
q-10 -13 -20 -13q-7 0 -12 4q-10 6 -10 16zM158 597q0 10 9 19l106 111q10 9 15.5 12.5t13.5 3.5t13.5 -3.5t14.5 -12.5l106 -110q9 -9 9 -20q0 -14 -13 -23q-8 -6 -15 -6q-14 0 -29 18l-86 98l-86 -99q-15 -17 -28 -17q-9 0 -16 6q-14 11 -14 23z" />
    <glyph glyph-name="uni1EA6" unicode="&#x1ea6;" horiz-adv-x="729" 
d="M89 -0.5q-8 9.5 -8 26.5v399q0 134 75 209.5t209 75.5q133 0 208.5 -76t75.5 -209v-399q0 -17 -8.5 -26.5t-23.5 -9.5t-24 9.5t-9 26.5v237h-439v-237q0 -17 -8.5 -26.5t-24.5 -9.5q-15 0 -23 9.5zM584 317v111q0 108 -57 167t-162 59q-107 0 -163.5 -58.5t-56.5 -167.5
v-111h439zM510 923q-11 0 -21 13l-75 98q-8 10 -8 19q0 14 16 23q7 4 15 4q18 0 29 -20l61 -102q5 -8 5 -15q0 -11 -11 -17q-6 -3 -11 -3zM221 817q0 10 9 19l106 111q10 9 15.5 12.5t13.5 3.5t14 -3.5t14 -12.5l106 -110q9 -9 9 -20q0 -14 -13 -23q-8 -6 -15 -6
q-14 0 -29 18l-86 98l-86 -99q-15 -17 -28 -17q-9 0 -16 6q-14 11 -14 23z" />
    <glyph glyph-name="uni1EA7" unicode="&#x1ea7;" horiz-adv-x="585" 
d="M103.5 33q-55.5 43 -55.5 120q0 76 57.5 120t158.5 44q61 0 109 -16.5t72 -45.5v69q0 59 -39 90t-115 31q-94 0 -165 -46q-14 -8 -24 -8q-8 0 -17 6q-10 8 -10 21t10 21q37 28 91.5 44.5t112.5 16.5q104 0 161 -47t57 -133v-294q0 -36 -30 -36q-14 0 -22.5 9.5t-8.5 25.5
v41q-31 -37 -79 -56.5t-110 -19.5q-98 0 -153.5 43zM395 76.5q51 31.5 51 82.5q0 49 -48 76.5t-134 27.5q-74 0 -113.5 -28.5t-39.5 -81.5t38.5 -80.5t112.5 -27.5q82 0 133 31.5zM447 703q-11 0 -21 13l-75 98q-8 10 -8 19q0 14 16 23q7 4 15 4q18 0 29 -20l61 -102
q5 -8 5 -15q0 -11 -11 -17q-6 -3 -11 -3zM158 597q0 10 9 19l106 111q10 9 15.5 12.5t13.5 3.5t14 -3.5t14 -12.5l106 -110q9 -9 9 -20q0 -14 -13 -23q-8 -6 -15 -6q-14 0 -29 18l-86 98l-86 -99q-15 -17 -28 -17q-9 0 -16 6q-14 11 -14 23z" />
    </font>
</defs>
</svg>
