<svg width="479" height="582" viewBox="0 0 479 582" fill="none" xmlns="http://www.w3.org/2000/svg">
<path d="M223.49 7.47486L160.556 76.1482C160.556 76.1482 177.169 77.8877 183.663 74.0957C209.663 53.8148 224.944 37.0839 243.675 32.7116C259.945 34.347 282.199 61.3832 298.441 73.626C306.153 79.4386 322.486 77.6214 322.486 77.6214L264.058 7.30886C264.058 7.30886 260.418 -0.0668536 243.813 0.107663C227.208 0.28218 223.49 7.47486 223.49 7.47486Z" fill="#FFCB66"/>
<path d="M60.0997 500.974L419.877 500.02C419.877 500.02 412.006 508.869 400.893 518.865C389.78 528.861 379.593 536.48 379.593 536.48L100.629 537.245C100.629 537.245 85.5808 526.826 77.232 518.865C68.8832 510.904 60.0997 500.974 60.0997 500.974Z" fill="#080808" fill-opacity="0.5"/>
<path d="M18.4266 436.227H460.161C460.161 436.227 458.772 439.918 451.364 454.402C443.955 468.885 438.862 475.582 438.862 475.582L40.1892 475.582C40.1892 475.582 34.6328 467.522 28.6134 456.617C22.5939 445.713 18.4266 436.227 18.4266 436.227Z" fill="#080808" fill-opacity="0.5"/>
<path d="M1.7574 367.48H477.294C477.294 367.48 477.294 375.287 474.516 388.464C471.737 401.64 469.885 407.464 469.885 407.464L8.70291 407.464C8.70291 407.464 6.38774 399.823 4.07257 388.464C1.7574 377.105 1.7574 367.48 1.7574 367.48Z" fill="#080808" fill-opacity="0.5"/>
<path d="M5.92462 297.138L473.115 297.138C473.115 297.138 475.883 305.028 476.82 318.121C477.757 331.215 478.209 337.121 478.209 337.121L0.831299 337.121C0.831299 337.121 1.07914 326.671 2.22042 318.038C3.36171 309.406 5.92462 297.138 5.92462 297.138Z" fill="#080808" fill-opacity="0.5"/>
<path d="M34.6327 225.721L443.955 225.721C443.955 225.721 449.049 233.528 455.068 245.796C461.087 258.063 463.866 265.704 463.866 265.704L15.1854 265.704C15.1854 265.704 18.4266 257.155 24.4461 243.978C30.4655 230.802 34.6327 225.721 34.6327 225.721Z" fill="#080808" fill-opacity="0.5"/>
<path d="M99.4577 156.659L379.593 156.659C379.593 156.659 387.465 160.831 401.819 174.462C416.173 188.092 423.497 196.725 423.497 196.725L55.4695 196.642C55.4695 196.642 64.7301 187.184 75.8429 175.37C86.9557 163.557 99.4577 156.659 99.4577 156.659Z" fill="#080808" fill-opacity="0.5"/>
<path d="M142.52 561.085L336.068 561.085C336.068 561.085 292.497 581.345 235.166 581.074C177.836 580.802 142.52 561.085 142.52 561.085Z" fill="#080808" fill-opacity="0.5"/>
<path d="M144.372 132.206H337.92C337.92 132.206 300.906 111.977 243.576 112.249C186.245 112.521 144.372 132.206 144.372 132.206Z" fill="#080808" fill-opacity="0.5"/>
</svg>
