<svg width="480" height="471" viewBox="0 0 480 471" fill="none" xmlns="http://www.w3.org/2000/svg">
<path d="M129.5 444.018L351.5 444.018C351.5 444.018 354 443.018 365 436.518C376 430.018 380.5 426.518 380.5 426.518L100.5 426.518C100.5 426.518 107 431.018 115 436.018C123.804 441.521 129.5 444.018 129.5 444.018Z" fill="#080808" fill-opacity="0.5"/>
<path d="M80.5 410.761L401 410.518C401 410.518 407 405.018 410 402.018C413 399.018 419 392.761 419 392.761L62 392.761C62 392.761 66.063 397.082 70.5 401.518C78.5 409.518 80.5 410.761 80.5 410.761Z" fill="#080808" fill-opacity="0.5"/>
<path d="M49 377.518L432 377.518C432 377.518 437.108 370.767 438 369.518C438.892 368.27 444.5 359.761 444.5 359.761L36.5 359.761C36.5 359.761 41 366.518 43 369.518C45.5 373.018 49 377.518 49 377.518Z" fill="#080808" fill-opacity="0.5"/>
<path d="M164.5 458.519L316.5 458.519C316.5 458.519 284.5 471.018 239.212 470.519C193.923 470.019 164.5 458.519 164.5 458.519Z" fill="#080808" fill-opacity="0.5"/>
<path d="M28.5 345.761L452.5 345.761C452.5 345.761 453 345.018 457 337.518C461 330.018 461.5 327.518 461.5 327.518L19.5 327.518C19.5 327.518 22.9423 335.574 24 337.518C25.5 340.276 28.5 345.761 28.5 345.761Z" fill="#080808" fill-opacity="0.5"/>
<path d="M13.5 312.518L467.272 312.76C467.272 312.76 468.232 311.018 470.5 303.518C472.768 296.018 472.768 294.76 472.768 294.76L8.29193 294.76C8.29193 294.76 9 299.018 11 305.018L13.5 312.518Z" fill="#080808" fill-opacity="0.5"/>
<path d="M4.50003 279.519L476.5 279.519C476.5 279.519 477.5 273.276 478 271.019C478.5 268.761 479 261.761 479 261.761L2.00003 261.761C2.00003 261.761 2.50003 265.019 3.00003 270.019C3.52982 275.316 4.50003 279.519 4.50003 279.519Z" fill="#080808" fill-opacity="0.5"/>
<path d="M351 28.2616H129C129 28.2616 126.5 29.2609 115.5 35.7609C104.5 42.2609 100 45.7609 100 45.7609H380C380 45.7609 373.5 41.2609 365.5 36.2609C356.696 30.7582 351 28.2616 351 28.2616Z" fill="#080808" fill-opacity="0.5"/>
<path d="M400 61.5184L79.5001 61.7609C79.5001 61.7609 73.5001 67.2609 70.5001 70.2609C67.5001 73.2609 61.5001 79.5184 61.5001 79.5184H418.5C418.5 79.5184 414.437 75.1976 410 70.7607C402 62.7609 400 61.5184 400 61.5184Z" fill="#080808" fill-opacity="0.5"/>
<path d="M431.5 94.7609H48.5001C48.5001 94.7609 43.3919 101.512 42.5001 102.761C41.6083 104.009 36.0001 112.518 36.0001 112.518H444C444 112.518 439.5 105.761 437.5 102.761C435 99.2609 431.5 94.7609 431.5 94.7609Z" fill="#080808" fill-opacity="0.5"/>
<path d="M316 13.76L164 13.7601C164 13.7601 196 1.26075 241.288 1.76052C286.577 2.2603 316 13.76 316 13.76Z" fill="#080808" fill-opacity="0.5"/>
<path d="M452 126.518H28.0001C28.0001 126.518 27.5 127.261 23.5001 134.761C19.5001 142.261 19.0001 144.761 19.0001 144.761H461C461 144.761 457.558 136.705 456.5 134.761C455 132.003 452 126.518 452 126.518Z" fill="#080808" fill-opacity="0.5"/>
<path d="M467 159.761L13.228 159.518C13.228 159.518 12.2681 161.261 10.0001 168.761C7.73212 176.261 7.73212 177.518 7.73212 177.518H472.208C472.208 177.518 471.5 173.261 469.5 167.261L467 159.761Z" fill="#080808" fill-opacity="0.5"/>
<path d="M476 192.761H4.00006C4.00006 192.761 3.00014 199.003 2.50006 201.261C1.99998 203.518 1.50006 210.518 1.50006 210.518H478.5C478.5 210.518 478 207.261 477.5 202.261C476.97 196.963 476 192.761 476 192.761Z" fill="#080808" fill-opacity="0.5"/>
<path d="M479.793 227.761H0.221967C0.221967 227.761 0 233.761 0 236.761C0 239.761 0.221967 245.761 0.221967 245.761H479.871C479.871 245.761 480 242.354 480 237.261C480 231.261 479.793 227.761 479.793 227.761Z" fill="#080808" fill-opacity="0.5"/>
<path d="M480 235.484C480 365.271 372.548 470.484 240 470.484C107.452 470.484 0 365.271 0 235.484C0 105.697 107.452 0.484253 240 0.484253C372.548 0.484253 480 105.697 480 235.484Z" fill="#DCD0B3" fill-opacity="0.2"/>
</svg>
