<svg width="492" height="470" viewBox="0 0 492 470" fill="none" xmlns="http://www.w3.org/2000/svg">
<path d="M66.0997 389.403L425.877 388.45C425.877 388.45 418.006 397.298 406.893 407.294C395.78 417.29 385.593 424.91 385.593 424.91L106.629 425.674C106.629 425.674 91.5808 415.256 83.232 407.294C74.8832 399.333 66.0997 389.403 66.0997 389.403Z" fill="#080808" fill-opacity="0.5"/>
<path d="M24.4266 324.656L466.161 324.656C466.161 324.656 464.772 328.348 457.364 342.831C449.955 357.314 444.862 364.012 444.862 364.012L46.1893 364.012C46.1893 364.012 40.6328 355.951 34.6134 345.047C28.5939 334.142 24.4266 324.656 24.4266 324.656Z" fill="#080808" fill-opacity="0.5"/>
<path d="M7.75745 255.91L483.294 255.91C483.294 255.91 483.294 263.717 480.516 276.893C477.737 290.069 475.885 295.893 475.885 295.893L14.703 295.893C14.703 295.893 12.3878 288.252 10.0726 276.893C7.75745 265.534 7.75745 255.91 7.75745 255.91Z" fill="#080808" fill-opacity="0.5"/>
<path d="M11.9247 185.567L479.115 185.567C479.115 185.567 481.883 193.457 482.82 206.551C483.757 219.644 484.209 225.55 484.209 225.55L6.83135 225.551C6.83135 225.551 7.07919 215.1 8.22047 206.468C9.36176 197.835 11.9247 185.567 11.9247 185.567Z" fill="#080808" fill-opacity="0.5"/>
<path d="M40.6327 114.15L449.955 114.15C449.955 114.15 455.049 121.957 461.068 134.225C467.087 146.493 469.866 154.134 469.866 154.134L21.1854 154.133C21.1854 154.133 24.4266 145.584 30.4461 132.408C36.4655 119.231 40.6327 114.15 40.6327 114.15Z" fill="#080808" fill-opacity="0.5"/>
<path d="M105.458 45.0882L385.593 45.0881C385.593 45.0881 393.465 49.2603 407.819 62.891C422.173 76.5218 429.497 85.1546 429.497 85.1546L61.4694 85.0716C61.4694 85.0716 70.7301 75.613 81.8429 63.7997C92.9557 51.9865 105.458 45.0882 105.458 45.0882Z" fill="#080808" fill-opacity="0.5"/>
<path d="M148.52 449.514L342.068 449.514C342.068 449.514 298.497 469.775 241.166 469.503C183.836 469.231 148.52 449.514 148.52 449.514Z" fill="#080808" fill-opacity="0.5"/>
<path d="M150.372 20.6357L343.92 20.6357C343.92 20.6357 306.906 0.406549 249.576 0.67825C192.245 0.949951 150.372 20.6357 150.372 20.6357Z" fill="#080808" fill-opacity="0.5"/>
</svg>
